G04 #@! TF.FileFunction,Profile,NP*
%FSLAX46Y46*%
G04 Gerber Fmt 4.6, Leading zero omitted, Abs format (unit mm)*
G04 Created by KiCad (PCBNEW 4.0.7-e2-6376~58~ubuntu16.04.1) date Sun Mar 18 12:17:23 2018*
%MOMM*%
%LPD*%
G01*
G04 APERTURE LIST*
%ADD10C,0.100000*%
%ADD11C,0.150000*%
G04 APERTURE END LIST*
D10*
X107156250Y-159543832D02*
X107156250Y-64293750D01*
X107156250Y-64293750D02*
X221456250Y-64293750D01*
X221456250Y-159543832D02*
X107156250Y-159543832D01*
X221456250Y-64293750D02*
X221456250Y-159543832D01*
D11*
X204931250Y-92618750D02*
X204931250Y-85868750D01*
X204931250Y-85868750D02*
X210931250Y-85868750D01*
X205931250Y-91618750D02*
X205931250Y-86868750D01*
X204931250Y-92618750D02*
X205431250Y-92618750D01*
X210431250Y-86868750D02*
X205931250Y-86868750D01*
X210931250Y-86368750D02*
X210431250Y-86868750D01*
X210931250Y-85868750D02*
X210931250Y-86368750D01*
X205431250Y-92618750D02*
X205931250Y-91618750D01*
X218431250Y-92618750D02*
X217931250Y-91618750D01*
X212931250Y-85868750D02*
X212931250Y-86368750D01*
X212931250Y-86368750D02*
X213431250Y-86868750D01*
X213431250Y-86868750D02*
X217931250Y-86868750D01*
X218931250Y-92618750D02*
X218431250Y-92618750D01*
X217931250Y-91618750D02*
X217931250Y-86868750D01*
X218931250Y-85868750D02*
X212931250Y-85868750D01*
X218931250Y-92618750D02*
X218931250Y-85868750D01*
X204931250Y-93118750D02*
X204931250Y-99868750D01*
X204931250Y-99868750D02*
X210931250Y-99868750D01*
X205931250Y-94118750D02*
X205931250Y-98868750D01*
X204931250Y-93118750D02*
X205431250Y-93118750D01*
X210431250Y-98868750D02*
X205931250Y-98868750D01*
X210931250Y-99368750D02*
X210431250Y-98868750D01*
X210931250Y-99868750D02*
X210931250Y-99368750D01*
X205431250Y-93118750D02*
X205931250Y-94118750D01*
X218431250Y-93118750D02*
X217931250Y-94118750D01*
X212931250Y-99868750D02*
X212931250Y-99368750D01*
X212931250Y-99368750D02*
X213431250Y-98868750D01*
X213431250Y-98868750D02*
X217931250Y-98868750D01*
X218931250Y-93118750D02*
X218431250Y-93118750D01*
X217931250Y-94118750D02*
X217931250Y-98868750D01*
X218931250Y-99868750D02*
X212931250Y-99868750D01*
X218931250Y-93118750D02*
X218931250Y-99868750D01*
X147781250Y-130718750D02*
X147781250Y-123968750D01*
X147781250Y-123968750D02*
X153781250Y-123968750D01*
X148781250Y-129718750D02*
X148781250Y-124968750D01*
X147781250Y-130718750D02*
X148281250Y-130718750D01*
X153281250Y-124968750D02*
X148781250Y-124968750D01*
X153781250Y-124468750D02*
X153281250Y-124968750D01*
X153781250Y-123968750D02*
X153781250Y-124468750D01*
X148281250Y-130718750D02*
X148781250Y-129718750D01*
X161281250Y-130718750D02*
X160781250Y-129718750D01*
X155781250Y-123968750D02*
X155781250Y-124468750D01*
X155781250Y-124468750D02*
X156281250Y-124968750D01*
X156281250Y-124968750D02*
X160781250Y-124968750D01*
X161781250Y-130718750D02*
X161281250Y-130718750D01*
X160781250Y-129718750D02*
X160781250Y-124968750D01*
X161781250Y-123968750D02*
X155781250Y-123968750D01*
X161781250Y-130718750D02*
X161781250Y-123968750D01*
X147781250Y-131218750D02*
X147781250Y-137968750D01*
X147781250Y-137968750D02*
X153781250Y-137968750D01*
X148781250Y-132218750D02*
X148781250Y-136968750D01*
X147781250Y-131218750D02*
X148281250Y-131218750D01*
X153281250Y-136968750D02*
X148781250Y-136968750D01*
X153781250Y-137468750D02*
X153281250Y-136968750D01*
X153781250Y-137968750D02*
X153781250Y-137468750D01*
X148281250Y-131218750D02*
X148781250Y-132218750D01*
X161281250Y-131218750D02*
X160781250Y-132218750D01*
X155781250Y-137968750D02*
X155781250Y-137468750D01*
X155781250Y-137468750D02*
X156281250Y-136968750D01*
X156281250Y-136968750D02*
X160781250Y-136968750D01*
X161781250Y-131218750D02*
X161281250Y-131218750D01*
X160781250Y-132218750D02*
X160781250Y-136968750D01*
X161781250Y-137968750D02*
X155781250Y-137968750D01*
X161781250Y-131218750D02*
X161781250Y-137968750D01*
X204931250Y-130718750D02*
X204931250Y-123968750D01*
X204931250Y-123968750D02*
X210931250Y-123968750D01*
X205931250Y-129718750D02*
X205931250Y-124968750D01*
X204931250Y-130718750D02*
X205431250Y-130718750D01*
X210431250Y-124968750D02*
X205931250Y-124968750D01*
X210931250Y-124468750D02*
X210431250Y-124968750D01*
X210931250Y-123968750D02*
X210931250Y-124468750D01*
X205431250Y-130718750D02*
X205931250Y-129718750D01*
X218431250Y-130718750D02*
X217931250Y-129718750D01*
X212931250Y-123968750D02*
X212931250Y-124468750D01*
X212931250Y-124468750D02*
X213431250Y-124968750D01*
X213431250Y-124968750D02*
X217931250Y-124968750D01*
X218931250Y-130718750D02*
X218431250Y-130718750D01*
X217931250Y-129718750D02*
X217931250Y-124968750D01*
X218931250Y-123968750D02*
X212931250Y-123968750D01*
X218931250Y-130718750D02*
X218931250Y-123968750D01*
X204931250Y-131218750D02*
X204931250Y-137968750D01*
X204931250Y-137968750D02*
X210931250Y-137968750D01*
X205931250Y-132218750D02*
X205931250Y-136968750D01*
X204931250Y-131218750D02*
X205431250Y-131218750D01*
X210431250Y-136968750D02*
X205931250Y-136968750D01*
X210931250Y-137468750D02*
X210431250Y-136968750D01*
X210931250Y-137968750D02*
X210931250Y-137468750D01*
X205431250Y-131218750D02*
X205931250Y-132218750D01*
X218431250Y-131218750D02*
X217931250Y-132218750D01*
X212931250Y-137968750D02*
X212931250Y-137468750D01*
X212931250Y-137468750D02*
X213431250Y-136968750D01*
X213431250Y-136968750D02*
X217931250Y-136968750D01*
X218931250Y-131218750D02*
X218431250Y-131218750D01*
X217931250Y-132218750D02*
X217931250Y-136968750D01*
X218931250Y-137968750D02*
X212931250Y-137968750D01*
X218931250Y-131218750D02*
X218931250Y-137968750D01*
X161781250Y-74068750D02*
X161781250Y-80818750D01*
X161781250Y-80818750D02*
X155781250Y-80818750D01*
X160781250Y-75068750D02*
X160781250Y-79818750D01*
X161781250Y-74068750D02*
X161281250Y-74068750D01*
X156281250Y-79818750D02*
X160781250Y-79818750D01*
X155781250Y-80318750D02*
X156281250Y-79818750D01*
X155781250Y-80818750D02*
X155781250Y-80318750D01*
X161281250Y-74068750D02*
X160781250Y-75068750D01*
X148281250Y-74068750D02*
X148781250Y-75068750D01*
X153781250Y-80818750D02*
X153781250Y-80318750D01*
X153781250Y-80318750D02*
X153281250Y-79818750D01*
X153281250Y-79818750D02*
X148781250Y-79818750D01*
X147781250Y-74068750D02*
X148281250Y-74068750D01*
X148781250Y-75068750D02*
X148781250Y-79818750D01*
X147781250Y-80818750D02*
X153781250Y-80818750D01*
X147781250Y-74068750D02*
X147781250Y-80818750D01*
X161781250Y-73568750D02*
X161781250Y-66818750D01*
X161781250Y-66818750D02*
X155781250Y-66818750D01*
X160781250Y-72568750D02*
X160781250Y-67818750D01*
X161781250Y-73568750D02*
X161281250Y-73568750D01*
X156281250Y-67818750D02*
X160781250Y-67818750D01*
X155781250Y-67318750D02*
X156281250Y-67818750D01*
X155781250Y-66818750D02*
X155781250Y-67318750D01*
X161281250Y-73568750D02*
X160781250Y-72568750D01*
X148281250Y-73568750D02*
X148781250Y-72568750D01*
X153781250Y-66818750D02*
X153781250Y-67318750D01*
X153781250Y-67318750D02*
X153281250Y-67818750D01*
X153281250Y-67818750D02*
X148781250Y-67818750D01*
X147781250Y-73568750D02*
X148281250Y-73568750D01*
X148781250Y-72568750D02*
X148781250Y-67818750D01*
X147781250Y-66818750D02*
X153781250Y-66818750D01*
X147781250Y-73568750D02*
X147781250Y-66818750D01*
X166831250Y-73568750D02*
X166831250Y-66818750D01*
X166831250Y-66818750D02*
X172831250Y-66818750D01*
X167831250Y-72568750D02*
X167831250Y-67818750D01*
X166831250Y-73568750D02*
X167331250Y-73568750D01*
X172331250Y-67818750D02*
X167831250Y-67818750D01*
X172831250Y-67318750D02*
X172331250Y-67818750D01*
X172831250Y-66818750D02*
X172831250Y-67318750D01*
X167331250Y-73568750D02*
X167831250Y-72568750D01*
X180331250Y-73568750D02*
X179831250Y-72568750D01*
X174831250Y-66818750D02*
X174831250Y-67318750D01*
X174831250Y-67318750D02*
X175331250Y-67818750D01*
X175331250Y-67818750D02*
X179831250Y-67818750D01*
X180831250Y-73568750D02*
X180331250Y-73568750D01*
X179831250Y-72568750D02*
X179831250Y-67818750D01*
X180831250Y-66818750D02*
X174831250Y-66818750D01*
X180831250Y-73568750D02*
X180831250Y-66818750D01*
X166831250Y-74068750D02*
X166831250Y-80818750D01*
X166831250Y-80818750D02*
X172831250Y-80818750D01*
X167831250Y-75068750D02*
X167831250Y-79818750D01*
X166831250Y-74068750D02*
X167331250Y-74068750D01*
X172331250Y-79818750D02*
X167831250Y-79818750D01*
X172831250Y-80318750D02*
X172331250Y-79818750D01*
X172831250Y-80818750D02*
X172831250Y-80318750D01*
X167331250Y-74068750D02*
X167831250Y-75068750D01*
X180331250Y-74068750D02*
X179831250Y-75068750D01*
X174831250Y-80818750D02*
X174831250Y-80318750D01*
X174831250Y-80318750D02*
X175331250Y-79818750D01*
X175331250Y-79818750D02*
X179831250Y-79818750D01*
X180831250Y-74068750D02*
X180331250Y-74068750D01*
X179831250Y-75068750D02*
X179831250Y-79818750D01*
X180831250Y-80818750D02*
X174831250Y-80818750D01*
X180831250Y-74068750D02*
X180831250Y-80818750D01*
X109681250Y-92618750D02*
X109681250Y-85868750D01*
X109681250Y-85868750D02*
X115681250Y-85868750D01*
X110681250Y-91618750D02*
X110681250Y-86868750D01*
X109681250Y-92618750D02*
X110181250Y-92618750D01*
X115181250Y-86868750D02*
X110681250Y-86868750D01*
X115681250Y-86368750D02*
X115181250Y-86868750D01*
X115681250Y-85868750D02*
X115681250Y-86368750D01*
X110181250Y-92618750D02*
X110681250Y-91618750D01*
X123181250Y-92618750D02*
X122681250Y-91618750D01*
X117681250Y-85868750D02*
X117681250Y-86368750D01*
X117681250Y-86368750D02*
X118181250Y-86868750D01*
X118181250Y-86868750D02*
X122681250Y-86868750D01*
X123681250Y-92618750D02*
X123181250Y-92618750D01*
X122681250Y-91618750D02*
X122681250Y-86868750D01*
X123681250Y-85868750D02*
X117681250Y-85868750D01*
X123681250Y-92618750D02*
X123681250Y-85868750D01*
X109681250Y-93118750D02*
X109681250Y-99868750D01*
X109681250Y-99868750D02*
X115681250Y-99868750D01*
X110681250Y-94118750D02*
X110681250Y-98868750D01*
X109681250Y-93118750D02*
X110181250Y-93118750D01*
X115181250Y-98868750D02*
X110681250Y-98868750D01*
X115681250Y-99368750D02*
X115181250Y-98868750D01*
X115681250Y-99868750D02*
X115681250Y-99368750D01*
X110181250Y-93118750D02*
X110681250Y-94118750D01*
X123181250Y-93118750D02*
X122681250Y-94118750D01*
X117681250Y-99868750D02*
X117681250Y-99368750D01*
X117681250Y-99368750D02*
X118181250Y-98868750D01*
X118181250Y-98868750D02*
X122681250Y-98868750D01*
X123681250Y-93118750D02*
X123181250Y-93118750D01*
X122681250Y-94118750D02*
X122681250Y-98868750D01*
X123681250Y-99868750D02*
X117681250Y-99868750D01*
X123681250Y-93118750D02*
X123681250Y-99868750D01*
X128731250Y-92618750D02*
X128731250Y-85868750D01*
X128731250Y-85868750D02*
X134731250Y-85868750D01*
X129731250Y-91618750D02*
X129731250Y-86868750D01*
X128731250Y-92618750D02*
X129231250Y-92618750D01*
X134231250Y-86868750D02*
X129731250Y-86868750D01*
X134731250Y-86368750D02*
X134231250Y-86868750D01*
X134731250Y-85868750D02*
X134731250Y-86368750D01*
X129231250Y-92618750D02*
X129731250Y-91618750D01*
X142231250Y-92618750D02*
X141731250Y-91618750D01*
X136731250Y-85868750D02*
X136731250Y-86368750D01*
X136731250Y-86368750D02*
X137231250Y-86868750D01*
X137231250Y-86868750D02*
X141731250Y-86868750D01*
X142731250Y-92618750D02*
X142231250Y-92618750D01*
X141731250Y-91618750D02*
X141731250Y-86868750D01*
X142731250Y-85868750D02*
X136731250Y-85868750D01*
X142731250Y-92618750D02*
X142731250Y-85868750D01*
X128731250Y-93118750D02*
X128731250Y-99868750D01*
X128731250Y-99868750D02*
X134731250Y-99868750D01*
X129731250Y-94118750D02*
X129731250Y-98868750D01*
X128731250Y-93118750D02*
X129231250Y-93118750D01*
X134231250Y-98868750D02*
X129731250Y-98868750D01*
X134731250Y-99368750D02*
X134231250Y-98868750D01*
X134731250Y-99868750D02*
X134731250Y-99368750D01*
X129231250Y-93118750D02*
X129731250Y-94118750D01*
X142231250Y-93118750D02*
X141731250Y-94118750D01*
X136731250Y-99868750D02*
X136731250Y-99368750D01*
X136731250Y-99368750D02*
X137231250Y-98868750D01*
X137231250Y-98868750D02*
X141731250Y-98868750D01*
X142731250Y-93118750D02*
X142231250Y-93118750D01*
X141731250Y-94118750D02*
X141731250Y-98868750D01*
X142731250Y-99868750D02*
X136731250Y-99868750D01*
X142731250Y-93118750D02*
X142731250Y-99868750D01*
X147781250Y-92618750D02*
X147781250Y-85868750D01*
X147781250Y-85868750D02*
X153781250Y-85868750D01*
X148781250Y-91618750D02*
X148781250Y-86868750D01*
X147781250Y-92618750D02*
X148281250Y-92618750D01*
X153281250Y-86868750D02*
X148781250Y-86868750D01*
X153781250Y-86368750D02*
X153281250Y-86868750D01*
X153781250Y-85868750D02*
X153781250Y-86368750D01*
X148281250Y-92618750D02*
X148781250Y-91618750D01*
X161281250Y-92618750D02*
X160781250Y-91618750D01*
X155781250Y-85868750D02*
X155781250Y-86368750D01*
X155781250Y-86368750D02*
X156281250Y-86868750D01*
X156281250Y-86868750D02*
X160781250Y-86868750D01*
X161781250Y-92618750D02*
X161281250Y-92618750D01*
X160781250Y-91618750D02*
X160781250Y-86868750D01*
X161781250Y-85868750D02*
X155781250Y-85868750D01*
X161781250Y-92618750D02*
X161781250Y-85868750D01*
X147781250Y-93118750D02*
X147781250Y-99868750D01*
X147781250Y-99868750D02*
X153781250Y-99868750D01*
X148781250Y-94118750D02*
X148781250Y-98868750D01*
X147781250Y-93118750D02*
X148281250Y-93118750D01*
X153281250Y-98868750D02*
X148781250Y-98868750D01*
X153781250Y-99368750D02*
X153281250Y-98868750D01*
X153781250Y-99868750D02*
X153781250Y-99368750D01*
X148281250Y-93118750D02*
X148781250Y-94118750D01*
X161281250Y-93118750D02*
X160781250Y-94118750D01*
X155781250Y-99868750D02*
X155781250Y-99368750D01*
X155781250Y-99368750D02*
X156281250Y-98868750D01*
X156281250Y-98868750D02*
X160781250Y-98868750D01*
X161781250Y-93118750D02*
X161281250Y-93118750D01*
X160781250Y-94118750D02*
X160781250Y-98868750D01*
X161781250Y-99868750D02*
X155781250Y-99868750D01*
X161781250Y-93118750D02*
X161781250Y-99868750D01*
X185881250Y-92618750D02*
X185881250Y-85868750D01*
X185881250Y-85868750D02*
X191881250Y-85868750D01*
X186881250Y-91618750D02*
X186881250Y-86868750D01*
X185881250Y-92618750D02*
X186381250Y-92618750D01*
X191381250Y-86868750D02*
X186881250Y-86868750D01*
X191881250Y-86368750D02*
X191381250Y-86868750D01*
X191881250Y-85868750D02*
X191881250Y-86368750D01*
X186381250Y-92618750D02*
X186881250Y-91618750D01*
X199381250Y-92618750D02*
X198881250Y-91618750D01*
X193881250Y-85868750D02*
X193881250Y-86368750D01*
X193881250Y-86368750D02*
X194381250Y-86868750D01*
X194381250Y-86868750D02*
X198881250Y-86868750D01*
X199881250Y-92618750D02*
X199381250Y-92618750D01*
X198881250Y-91618750D02*
X198881250Y-86868750D01*
X199881250Y-85868750D02*
X193881250Y-85868750D01*
X199881250Y-92618750D02*
X199881250Y-85868750D01*
X185881250Y-93118750D02*
X185881250Y-99868750D01*
X185881250Y-99868750D02*
X191881250Y-99868750D01*
X186881250Y-94118750D02*
X186881250Y-98868750D01*
X185881250Y-93118750D02*
X186381250Y-93118750D01*
X191381250Y-98868750D02*
X186881250Y-98868750D01*
X191881250Y-99368750D02*
X191381250Y-98868750D01*
X191881250Y-99868750D02*
X191881250Y-99368750D01*
X186381250Y-93118750D02*
X186881250Y-94118750D01*
X199381250Y-93118750D02*
X198881250Y-94118750D01*
X193881250Y-99868750D02*
X193881250Y-99368750D01*
X193881250Y-99368750D02*
X194381250Y-98868750D01*
X194381250Y-98868750D02*
X198881250Y-98868750D01*
X199881250Y-93118750D02*
X199381250Y-93118750D01*
X198881250Y-94118750D02*
X198881250Y-98868750D01*
X199881250Y-99868750D02*
X193881250Y-99868750D01*
X199881250Y-93118750D02*
X199881250Y-99868750D01*
X109681250Y-111668750D02*
X109681250Y-104918750D01*
X109681250Y-104918750D02*
X115681250Y-104918750D01*
X110681250Y-110668750D02*
X110681250Y-105918750D01*
X109681250Y-111668750D02*
X110181250Y-111668750D01*
X115181250Y-105918750D02*
X110681250Y-105918750D01*
X115681250Y-105418750D02*
X115181250Y-105918750D01*
X115681250Y-104918750D02*
X115681250Y-105418750D01*
X110181250Y-111668750D02*
X110681250Y-110668750D01*
X123181250Y-111668750D02*
X122681250Y-110668750D01*
X117681250Y-104918750D02*
X117681250Y-105418750D01*
X117681250Y-105418750D02*
X118181250Y-105918750D01*
X118181250Y-105918750D02*
X122681250Y-105918750D01*
X123681250Y-111668750D02*
X123181250Y-111668750D01*
X122681250Y-110668750D02*
X122681250Y-105918750D01*
X123681250Y-104918750D02*
X117681250Y-104918750D01*
X123681250Y-111668750D02*
X123681250Y-104918750D01*
X109681250Y-112168750D02*
X109681250Y-118918750D01*
X109681250Y-118918750D02*
X115681250Y-118918750D01*
X110681250Y-113168750D02*
X110681250Y-117918750D01*
X109681250Y-112168750D02*
X110181250Y-112168750D01*
X115181250Y-117918750D02*
X110681250Y-117918750D01*
X115681250Y-118418750D02*
X115181250Y-117918750D01*
X115681250Y-118918750D02*
X115681250Y-118418750D01*
X110181250Y-112168750D02*
X110681250Y-113168750D01*
X123181250Y-112168750D02*
X122681250Y-113168750D01*
X117681250Y-118918750D02*
X117681250Y-118418750D01*
X117681250Y-118418750D02*
X118181250Y-117918750D01*
X118181250Y-117918750D02*
X122681250Y-117918750D01*
X123681250Y-112168750D02*
X123181250Y-112168750D01*
X122681250Y-113168750D02*
X122681250Y-117918750D01*
X123681250Y-118918750D02*
X117681250Y-118918750D01*
X123681250Y-112168750D02*
X123681250Y-118918750D01*
X128731250Y-111668750D02*
X128731250Y-104918750D01*
X128731250Y-104918750D02*
X134731250Y-104918750D01*
X129731250Y-110668750D02*
X129731250Y-105918750D01*
X128731250Y-111668750D02*
X129231250Y-111668750D01*
X134231250Y-105918750D02*
X129731250Y-105918750D01*
X134731250Y-105418750D02*
X134231250Y-105918750D01*
X134731250Y-104918750D02*
X134731250Y-105418750D01*
X129231250Y-111668750D02*
X129731250Y-110668750D01*
X142231250Y-111668750D02*
X141731250Y-110668750D01*
X136731250Y-104918750D02*
X136731250Y-105418750D01*
X136731250Y-105418750D02*
X137231250Y-105918750D01*
X137231250Y-105918750D02*
X141731250Y-105918750D01*
X142731250Y-111668750D02*
X142231250Y-111668750D01*
X141731250Y-110668750D02*
X141731250Y-105918750D01*
X142731250Y-104918750D02*
X136731250Y-104918750D01*
X142731250Y-111668750D02*
X142731250Y-104918750D01*
X128731250Y-112168750D02*
X128731250Y-118918750D01*
X128731250Y-118918750D02*
X134731250Y-118918750D01*
X129731250Y-113168750D02*
X129731250Y-117918750D01*
X128731250Y-112168750D02*
X129231250Y-112168750D01*
X134231250Y-117918750D02*
X129731250Y-117918750D01*
X134731250Y-118418750D02*
X134231250Y-117918750D01*
X134731250Y-118918750D02*
X134731250Y-118418750D01*
X129231250Y-112168750D02*
X129731250Y-113168750D01*
X142231250Y-112168750D02*
X141731250Y-113168750D01*
X136731250Y-118918750D02*
X136731250Y-118418750D01*
X136731250Y-118418750D02*
X137231250Y-117918750D01*
X137231250Y-117918750D02*
X141731250Y-117918750D01*
X142731250Y-112168750D02*
X142231250Y-112168750D01*
X141731250Y-113168750D02*
X141731250Y-117918750D01*
X142731250Y-118918750D02*
X136731250Y-118918750D01*
X142731250Y-112168750D02*
X142731250Y-118918750D01*
X147781250Y-111668750D02*
X147781250Y-104918750D01*
X147781250Y-104918750D02*
X153781250Y-104918750D01*
X148781250Y-110668750D02*
X148781250Y-105918750D01*
X147781250Y-111668750D02*
X148281250Y-111668750D01*
X153281250Y-105918750D02*
X148781250Y-105918750D01*
X153781250Y-105418750D02*
X153281250Y-105918750D01*
X153781250Y-104918750D02*
X153781250Y-105418750D01*
X148281250Y-111668750D02*
X148781250Y-110668750D01*
X161281250Y-111668750D02*
X160781250Y-110668750D01*
X155781250Y-104918750D02*
X155781250Y-105418750D01*
X155781250Y-105418750D02*
X156281250Y-105918750D01*
X156281250Y-105918750D02*
X160781250Y-105918750D01*
X161781250Y-111668750D02*
X161281250Y-111668750D01*
X160781250Y-110668750D02*
X160781250Y-105918750D01*
X161781250Y-104918750D02*
X155781250Y-104918750D01*
X161781250Y-111668750D02*
X161781250Y-104918750D01*
X147781250Y-112168750D02*
X147781250Y-118918750D01*
X147781250Y-118918750D02*
X153781250Y-118918750D01*
X148781250Y-113168750D02*
X148781250Y-117918750D01*
X147781250Y-112168750D02*
X148281250Y-112168750D01*
X153281250Y-117918750D02*
X148781250Y-117918750D01*
X153781250Y-118418750D02*
X153281250Y-117918750D01*
X153781250Y-118918750D02*
X153781250Y-118418750D01*
X148281250Y-112168750D02*
X148781250Y-113168750D01*
X161281250Y-112168750D02*
X160781250Y-113168750D01*
X155781250Y-118918750D02*
X155781250Y-118418750D01*
X155781250Y-118418750D02*
X156281250Y-117918750D01*
X156281250Y-117918750D02*
X160781250Y-117918750D01*
X161781250Y-112168750D02*
X161281250Y-112168750D01*
X160781250Y-113168750D02*
X160781250Y-117918750D01*
X161781250Y-118918750D02*
X155781250Y-118918750D01*
X161781250Y-112168750D02*
X161781250Y-118918750D01*
X185881250Y-111668750D02*
X185881250Y-104918750D01*
X185881250Y-104918750D02*
X191881250Y-104918750D01*
X186881250Y-110668750D02*
X186881250Y-105918750D01*
X185881250Y-111668750D02*
X186381250Y-111668750D01*
X191381250Y-105918750D02*
X186881250Y-105918750D01*
X191881250Y-105418750D02*
X191381250Y-105918750D01*
X191881250Y-104918750D02*
X191881250Y-105418750D01*
X186381250Y-111668750D02*
X186881250Y-110668750D01*
X199381250Y-111668750D02*
X198881250Y-110668750D01*
X193881250Y-104918750D02*
X193881250Y-105418750D01*
X193881250Y-105418750D02*
X194381250Y-105918750D01*
X194381250Y-105918750D02*
X198881250Y-105918750D01*
X199881250Y-111668750D02*
X199381250Y-111668750D01*
X198881250Y-110668750D02*
X198881250Y-105918750D01*
X199881250Y-104918750D02*
X193881250Y-104918750D01*
X199881250Y-111668750D02*
X199881250Y-104918750D01*
X185881250Y-112168750D02*
X185881250Y-118918750D01*
X185881250Y-118918750D02*
X191881250Y-118918750D01*
X186881250Y-113168750D02*
X186881250Y-117918750D01*
X185881250Y-112168750D02*
X186381250Y-112168750D01*
X191381250Y-117918750D02*
X186881250Y-117918750D01*
X191881250Y-118418750D02*
X191381250Y-117918750D01*
X191881250Y-118918750D02*
X191881250Y-118418750D01*
X186381250Y-112168750D02*
X186881250Y-113168750D01*
X199381250Y-112168750D02*
X198881250Y-113168750D01*
X193881250Y-118918750D02*
X193881250Y-118418750D01*
X193881250Y-118418750D02*
X194381250Y-117918750D01*
X194381250Y-117918750D02*
X198881250Y-117918750D01*
X199881250Y-112168750D02*
X199381250Y-112168750D01*
X198881250Y-113168750D02*
X198881250Y-117918750D01*
X199881250Y-118918750D02*
X193881250Y-118918750D01*
X199881250Y-112168750D02*
X199881250Y-118918750D01*
X204931250Y-111668750D02*
X204931250Y-104918750D01*
X204931250Y-104918750D02*
X210931250Y-104918750D01*
X205931250Y-110668750D02*
X205931250Y-105918750D01*
X204931250Y-111668750D02*
X205431250Y-111668750D01*
X210431250Y-105918750D02*
X205931250Y-105918750D01*
X210931250Y-105418750D02*
X210431250Y-105918750D01*
X210931250Y-104918750D02*
X210931250Y-105418750D01*
X205431250Y-111668750D02*
X205931250Y-110668750D01*
X218431250Y-111668750D02*
X217931250Y-110668750D01*
X212931250Y-104918750D02*
X212931250Y-105418750D01*
X212931250Y-105418750D02*
X213431250Y-105918750D01*
X213431250Y-105918750D02*
X217931250Y-105918750D01*
X218931250Y-111668750D02*
X218431250Y-111668750D01*
X217931250Y-110668750D02*
X217931250Y-105918750D01*
X218931250Y-104918750D02*
X212931250Y-104918750D01*
X218931250Y-111668750D02*
X218931250Y-104918750D01*
X204931250Y-112168750D02*
X204931250Y-118918750D01*
X204931250Y-118918750D02*
X210931250Y-118918750D01*
X205931250Y-113168750D02*
X205931250Y-117918750D01*
X204931250Y-112168750D02*
X205431250Y-112168750D01*
X210431250Y-117918750D02*
X205931250Y-117918750D01*
X210931250Y-118418750D02*
X210431250Y-117918750D01*
X210931250Y-118918750D02*
X210931250Y-118418750D01*
X205431250Y-112168750D02*
X205931250Y-113168750D01*
X218431250Y-112168750D02*
X217931250Y-113168750D01*
X212931250Y-118918750D02*
X212931250Y-118418750D01*
X212931250Y-118418750D02*
X213431250Y-117918750D01*
X213431250Y-117918750D02*
X217931250Y-117918750D01*
X218931250Y-112168750D02*
X218431250Y-112168750D01*
X217931250Y-113168750D02*
X217931250Y-117918750D01*
X218931250Y-118918750D02*
X212931250Y-118918750D01*
X218931250Y-112168750D02*
X218931250Y-118918750D01*
X185881250Y-130718750D02*
X185881250Y-123968750D01*
X185881250Y-123968750D02*
X191881250Y-123968750D01*
X186881250Y-129718750D02*
X186881250Y-124968750D01*
X185881250Y-130718750D02*
X186381250Y-130718750D01*
X191381250Y-124968750D02*
X186881250Y-124968750D01*
X191881250Y-124468750D02*
X191381250Y-124968750D01*
X191881250Y-123968750D02*
X191881250Y-124468750D01*
X186381250Y-130718750D02*
X186881250Y-129718750D01*
X199381250Y-130718750D02*
X198881250Y-129718750D01*
X193881250Y-123968750D02*
X193881250Y-124468750D01*
X193881250Y-124468750D02*
X194381250Y-124968750D01*
X194381250Y-124968750D02*
X198881250Y-124968750D01*
X199881250Y-130718750D02*
X199381250Y-130718750D01*
X198881250Y-129718750D02*
X198881250Y-124968750D01*
X199881250Y-123968750D02*
X193881250Y-123968750D01*
X199881250Y-130718750D02*
X199881250Y-123968750D01*
X185881250Y-131218750D02*
X185881250Y-137968750D01*
X185881250Y-137968750D02*
X191881250Y-137968750D01*
X186881250Y-132218750D02*
X186881250Y-136968750D01*
X185881250Y-131218750D02*
X186381250Y-131218750D01*
X191381250Y-136968750D02*
X186881250Y-136968750D01*
X191881250Y-137468750D02*
X191381250Y-136968750D01*
X191881250Y-137968750D02*
X191881250Y-137468750D01*
X186381250Y-131218750D02*
X186881250Y-132218750D01*
X199381250Y-131218750D02*
X198881250Y-132218750D01*
X193881250Y-137968750D02*
X193881250Y-137468750D01*
X193881250Y-137468750D02*
X194381250Y-136968750D01*
X194381250Y-136968750D02*
X198881250Y-136968750D01*
X199881250Y-131218750D02*
X199381250Y-131218750D01*
X198881250Y-132218750D02*
X198881250Y-136968750D01*
X199881250Y-137968750D02*
X193881250Y-137968750D01*
X199881250Y-131218750D02*
X199881250Y-137968750D01*
X128731250Y-130718750D02*
X128731250Y-123968750D01*
X128731250Y-123968750D02*
X134731250Y-123968750D01*
X129731250Y-129718750D02*
X129731250Y-124968750D01*
X128731250Y-130718750D02*
X129231250Y-130718750D01*
X134231250Y-124968750D02*
X129731250Y-124968750D01*
X134731250Y-124468750D02*
X134231250Y-124968750D01*
X134731250Y-123968750D02*
X134731250Y-124468750D01*
X129231250Y-130718750D02*
X129731250Y-129718750D01*
X142231250Y-130718750D02*
X141731250Y-129718750D01*
X136731250Y-123968750D02*
X136731250Y-124468750D01*
X136731250Y-124468750D02*
X137231250Y-124968750D01*
X137231250Y-124968750D02*
X141731250Y-124968750D01*
X142731250Y-130718750D02*
X142231250Y-130718750D01*
X141731250Y-129718750D02*
X141731250Y-124968750D01*
X142731250Y-123968750D02*
X136731250Y-123968750D01*
X142731250Y-130718750D02*
X142731250Y-123968750D01*
X128731250Y-131218750D02*
X128731250Y-137968750D01*
X128731250Y-137968750D02*
X134731250Y-137968750D01*
X129731250Y-132218750D02*
X129731250Y-136968750D01*
X128731250Y-131218750D02*
X129231250Y-131218750D01*
X134231250Y-136968750D02*
X129731250Y-136968750D01*
X134731250Y-137468750D02*
X134231250Y-136968750D01*
X134731250Y-137968750D02*
X134731250Y-137468750D01*
X129231250Y-131218750D02*
X129731250Y-132218750D01*
X142231250Y-131218750D02*
X141731250Y-132218750D01*
X136731250Y-137968750D02*
X136731250Y-137468750D01*
X136731250Y-137468750D02*
X137231250Y-136968750D01*
X137231250Y-136968750D02*
X141731250Y-136968750D01*
X142731250Y-131218750D02*
X142231250Y-131218750D01*
X141731250Y-132218750D02*
X141731250Y-136968750D01*
X142731250Y-137968750D02*
X136731250Y-137968750D01*
X142731250Y-131218750D02*
X142731250Y-137968750D01*
X109681250Y-130718750D02*
X109681250Y-123968750D01*
X109681250Y-123968750D02*
X115681250Y-123968750D01*
X110681250Y-129718750D02*
X110681250Y-124968750D01*
X109681250Y-130718750D02*
X110181250Y-130718750D01*
X115181250Y-124968750D02*
X110681250Y-124968750D01*
X115681250Y-124468750D02*
X115181250Y-124968750D01*
X115681250Y-123968750D02*
X115681250Y-124468750D01*
X110181250Y-130718750D02*
X110681250Y-129718750D01*
X123181250Y-130718750D02*
X122681250Y-129718750D01*
X117681250Y-123968750D02*
X117681250Y-124468750D01*
X117681250Y-124468750D02*
X118181250Y-124968750D01*
X118181250Y-124968750D02*
X122681250Y-124968750D01*
X123681250Y-130718750D02*
X123181250Y-130718750D01*
X122681250Y-129718750D02*
X122681250Y-124968750D01*
X123681250Y-123968750D02*
X117681250Y-123968750D01*
X123681250Y-130718750D02*
X123681250Y-123968750D01*
X109681250Y-131218750D02*
X109681250Y-137968750D01*
X109681250Y-137968750D02*
X115681250Y-137968750D01*
X110681250Y-132218750D02*
X110681250Y-136968750D01*
X109681250Y-131218750D02*
X110181250Y-131218750D01*
X115181250Y-136968750D02*
X110681250Y-136968750D01*
X115681250Y-137468750D02*
X115181250Y-136968750D01*
X115681250Y-137968750D02*
X115681250Y-137468750D01*
X110181250Y-131218750D02*
X110681250Y-132218750D01*
X123181250Y-131218750D02*
X122681250Y-132218750D01*
X117681250Y-137968750D02*
X117681250Y-137468750D01*
X117681250Y-137468750D02*
X118181250Y-136968750D01*
X118181250Y-136968750D02*
X122681250Y-136968750D01*
X123681250Y-131218750D02*
X123181250Y-131218750D01*
X122681250Y-132218750D02*
X122681250Y-136968750D01*
X123681250Y-137968750D02*
X117681250Y-137968750D01*
X123681250Y-131218750D02*
X123681250Y-137968750D01*
X166831250Y-92618750D02*
X166831250Y-85868750D01*
X166831250Y-85868750D02*
X172831250Y-85868750D01*
X167831250Y-91618750D02*
X167831250Y-86868750D01*
X166831250Y-92618750D02*
X167331250Y-92618750D01*
X172331250Y-86868750D02*
X167831250Y-86868750D01*
X172831250Y-86368750D02*
X172331250Y-86868750D01*
X172831250Y-85868750D02*
X172831250Y-86368750D01*
X167331250Y-92618750D02*
X167831250Y-91618750D01*
X180331250Y-92618750D02*
X179831250Y-91618750D01*
X174831250Y-85868750D02*
X174831250Y-86368750D01*
X174831250Y-86368750D02*
X175331250Y-86868750D01*
X175331250Y-86868750D02*
X179831250Y-86868750D01*
X180831250Y-92618750D02*
X180331250Y-92618750D01*
X179831250Y-91618750D02*
X179831250Y-86868750D01*
X180831250Y-85868750D02*
X174831250Y-85868750D01*
X180831250Y-92618750D02*
X180831250Y-85868750D01*
X166831250Y-93118750D02*
X166831250Y-99868750D01*
X166831250Y-99868750D02*
X172831250Y-99868750D01*
X167831250Y-94118750D02*
X167831250Y-98868750D01*
X166831250Y-93118750D02*
X167331250Y-93118750D01*
X172331250Y-98868750D02*
X167831250Y-98868750D01*
X172831250Y-99368750D02*
X172331250Y-98868750D01*
X172831250Y-99868750D02*
X172831250Y-99368750D01*
X167331250Y-93118750D02*
X167831250Y-94118750D01*
X180331250Y-93118750D02*
X179831250Y-94118750D01*
X174831250Y-99868750D02*
X174831250Y-99368750D01*
X174831250Y-99368750D02*
X175331250Y-98868750D01*
X175331250Y-98868750D02*
X179831250Y-98868750D01*
X180831250Y-93118750D02*
X180331250Y-93118750D01*
X179831250Y-94118750D02*
X179831250Y-98868750D01*
X180831250Y-99868750D02*
X174831250Y-99868750D01*
X180831250Y-93118750D02*
X180831250Y-99868750D01*
X166831250Y-111668750D02*
X166831250Y-104918750D01*
X166831250Y-104918750D02*
X172831250Y-104918750D01*
X167831250Y-110668750D02*
X167831250Y-105918750D01*
X166831250Y-111668750D02*
X167331250Y-111668750D01*
X172331250Y-105918750D02*
X167831250Y-105918750D01*
X172831250Y-105418750D02*
X172331250Y-105918750D01*
X172831250Y-104918750D02*
X172831250Y-105418750D01*
X167331250Y-111668750D02*
X167831250Y-110668750D01*
X180331250Y-111668750D02*
X179831250Y-110668750D01*
X174831250Y-104918750D02*
X174831250Y-105418750D01*
X174831250Y-105418750D02*
X175331250Y-105918750D01*
X175331250Y-105918750D02*
X179831250Y-105918750D01*
X180831250Y-111668750D02*
X180331250Y-111668750D01*
X179831250Y-110668750D02*
X179831250Y-105918750D01*
X180831250Y-104918750D02*
X174831250Y-104918750D01*
X180831250Y-111668750D02*
X180831250Y-104918750D01*
X166831250Y-112168750D02*
X166831250Y-118918750D01*
X166831250Y-118918750D02*
X172831250Y-118918750D01*
X167831250Y-113168750D02*
X167831250Y-117918750D01*
X166831250Y-112168750D02*
X167331250Y-112168750D01*
X172331250Y-117918750D02*
X167831250Y-117918750D01*
X172831250Y-118418750D02*
X172331250Y-117918750D01*
X172831250Y-118918750D02*
X172831250Y-118418750D01*
X167331250Y-112168750D02*
X167831250Y-113168750D01*
X180331250Y-112168750D02*
X179831250Y-113168750D01*
X174831250Y-118918750D02*
X174831250Y-118418750D01*
X174831250Y-118418750D02*
X175331250Y-117918750D01*
X175331250Y-117918750D02*
X179831250Y-117918750D01*
X180831250Y-112168750D02*
X180331250Y-112168750D01*
X179831250Y-113168750D02*
X179831250Y-117918750D01*
X180831250Y-118918750D02*
X174831250Y-118918750D01*
X180831250Y-112168750D02*
X180831250Y-118918750D01*
X166831250Y-130718750D02*
X166831250Y-123968750D01*
X166831250Y-123968750D02*
X172831250Y-123968750D01*
X167831250Y-129718750D02*
X167831250Y-124968750D01*
X166831250Y-130718750D02*
X167331250Y-130718750D01*
X172331250Y-124968750D02*
X167831250Y-124968750D01*
X172831250Y-124468750D02*
X172331250Y-124968750D01*
X172831250Y-123968750D02*
X172831250Y-124468750D01*
X167331250Y-130718750D02*
X167831250Y-129718750D01*
X180331250Y-130718750D02*
X179831250Y-129718750D01*
X174831250Y-123968750D02*
X174831250Y-124468750D01*
X174831250Y-124468750D02*
X175331250Y-124968750D01*
X175331250Y-124968750D02*
X179831250Y-124968750D01*
X180831250Y-130718750D02*
X180331250Y-130718750D01*
X179831250Y-129718750D02*
X179831250Y-124968750D01*
X180831250Y-123968750D02*
X174831250Y-123968750D01*
X180831250Y-130718750D02*
X180831250Y-123968750D01*
X166831250Y-131218750D02*
X166831250Y-137968750D01*
X166831250Y-137968750D02*
X172831250Y-137968750D01*
X167831250Y-132218750D02*
X167831250Y-136968750D01*
X166831250Y-131218750D02*
X167331250Y-131218750D01*
X172331250Y-136968750D02*
X167831250Y-136968750D01*
X172831250Y-137468750D02*
X172331250Y-136968750D01*
X172831250Y-137968750D02*
X172831250Y-137468750D01*
X167331250Y-131218750D02*
X167831250Y-132218750D01*
X180331250Y-131218750D02*
X179831250Y-132218750D01*
X174831250Y-137968750D02*
X174831250Y-137468750D01*
X174831250Y-137468750D02*
X175331250Y-136968750D01*
X175331250Y-136968750D02*
X179831250Y-136968750D01*
X180831250Y-131218750D02*
X180331250Y-131218750D01*
X179831250Y-132218750D02*
X179831250Y-136968750D01*
X180831250Y-137968750D02*
X174831250Y-137968750D01*
X180831250Y-131218750D02*
X180831250Y-137968750D01*
X147781910Y-149769390D02*
X147781910Y-143019390D01*
X147781910Y-143019390D02*
X153781910Y-143019390D01*
X148781910Y-148769390D02*
X148781910Y-144019390D01*
X147781910Y-149769390D02*
X148281910Y-149769390D01*
X153281910Y-144019390D02*
X148781910Y-144019390D01*
X153781910Y-143519390D02*
X153281910Y-144019390D01*
X153781910Y-143019390D02*
X153781910Y-143519390D01*
X148281910Y-149769390D02*
X148781910Y-148769390D01*
X161281910Y-149769390D02*
X160781910Y-148769390D01*
X155781910Y-143019390D02*
X155781910Y-143519390D01*
X155781910Y-143519390D02*
X156281910Y-144019390D01*
X156281910Y-144019390D02*
X160781910Y-144019390D01*
X161781910Y-149769390D02*
X161281910Y-149769390D01*
X160781910Y-148769390D02*
X160781910Y-144019390D01*
X161781910Y-143019390D02*
X155781910Y-143019390D01*
X161781910Y-149769390D02*
X161781910Y-143019390D01*
X147781910Y-150269390D02*
X147781910Y-157019390D01*
X147781910Y-157019390D02*
X153781910Y-157019390D01*
X148781910Y-151269390D02*
X148781910Y-156019390D01*
X147781910Y-150269390D02*
X148281910Y-150269390D01*
X153281910Y-156019390D02*
X148781910Y-156019390D01*
X153781910Y-156519390D02*
X153281910Y-156019390D01*
X153781910Y-157019390D02*
X153781910Y-156519390D01*
X148281910Y-150269390D02*
X148781910Y-151269390D01*
X161281910Y-150269390D02*
X160781910Y-151269390D01*
X155781910Y-157019390D02*
X155781910Y-156519390D01*
X155781910Y-156519390D02*
X156281910Y-156019390D01*
X156281910Y-156019390D02*
X160781910Y-156019390D01*
X161781910Y-150269390D02*
X161281910Y-150269390D01*
X160781910Y-151269390D02*
X160781910Y-156019390D01*
X161781910Y-157019390D02*
X155781910Y-157019390D01*
X161781910Y-150269390D02*
X161781910Y-157019390D01*
X166831992Y-149769390D02*
X166831992Y-143019390D01*
X166831992Y-143019390D02*
X172831992Y-143019390D01*
X167831992Y-148769390D02*
X167831992Y-144019390D01*
X166831992Y-149769390D02*
X167331992Y-149769390D01*
X172331992Y-144019390D02*
X167831992Y-144019390D01*
X172831992Y-143519390D02*
X172331992Y-144019390D01*
X172831992Y-143019390D02*
X172831992Y-143519390D01*
X167331992Y-149769390D02*
X167831992Y-148769390D01*
X180331992Y-149769390D02*
X179831992Y-148769390D01*
X174831992Y-143019390D02*
X174831992Y-143519390D01*
X174831992Y-143519390D02*
X175331992Y-144019390D01*
X175331992Y-144019390D02*
X179831992Y-144019390D01*
X180831992Y-149769390D02*
X180331992Y-149769390D01*
X179831992Y-148769390D02*
X179831992Y-144019390D01*
X180831992Y-143019390D02*
X174831992Y-143019390D01*
X180831992Y-149769390D02*
X180831992Y-143019390D01*
X166831992Y-150269390D02*
X166831992Y-157019390D01*
X166831992Y-157019390D02*
X172831992Y-157019390D01*
X167831992Y-151269390D02*
X167831992Y-156019390D01*
X166831992Y-150269390D02*
X167331992Y-150269390D01*
X172331992Y-156019390D02*
X167831992Y-156019390D01*
X172831992Y-156519390D02*
X172331992Y-156019390D01*
X172831992Y-157019390D02*
X172831992Y-156519390D01*
X167331992Y-150269390D02*
X167831992Y-151269390D01*
X180331992Y-150269390D02*
X179831992Y-151269390D01*
X174831992Y-157019390D02*
X174831992Y-156519390D01*
X174831992Y-156519390D02*
X175331992Y-156019390D01*
X175331992Y-156019390D02*
X179831992Y-156019390D01*
X180831992Y-150269390D02*
X180331992Y-150269390D01*
X179831992Y-151269390D02*
X179831992Y-156019390D01*
X180831992Y-157019390D02*
X174831992Y-157019390D01*
X180831992Y-150269390D02*
X180831992Y-157019390D01*
X199381250Y-74068750D02*
X198381250Y-76068750D01*
X194381250Y-79818750D02*
X198881250Y-79818750D01*
X198881250Y-79818750D02*
X198881250Y-79068750D01*
X198881250Y-79068750D02*
X197131250Y-79068750D01*
X197131250Y-79068750D02*
X197131250Y-76068750D01*
X197131250Y-76068750D02*
X198381250Y-76068750D01*
X199881250Y-78568750D02*
X199881250Y-80818750D01*
X199881250Y-74068750D02*
X199881250Y-76568750D01*
X197631250Y-76568750D02*
X199881250Y-76568750D01*
X197631250Y-78568750D02*
X199881250Y-78568750D01*
X197631250Y-76568750D02*
X197631250Y-78568750D01*
X185881250Y-73568750D02*
X185881250Y-66818750D01*
X185881250Y-66818750D02*
X191881250Y-66818750D01*
X186881250Y-72568750D02*
X186881250Y-67818750D01*
X185881250Y-73568750D02*
X186381250Y-73568750D01*
X191381250Y-67818750D02*
X186881250Y-67818750D01*
X191881250Y-67318750D02*
X191381250Y-67818750D01*
X191881250Y-66818750D02*
X191881250Y-67318750D01*
X186381250Y-73568750D02*
X186881250Y-72568750D01*
X199381250Y-73568750D02*
X198881250Y-72568750D01*
X193881250Y-66818750D02*
X193881250Y-67318750D01*
X193881250Y-67318750D02*
X194381250Y-67818750D01*
X194381250Y-67818750D02*
X198881250Y-67818750D01*
X199881250Y-73568750D02*
X199381250Y-73568750D01*
X198881250Y-72568750D02*
X198881250Y-67818750D01*
X199881250Y-66818750D02*
X193881250Y-66818750D01*
X199881250Y-73568750D02*
X199881250Y-66818750D01*
X185881250Y-74068750D02*
X185881250Y-80818750D01*
X185881250Y-80818750D02*
X191881250Y-80818750D01*
X186881250Y-75068750D02*
X186881250Y-79818750D01*
X185881250Y-74068750D02*
X186381250Y-74068750D01*
X191381250Y-79818750D02*
X186881250Y-79818750D01*
X191881250Y-80318750D02*
X191381250Y-79818750D01*
X191881250Y-80818750D02*
X191881250Y-80318750D01*
X186381250Y-74068750D02*
X186881250Y-75068750D01*
X193881250Y-80818750D02*
X193881250Y-80318750D01*
X193881250Y-80318750D02*
X194381250Y-79818750D01*
X199881250Y-74068750D02*
X199381250Y-74068750D01*
X199881250Y-80818750D02*
X193881250Y-80818750D01*
X123181250Y-74068750D02*
X122181250Y-76068750D01*
X118181250Y-79818750D02*
X122681250Y-79818750D01*
X122681250Y-79818750D02*
X122681250Y-79068750D01*
X122681250Y-79068750D02*
X120931250Y-79068750D01*
X120931250Y-79068750D02*
X120931250Y-76068750D01*
X120931250Y-76068750D02*
X122181250Y-76068750D01*
X123681250Y-78568750D02*
X123681250Y-80818750D01*
X123681250Y-74068750D02*
X123681250Y-76568750D01*
X121431250Y-76568750D02*
X123681250Y-76568750D01*
X121431250Y-78568750D02*
X123681250Y-78568750D01*
X121431250Y-76568750D02*
X121431250Y-78568750D01*
X109681250Y-73568750D02*
X109681250Y-66818750D01*
X109681250Y-66818750D02*
X115681250Y-66818750D01*
X110681250Y-72568750D02*
X110681250Y-67818750D01*
X109681250Y-73568750D02*
X110181250Y-73568750D01*
X115181250Y-67818750D02*
X110681250Y-67818750D01*
X115681250Y-67318750D02*
X115181250Y-67818750D01*
X115681250Y-66818750D02*
X115681250Y-67318750D01*
X110181250Y-73568750D02*
X110681250Y-72568750D01*
X123181250Y-73568750D02*
X122681250Y-72568750D01*
X117681250Y-66818750D02*
X117681250Y-67318750D01*
X117681250Y-67318750D02*
X118181250Y-67818750D01*
X118181250Y-67818750D02*
X122681250Y-67818750D01*
X123681250Y-73568750D02*
X123181250Y-73568750D01*
X122681250Y-72568750D02*
X122681250Y-67818750D01*
X123681250Y-66818750D02*
X117681250Y-66818750D01*
X123681250Y-73568750D02*
X123681250Y-66818750D01*
X109681250Y-74068750D02*
X109681250Y-80818750D01*
X109681250Y-80818750D02*
X115681250Y-80818750D01*
X110681250Y-75068750D02*
X110681250Y-79818750D01*
X109681250Y-74068750D02*
X110181250Y-74068750D01*
X115181250Y-79818750D02*
X110681250Y-79818750D01*
X115681250Y-80318750D02*
X115181250Y-79818750D01*
X115681250Y-80818750D02*
X115681250Y-80318750D01*
X110181250Y-74068750D02*
X110681250Y-75068750D01*
X117681250Y-80818750D02*
X117681250Y-80318750D01*
X117681250Y-80318750D02*
X118181250Y-79818750D01*
X123681250Y-74068750D02*
X123181250Y-74068750D01*
X123681250Y-80818750D02*
X117681250Y-80818750D01*
X131981250Y-73818750D02*
X128731250Y-73818750D01*
X134231250Y-67818750D02*
X131981250Y-67818750D01*
X128731250Y-68568750D02*
X128731250Y-66818750D01*
X128731250Y-71568750D02*
X128731250Y-70318750D01*
X129231250Y-74318750D02*
X129731250Y-75068750D01*
X128731250Y-74318750D02*
X129231250Y-74318750D01*
X128731250Y-74318750D02*
X128731250Y-75568750D01*
X131981250Y-67818750D02*
X131981250Y-73818750D01*
X128731250Y-73818750D02*
X128731250Y-73318750D01*
X129731250Y-75068750D02*
X131481250Y-75068750D01*
X131481250Y-75068750D02*
X131481250Y-77818750D01*
X128731250Y-77318750D02*
X128731250Y-80818750D01*
X129731250Y-77818750D02*
X129731250Y-79818750D01*
X131481250Y-77818750D02*
X129731250Y-77818750D01*
X130981250Y-70318750D02*
X128731250Y-70318750D01*
X130981250Y-68568750D02*
X128731250Y-68568750D01*
X130981250Y-70318750D02*
X130981250Y-68568750D01*
X128731250Y-73318750D02*
X130981250Y-73318750D01*
X130981250Y-73318750D02*
X130981250Y-71568750D01*
X130981250Y-71568750D02*
X128731250Y-71568750D01*
X128731250Y-77318750D02*
X130981250Y-77318750D01*
X130981250Y-77318750D02*
X130981250Y-75568750D01*
X130981250Y-75568750D02*
X128731250Y-75568750D01*
X128731250Y-66818750D02*
X134731250Y-66818750D01*
X134731250Y-67318750D02*
X134231250Y-67818750D01*
X134731250Y-66818750D02*
X134731250Y-67318750D01*
X142231250Y-73568750D02*
X141731250Y-72568750D01*
X136731250Y-66818750D02*
X136731250Y-67318750D01*
X136731250Y-67318750D02*
X137231250Y-67818750D01*
X137231250Y-67818750D02*
X141731250Y-67818750D01*
X142731250Y-73568750D02*
X142231250Y-73568750D01*
X141731250Y-72568750D02*
X141731250Y-67818750D01*
X142731250Y-66818750D02*
X136731250Y-66818750D01*
X142731250Y-73568750D02*
X142731250Y-66818750D01*
X128731250Y-80818750D02*
X134731250Y-80818750D01*
X134231250Y-79818750D02*
X129731250Y-79818750D01*
X134731250Y-80318750D02*
X134231250Y-79818750D01*
X134731250Y-80818750D02*
X134731250Y-80318750D01*
X142231250Y-74068750D02*
X141731250Y-75068750D01*
X136731250Y-80818750D02*
X136731250Y-80318750D01*
X136731250Y-80318750D02*
X137231250Y-79818750D01*
X137231250Y-79818750D02*
X141731250Y-79818750D01*
X142731250Y-74068750D02*
X142231250Y-74068750D01*
X141731250Y-75068750D02*
X141731250Y-79818750D01*
X142731250Y-80818750D02*
X136731250Y-80818750D01*
X142731250Y-74068750D02*
X142731250Y-80818750D01*
X208181250Y-73818750D02*
X204931250Y-73818750D01*
X210431250Y-67818750D02*
X208181250Y-67818750D01*
X204931250Y-68568750D02*
X204931250Y-66818750D01*
X204931250Y-71568750D02*
X204931250Y-70318750D01*
X205431250Y-74318750D02*
X205931250Y-75068750D01*
X204931250Y-74318750D02*
X205431250Y-74318750D01*
X204931250Y-74318750D02*
X204931250Y-75568750D01*
X208181250Y-67818750D02*
X208181250Y-73818750D01*
X204931250Y-73818750D02*
X204931250Y-73318750D01*
X205931250Y-75068750D02*
X207681250Y-75068750D01*
X207681250Y-75068750D02*
X207681250Y-77818750D01*
X204931250Y-77318750D02*
X204931250Y-80818750D01*
X205931250Y-77818750D02*
X205931250Y-79818750D01*
X207681250Y-77818750D02*
X205931250Y-77818750D01*
X207181250Y-70318750D02*
X204931250Y-70318750D01*
X207181250Y-68568750D02*
X204931250Y-68568750D01*
X207181250Y-70318750D02*
X207181250Y-68568750D01*
X204931250Y-73318750D02*
X207181250Y-73318750D01*
X207181250Y-73318750D02*
X207181250Y-71568750D01*
X207181250Y-71568750D02*
X204931250Y-71568750D01*
X204931250Y-77318750D02*
X207181250Y-77318750D01*
X207181250Y-77318750D02*
X207181250Y-75568750D01*
X207181250Y-75568750D02*
X204931250Y-75568750D01*
X204931250Y-66818750D02*
X210931250Y-66818750D01*
X210931250Y-67318750D02*
X210431250Y-67818750D01*
X210931250Y-66818750D02*
X210931250Y-67318750D01*
X218431250Y-73568750D02*
X217931250Y-72568750D01*
X212931250Y-66818750D02*
X212931250Y-67318750D01*
X212931250Y-67318750D02*
X213431250Y-67818750D01*
X213431250Y-67818750D02*
X217931250Y-67818750D01*
X218931250Y-73568750D02*
X218431250Y-73568750D01*
X217931250Y-72568750D02*
X217931250Y-67818750D01*
X218931250Y-66818750D02*
X212931250Y-66818750D01*
X218931250Y-73568750D02*
X218931250Y-66818750D01*
X204931250Y-80818750D02*
X210931250Y-80818750D01*
X210431250Y-79818750D02*
X205931250Y-79818750D01*
X210931250Y-80318750D02*
X210431250Y-79818750D01*
X210931250Y-80818750D02*
X210931250Y-80318750D01*
X218431250Y-74068750D02*
X217931250Y-75068750D01*
X212931250Y-80818750D02*
X212931250Y-80318750D01*
X212931250Y-80318750D02*
X213431250Y-79818750D01*
X213431250Y-79818750D02*
X217931250Y-79818750D01*
X218931250Y-74068750D02*
X218431250Y-74068750D01*
X217931250Y-75068750D02*
X217931250Y-79818750D01*
X218931250Y-80818750D02*
X212931250Y-80818750D01*
X218931250Y-74068750D02*
X218931250Y-80818750D01*
X193907114Y-157019390D02*
X201407114Y-157019390D01*
X201407114Y-143019390D02*
X193907114Y-143019390D01*
X198907114Y-151269390D02*
X196407114Y-151269390D01*
X200907114Y-156019390D02*
X199907114Y-156019390D01*
X199907114Y-156019390D02*
X199907114Y-150269390D01*
X195407114Y-156019390D02*
X195407114Y-150269390D01*
X195407114Y-156019390D02*
X194407114Y-156019390D01*
X195407114Y-144019390D02*
X194407114Y-144019390D01*
X196407114Y-144019390D02*
X196407114Y-144519390D01*
X196407114Y-144519390D02*
X195907114Y-145519390D01*
X195907114Y-145519390D02*
X195407114Y-145519390D01*
X195407114Y-145519390D02*
X195407114Y-144019390D01*
X198907114Y-147019390D02*
X198907114Y-148769390D01*
X199907114Y-147019390D02*
X199907114Y-149769390D01*
X199907114Y-147019390D02*
X198907114Y-147019390D01*
X204907114Y-144019390D02*
X203907114Y-144019390D01*
X210407114Y-144019390D02*
X205907114Y-144019390D01*
X204907114Y-144019390D02*
X204907114Y-145519390D01*
X205907114Y-144019390D02*
X205907114Y-144519390D01*
X209407114Y-147019390D02*
X209407114Y-149769390D01*
X208407114Y-147019390D02*
X208407114Y-148769390D01*
X209407114Y-147019390D02*
X208407114Y-147019390D01*
X204907114Y-156019390D02*
X204907114Y-150269390D01*
X204907114Y-156019390D02*
X203907114Y-156019390D01*
X208407114Y-151269390D02*
X205907114Y-151269390D01*
X193907114Y-157019390D02*
X193907114Y-156519390D01*
X193907114Y-156519390D02*
X194407114Y-156019390D01*
X199907114Y-150269390D02*
X199407114Y-150269390D01*
X199407114Y-150269390D02*
X198907114Y-151269390D01*
X199407114Y-149769390D02*
X198907114Y-148769390D01*
X193907114Y-143019390D02*
X193907114Y-143519390D01*
X193907114Y-143519390D02*
X194407114Y-144019390D01*
X199407114Y-149769390D02*
X199907114Y-149769390D01*
X208907114Y-149769390D02*
X208407114Y-148769390D01*
X208907114Y-149769390D02*
X209407114Y-149769390D01*
X201407114Y-157019390D02*
X201407114Y-156519390D01*
X201407114Y-156519390D02*
X200907114Y-156019390D01*
X195407114Y-150269390D02*
X195907114Y-150269390D01*
X195907114Y-150269390D02*
X196407114Y-151269390D01*
X201407114Y-143019390D02*
X201407114Y-143519390D01*
X201407114Y-143519390D02*
X200907114Y-144019390D01*
X200907114Y-144019390D02*
X196407114Y-144019390D01*
X191407114Y-156019390D02*
X186907114Y-156019390D01*
X185907114Y-157019390D02*
X191907114Y-157019390D01*
X191907114Y-157019390D02*
X191907114Y-156519390D01*
X191907114Y-156519390D02*
X191407114Y-156019390D01*
X185907114Y-157019390D02*
X185907114Y-150269390D01*
X185907114Y-150269390D02*
X186407114Y-150269390D01*
X186407114Y-150269390D02*
X186907114Y-151269390D01*
X186907114Y-151269390D02*
X186907114Y-156019390D01*
X186907114Y-148769390D02*
X186907114Y-144019390D01*
X186407114Y-149769390D02*
X186907114Y-148769390D01*
X185907114Y-149769390D02*
X185907114Y-143019390D01*
X185907114Y-143019390D02*
X191907114Y-143019390D01*
X191907114Y-143019390D02*
X191907114Y-143519390D01*
X191907114Y-143519390D02*
X191407114Y-144019390D01*
X191407114Y-144019390D02*
X186907114Y-144019390D01*
X186407114Y-149769390D02*
X185907114Y-149769390D01*
X204907114Y-150269390D02*
X205407114Y-150269390D01*
X205407114Y-150269390D02*
X205907114Y-151269390D01*
X205407114Y-145519390D02*
X205907114Y-144519390D01*
X205407114Y-145519390D02*
X204907114Y-145519390D01*
X210407114Y-156019390D02*
X209407114Y-156019390D01*
X209407114Y-156019390D02*
X209407114Y-150269390D01*
X209407114Y-150269390D02*
X208907114Y-150269390D01*
X208907114Y-150269390D02*
X208407114Y-151269390D01*
X210907114Y-157019390D02*
X203407114Y-157019390D01*
X203407114Y-157019390D02*
X203407114Y-156519390D01*
X203407114Y-156519390D02*
X203907114Y-156019390D01*
X210907114Y-157019390D02*
X210907114Y-156519390D01*
X210907114Y-156519390D02*
X210407114Y-156019390D01*
X213407114Y-156019390D02*
X217907114Y-156019390D01*
X218907114Y-157019390D02*
X212907114Y-157019390D01*
X212907114Y-157019390D02*
X212907114Y-156519390D01*
X212907114Y-156519390D02*
X213407114Y-156019390D01*
X218907114Y-157019390D02*
X218907114Y-150269390D01*
X218907114Y-150269390D02*
X218407114Y-150269390D01*
X218407114Y-150269390D02*
X217907114Y-151269390D01*
X217907114Y-151269390D02*
X217907114Y-156019390D01*
X217907114Y-148769390D02*
X217907114Y-144019390D01*
X218407114Y-149769390D02*
X217907114Y-148769390D01*
X218907114Y-149769390D02*
X218907114Y-143019390D01*
X218907114Y-143019390D02*
X212907114Y-143019390D01*
X212907114Y-143019390D02*
X212907114Y-143519390D01*
X212907114Y-143519390D02*
X213407114Y-144019390D01*
X213407114Y-144019390D02*
X217907114Y-144019390D01*
X218407114Y-149769390D02*
X218907114Y-149769390D01*
X210907114Y-143019390D02*
X203407114Y-143019390D01*
X203407114Y-143019390D02*
X203407114Y-143519390D01*
X203407114Y-143519390D02*
X203907114Y-144019390D01*
X210407114Y-144019390D02*
X210907114Y-143519390D01*
X210907114Y-143519390D02*
X210907114Y-143019390D01*
X117706788Y-157019390D02*
X125206788Y-157019390D01*
X125206788Y-143019390D02*
X117706788Y-143019390D01*
X122706788Y-151269390D02*
X120206788Y-151269390D01*
X124706788Y-156019390D02*
X123706788Y-156019390D01*
X123706788Y-156019390D02*
X123706788Y-150269390D01*
X119206788Y-156019390D02*
X119206788Y-150269390D01*
X119206788Y-156019390D02*
X118206788Y-156019390D01*
X119206788Y-144019390D02*
X118206788Y-144019390D01*
X120206788Y-144019390D02*
X120206788Y-144519390D01*
X120206788Y-144519390D02*
X119706788Y-145519390D01*
X119706788Y-145519390D02*
X119206788Y-145519390D01*
X119206788Y-145519390D02*
X119206788Y-144019390D01*
X122706788Y-147019390D02*
X122706788Y-148769390D01*
X123706788Y-147019390D02*
X123706788Y-149769390D01*
X123706788Y-147019390D02*
X122706788Y-147019390D01*
X128706788Y-144019390D02*
X127706788Y-144019390D01*
X134206788Y-144019390D02*
X129706788Y-144019390D01*
X128706788Y-144019390D02*
X128706788Y-145519390D01*
X129706788Y-144019390D02*
X129706788Y-144519390D01*
X133206788Y-147019390D02*
X133206788Y-149769390D01*
X132206788Y-147019390D02*
X132206788Y-148769390D01*
X133206788Y-147019390D02*
X132206788Y-147019390D01*
X128706788Y-156019390D02*
X128706788Y-150269390D01*
X128706788Y-156019390D02*
X127706788Y-156019390D01*
X132206788Y-151269390D02*
X129706788Y-151269390D01*
X117706788Y-157019390D02*
X117706788Y-156519390D01*
X117706788Y-156519390D02*
X118206788Y-156019390D01*
X123706788Y-150269390D02*
X123206788Y-150269390D01*
X123206788Y-150269390D02*
X122706788Y-151269390D01*
X123206788Y-149769390D02*
X122706788Y-148769390D01*
X117706788Y-143019390D02*
X117706788Y-143519390D01*
X117706788Y-143519390D02*
X118206788Y-144019390D01*
X123206788Y-149769390D02*
X123706788Y-149769390D01*
X132706788Y-149769390D02*
X132206788Y-148769390D01*
X132706788Y-149769390D02*
X133206788Y-149769390D01*
X125206788Y-157019390D02*
X125206788Y-156519390D01*
X125206788Y-156519390D02*
X124706788Y-156019390D01*
X119206788Y-150269390D02*
X119706788Y-150269390D01*
X119706788Y-150269390D02*
X120206788Y-151269390D01*
X125206788Y-143019390D02*
X125206788Y-143519390D01*
X125206788Y-143519390D02*
X124706788Y-144019390D01*
X124706788Y-144019390D02*
X120206788Y-144019390D01*
X115206788Y-156019390D02*
X110706788Y-156019390D01*
X109706788Y-157019390D02*
X115706788Y-157019390D01*
X115706788Y-157019390D02*
X115706788Y-156519390D01*
X115706788Y-156519390D02*
X115206788Y-156019390D01*
X109706788Y-157019390D02*
X109706788Y-150269390D01*
X109706788Y-150269390D02*
X110206788Y-150269390D01*
X110206788Y-150269390D02*
X110706788Y-151269390D01*
X110706788Y-151269390D02*
X110706788Y-156019390D01*
X110706788Y-148769390D02*
X110706788Y-144019390D01*
X110206788Y-149769390D02*
X110706788Y-148769390D01*
X109706788Y-149769390D02*
X109706788Y-143019390D01*
X109706788Y-143019390D02*
X115706788Y-143019390D01*
X115706788Y-143019390D02*
X115706788Y-143519390D01*
X115706788Y-143519390D02*
X115206788Y-144019390D01*
X115206788Y-144019390D02*
X110706788Y-144019390D01*
X110206788Y-149769390D02*
X109706788Y-149769390D01*
X128706788Y-150269390D02*
X129206788Y-150269390D01*
X129206788Y-150269390D02*
X129706788Y-151269390D01*
X129206788Y-145519390D02*
X129706788Y-144519390D01*
X129206788Y-145519390D02*
X128706788Y-145519390D01*
X134206788Y-156019390D02*
X133206788Y-156019390D01*
X133206788Y-156019390D02*
X133206788Y-150269390D01*
X133206788Y-150269390D02*
X132706788Y-150269390D01*
X132706788Y-150269390D02*
X132206788Y-151269390D01*
X134706788Y-157019390D02*
X127206788Y-157019390D01*
X127206788Y-157019390D02*
X127206788Y-156519390D01*
X127206788Y-156519390D02*
X127706788Y-156019390D01*
X134706788Y-157019390D02*
X134706788Y-156519390D01*
X134706788Y-156519390D02*
X134206788Y-156019390D01*
X137206788Y-156019390D02*
X141706788Y-156019390D01*
X142706788Y-157019390D02*
X136706788Y-157019390D01*
X136706788Y-157019390D02*
X136706788Y-156519390D01*
X136706788Y-156519390D02*
X137206788Y-156019390D01*
X142706788Y-157019390D02*
X142706788Y-150269390D01*
X142706788Y-150269390D02*
X142206788Y-150269390D01*
X142206788Y-150269390D02*
X141706788Y-151269390D01*
X141706788Y-151269390D02*
X141706788Y-156019390D01*
X141706788Y-148769390D02*
X141706788Y-144019390D01*
X142206788Y-149769390D02*
X141706788Y-148769390D01*
X142706788Y-149769390D02*
X142706788Y-143019390D01*
X142706788Y-143019390D02*
X136706788Y-143019390D01*
X136706788Y-143019390D02*
X136706788Y-143519390D01*
X136706788Y-143519390D02*
X137206788Y-144019390D01*
X137206788Y-144019390D02*
X141706788Y-144019390D01*
X142206788Y-149769390D02*
X142706788Y-149769390D01*
X134706788Y-143019390D02*
X127206788Y-143019390D01*
X127206788Y-143019390D02*
X127206788Y-143519390D01*
X127206788Y-143519390D02*
X127706788Y-144019390D01*
X134206788Y-144019390D02*
X134706788Y-143519390D01*
X134706788Y-143519390D02*
X134706788Y-143019390D01*
M02*
