G04 #@! TF.FileFunction,Copper,L1,Top,Signal*
%FSLAX46Y46*%
G04 Gerber Fmt 4.6, Leading zero omitted, Abs format (unit mm)*
G04 Created by KiCad (PCBNEW 4.0.7-e2-6376~58~ubuntu16.04.1) date Sun Mar 18 12:17:23 2018*
%MOMM*%
%LPD*%
G01*
G04 APERTURE LIST*
%ADD10C,0.100000*%
%ADD11C,2.286000*%
%ADD12C,1.752600*%
%ADD13R,1.752600X1.752600*%
%ADD14C,4.400000*%
%ADD15R,1.600000X1.600000*%
%ADD16C,1.600000*%
%ADD17R,2.500000X1.200000*%
%ADD18O,1.600000X1.600000*%
%ADD19R,1.600200X1.600200*%
%ADD20C,1.600200*%
%ADD21C,0.600000*%
%ADD22C,0.250000*%
%ADD23C,0.254000*%
G04 APERTURE END LIST*
D10*
D11*
X114141748Y-144939390D03*
X120491748Y-147479390D03*
X190342073Y-144939390D03*
X196692073Y-147479390D03*
D12*
X183159375Y-95929324D03*
X183159375Y-89976174D03*
D13*
X147161910Y-69707476D03*
D12*
X147161910Y-72247476D03*
X147161910Y-74787476D03*
X147161910Y-77327476D03*
X147161910Y-79867476D03*
X147161910Y-82407476D03*
X147161910Y-84947476D03*
X147161910Y-87487476D03*
X147161910Y-90027476D03*
X147161910Y-92567476D03*
X147161910Y-95107476D03*
X147161910Y-97647476D03*
X162401910Y-97647476D03*
X162401910Y-95107476D03*
X162401910Y-92567476D03*
X162401910Y-90027476D03*
X162401910Y-87487476D03*
X162401910Y-84947476D03*
X162401910Y-82407476D03*
X162401910Y-79867476D03*
X162401910Y-77327476D03*
X162401910Y-74787476D03*
X162401910Y-72247476D03*
X162401910Y-69707476D03*
D14*
X126206250Y-83343750D03*
X126206788Y-140494349D03*
X202407114Y-140494349D03*
X202406250Y-83343750D03*
X126206788Y-121444268D03*
X202407114Y-121444267D03*
D15*
X111590625Y-121443750D03*
D16*
X119390625Y-121443750D03*
D15*
X111590625Y-83343750D03*
D16*
X119390625Y-83343750D03*
D15*
X133021875Y-83343750D03*
D16*
X140821875Y-83343750D03*
D15*
X169931250Y-83343750D03*
D16*
X177731250Y-83343750D03*
D15*
X183357032Y-72002668D03*
D16*
X183357032Y-79802668D03*
D15*
X187790625Y-83343750D03*
D16*
X195590625Y-83343750D03*
D15*
X209221875Y-83343750D03*
D16*
X217021875Y-83343750D03*
D15*
X111590625Y-102393750D03*
D16*
X119390625Y-102393750D03*
D15*
X126206788Y-91052749D03*
D16*
X126206788Y-98852749D03*
D15*
X164306951Y-105935625D03*
D16*
X164306951Y-113735625D03*
D15*
X183357032Y-105935625D03*
D16*
X183357032Y-113735625D03*
D15*
X202407114Y-91052749D03*
D16*
X202407114Y-98852749D03*
D15*
X209222784Y-102394187D03*
D16*
X217022784Y-102394187D03*
D15*
X126206788Y-105935625D03*
D16*
X126206788Y-113735625D03*
D15*
X145256870Y-105935625D03*
D16*
X145256870Y-113735625D03*
D15*
X150881250Y-121443750D03*
D16*
X158681250Y-121443750D03*
D15*
X169931250Y-121443750D03*
D16*
X177731250Y-121443750D03*
D15*
X187790625Y-121443750D03*
D16*
X195590625Y-121443750D03*
D15*
X202407114Y-105935625D03*
D16*
X202407114Y-113735625D03*
D15*
X133022459Y-121444268D03*
D16*
X140822459Y-121444268D03*
D15*
X145256870Y-124985706D03*
D16*
X145256870Y-132785706D03*
D15*
X164306951Y-124985706D03*
D16*
X164306951Y-132785706D03*
D15*
X183357032Y-124985706D03*
D16*
X183357032Y-132785706D03*
D15*
X209222784Y-121444268D03*
D16*
X217022784Y-121444268D03*
D15*
X110995803Y-140494349D03*
D16*
X118795803Y-140494349D03*
D15*
X150881910Y-140494349D03*
D16*
X158681910Y-140494349D03*
D15*
X169931992Y-140494349D03*
D16*
X177731992Y-140494349D03*
D15*
X187493785Y-140494349D03*
D16*
X195293785Y-140494349D03*
D15*
X209520442Y-140494349D03*
D16*
X217320442Y-140494349D03*
D15*
X133320117Y-140494349D03*
D16*
X141120117Y-140494349D03*
D17*
X199157114Y-77553435D03*
X205657114Y-76453435D03*
X205657114Y-72453435D03*
X205657114Y-69453435D03*
D16*
X145256870Y-144959212D03*
D18*
X145256870Y-155119212D03*
D16*
X183357032Y-144959212D03*
D18*
X183357032Y-155119212D03*
D19*
X213202154Y-155099390D03*
D20*
X210662154Y-155099390D03*
D19*
X203677114Y-155099390D03*
D20*
X201137114Y-155099390D03*
D19*
X194152073Y-155099390D03*
D20*
X191612073Y-155099390D03*
D19*
X175101992Y-155099390D03*
D20*
X172561992Y-155099390D03*
D19*
X117951748Y-155099390D03*
D20*
X115411748Y-155099390D03*
D19*
X127476788Y-155099390D03*
D20*
X124936788Y-155099390D03*
D19*
X137001829Y-155099390D03*
D20*
X134461829Y-155099390D03*
D19*
X156051910Y-155099390D03*
D20*
X153511910Y-155099390D03*
D17*
X122956788Y-77553435D03*
X129456788Y-76453435D03*
X129456788Y-72453435D03*
X129456788Y-69453435D03*
D11*
X209391250Y-87788750D03*
X215741250Y-90328750D03*
X152241250Y-125888750D03*
X158591250Y-128428750D03*
X209391250Y-125888750D03*
X215741250Y-128428750D03*
X157321250Y-78898750D03*
X150971250Y-76358750D03*
X171291250Y-68738750D03*
X177641250Y-71278750D03*
X114141250Y-87788750D03*
X120491250Y-90328750D03*
X133191250Y-87788750D03*
X139541250Y-90328750D03*
X152241250Y-87788750D03*
X158591250Y-90328750D03*
X190341250Y-87788750D03*
X196691250Y-90328750D03*
X114141250Y-106838750D03*
X120491250Y-109378750D03*
X133191250Y-106838750D03*
X139541250Y-109378750D03*
X152241250Y-106838750D03*
X158591250Y-109378750D03*
X190341250Y-106838750D03*
X196691250Y-109378750D03*
X209391250Y-106838750D03*
X215741250Y-109378750D03*
X190341250Y-125888750D03*
X196691250Y-128428750D03*
X133191250Y-125888750D03*
X139541250Y-128428750D03*
X114141250Y-125888750D03*
X120491250Y-128428750D03*
X171291250Y-87788750D03*
X177641250Y-90328750D03*
X171291250Y-106838750D03*
X177641250Y-109378750D03*
X171291250Y-125888750D03*
X177641250Y-128428750D03*
X152241910Y-144939390D03*
X158591910Y-147479390D03*
X171291992Y-144939390D03*
X177641992Y-147479390D03*
X190341250Y-68738750D03*
X196691250Y-71278750D03*
X114141250Y-68738750D03*
X120491250Y-71278750D03*
X133191250Y-68738750D03*
X139541250Y-71278750D03*
X209391250Y-68738750D03*
X215741250Y-71278750D03*
X215742114Y-147479390D03*
X209392114Y-144939390D03*
X199867114Y-144939390D03*
X206217114Y-147479390D03*
X139541788Y-147479390D03*
X133191788Y-144939390D03*
X123666788Y-144939390D03*
X130016788Y-147479390D03*
D13*
X117900000Y-65600000D03*
X115500000Y-65600000D03*
D21*
X126206788Y-103287159D03*
X164009294Y-104180132D03*
X164009294Y-100310584D03*
X155079568Y-100310584D03*
X155079568Y-104477790D03*
X163711636Y-123527871D03*
X181868745Y-119658323D03*
X163711636Y-119658323D03*
X144066240Y-82748791D03*
X145852185Y-66377627D03*
X127397419Y-73819065D03*
X203895401Y-75009695D03*
X173400000Y-141400000D03*
X173641362Y-102691844D03*
X192600000Y-102200000D03*
X113600000Y-65600000D03*
X126257754Y-65575000D03*
X200621168Y-102096529D03*
X162521006Y-139303719D03*
X193800000Y-146200000D03*
X202704771Y-65782312D03*
X165795239Y-68461230D03*
X128290391Y-67270600D03*
X172939019Y-84832393D03*
X163413978Y-67270600D03*
X219671250Y-103584817D03*
X116679405Y-157758486D03*
X108942652Y-103584817D03*
X165199924Y-87511311D03*
X165795239Y-103287159D03*
D22*
X162421386Y-84966952D02*
X162401910Y-84947476D01*
X126206788Y-103287159D02*
X120284034Y-103287159D01*
X120284034Y-103287159D02*
X119390625Y-102393750D01*
X162401910Y-90027476D02*
X163548883Y-90027476D01*
X164306951Y-100012927D02*
X164009294Y-100310584D01*
X164306951Y-90785544D02*
X164306951Y-100012927D01*
X163548883Y-90027476D02*
X164306951Y-90785544D01*
X126206788Y-98852749D02*
X126206250Y-103286621D01*
X126206250Y-103286621D02*
X126206788Y-103287159D01*
X164009294Y-100310584D02*
X164009294Y-104180132D01*
X120491250Y-90328750D02*
X120491250Y-94603424D01*
X115400924Y-102393750D02*
X111590625Y-102393750D01*
X120491250Y-94603424D02*
X117000000Y-98100000D01*
X117000000Y-98100000D02*
X117000000Y-100794674D01*
X117000000Y-100794674D02*
X115400924Y-102393750D01*
X164306951Y-105935625D02*
X164306951Y-105668420D01*
X164306951Y-105668420D02*
X164902266Y-105073105D01*
X164902266Y-105073105D02*
X164902266Y-90487886D01*
X164902266Y-90487886D02*
X164009294Y-89594914D01*
X164009294Y-89594914D02*
X164009294Y-84534736D01*
X164009294Y-84534736D02*
X163116321Y-83641763D01*
X163116321Y-83641763D02*
X156567855Y-83641763D01*
X156567855Y-83641763D02*
X155000000Y-85200000D01*
X155000000Y-85200000D02*
X155000000Y-86800000D01*
X155000000Y-86800000D02*
X158591250Y-90328750D01*
X177641250Y-90328750D02*
X177641250Y-95310696D01*
X181601539Y-104180132D02*
X183357032Y-105935625D01*
X175617937Y-104180132D02*
X181601539Y-104180132D01*
X175022622Y-103584817D02*
X175617937Y-104180132D01*
X175022622Y-97929324D02*
X175022622Y-103584817D01*
X177641250Y-95310696D02*
X175022622Y-97929324D01*
X196691250Y-90328750D02*
X196691250Y-94506092D01*
X200918826Y-92571489D02*
X202407114Y-91052749D01*
X200918826Y-100012927D02*
X200918826Y-92571489D01*
X200323511Y-100608242D02*
X200918826Y-100012927D01*
X193868018Y-100608242D02*
X200323511Y-100608242D01*
X193200000Y-100000000D02*
X193868018Y-100608242D01*
X193200000Y-98000000D02*
X193200000Y-100000000D01*
X196691250Y-94506092D02*
X193200000Y-98000000D01*
X155079568Y-100310584D02*
X155079568Y-104477790D01*
X120491250Y-109378750D02*
X120491250Y-109180264D01*
X120491250Y-109180264D02*
X117000000Y-105700000D01*
X117000000Y-105700000D02*
X117000000Y-104800000D01*
X117000000Y-104800000D02*
X117600000Y-104200000D01*
X117600000Y-104200000D02*
X124420843Y-104180132D01*
X124420843Y-104180132D02*
X126206788Y-105935625D01*
X139541250Y-109378750D02*
X139442159Y-109378750D01*
X139442159Y-109378750D02*
X136000000Y-106000000D01*
X136000000Y-106000000D02*
X136000000Y-105000000D01*
X136000000Y-105000000D02*
X136800000Y-104200000D01*
X136800000Y-104200000D02*
X143470925Y-104180132D01*
X143470925Y-104180132D02*
X145256870Y-105935625D01*
X145256870Y-105935625D02*
X145226417Y-105935625D01*
X177641250Y-109378750D02*
X177641250Y-114956093D01*
X172953593Y-121443750D02*
X169931250Y-121443750D01*
X177641250Y-114956093D02*
X174000000Y-118597343D01*
X174000000Y-118597343D02*
X174000000Y-120397343D01*
X174000000Y-120397343D02*
X172953593Y-121443750D01*
X163116321Y-123527871D02*
X163711636Y-123527871D01*
X183357032Y-132785706D02*
X183089828Y-132785706D01*
X183089828Y-132785706D02*
X181868745Y-131564624D01*
X181868745Y-131564624D02*
X181868745Y-119658323D01*
X140822459Y-121444268D02*
X140792006Y-121444268D01*
X163116321Y-119658323D02*
X163711636Y-119658323D01*
X164306951Y-132785706D02*
X163116321Y-131564624D01*
X163116321Y-131564624D02*
X163116321Y-123527871D01*
X163116321Y-123527871D02*
X163116321Y-119658323D01*
X163116321Y-119658323D02*
X163116321Y-99715269D01*
X163116321Y-99715269D02*
X163711636Y-99119954D01*
X163711636Y-99119954D02*
X163711636Y-96417202D01*
X163711636Y-96417202D02*
X162401910Y-95107476D01*
X120000001Y-64889064D02*
X118610936Y-64889064D01*
X118610936Y-64889064D02*
X117900000Y-65600000D01*
X122956788Y-77553435D02*
X123365391Y-77553435D01*
X123365391Y-77553435D02*
X124420843Y-76497983D01*
X124420843Y-76497983D02*
X124420843Y-64889115D01*
X122956788Y-77553435D02*
X122797378Y-77553435D01*
X145852185Y-67270600D02*
X145852185Y-67270599D01*
X143470925Y-64889339D02*
X145852185Y-67270600D01*
X119955442Y-64889063D02*
X120000001Y-64889064D01*
X120000001Y-64889064D02*
X124420843Y-64889115D01*
X124420843Y-64889115D02*
X143470925Y-64889339D01*
X200621168Y-66377627D02*
X199728196Y-65484654D01*
X199728196Y-65484654D02*
X147638130Y-65484654D01*
X146446878Y-66675000D02*
X145852185Y-67270599D01*
X147638130Y-65484654D02*
X146446878Y-66675000D01*
X145852185Y-67270599D02*
X145851563Y-70842188D01*
X146149219Y-71139844D02*
X147078566Y-72330820D01*
X145851563Y-70842188D02*
X146149219Y-71139844D01*
X147078566Y-72330820D02*
X147161910Y-72247476D01*
X200025853Y-77093298D02*
X200621168Y-76795640D01*
X200621168Y-76795640D02*
X200621168Y-66377627D01*
X198858603Y-77553125D02*
X200025853Y-77093298D01*
X144066240Y-101203557D02*
X144066240Y-82748791D01*
X147042815Y-143173267D02*
X147042815Y-104180132D01*
X147042815Y-104180132D02*
X144066240Y-101203557D01*
X145256870Y-144959212D02*
X147042815Y-143173267D01*
X129456788Y-72453435D02*
X127817734Y-72453435D01*
X144661555Y-76795640D02*
X145193391Y-77327476D01*
X145193391Y-77327476D02*
X147161910Y-77327476D01*
X127397419Y-66675284D02*
X127397419Y-72033120D01*
X127992734Y-66079969D02*
X127397419Y-66675284D01*
X142875610Y-66079969D02*
X127992734Y-66079969D01*
X144661555Y-67865914D02*
X142875610Y-66079969D01*
X144661555Y-67865914D02*
X144661555Y-76795640D01*
X127817734Y-72453435D02*
X127397419Y-72033120D01*
X205657114Y-72453435D02*
X204788374Y-72628435D01*
X204788374Y-72628435D02*
X202109456Y-72628435D01*
X202109456Y-72628435D02*
X201216484Y-71735462D01*
X147340472Y-64889339D02*
X145852185Y-66377627D01*
X200323511Y-64889339D02*
X147340472Y-64889339D01*
X201216484Y-65782312D02*
X200323511Y-64889339D01*
X201216484Y-71735462D02*
X201216484Y-65782312D01*
X205358603Y-72453125D02*
X204910165Y-72453125D01*
X127397419Y-73819065D02*
X127397419Y-75605010D01*
X127397419Y-75605010D02*
X128290391Y-76497983D01*
X128290391Y-76497983D02*
X129456788Y-76453435D01*
X205383689Y-76497983D02*
X203895401Y-75009695D01*
X205358603Y-76453125D02*
X205383689Y-76497983D01*
X114141250Y-106838750D02*
X115700000Y-106800000D01*
X115700000Y-106800000D02*
X116400000Y-106100000D01*
X114141250Y-95924772D02*
X114141250Y-87788750D01*
X116400000Y-98100000D02*
X114141250Y-95924772D01*
X116391118Y-100012927D02*
X116400000Y-98100000D01*
X115795803Y-100608242D02*
X116391118Y-100012927D01*
X110430940Y-100608242D02*
X115795803Y-100608242D01*
X109835625Y-101203557D02*
X110430940Y-100608242D01*
X109835625Y-103584817D02*
X109835625Y-101203557D01*
X110430940Y-104180132D02*
X109835625Y-103584817D01*
X115800000Y-104200000D02*
X110430940Y-104180132D01*
X116400000Y-104800000D02*
X115800000Y-104200000D01*
X116400000Y-106100000D02*
X116400000Y-104800000D01*
X114141250Y-87788750D02*
X114618364Y-87788750D01*
X114618364Y-87788750D02*
X115600000Y-87800000D01*
X115600000Y-87800000D02*
X116386433Y-87064825D01*
X114141250Y-76636402D02*
X114141250Y-68738750D01*
X116400000Y-78900000D02*
X114141250Y-76636402D01*
X116386433Y-87064825D02*
X116400000Y-78900000D01*
X114141250Y-125888750D02*
X115500000Y-125900000D01*
X115500000Y-125900000D02*
X116400000Y-125000000D01*
X114141250Y-114736565D02*
X114141250Y-106838750D01*
X116400000Y-117000000D02*
X114141250Y-114736565D01*
X116400000Y-125000000D02*
X116400000Y-117000000D01*
X114141748Y-144939390D02*
X116200000Y-144900000D01*
X116200000Y-144900000D02*
X117000000Y-144000000D01*
X117000000Y-144000000D02*
X116979405Y-136327144D01*
X116979405Y-136327144D02*
X114141250Y-133488988D01*
X114141250Y-133488988D02*
X114141250Y-125888750D01*
X133191788Y-144939390D02*
X130989131Y-144939390D01*
X124579583Y-145852185D02*
X123666788Y-144939390D01*
X130076336Y-145852185D02*
X124579583Y-145852185D01*
X130989131Y-144939390D02*
X130076336Y-145852185D01*
X135750000Y-81500000D02*
X135750000Y-78250000D01*
X135750000Y-78250000D02*
X133191250Y-75743349D01*
X133191250Y-75743349D02*
X133191250Y-68738750D01*
X133191250Y-87788750D02*
X133191250Y-95091087D01*
X133191250Y-95091087D02*
X135500000Y-97500000D01*
X135500000Y-97500000D02*
X135500000Y-106000000D01*
X135500000Y-106000000D02*
X134750000Y-106750000D01*
X134750000Y-106750000D02*
X133191250Y-106838750D01*
X133191250Y-106838750D02*
X133191250Y-114736484D01*
X133191250Y-114736484D02*
X135600000Y-117200000D01*
X135600000Y-117200000D02*
X135600000Y-125200000D01*
X135000000Y-125800000D02*
X133191250Y-125888750D01*
X135600000Y-125200000D02*
X135000000Y-125800000D01*
X147161910Y-87487476D02*
X147042815Y-87511311D01*
X145256870Y-82748791D02*
X144066240Y-81558160D01*
X147042815Y-87511311D02*
X145256870Y-85725366D01*
X145256870Y-85725366D02*
X145256870Y-82748791D01*
X144066240Y-81558160D02*
X135750000Y-81500000D01*
X135750000Y-81500000D02*
X135750000Y-87000000D01*
X135750000Y-87000000D02*
X135000000Y-87750000D01*
X135000000Y-87750000D02*
X133250000Y-87750000D01*
X154400000Y-87200000D02*
X154400000Y-80600000D01*
X153800000Y-87800000D02*
X154400000Y-87200000D01*
X154400000Y-80600000D02*
X156000000Y-79000000D01*
X156000000Y-79000000D02*
X157321250Y-78898750D01*
X152241250Y-87788750D02*
X153800000Y-87800000D01*
X146745157Y-100608439D02*
X154400000Y-100600000D01*
X154400000Y-100600000D02*
X154400000Y-100599803D01*
X152241250Y-106838750D02*
X153600000Y-107000000D01*
X153600000Y-107000000D02*
X154400000Y-106200000D01*
X154400000Y-106200000D02*
X154400000Y-100599803D01*
X154400000Y-100599803D02*
X154400000Y-97200000D01*
X152241250Y-125888750D02*
X153600000Y-125800000D01*
X153600000Y-125800000D02*
X154600000Y-124800000D01*
X152241250Y-114736402D02*
X152241250Y-106838750D01*
X154600000Y-117200000D02*
X152241250Y-114736402D01*
X154600000Y-124800000D02*
X154600000Y-117200000D01*
X152241910Y-144939390D02*
X153600000Y-144800000D01*
X153600000Y-144800000D02*
X154600000Y-143800000D01*
X154600000Y-143800000D02*
X154600000Y-136000000D01*
X154600000Y-136000000D02*
X152241250Y-133488826D01*
X152241250Y-133488826D02*
X152241250Y-125888750D01*
X147161910Y-90027476D02*
X146907911Y-90027476D01*
X146907911Y-90027476D02*
X145852185Y-91083201D01*
X145852185Y-91083201D02*
X145851563Y-99714845D01*
X145851563Y-99714845D02*
X146745157Y-100608439D01*
X152102343Y-87808592D02*
X152102343Y-94952342D01*
X152102343Y-94952342D02*
X154400000Y-97200000D01*
X171291250Y-133786402D02*
X173400000Y-135800000D01*
X173400000Y-135800000D02*
X173400000Y-141400000D01*
X171291250Y-125888750D02*
X171291250Y-133786402D01*
X171291250Y-125888750D02*
X172800000Y-125800000D01*
X172800000Y-125800000D02*
X173600000Y-125000000D01*
X171291250Y-114736321D02*
X171291250Y-106838750D01*
X173400000Y-116800000D02*
X171291250Y-114736321D01*
X173441362Y-119063008D02*
X173400000Y-116800000D01*
X172846047Y-119658323D02*
X173441362Y-119063008D01*
X168771814Y-119658323D02*
X172846047Y-119658323D01*
X168176499Y-120253638D02*
X168771814Y-119658323D01*
X168176499Y-122634898D02*
X168176499Y-120253638D01*
X168771814Y-123230213D02*
X168176499Y-122634898D01*
X173046047Y-123230213D02*
X168771814Y-123230213D01*
X173600000Y-123800000D02*
X173046047Y-123230213D01*
X173600000Y-125000000D02*
X173600000Y-123800000D01*
X171291250Y-87788750D02*
X171291250Y-95686240D01*
X171291250Y-95686240D02*
X173600000Y-98000000D01*
X173600000Y-98000000D02*
X173641362Y-102691844D01*
X173600000Y-106000000D02*
X172800000Y-106800000D01*
X172800000Y-106800000D02*
X171291250Y-106838750D01*
X173641362Y-102691844D02*
X173600000Y-106000000D01*
X171291250Y-68738750D02*
X171291250Y-76636158D01*
X173831992Y-86827708D02*
X172800000Y-87786710D01*
X172800000Y-87786710D02*
X171291250Y-87788750D01*
X173831992Y-79176900D02*
X173831992Y-86827708D01*
X171291250Y-76636158D02*
X173831992Y-79176900D01*
X190341250Y-87788750D02*
X192000000Y-87800000D01*
X192000000Y-87800000D02*
X192800000Y-87000000D01*
X190341250Y-76933735D02*
X190341250Y-68738750D01*
X192800000Y-79400000D02*
X190341250Y-76933735D01*
X192800000Y-87000000D02*
X192800000Y-79400000D01*
X190341250Y-106838750D02*
X191800000Y-106800000D01*
X191800000Y-106800000D02*
X192600000Y-106000000D01*
X190341250Y-95388501D02*
X190341250Y-87788750D01*
X192600000Y-97600000D02*
X190341250Y-95388501D01*
X192600000Y-106000000D02*
X192600000Y-102200000D01*
X192600000Y-102200000D02*
X192600000Y-97600000D01*
X190341250Y-125888750D02*
X192000000Y-125800000D01*
X192000000Y-125800000D02*
X192800000Y-125000000D01*
X190341250Y-114736240D02*
X190341250Y-106838750D01*
X192800000Y-117200000D02*
X190341250Y-114736240D01*
X192800000Y-125000000D02*
X192800000Y-117200000D01*
X126257754Y-65575000D02*
X127099761Y-65484654D01*
X127099761Y-65484654D02*
X143173267Y-65484654D01*
X143173267Y-65484654D02*
X145256870Y-67568257D01*
X145256870Y-67568257D02*
X145256250Y-73818755D01*
X145256250Y-73818755D02*
X146224625Y-74787130D01*
X147161910Y-74787476D02*
X146224625Y-74787130D01*
X113600000Y-65600000D02*
X115500000Y-65600000D01*
X114995313Y-65567969D02*
X114995313Y-65584375D01*
X162401910Y-69707476D02*
X162401910Y-66794380D01*
X181868745Y-88701941D02*
X183159375Y-89976174D01*
X181868745Y-66675284D02*
X181868745Y-88701941D01*
X181273430Y-66079969D02*
X181868745Y-66675284D01*
X163116321Y-66079969D02*
X181273430Y-66079969D01*
X162401910Y-66794380D02*
X163116321Y-66079969D01*
X215741250Y-90328750D02*
X215741250Y-94675721D01*
X215741250Y-94675721D02*
X212400000Y-98016971D01*
X212400000Y-98016971D02*
X212400000Y-101600000D01*
X212400000Y-101600000D02*
X211600000Y-102400000D01*
X211600000Y-102400000D02*
X209222784Y-102394187D01*
X215741250Y-109378750D02*
X215741250Y-108882200D01*
X215741250Y-108882200D02*
X210443867Y-103584817D01*
X210443867Y-103584817D02*
X203002429Y-103584817D01*
X203002429Y-103584817D02*
X202407114Y-104180132D01*
X202407114Y-104180132D02*
X202407114Y-105935625D01*
X209392114Y-144939390D02*
X207487114Y-144939390D01*
X200779909Y-145852185D02*
X199867114Y-144939390D01*
X206574319Y-145852185D02*
X200779909Y-145852185D01*
X207487114Y-144939390D02*
X206574319Y-145852185D01*
X209391250Y-106838750D02*
X209868851Y-106838750D01*
X209868851Y-106838750D02*
X210741524Y-105966077D01*
X209391250Y-95983734D02*
X209391250Y-87788750D01*
X211800000Y-98400000D02*
X209391250Y-95983734D01*
X211800000Y-100000000D02*
X211800000Y-98400000D01*
X211146209Y-100608242D02*
X211800000Y-100000000D01*
X201216483Y-100608242D02*
X211146209Y-100608242D01*
X200621168Y-101203557D02*
X201216483Y-100608242D01*
X200621168Y-107156707D02*
X200621168Y-102096529D01*
X200621168Y-102096529D02*
X200621168Y-101203557D01*
X201216483Y-107752022D02*
X200621168Y-107156707D01*
X210146209Y-104180132D02*
X204788374Y-104180132D01*
X204788374Y-104180132D02*
X204193059Y-104775447D01*
X204193059Y-104775447D02*
X204193059Y-107156707D01*
X204193059Y-107156707D02*
X203597744Y-107752022D01*
X203597744Y-107752022D02*
X201216483Y-107752022D01*
X210741524Y-104775447D02*
X210146209Y-104180132D01*
X210741524Y-105966077D02*
X210741524Y-104775447D01*
X209391250Y-125888750D02*
X209391250Y-133786240D01*
X210400000Y-145000000D02*
X209392154Y-144939390D01*
X211400000Y-135800000D02*
X211400000Y-144400000D01*
X211400000Y-144400000D02*
X210800000Y-145000000D01*
X210800000Y-145000000D02*
X210400000Y-145000000D01*
X209391250Y-133786240D02*
X211400000Y-135800000D01*
X209391250Y-106838750D02*
X209391250Y-114736159D01*
X212000000Y-125000000D02*
X211000000Y-126000000D01*
X211000000Y-126000000D02*
X209391250Y-125888750D01*
X212000000Y-117400000D02*
X212000000Y-125000000D01*
X209391250Y-114736159D02*
X212000000Y-117400000D01*
X209391250Y-68738750D02*
X209391250Y-76635996D01*
X212000000Y-86800000D02*
X211000000Y-87800000D01*
X211000000Y-87800000D02*
X209391250Y-87788750D01*
X212000000Y-79200000D02*
X212000000Y-86800000D01*
X209391250Y-76635996D02*
X212000000Y-79200000D01*
X162401910Y-97647476D02*
X162401910Y-97810228D01*
X162521006Y-97929324D02*
X162401910Y-97810228D01*
X162521006Y-139303719D02*
X162521006Y-97929324D01*
X195079390Y-147479390D02*
X196692073Y-147479390D01*
X193800000Y-146200000D02*
X195079390Y-147479390D01*
X205657114Y-69453435D02*
X205185264Y-69453435D01*
X205185264Y-69453435D02*
X203895401Y-68163572D01*
X203895401Y-68163572D02*
X203895401Y-66972942D01*
X203895401Y-66972942D02*
X202704771Y-65782312D01*
X128290391Y-68758887D02*
X128290391Y-67270600D01*
X128984939Y-69453435D02*
X128290391Y-68758887D01*
X167581184Y-84832393D02*
X172939019Y-84832393D01*
X165795239Y-83046448D02*
X167581184Y-84832393D01*
X165795239Y-68461230D02*
X165795239Y-83046448D01*
X164604609Y-67270600D02*
X165795239Y-68461230D01*
X163413978Y-67270600D02*
X164604609Y-67270600D01*
X129456788Y-69453435D02*
X128984939Y-69453435D01*
X126011473Y-158949116D02*
X119261474Y-158949116D01*
X119261474Y-158949116D02*
X115411748Y-155099390D01*
X183357032Y-158353801D02*
X182761717Y-158949116D01*
X126000000Y-156200000D02*
X124936788Y-155099390D01*
X126011473Y-158949116D02*
X126000000Y-156200000D01*
X182761717Y-158949116D02*
X126011473Y-158949116D01*
X201323511Y-158949116D02*
X211146209Y-158949116D01*
X211800000Y-158200000D02*
X211800000Y-156200000D01*
X211800000Y-156200000D02*
X210662154Y-155099390D01*
X211146209Y-158949116D02*
X211800000Y-158200000D01*
X183357032Y-155119212D02*
X183357032Y-158353801D01*
X202200000Y-158000000D02*
X202200000Y-156200000D01*
X202200000Y-156200000D02*
X201137114Y-155099390D01*
X201323511Y-158949116D02*
X202200000Y-158000000D01*
X183952347Y-158949116D02*
X201323511Y-158949116D01*
X183357032Y-158353801D02*
X183952347Y-158949116D01*
X191612073Y-155099390D02*
X191612073Y-153214253D01*
X171153074Y-153690472D02*
X172561992Y-155099390D01*
X171153074Y-148233445D02*
X171153074Y-153690472D01*
X174236677Y-145149843D02*
X171153074Y-148233445D01*
X174236677Y-142768583D02*
X174236677Y-145149843D01*
X174800000Y-142200000D02*
X174236677Y-142768583D01*
X182800000Y-142200000D02*
X174800000Y-142200000D01*
X191691443Y-139303719D02*
X185800000Y-139303719D01*
X185800000Y-139303719D02*
X182800000Y-142200000D01*
X192800000Y-140400000D02*
X191691443Y-139303719D01*
X192800000Y-145200000D02*
X192800000Y-140400000D01*
X189800000Y-147600000D02*
X192800000Y-145200000D01*
X189800000Y-151400000D02*
X189800000Y-147600000D01*
X191612073Y-153214253D02*
X189800000Y-151400000D01*
X134461829Y-155099390D02*
X134461829Y-152618938D01*
X144066240Y-153928582D02*
X145256870Y-155119212D01*
X144066240Y-140494349D02*
X144066240Y-153928582D01*
X142280295Y-138708404D02*
X144066240Y-140494349D01*
X136327144Y-138708404D02*
X142280295Y-138708404D01*
X135136514Y-139899034D02*
X136327144Y-138708404D01*
X135136514Y-145852185D02*
X135136514Y-139899034D01*
X133052911Y-147935788D02*
X135136514Y-145852185D01*
X133052911Y-151210020D02*
X133052911Y-147935788D01*
X134461829Y-152618938D02*
X133052911Y-151210020D01*
X219671250Y-103584817D02*
X219671250Y-138410746D01*
X219671250Y-138410746D02*
X219075935Y-139006061D01*
X219075935Y-139006061D02*
X212600000Y-139000000D01*
X212600000Y-139000000D02*
X212000000Y-139600000D01*
X214611072Y-153690472D02*
X213202154Y-155099390D01*
X214611072Y-148828760D02*
X214611072Y-153690472D01*
X212000000Y-139600000D02*
X212000000Y-146217688D01*
X212000000Y-146217688D02*
X214611072Y-148828760D01*
X115488775Y-158949116D02*
X116679405Y-157758486D01*
X109835625Y-158949116D02*
X115488775Y-158949116D01*
X108942652Y-158056143D02*
X109835625Y-158949116D01*
X108942652Y-103584817D02*
X108942652Y-158056143D01*
X165497581Y-87808968D02*
X165497581Y-102989501D01*
X165199924Y-87511311D02*
X165497581Y-87808968D01*
X165497581Y-102989501D02*
X165795239Y-103287159D01*
X166092896Y-141684980D02*
X166688211Y-142280295D01*
X193800000Y-154400000D02*
X194152073Y-155099390D01*
X190400000Y-151000000D02*
X193800000Y-154400000D01*
X190400000Y-147800000D02*
X190400000Y-151000000D01*
X193400000Y-145400000D02*
X190400000Y-147800000D01*
X193415585Y-145333760D02*
X193400000Y-145400000D01*
X193400000Y-139600000D02*
X193415585Y-145333760D01*
X192584415Y-138708404D02*
X193400000Y-139600000D01*
X177310910Y-138708404D02*
X192584415Y-138708404D01*
X173739019Y-142280295D02*
X177310910Y-138708404D01*
X166688211Y-142280295D02*
X173739019Y-142280295D01*
X156051910Y-155099390D02*
X154851910Y-156400000D01*
X154851910Y-156400000D02*
X154851910Y-158353801D01*
X154851910Y-158353801D02*
X154772540Y-158353801D01*
X144959212Y-158353801D02*
X154772540Y-158353801D01*
X137001829Y-152618938D02*
X138410747Y-151210020D01*
X138410747Y-151210020D02*
X138410747Y-148828760D01*
X138410747Y-148828760D02*
X135731829Y-146149842D01*
X135731829Y-146149842D02*
X135731829Y-140196692D01*
X135731829Y-140196692D02*
X136624802Y-139303719D01*
X136624802Y-139303719D02*
X141684979Y-139303719D01*
X141684979Y-139303719D02*
X143470925Y-141089665D01*
X143470925Y-141089665D02*
X143470925Y-156865513D01*
X143470925Y-156865513D02*
X144959212Y-158353801D01*
X137001829Y-155099390D02*
X137001829Y-152618938D01*
X154772540Y-158353801D02*
X173227307Y-158353801D01*
X174000000Y-157600000D02*
X174000000Y-156000000D01*
X174000000Y-156000000D02*
X175101992Y-155099390D01*
X173227307Y-158353801D02*
X174000000Y-157600000D01*
X162401910Y-79867476D02*
X164402212Y-79867476D01*
X157460828Y-153690472D02*
X156051910Y-155099390D01*
X157460828Y-148828760D02*
X157460828Y-153690472D01*
X155200000Y-146600000D02*
X157460828Y-148828760D01*
X155172540Y-142875610D02*
X155200000Y-146600000D01*
X155767855Y-142280295D02*
X155172540Y-142875610D01*
X165497581Y-142280295D02*
X155767855Y-142280295D01*
X166092896Y-141684980D02*
X165497581Y-142280295D01*
X166092896Y-84237078D02*
X166092896Y-101501214D01*
X166092896Y-101501214D02*
X166688211Y-102096529D01*
X166688211Y-102096529D02*
X166688211Y-104180133D01*
X166688211Y-104180133D02*
X166092896Y-104775448D01*
X166092896Y-104775448D02*
X166092896Y-141684980D01*
X165220466Y-83364648D02*
X166092896Y-84237078D01*
X165220466Y-80685730D02*
X165220466Y-83364648D01*
X164402212Y-79867476D02*
X165220466Y-80685730D01*
D23*
G36*
X125465562Y-65044673D02*
X125322916Y-65388201D01*
X125322592Y-65760167D01*
X125464637Y-66103943D01*
X125727427Y-66367192D01*
X125970748Y-66468228D01*
X125932503Y-66468195D01*
X125423273Y-66678604D01*
X125033327Y-67067871D01*
X124822029Y-67576733D01*
X124821548Y-68127720D01*
X125031957Y-68636950D01*
X125421224Y-69026896D01*
X125930086Y-69238194D01*
X126481073Y-69238675D01*
X126637419Y-69174074D01*
X126637419Y-72033120D01*
X126695271Y-72323959D01*
X126860018Y-72570521D01*
X127184760Y-72895263D01*
X126868476Y-73025948D01*
X126605227Y-73288738D01*
X126523595Y-73485329D01*
X126483490Y-73468676D01*
X125932503Y-73468195D01*
X125423273Y-73678604D01*
X125033327Y-74067871D01*
X124822029Y-74576733D01*
X124821548Y-75127720D01*
X125031957Y-75636950D01*
X125421224Y-76026896D01*
X125930086Y-76238194D01*
X126481073Y-76238675D01*
X126828437Y-76095147D01*
X126860018Y-76142411D01*
X127559348Y-76841742D01*
X127559348Y-77053435D01*
X127603626Y-77288752D01*
X127742698Y-77504876D01*
X127954898Y-77649866D01*
X128021250Y-77663303D01*
X128021250Y-78305757D01*
X124831013Y-78305757D01*
X124841788Y-78279744D01*
X124841788Y-77839185D01*
X124683038Y-77680435D01*
X123083788Y-77680435D01*
X123083788Y-77700435D01*
X122829788Y-77700435D01*
X122829788Y-77680435D01*
X122809788Y-77680435D01*
X122809788Y-77426435D01*
X122829788Y-77426435D01*
X122829788Y-77406435D01*
X123083788Y-77406435D01*
X123083788Y-77426435D01*
X124683038Y-77426435D01*
X124841788Y-77267685D01*
X124841788Y-76827126D01*
X124745115Y-76593737D01*
X124566487Y-76415108D01*
X124391250Y-76342522D01*
X124391250Y-74068750D01*
X124341521Y-73818750D01*
X124391250Y-73568750D01*
X124391250Y-66818750D01*
X124337204Y-66547045D01*
X124183296Y-66316704D01*
X123952955Y-66162796D01*
X123681250Y-66108750D01*
X119411300Y-66108750D01*
X119411300Y-65885750D01*
X119252550Y-65727000D01*
X118027000Y-65727000D01*
X118027000Y-65747000D01*
X117773000Y-65747000D01*
X117773000Y-65727000D01*
X117753000Y-65727000D01*
X117753000Y-65473000D01*
X117773000Y-65473000D01*
X117773000Y-65453000D01*
X118027000Y-65453000D01*
X118027000Y-65473000D01*
X119252550Y-65473000D01*
X119411300Y-65314250D01*
X119411300Y-64978750D01*
X125531600Y-64978750D01*
X125465562Y-65044673D01*
X125465562Y-65044673D01*
G37*
X125465562Y-65044673D02*
X125322916Y-65388201D01*
X125322592Y-65760167D01*
X125464637Y-66103943D01*
X125727427Y-66367192D01*
X125970748Y-66468228D01*
X125932503Y-66468195D01*
X125423273Y-66678604D01*
X125033327Y-67067871D01*
X124822029Y-67576733D01*
X124821548Y-68127720D01*
X125031957Y-68636950D01*
X125421224Y-69026896D01*
X125930086Y-69238194D01*
X126481073Y-69238675D01*
X126637419Y-69174074D01*
X126637419Y-72033120D01*
X126695271Y-72323959D01*
X126860018Y-72570521D01*
X127184760Y-72895263D01*
X126868476Y-73025948D01*
X126605227Y-73288738D01*
X126523595Y-73485329D01*
X126483490Y-73468676D01*
X125932503Y-73468195D01*
X125423273Y-73678604D01*
X125033327Y-74067871D01*
X124822029Y-74576733D01*
X124821548Y-75127720D01*
X125031957Y-75636950D01*
X125421224Y-76026896D01*
X125930086Y-76238194D01*
X126481073Y-76238675D01*
X126828437Y-76095147D01*
X126860018Y-76142411D01*
X127559348Y-76841742D01*
X127559348Y-77053435D01*
X127603626Y-77288752D01*
X127742698Y-77504876D01*
X127954898Y-77649866D01*
X128021250Y-77663303D01*
X128021250Y-78305757D01*
X124831013Y-78305757D01*
X124841788Y-78279744D01*
X124841788Y-77839185D01*
X124683038Y-77680435D01*
X123083788Y-77680435D01*
X123083788Y-77700435D01*
X122829788Y-77700435D01*
X122829788Y-77680435D01*
X122809788Y-77680435D01*
X122809788Y-77426435D01*
X122829788Y-77426435D01*
X122829788Y-77406435D01*
X123083788Y-77406435D01*
X123083788Y-77426435D01*
X124683038Y-77426435D01*
X124841788Y-77267685D01*
X124841788Y-76827126D01*
X124745115Y-76593737D01*
X124566487Y-76415108D01*
X124391250Y-76342522D01*
X124391250Y-74068750D01*
X124341521Y-73818750D01*
X124391250Y-73568750D01*
X124391250Y-66818750D01*
X124337204Y-66547045D01*
X124183296Y-66316704D01*
X123952955Y-66162796D01*
X123681250Y-66108750D01*
X119411300Y-66108750D01*
X119411300Y-65885750D01*
X119252550Y-65727000D01*
X118027000Y-65727000D01*
X118027000Y-65747000D01*
X117773000Y-65747000D01*
X117773000Y-65727000D01*
X117753000Y-65727000D01*
X117753000Y-65473000D01*
X117773000Y-65473000D01*
X117773000Y-65453000D01*
X118027000Y-65453000D01*
X118027000Y-65473000D01*
X119252550Y-65473000D01*
X119411300Y-65314250D01*
X119411300Y-64978750D01*
X125531600Y-64978750D01*
X125465562Y-65044673D01*
G36*
X200679083Y-72272863D02*
X201572055Y-73165836D01*
X201818616Y-73330583D01*
X202109456Y-73388435D01*
X203868096Y-73388435D01*
X203943024Y-73504876D01*
X204155224Y-73649866D01*
X204221250Y-73663237D01*
X204221250Y-73818750D01*
X204270979Y-74068750D01*
X204255454Y-74146799D01*
X204082200Y-74074857D01*
X203710234Y-74074533D01*
X203602281Y-74119138D01*
X203581945Y-74069920D01*
X203192678Y-73679974D01*
X202683816Y-73468676D01*
X202132829Y-73468195D01*
X201623599Y-73678604D01*
X201233653Y-74067871D01*
X201022355Y-74576733D01*
X201021874Y-75127720D01*
X201232283Y-75636950D01*
X201621550Y-76026896D01*
X202130412Y-76238194D01*
X202681399Y-76238675D01*
X203190629Y-76028266D01*
X203402030Y-75817233D01*
X203708602Y-75944533D01*
X203755478Y-75944574D01*
X203759674Y-75948770D01*
X203759674Y-77053435D01*
X203803952Y-77288752D01*
X203943024Y-77504876D01*
X204155224Y-77649866D01*
X204221250Y-77663237D01*
X204221250Y-78305757D01*
X201031339Y-78305757D01*
X201042114Y-78279744D01*
X201042114Y-77839185D01*
X200883364Y-77680435D01*
X199284114Y-77680435D01*
X199284114Y-77700435D01*
X199030114Y-77700435D01*
X199030114Y-77680435D01*
X199010114Y-77680435D01*
X199010114Y-77426435D01*
X199030114Y-77426435D01*
X199030114Y-77406435D01*
X199284114Y-77406435D01*
X199284114Y-77426435D01*
X200883364Y-77426435D01*
X201042114Y-77267685D01*
X201042114Y-76827126D01*
X200945441Y-76593737D01*
X200766813Y-76415108D01*
X200591250Y-76342387D01*
X200591250Y-74068750D01*
X200541521Y-73818750D01*
X200591250Y-73568750D01*
X200591250Y-72141411D01*
X200679083Y-72272863D01*
X200679083Y-72272863D01*
G37*
X200679083Y-72272863D02*
X201572055Y-73165836D01*
X201818616Y-73330583D01*
X202109456Y-73388435D01*
X203868096Y-73388435D01*
X203943024Y-73504876D01*
X204155224Y-73649866D01*
X204221250Y-73663237D01*
X204221250Y-73818750D01*
X204270979Y-74068750D01*
X204255454Y-74146799D01*
X204082200Y-74074857D01*
X203710234Y-74074533D01*
X203602281Y-74119138D01*
X203581945Y-74069920D01*
X203192678Y-73679974D01*
X202683816Y-73468676D01*
X202132829Y-73468195D01*
X201623599Y-73678604D01*
X201233653Y-74067871D01*
X201022355Y-74576733D01*
X201021874Y-75127720D01*
X201232283Y-75636950D01*
X201621550Y-76026896D01*
X202130412Y-76238194D01*
X202681399Y-76238675D01*
X203190629Y-76028266D01*
X203402030Y-75817233D01*
X203708602Y-75944533D01*
X203755478Y-75944574D01*
X203759674Y-75948770D01*
X203759674Y-77053435D01*
X203803952Y-77288752D01*
X203943024Y-77504876D01*
X204155224Y-77649866D01*
X204221250Y-77663237D01*
X204221250Y-78305757D01*
X201031339Y-78305757D01*
X201042114Y-78279744D01*
X201042114Y-77839185D01*
X200883364Y-77680435D01*
X199284114Y-77680435D01*
X199284114Y-77700435D01*
X199030114Y-77700435D01*
X199030114Y-77680435D01*
X199010114Y-77680435D01*
X199010114Y-77426435D01*
X199030114Y-77426435D01*
X199030114Y-77406435D01*
X199284114Y-77406435D01*
X199284114Y-77426435D01*
X200883364Y-77426435D01*
X201042114Y-77267685D01*
X201042114Y-76827126D01*
X200945441Y-76593737D01*
X200766813Y-76415108D01*
X200591250Y-76342387D01*
X200591250Y-74068750D01*
X200541521Y-73818750D01*
X200591250Y-73568750D01*
X200591250Y-72141411D01*
X200679083Y-72272863D01*
M02*
