M48
INCH,TZ
T1C0.016
T2C0.028
T3C0.035
T4C0.043
T5C0.059
T6C0.087
%
G90
G05
T1
X4.2656Y-3.2813
X4.2656Y-3.5441
X4.2656Y-3.6543
X4.2656Y-3.7645
X4.2656Y-4.9909
X4.2656Y-5.1012
X4.2656Y-5.2114
X4.2891Y-5.3203
X4.3008Y-4.6875
X4.5235Y-4.0547
X4.5938Y-2.6016
X4.6289Y-4.8047
X5.3203Y-4.043
X5.6719Y-2.625
X5.7071Y-6.2227
X5.7188Y-4.793
X5.7656Y-2.625
X5.7656Y-6.2227
X6.1055Y-4.0195
X6.1055Y-4.1133
X6.4688Y-4.2539
X6.5391Y-4.8399
X6.5391Y-4.8867
X6.5508Y-4.7227
X6.6094Y-4.1016
X6.6094Y-4.8281
X6.8203Y-3.3516
X7.2188Y-2.6133
X7.6172Y-4.8281
X7.6172Y-5.4844
X7.9102Y-3.9844
X7.9336Y-2.7422
X8.3086Y-4.9219
X8.3555Y-4.0547
X8.6719Y-4.1602
X8.6719Y-5.1012
X8.6719Y-5.2114
X8.6719Y-5.3216
X8.6836Y-3.5441
X8.6836Y-3.6543
X8.6836Y-3.7645
X8.6836Y-4.7696
X8.6836Y-4.9909
T2
X4.3699Y-5.5313
X4.3933Y-3.2812
X4.3933Y-4.0312
X4.3933Y-4.7812
X4.677Y-5.5313
X4.7004Y-3.2812
X4.7004Y-4.0312
X4.7004Y-4.7812
X4.9688Y-3.5848
X4.9688Y-3.8918
X4.9688Y-4.1707
X4.9688Y-4.4778
X5.2371Y-3.2812
X5.2371Y-4.7813
X5.2488Y-5.5313
X5.5442Y-3.2812
X5.5442Y-4.7813
X5.5559Y-5.5313
X5.7188Y-4.1707
X5.7188Y-4.4778
X5.7188Y-4.9207
X5.7188Y-5.2278
X5.9402Y-4.7812
X5.9402Y-5.5313
X6.2473Y-4.7812
X6.2473Y-5.5313
X6.4688Y-4.1707
X6.4688Y-4.4778
X6.4688Y-4.9207
X6.4688Y-5.2278
X6.6902Y-3.2812
X6.6902Y-4.7812
X6.6902Y-5.5313
X6.9973Y-3.2812
X6.9973Y-4.7812
X6.9973Y-5.5313
X7.2188Y-2.8348
X7.2188Y-3.1418
X7.2188Y-3.6563
X7.2188Y-4.1707
X7.2188Y-4.4778
X7.2188Y-4.9207
X7.2188Y-5.2278
X7.3816Y-5.5313
X7.3933Y-3.2812
X7.3933Y-4.7812
X7.6887Y-5.5313
X7.7004Y-3.2812
X7.7004Y-4.7812
X7.9688Y-3.5848
X7.9688Y-3.8918
X7.9688Y-4.1707
X7.9688Y-4.4778
X8.2371Y-3.2812
X8.2371Y-4.0313
X8.2371Y-4.7813
X8.2488Y-5.5313
X8.5442Y-3.2812
X8.5442Y-4.0313
X8.5442Y-4.7813
X8.5559Y-5.5313
T4
X5.7938Y-2.7444
X5.7938Y-2.8444
X5.7938Y-2.9444
X5.7938Y-3.0444
X5.7938Y-3.1444
X5.7938Y-3.2444
X5.7938Y-3.3444
X5.7938Y-3.4444
X5.7938Y-3.5444
X5.7938Y-3.6444
X5.7938Y-3.7444
X5.7938Y-3.8444
X6.3938Y-2.7444
X6.3938Y-2.8444
X6.3938Y-2.9444
X6.3938Y-3.0444
X6.3938Y-3.1444
X6.3938Y-3.2444
X6.3938Y-3.3444
X6.3938Y-3.4444
X6.3938Y-3.5444
X6.3938Y-3.6444
X6.3938Y-3.7444
X6.3938Y-3.8444
T5
X4.4937Y-2.7062
X4.4937Y-3.4562
X4.4937Y-4.2062
X4.4937Y-4.9562
X4.4938Y-5.7063
X4.7437Y-2.8062
X4.7437Y-3.5562
X4.7437Y-4.3062
X4.7437Y-5.0562
X4.7438Y-5.8063
X4.8688Y-5.7063
X5.1188Y-5.8063
X5.2437Y-2.7062
X5.2437Y-3.4562
X5.2437Y-4.2062
X5.2437Y-4.9562
X5.2438Y-5.7063
X5.4937Y-2.8062
X5.4937Y-3.5562
X5.4937Y-4.3062
X5.4937Y-5.0562
X5.4938Y-5.8063
X5.9437Y-3.0063
X5.9937Y-2.7062
X5.9937Y-3.4562
X5.9937Y-4.2062
X5.9937Y-4.9562
X5.9938Y-5.7063
X6.1937Y-3.1062
X6.2437Y-2.8062
X6.2437Y-3.5562
X6.2437Y-4.3062
X6.2437Y-5.0562
X6.2438Y-5.8063
X6.7437Y-2.7062
X6.7437Y-3.4562
X6.7437Y-4.2062
X6.7437Y-4.9562
X6.7438Y-5.7063
X6.9937Y-2.8062
X6.9937Y-3.5562
X6.9937Y-4.3062
X6.9937Y-5.0562
X6.9938Y-5.8063
X7.4937Y-2.7062
X7.4937Y-3.4562
X7.4937Y-4.2062
X7.4937Y-4.9562
X7.4938Y-5.7063
X7.7437Y-2.8062
X7.7437Y-3.5562
X7.7437Y-4.3062
X7.7437Y-5.0562
X7.7438Y-5.8063
X7.8688Y-5.7063
X8.1188Y-5.8063
X8.2438Y-2.7062
X8.2438Y-3.4562
X8.2438Y-4.2062
X8.2438Y-4.9562
X8.2438Y-5.7063
X8.4938Y-2.8062
X8.4938Y-3.5562
X8.4938Y-4.3062
X8.4938Y-5.0562
X8.4938Y-5.8063
T6
X4.9688Y-3.2812
X4.9688Y-5.5313
X7.9688Y-3.2812
X7.9688Y-5.5313
T3
X4.8782Y-3.0503G85X4.8782Y-3.066
G05
X5.0593Y-2.7314G85X5.0593Y-2.7472
G05
X5.0593Y-2.8495G85X5.0593Y-2.8653
G05
X5.0593Y-3.007G85X5.0593Y-3.0227
G05
X7.8782Y-3.0503G85X7.8782Y-3.066
G05
X8.0593Y-2.7314G85X8.0593Y-2.7472
G05
X8.0593Y-2.8495G85X8.0593Y-2.8653
G05
X8.0593Y-3.007G85X8.0593Y-3.0227
G05
T0
M30
