G04 #@! TF.FileFunction,Copper,L1,Top,Signal*
%FSLAX46Y46*%
G04 Gerber Fmt 4.6, Leading zero omitted, Abs format (unit mm)*
G04 Created by KiCad (PCBNEW 4.0.7-e2-6376~58~ubuntu16.04.1) date Wed Feb 21 22:00:40 2018*
%MOMM*%
%LPD*%
G01*
G04 APERTURE LIST*
%ADD10C,0.100000*%
%ADD11C,2.286000*%
%ADD12R,1.752600X1.752600*%
%ADD13C,1.752600*%
%ADD14C,4.400000*%
%ADD15R,1.600000X1.600000*%
%ADD16C,1.600000*%
%ADD17R,2.500000X1.200000*%
%ADD18O,1.600000X1.600000*%
%ADD19R,1.600200X1.600200*%
%ADD20C,1.600200*%
%ADD21C,0.600000*%
%ADD22C,0.250000*%
%ADD23C,0.254000*%
G04 APERTURE END LIST*
D10*
D11*
X171291992Y-144939390D03*
X177641992Y-147479390D03*
X152241910Y-144939390D03*
X158591910Y-147479390D03*
X114141748Y-144939390D03*
X120491748Y-147479390D03*
X171291250Y-125888750D03*
X177641250Y-128428750D03*
X171291250Y-106838750D03*
X177641250Y-109378750D03*
X171291250Y-87788750D03*
X177641250Y-90328750D03*
X114141250Y-125888750D03*
X120491250Y-128428750D03*
X133191250Y-125888750D03*
X139541250Y-128428750D03*
D12*
X147161910Y-69707476D03*
D13*
X147161910Y-72247476D03*
X147161910Y-74787476D03*
X147161910Y-77327476D03*
X147161910Y-79867476D03*
X147161910Y-82407476D03*
X147161910Y-84947476D03*
X147161910Y-87487476D03*
X147161910Y-90027476D03*
X147161910Y-92567476D03*
X147161910Y-95107476D03*
X147161910Y-97647476D03*
X162401910Y-97647476D03*
X162401910Y-95107476D03*
X162401910Y-92567476D03*
X162401910Y-90027476D03*
X162401910Y-87487476D03*
X162401910Y-84947476D03*
X162401910Y-82407476D03*
X162401910Y-79867476D03*
X162401910Y-77327476D03*
X162401910Y-74787476D03*
X162401910Y-72247476D03*
X162401910Y-69707476D03*
X114995313Y-65567969D03*
X117376563Y-65567969D03*
X183159375Y-89976174D03*
D14*
X126206250Y-83343750D03*
X126206788Y-140494349D03*
X202407114Y-140494349D03*
X202406250Y-83343750D03*
X126206788Y-121444268D03*
X202407114Y-121444267D03*
D15*
X111590625Y-121443750D03*
D16*
X119390625Y-121443750D03*
D15*
X111590625Y-83343750D03*
D16*
X119390625Y-83343750D03*
D15*
X133021875Y-83343750D03*
D16*
X140821875Y-83343750D03*
D15*
X169931250Y-83343750D03*
D16*
X177731250Y-83343750D03*
D15*
X183357032Y-72002668D03*
D16*
X183357032Y-79802668D03*
D15*
X187790625Y-83343750D03*
D16*
X195590625Y-83343750D03*
D15*
X209221875Y-83343750D03*
D16*
X217021875Y-83343750D03*
D15*
X111590625Y-102393750D03*
D16*
X119390625Y-102393750D03*
D15*
X126206788Y-91052749D03*
D16*
X126206788Y-98852749D03*
D15*
X164306951Y-105935625D03*
D16*
X164306951Y-113735625D03*
D15*
X183357032Y-105935625D03*
D16*
X183357032Y-113735625D03*
D15*
X202407114Y-91052749D03*
D16*
X202407114Y-98852749D03*
D15*
X209222784Y-102394187D03*
D16*
X217022784Y-102394187D03*
D15*
X126206788Y-105935625D03*
D16*
X126206788Y-113735625D03*
D15*
X145256870Y-105935625D03*
D16*
X145256870Y-113735625D03*
D15*
X150881250Y-121443750D03*
D16*
X158681250Y-121443750D03*
D15*
X169931250Y-121443750D03*
D16*
X177731250Y-121443750D03*
D15*
X187790625Y-121443750D03*
D16*
X195590625Y-121443750D03*
D15*
X202407114Y-105935625D03*
D16*
X202407114Y-113735625D03*
D15*
X133022459Y-121444268D03*
D16*
X140822459Y-121444268D03*
D15*
X145256870Y-124985706D03*
D16*
X145256870Y-132785706D03*
D15*
X164306951Y-124985706D03*
D16*
X164306951Y-132785706D03*
D15*
X183357032Y-124985706D03*
D16*
X183357032Y-132785706D03*
D15*
X209222784Y-121444268D03*
D16*
X217022784Y-121444268D03*
D15*
X110995803Y-140494349D03*
D16*
X118795803Y-140494349D03*
D15*
X150881910Y-140494349D03*
D16*
X158681910Y-140494349D03*
D15*
X169931992Y-140494349D03*
D16*
X177731992Y-140494349D03*
D15*
X187493785Y-140494349D03*
D16*
X195293785Y-140494349D03*
D15*
X209520442Y-140494349D03*
D16*
X217320442Y-140494349D03*
D15*
X133320117Y-140494349D03*
D16*
X141120117Y-140494349D03*
D11*
X190341250Y-125888750D03*
X196691250Y-128428750D03*
X209391250Y-106838750D03*
X215741250Y-109378750D03*
X190341250Y-106838750D03*
X196691250Y-109378750D03*
X152241250Y-106838750D03*
X158591250Y-109378750D03*
X133191250Y-106838750D03*
X139541250Y-109378750D03*
X114141250Y-106838750D03*
X120491250Y-109378750D03*
X209391250Y-87788750D03*
X215741250Y-90328750D03*
X190341250Y-87788750D03*
X196691250Y-90328750D03*
X152241250Y-87788750D03*
X158591250Y-90328750D03*
X133191250Y-87788750D03*
X139541250Y-90328750D03*
X114141250Y-87788750D03*
X120491250Y-90328750D03*
X171291250Y-68738750D03*
X177641250Y-71278750D03*
X157321250Y-78898750D03*
X150971250Y-76358750D03*
X209391250Y-125888750D03*
X215741250Y-128428750D03*
X152241250Y-125888750D03*
X158591250Y-128428750D03*
D17*
X122956788Y-77553435D03*
X129456788Y-76453435D03*
X129456788Y-72453435D03*
X129456788Y-69453435D03*
X199157114Y-77553435D03*
X205657114Y-76453435D03*
X205657114Y-72453435D03*
X205657114Y-69453435D03*
D11*
X114141250Y-68738750D03*
X120491250Y-71278750D03*
X209391250Y-68738750D03*
X215741250Y-71278750D03*
X190341250Y-68738750D03*
X196691250Y-71278750D03*
X190342073Y-144939390D03*
X196692073Y-147479390D03*
X133191250Y-68738750D03*
X139541250Y-71278750D03*
X215742114Y-147479390D03*
X209392114Y-144939390D03*
X199867114Y-144939390D03*
X206217114Y-147479390D03*
X139541788Y-147479390D03*
X133191788Y-144939390D03*
X123666788Y-144939390D03*
X130016788Y-147479390D03*
D13*
X183159375Y-95929324D03*
D16*
X145256870Y-144959212D03*
D18*
X145256870Y-155119212D03*
D16*
X183357032Y-144959212D03*
D18*
X183357032Y-155119212D03*
D19*
X213202154Y-155099390D03*
D20*
X210662154Y-155099390D03*
D19*
X203677114Y-155099390D03*
D20*
X201137114Y-155099390D03*
D19*
X194152073Y-155099390D03*
D20*
X191612073Y-155099390D03*
D19*
X175101992Y-155099390D03*
D20*
X172561992Y-155099390D03*
D19*
X117951748Y-155099390D03*
D20*
X115411748Y-155099390D03*
D19*
X127476788Y-155099390D03*
D20*
X124936788Y-155099390D03*
D19*
X137001829Y-155099390D03*
D20*
X134461829Y-155099390D03*
D19*
X156051910Y-155099390D03*
D20*
X153511910Y-155099390D03*
D21*
X126206788Y-103287159D03*
X164009294Y-104180132D03*
X164009294Y-100310584D03*
X155079568Y-100310584D03*
X155079568Y-104477790D03*
X163711636Y-123527871D03*
X181868745Y-119658323D03*
X163711636Y-119658323D03*
X144066240Y-82748791D03*
X145852185Y-66377627D03*
X127397419Y-73819065D03*
X203895401Y-75009695D03*
X172641362Y-141387322D03*
X172641362Y-102691844D03*
X193477388Y-144661555D03*
X191691443Y-102096529D03*
X126257754Y-65575000D03*
X200621168Y-102096529D03*
X162521006Y-139303719D03*
X202704771Y-65782312D03*
X165795239Y-68461230D03*
X128290391Y-67270600D03*
X172939019Y-84832393D03*
X163413978Y-67270600D03*
X219671250Y-103584817D03*
X116979405Y-157758486D03*
X108942652Y-103584817D03*
X165199924Y-87511311D03*
X165795239Y-103287159D03*
D22*
X162421386Y-84966952D02*
X162401910Y-84947476D01*
X126206788Y-103287159D02*
X120284034Y-103287159D01*
X120284034Y-103287159D02*
X119390625Y-102393750D01*
X162401910Y-90027476D02*
X163548883Y-90027476D01*
X164306951Y-100012927D02*
X164009294Y-100310584D01*
X164306951Y-90785544D02*
X164306951Y-100012927D01*
X163548883Y-90027476D02*
X164306951Y-90785544D01*
X126206788Y-98852749D02*
X126206250Y-103286621D01*
X126206250Y-103286621D02*
X126206788Y-103287159D01*
X164009294Y-100310584D02*
X164009294Y-104180132D01*
X120491250Y-90328750D02*
X120491250Y-96203424D01*
X114300924Y-102393750D02*
X111590625Y-102393750D01*
X120491250Y-96203424D02*
X114300924Y-102393750D01*
X164306951Y-105935625D02*
X164306951Y-105668420D01*
X164306951Y-105668420D02*
X164902266Y-105073105D01*
X164902266Y-105073105D02*
X164902266Y-90487886D01*
X164902266Y-90487886D02*
X164009294Y-89594914D01*
X164009294Y-89594914D02*
X164009294Y-84534736D01*
X164009294Y-84534736D02*
X163116321Y-83641763D01*
X163116321Y-83641763D02*
X156567855Y-83641763D01*
X156567855Y-83641763D02*
X155972540Y-84237078D01*
X155972540Y-84237078D02*
X155972540Y-87710040D01*
X155972540Y-87710040D02*
X158591250Y-90328750D01*
X177641250Y-90328750D02*
X177641250Y-95310696D01*
X181601539Y-104180132D02*
X183357032Y-105935625D01*
X175617937Y-104180132D02*
X181601539Y-104180132D01*
X175022622Y-103584817D02*
X175617937Y-104180132D01*
X175022622Y-97929324D02*
X175022622Y-103584817D01*
X177641250Y-95310696D02*
X175022622Y-97929324D01*
X196691250Y-90328750D02*
X196691250Y-95906092D01*
X200918826Y-92571489D02*
X202407114Y-91052749D01*
X200918826Y-100012927D02*
X200918826Y-92571489D01*
X200323511Y-100608242D02*
X200918826Y-100012927D01*
X194668018Y-100608242D02*
X200323511Y-100608242D01*
X194072703Y-100012927D02*
X194668018Y-100608242D01*
X194072703Y-98524639D02*
X194072703Y-100012927D01*
X196691250Y-95906092D02*
X194072703Y-98524639D01*
X155079568Y-100310584D02*
X155079568Y-104477790D01*
X120491250Y-109378750D02*
X120491250Y-109180264D01*
X120491250Y-109180264D02*
X117872378Y-106561392D01*
X117872378Y-106561392D02*
X117872378Y-104775447D01*
X117872378Y-104775447D02*
X118467693Y-104180132D01*
X118467693Y-104180132D02*
X124420843Y-104180132D01*
X124420843Y-104180132D02*
X126206788Y-105935625D01*
X139541250Y-109378750D02*
X139442159Y-109378750D01*
X139442159Y-109378750D02*
X136922459Y-106859050D01*
X136922459Y-106859050D02*
X136922459Y-104775447D01*
X136922459Y-104775447D02*
X137517774Y-104180132D01*
X137517774Y-104180132D02*
X143470925Y-104180132D01*
X143470925Y-104180132D02*
X145256870Y-105935625D01*
X145256870Y-105935625D02*
X145226417Y-105935625D01*
X177641250Y-109378750D02*
X177641250Y-114956093D01*
X171153593Y-121443750D02*
X169931250Y-121443750D01*
X177641250Y-114956093D02*
X171153593Y-121443750D01*
X163116321Y-123527871D02*
X163711636Y-123527871D01*
X183357032Y-132785706D02*
X183089828Y-132785706D01*
X183089828Y-132785706D02*
X181868745Y-131564624D01*
X181868745Y-131564624D02*
X181868745Y-119658323D01*
X140822459Y-121444268D02*
X140792006Y-121444268D01*
X163116321Y-119658323D02*
X163711636Y-119658323D01*
X164306951Y-132785706D02*
X163116321Y-131564624D01*
X163116321Y-131564624D02*
X163116321Y-123527871D01*
X163116321Y-123527871D02*
X163116321Y-119658323D01*
X163116321Y-119658323D02*
X163116321Y-99715269D01*
X163116321Y-99715269D02*
X163711636Y-99119954D01*
X163711636Y-99119954D02*
X163711636Y-96417202D01*
X163711636Y-96417202D02*
X162401910Y-95107476D01*
X122956788Y-77553435D02*
X123365391Y-77553435D01*
X123365391Y-77553435D02*
X124420843Y-76497983D01*
X124420843Y-76497983D02*
X124420843Y-64889115D01*
X122956788Y-77553435D02*
X122797378Y-77553435D01*
X119062500Y-65782031D02*
X119062474Y-65782031D01*
X145852185Y-67270600D02*
X145852185Y-67270599D01*
X143470925Y-64889339D02*
X145852185Y-67270600D01*
X119955442Y-64889063D02*
X124420843Y-64889115D01*
X124420843Y-64889115D02*
X143470925Y-64889339D01*
X119062474Y-65782031D02*
X119955442Y-64889063D01*
X114995313Y-65567969D02*
X114995313Y-65584375D01*
X114995313Y-65584375D02*
X116383594Y-66972656D01*
X116383594Y-66972656D02*
X117871875Y-66972656D01*
X117871875Y-66972656D02*
X119062500Y-65782031D01*
X200621168Y-66377627D02*
X199728196Y-65484654D01*
X199728196Y-65484654D02*
X147638130Y-65484654D01*
X146446878Y-66675000D02*
X145852185Y-67270599D01*
X147638130Y-65484654D02*
X146446878Y-66675000D01*
X145852185Y-67270599D02*
X145851563Y-70842188D01*
X146149219Y-71139844D02*
X147078566Y-72330820D01*
X145851563Y-70842188D02*
X146149219Y-71139844D01*
X147078566Y-72330820D02*
X147161910Y-72247476D01*
X200025853Y-77093298D02*
X200621168Y-76795640D01*
X200621168Y-76795640D02*
X200621168Y-66377627D01*
X198858603Y-77553125D02*
X200025853Y-77093298D01*
X144066240Y-84832393D02*
X144066240Y-84237079D01*
X147042815Y-143173267D02*
X147042815Y-104180132D01*
X147042815Y-104180132D02*
X144066240Y-101203557D01*
X144066240Y-101203557D02*
X144066240Y-84832393D01*
X145256870Y-144959212D02*
X147042815Y-143173267D01*
X144066240Y-84237079D02*
X144066240Y-82748791D01*
X129456788Y-72453435D02*
X127817734Y-72453435D01*
X144661555Y-76795640D02*
X145193391Y-77327476D01*
X145193391Y-77327476D02*
X147161910Y-77327476D01*
X127397419Y-66675284D02*
X127397419Y-72033120D01*
X127992734Y-66079969D02*
X127397419Y-66675284D01*
X142875610Y-66079969D02*
X127992734Y-66079969D01*
X144661555Y-67865914D02*
X142875610Y-66079969D01*
X144661555Y-67865914D02*
X144661555Y-76795640D01*
X127817734Y-72453435D02*
X127397419Y-72033120D01*
X205657114Y-72453435D02*
X204788374Y-72628435D01*
X204788374Y-72628435D02*
X202109456Y-72628435D01*
X202109456Y-72628435D02*
X201216484Y-71735462D01*
X147340472Y-64889339D02*
X145852185Y-66377627D01*
X200323511Y-64889339D02*
X147340472Y-64889339D01*
X201216484Y-65782312D02*
X200323511Y-64889339D01*
X201216484Y-71735462D02*
X201216484Y-65782312D01*
X205358603Y-72453125D02*
X204910165Y-72453125D01*
X127397419Y-73819065D02*
X127397419Y-75605010D01*
X127397419Y-75605010D02*
X128290391Y-76497983D01*
X128290391Y-76497983D02*
X129456788Y-76453435D01*
X205383689Y-76497983D02*
X203895401Y-75009695D01*
X205358603Y-76453125D02*
X205383689Y-76497983D01*
X114141250Y-106838750D02*
X114618445Y-106838750D01*
X114618445Y-106838750D02*
X115491118Y-105966077D01*
X114141250Y-97174772D02*
X114141250Y-87788750D01*
X115491118Y-98524640D02*
X114141250Y-97174772D01*
X115491118Y-100012927D02*
X115491118Y-98524640D01*
X114895803Y-100608242D02*
X115491118Y-100012927D01*
X110430940Y-100608242D02*
X114895803Y-100608242D01*
X109835625Y-101203557D02*
X110430940Y-100608242D01*
X109835625Y-103584817D02*
X109835625Y-101203557D01*
X110430940Y-104180132D02*
X109835625Y-103584817D01*
X114895803Y-104180132D02*
X110430940Y-104180132D01*
X115491118Y-104775447D02*
X114895803Y-104180132D01*
X115491118Y-105966077D02*
X115491118Y-104775447D01*
X114141250Y-87788750D02*
X114618364Y-87788750D01*
X114618364Y-87788750D02*
X115491118Y-86915996D01*
X114141250Y-76636402D02*
X114141250Y-68738750D01*
X115491118Y-77986270D02*
X114141250Y-76636402D01*
X115491118Y-86915996D02*
X115491118Y-77986270D01*
X114141250Y-125888750D02*
X114618526Y-125888750D01*
X114618526Y-125888750D02*
X115491118Y-125016158D01*
X114141250Y-114736565D02*
X114141250Y-106838750D01*
X115491118Y-116086433D02*
X114141250Y-114736565D01*
X115491118Y-125016158D02*
X115491118Y-116086433D01*
X114141748Y-144939390D02*
X114617968Y-144939390D01*
X114617968Y-144939390D02*
X116979405Y-142577952D01*
X116979405Y-142577952D02*
X116979405Y-136327144D01*
X116979405Y-136327144D02*
X114141250Y-133488988D01*
X114141250Y-133488988D02*
X114141250Y-125888750D01*
X133191788Y-144939390D02*
X130989131Y-144939390D01*
X124579583Y-145852185D02*
X123666788Y-144939390D01*
X130076336Y-145852185D02*
X124579583Y-145852185D01*
X130989131Y-144939390D02*
X130076336Y-145852185D01*
X134541199Y-81558160D02*
X134540727Y-77092826D01*
X134540727Y-77092826D02*
X133191250Y-75743349D01*
X133191250Y-75743349D02*
X133191250Y-68738750D01*
X133191250Y-87788750D02*
X133191250Y-95091087D01*
X133191250Y-95091087D02*
X134541199Y-96441036D01*
X134541199Y-96441036D02*
X134541199Y-105488801D01*
X134541199Y-105488801D02*
X133191250Y-106838750D01*
X133191250Y-125888750D02*
X133191250Y-133488908D01*
X134541199Y-143590020D02*
X133191829Y-144939390D01*
X134541199Y-134838857D02*
X134541199Y-143590020D01*
X133191250Y-133488908D02*
X134541199Y-134838857D01*
X133191250Y-106838750D02*
X133191250Y-114736484D01*
X134541199Y-124538801D02*
X133191250Y-125888750D01*
X134541199Y-116086433D02*
X134541199Y-124538801D01*
X133191250Y-114736484D02*
X134541199Y-116086433D01*
X147161910Y-87487476D02*
X147042815Y-87511311D01*
X145256870Y-82748791D02*
X144066240Y-81558160D01*
X147042815Y-87511311D02*
X145256870Y-85725366D01*
X145256870Y-85725366D02*
X145256870Y-82748791D01*
X144066240Y-81558160D02*
X134541199Y-81558160D01*
X134541199Y-81558160D02*
X134541199Y-86915996D01*
X134541199Y-86915996D02*
X133350000Y-88106251D01*
X153591280Y-87213653D02*
X153591280Y-82628720D01*
X153016183Y-87788750D02*
X153591280Y-87213653D01*
X153591280Y-82628720D02*
X157321250Y-78898750D01*
X152241250Y-87788750D02*
X153016183Y-87788750D01*
X146745157Y-100608439D02*
X153591280Y-100608439D01*
X153591280Y-100608439D02*
X153591280Y-100608242D01*
X152241250Y-106838750D02*
X152718607Y-106838750D01*
X152718607Y-106838750D02*
X153591280Y-105966077D01*
X153591280Y-105966077D02*
X153591280Y-100608242D01*
X153591280Y-100608242D02*
X153591280Y-96441280D01*
X152241250Y-125888750D02*
X152718688Y-125888750D01*
X152718688Y-125888750D02*
X153591280Y-125016158D01*
X152241250Y-114736402D02*
X152241250Y-106838750D01*
X153591280Y-116086432D02*
X152241250Y-114736402D01*
X153591280Y-125016158D02*
X153591280Y-116086432D01*
X152241910Y-144939390D02*
X152718130Y-144939390D01*
X152718130Y-144939390D02*
X153591280Y-144066240D01*
X153591280Y-144066240D02*
X153591280Y-134838856D01*
X153591280Y-134838856D02*
X152241250Y-133488826D01*
X152241250Y-133488826D02*
X152241250Y-125888750D01*
X147161910Y-90027476D02*
X146907911Y-90027476D01*
X146907911Y-90027476D02*
X145852185Y-91083201D01*
X145852185Y-91083201D02*
X145851563Y-99714845D01*
X145851563Y-99714845D02*
X146745157Y-100608439D01*
X152102343Y-87808592D02*
X152102343Y-94952342D01*
X152102343Y-94952342D02*
X153591280Y-96441280D01*
X171291250Y-133786402D02*
X172641362Y-135136514D01*
X172641362Y-135136514D02*
X172641362Y-141387322D01*
X171291250Y-125888750D02*
X171291250Y-133786402D01*
X171291250Y-125888750D02*
X171768770Y-125888750D01*
X171768770Y-125888750D02*
X172641362Y-125016158D01*
X171291250Y-114736321D02*
X171291250Y-106838750D01*
X172641362Y-116086433D02*
X171291250Y-114736321D01*
X172641362Y-119063008D02*
X172641362Y-116086433D01*
X172046047Y-119658323D02*
X172641362Y-119063008D01*
X168771814Y-119658323D02*
X172046047Y-119658323D01*
X168176499Y-120253638D02*
X168771814Y-119658323D01*
X168176499Y-122634898D02*
X168176499Y-120253638D01*
X168771814Y-123230213D02*
X168176499Y-122634898D01*
X172046047Y-123230213D02*
X168771814Y-123230213D01*
X172641362Y-123825528D02*
X172046047Y-123230213D01*
X172641362Y-125016158D02*
X172641362Y-123825528D01*
X171291250Y-87788750D02*
X171291250Y-95686240D01*
X171291250Y-95686240D02*
X172641362Y-97036352D01*
X172641362Y-97036352D02*
X172641362Y-102691844D01*
X172641362Y-105488638D02*
X171291250Y-106838750D01*
X172641362Y-102691844D02*
X172641362Y-105488638D01*
X171291250Y-68738750D02*
X171291250Y-76636158D01*
X173831992Y-85427708D02*
X171291250Y-87788750D01*
X173831992Y-79176900D02*
X173831992Y-85427708D01*
X171291250Y-76636158D02*
X173831992Y-79176900D01*
X190341250Y-125888750D02*
X190341250Y-133786321D01*
X194072703Y-137517774D02*
X190341250Y-133786321D01*
X194072703Y-144066240D02*
X194072703Y-137517774D01*
X193477388Y-144661555D02*
X194072703Y-144066240D01*
X191691443Y-102096529D02*
X191691443Y-102394187D01*
X190341250Y-87788750D02*
X190818689Y-87788750D01*
X190818689Y-87788750D02*
X191691443Y-86915996D01*
X190341250Y-76933735D02*
X190341250Y-68738750D01*
X191691443Y-78283928D02*
X190341250Y-76933735D01*
X191691443Y-86915996D02*
X191691443Y-78283928D01*
X190341250Y-106838750D02*
X190818770Y-106838750D01*
X190818770Y-106838750D02*
X191691443Y-105966077D01*
X190341250Y-95388501D02*
X190341250Y-87788750D01*
X191691443Y-96738694D02*
X190341250Y-95388501D01*
X191691443Y-105966077D02*
X191691443Y-102394187D01*
X191691443Y-102394187D02*
X191691443Y-96738694D01*
X190341250Y-125888750D02*
X190818851Y-125888750D01*
X190818851Y-125888750D02*
X191691443Y-125016158D01*
X190341250Y-114736240D02*
X190341250Y-106838750D01*
X191691443Y-116086433D02*
X190341250Y-114736240D01*
X191691443Y-125016158D02*
X191691443Y-116086433D01*
X146224625Y-74787130D02*
X147161910Y-74787476D01*
X145256250Y-73818755D02*
X146224625Y-74787130D01*
X145256870Y-67568257D02*
X145256250Y-73818755D01*
X143173267Y-65484654D02*
X145256870Y-67568257D01*
X127099761Y-65484654D02*
X143173267Y-65484654D01*
X126257754Y-65575000D02*
X127099761Y-65484654D01*
X162401910Y-69707476D02*
X162401910Y-66794380D01*
X181868745Y-88701941D02*
X183159375Y-89976174D01*
X181868745Y-66675284D02*
X181868745Y-88701941D01*
X181273430Y-66079969D02*
X181868745Y-66675284D01*
X163116321Y-66079969D02*
X181273430Y-66079969D01*
X162401910Y-66794380D02*
X163116321Y-66079969D01*
X215741250Y-90328750D02*
X215741250Y-95875721D01*
X215741250Y-95875721D02*
X209222784Y-102394187D01*
X215741250Y-109378750D02*
X215741250Y-108882200D01*
X215741250Y-108882200D02*
X210443867Y-103584817D01*
X210443867Y-103584817D02*
X203002429Y-103584817D01*
X203002429Y-103584817D02*
X202407114Y-104180132D01*
X202407114Y-104180132D02*
X202407114Y-105935625D01*
X209392114Y-144939390D02*
X207487114Y-144939390D01*
X200779909Y-145852185D02*
X199867114Y-144939390D01*
X206574319Y-145852185D02*
X200779909Y-145852185D01*
X207487114Y-144939390D02*
X206574319Y-145852185D01*
X209391250Y-106838750D02*
X209868851Y-106838750D01*
X209868851Y-106838750D02*
X210741524Y-105966077D01*
X209391250Y-95983734D02*
X209391250Y-87788750D01*
X210741524Y-97334008D02*
X209391250Y-95983734D01*
X210741524Y-100012927D02*
X210741524Y-97334008D01*
X210146209Y-100608242D02*
X210741524Y-100012927D01*
X201216483Y-100608242D02*
X210146209Y-100608242D01*
X200621168Y-101203557D02*
X201216483Y-100608242D01*
X200621168Y-107156707D02*
X200621168Y-102096529D01*
X200621168Y-102096529D02*
X200621168Y-101203557D01*
X201216483Y-107752022D02*
X200621168Y-107156707D01*
X210146209Y-104180132D02*
X204788374Y-104180132D01*
X204788374Y-104180132D02*
X204193059Y-104775447D01*
X204193059Y-104775447D02*
X204193059Y-107156707D01*
X204193059Y-107156707D02*
X203597744Y-107752022D01*
X203597744Y-107752022D02*
X201216483Y-107752022D01*
X210741524Y-104775447D02*
X210146209Y-104180132D01*
X210741524Y-105966077D02*
X210741524Y-104775447D01*
X209391250Y-125888750D02*
X209391250Y-133786240D01*
X210741524Y-143590020D02*
X209392154Y-144939390D01*
X210741524Y-135136514D02*
X210741524Y-143590020D01*
X209391250Y-133786240D02*
X210741524Y-135136514D01*
X209391250Y-106838750D02*
X209391250Y-114736159D01*
X210741524Y-124538476D02*
X209391250Y-125888750D01*
X210741524Y-116086433D02*
X210741524Y-124538476D01*
X209391250Y-114736159D02*
X210741524Y-116086433D01*
X209391250Y-68738750D02*
X209391250Y-76635996D01*
X210741524Y-86438476D02*
X209391250Y-87788750D01*
X210741524Y-77986270D02*
X210741524Y-86438476D01*
X209391250Y-76635996D02*
X210741524Y-77986270D01*
X162401910Y-97647476D02*
X162401910Y-97810228D01*
X162521006Y-97929324D02*
X162401910Y-97810228D01*
X162521006Y-139303719D02*
X162521006Y-97929324D01*
X205657114Y-69453435D02*
X205185264Y-69453435D01*
X205185264Y-69453435D02*
X203895401Y-68163572D01*
X203895401Y-68163572D02*
X203895401Y-66972942D01*
X203895401Y-66972942D02*
X202704771Y-65782312D01*
X128290391Y-68758887D02*
X128290391Y-67270600D01*
X128984939Y-69453435D02*
X128290391Y-68758887D01*
X167581184Y-84832393D02*
X172939019Y-84832393D01*
X165795239Y-83046448D02*
X167581184Y-84832393D01*
X165795239Y-68461230D02*
X165795239Y-83046448D01*
X164604609Y-67270600D02*
X165795239Y-68461230D01*
X163413978Y-67270600D02*
X164604609Y-67270600D01*
X129456788Y-69453435D02*
X128984939Y-69453435D01*
X125611473Y-158949116D02*
X119261474Y-158949116D01*
X119261474Y-158949116D02*
X115411748Y-155099390D01*
X183357032Y-158353801D02*
X182761717Y-158949116D01*
X124936788Y-158274431D02*
X124936788Y-155099390D01*
X125611473Y-158949116D02*
X124936788Y-158274431D01*
X182761717Y-158949116D02*
X125611473Y-158949116D01*
X200323511Y-158949116D02*
X210146209Y-158949116D01*
X210662154Y-158433171D02*
X210662154Y-155099390D01*
X210146209Y-158949116D02*
X210662154Y-158433171D01*
X183357032Y-155119212D02*
X183357032Y-158353801D01*
X201137114Y-158135513D02*
X201137114Y-155099390D01*
X200323511Y-158949116D02*
X201137114Y-158135513D01*
X183952347Y-158949116D02*
X200323511Y-158949116D01*
X183357032Y-158353801D02*
X183952347Y-158949116D01*
X191612073Y-155099390D02*
X191612073Y-153214253D01*
X171153074Y-153690472D02*
X172561992Y-155099390D01*
X171153074Y-148233445D02*
X171153074Y-153690472D01*
X173236677Y-146149843D02*
X171153074Y-148233445D01*
X173236677Y-143768583D02*
X173236677Y-146149843D01*
X173236677Y-142875610D02*
X173236677Y-143768583D01*
X173236677Y-142875610D02*
X173236677Y-142875610D01*
X176808568Y-139303719D02*
X173236677Y-142875610D01*
X191691443Y-139303719D02*
X176808568Y-139303719D01*
X192882073Y-140494349D02*
X191691443Y-139303719D01*
X192882073Y-142875610D02*
X192882073Y-140494349D01*
X191989100Y-143768583D02*
X192882073Y-142875610D01*
X191989100Y-145852185D02*
X191989100Y-143768583D01*
X190203155Y-147638130D02*
X191989100Y-145852185D01*
X190203155Y-151805335D02*
X190203155Y-147638130D01*
X191612073Y-153214253D02*
X190203155Y-151805335D01*
X134461829Y-155099390D02*
X134461829Y-152618938D01*
X144066240Y-153928582D02*
X145256870Y-155119212D01*
X144066240Y-140494349D02*
X144066240Y-153928582D01*
X142280295Y-138708404D02*
X144066240Y-140494349D01*
X136327144Y-138708404D02*
X142280295Y-138708404D01*
X135136514Y-139899034D02*
X136327144Y-138708404D01*
X135136514Y-145852185D02*
X135136514Y-139899034D01*
X133052911Y-147935788D02*
X135136514Y-145852185D01*
X133052911Y-151210020D02*
X133052911Y-147935788D01*
X134461829Y-152618938D02*
X133052911Y-151210020D01*
X211634497Y-144661555D02*
X211634497Y-145852185D01*
X219671250Y-103584817D02*
X219671250Y-121444268D01*
X219671250Y-121444268D02*
X219671250Y-138410746D01*
X219671250Y-138410746D02*
X219075935Y-139006061D01*
X219075935Y-139006061D02*
X212229812Y-139006062D01*
X212229812Y-139006062D02*
X211634497Y-139601377D01*
X211634497Y-139601377D02*
X211634497Y-144661555D01*
X214611072Y-153690472D02*
X213202154Y-155099390D01*
X214611072Y-148828760D02*
X214611072Y-153690472D01*
X211634497Y-145852185D02*
X214611072Y-148828760D01*
X115788775Y-158949116D02*
X116979405Y-157758486D01*
X109835625Y-158949116D02*
X115788775Y-158949116D01*
X108942652Y-158056143D02*
X109835625Y-158949116D01*
X108942652Y-103584817D02*
X108942652Y-158056143D01*
X165497581Y-102691844D02*
X165497581Y-102989501D01*
X165199924Y-87511311D02*
X165497581Y-87808968D01*
X165497581Y-87808968D02*
X165497581Y-102691844D01*
X165497581Y-102989501D02*
X165795239Y-103287159D01*
X166092896Y-141684980D02*
X166688211Y-142280295D01*
X194152073Y-152916596D02*
X194152073Y-155099390D01*
X195560991Y-151507678D02*
X194152073Y-152916596D01*
X195560991Y-148828760D02*
X195560991Y-151507678D01*
X192584415Y-145852184D02*
X195560991Y-148828760D01*
X192584415Y-144066240D02*
X192584415Y-145852184D01*
X193477388Y-143173267D02*
X192584415Y-144066240D01*
X193477388Y-139601377D02*
X193477388Y-143173267D01*
X192584415Y-138708404D02*
X193477388Y-139601377D01*
X176510910Y-138708404D02*
X192584415Y-138708404D01*
X172939019Y-142280295D02*
X176510910Y-138708404D01*
X166688211Y-142280295D02*
X172939019Y-142280295D01*
X156051910Y-155099390D02*
X156051910Y-158353801D01*
X156051910Y-158353801D02*
X155972540Y-158353801D01*
X144959212Y-158353801D02*
X155972540Y-158353801D01*
X137001829Y-152618938D02*
X138410747Y-151210020D01*
X138410747Y-151210020D02*
X138410747Y-148828760D01*
X138410747Y-148828760D02*
X135731829Y-146149842D01*
X135731829Y-146149842D02*
X135731829Y-140196692D01*
X135731829Y-140196692D02*
X136624802Y-139303719D01*
X136624802Y-139303719D02*
X141684979Y-139303719D01*
X141684979Y-139303719D02*
X143470925Y-141089665D01*
X143470925Y-141089665D02*
X143470925Y-156865513D01*
X143470925Y-156865513D02*
X144959212Y-158353801D01*
X137001829Y-155099390D02*
X137001829Y-152618938D01*
X155972540Y-158353801D02*
X174427307Y-158353801D01*
X175101992Y-157679116D02*
X175101992Y-155099390D01*
X174427307Y-158353801D02*
X175101992Y-157679116D01*
X162401910Y-79867476D02*
X164402212Y-79867476D01*
X157460828Y-153690472D02*
X156051910Y-155099390D01*
X157460828Y-148828760D02*
X157460828Y-153690472D01*
X155972540Y-147340472D02*
X157460828Y-148828760D01*
X155972540Y-142875610D02*
X155972540Y-147340472D01*
X156567855Y-142280295D02*
X155972540Y-142875610D01*
X165497581Y-142280295D02*
X156567855Y-142280295D01*
X166092896Y-141684980D02*
X165497581Y-142280295D01*
X166092896Y-84237078D02*
X166092896Y-100012927D01*
X166092896Y-100012927D02*
X166092896Y-101501214D01*
X166092896Y-101501214D02*
X166688211Y-102096529D01*
X166688211Y-102096529D02*
X166688211Y-104180133D01*
X166688211Y-104180133D02*
X166092896Y-104775448D01*
X166092896Y-104775448D02*
X166092896Y-141684980D01*
X165220466Y-83364648D02*
X166092896Y-84237078D01*
X165220466Y-80685730D02*
X165220466Y-83364648D01*
X164402212Y-79867476D02*
X165220466Y-80685730D01*
D23*
G36*
X200456484Y-66097114D02*
X200456484Y-66463687D01*
X200368296Y-66331704D01*
X200137955Y-66177796D01*
X199866250Y-66123750D01*
X194786250Y-66123750D01*
X194514545Y-66177796D01*
X194284204Y-66331704D01*
X194130296Y-66562045D01*
X194076250Y-66833750D01*
X194076250Y-67468750D01*
X194130296Y-67740455D01*
X194284204Y-67970796D01*
X194514545Y-68124704D01*
X194786250Y-68178750D01*
X198521250Y-68178750D01*
X198521250Y-72442373D01*
X198258111Y-72333108D01*
X198151812Y-72333015D01*
X198197686Y-72287221D01*
X198468941Y-71633968D01*
X198469558Y-70926636D01*
X198199444Y-70272910D01*
X197699721Y-69772314D01*
X197046468Y-69501059D01*
X196339136Y-69500442D01*
X195685410Y-69770556D01*
X195184814Y-70270279D01*
X194913559Y-70923532D01*
X194912942Y-71630864D01*
X195183056Y-72284590D01*
X195682779Y-72785186D01*
X196336032Y-73056441D01*
X196668758Y-73056731D01*
X196475608Y-73521889D01*
X196475092Y-74113017D01*
X196700830Y-74659345D01*
X197118456Y-75077701D01*
X197664389Y-75304392D01*
X198255517Y-75304908D01*
X198521250Y-75195109D01*
X198521250Y-76318435D01*
X197780804Y-76318435D01*
X197547415Y-76415108D01*
X197368787Y-76593737D01*
X197272114Y-76827126D01*
X197272114Y-77267685D01*
X197430864Y-77426435D01*
X199030114Y-77426435D01*
X199030114Y-77406435D01*
X199284114Y-77406435D01*
X199284114Y-77426435D01*
X200883364Y-77426435D01*
X201042114Y-77267685D01*
X201042114Y-76827126D01*
X200945441Y-76593737D01*
X200766813Y-76415108D01*
X200576250Y-76336174D01*
X200576250Y-72118962D01*
X200679083Y-72272863D01*
X201572055Y-73165836D01*
X201818616Y-73330583D01*
X202109456Y-73388435D01*
X203868096Y-73388435D01*
X203943024Y-73504876D01*
X204155224Y-73649866D01*
X204236250Y-73666274D01*
X204236250Y-74138824D01*
X204082200Y-74074857D01*
X203710234Y-74074533D01*
X203602281Y-74119138D01*
X203581945Y-74069920D01*
X203192678Y-73679974D01*
X202683816Y-73468676D01*
X202132829Y-73468195D01*
X201623599Y-73678604D01*
X201233653Y-74067871D01*
X201022355Y-74576733D01*
X201021874Y-75127720D01*
X201232283Y-75636950D01*
X201621550Y-76026896D01*
X202130412Y-76238194D01*
X202681399Y-76238675D01*
X203190629Y-76028266D01*
X203402030Y-75817233D01*
X203708602Y-75944533D01*
X203755478Y-75944574D01*
X203759674Y-75948770D01*
X203759674Y-77053435D01*
X203803952Y-77288752D01*
X203943024Y-77504876D01*
X204155224Y-77649866D01*
X204236250Y-77666274D01*
X204236250Y-78164973D01*
X203113376Y-79287847D01*
X202964887Y-79510077D01*
X202912744Y-79772215D01*
X202912744Y-80509191D01*
X201901483Y-80508308D01*
X201901483Y-79772215D01*
X201849340Y-79510077D01*
X201700851Y-79287847D01*
X200935789Y-78522785D01*
X200945441Y-78513133D01*
X201042114Y-78279744D01*
X201042114Y-77839185D01*
X200883364Y-77680435D01*
X200246668Y-77680435D01*
X200137955Y-77607796D01*
X199866250Y-77553750D01*
X199231250Y-77553750D01*
X198959545Y-77607796D01*
X198850832Y-77680435D01*
X197430864Y-77680435D01*
X197272114Y-77839185D01*
X197272114Y-78279744D01*
X197368787Y-78513133D01*
X197547415Y-78691762D01*
X197780804Y-78788435D01*
X197957295Y-78788435D01*
X197286980Y-79458750D01*
X194786250Y-79458750D01*
X194514545Y-79512796D01*
X194284204Y-79666704D01*
X194130296Y-79897045D01*
X194076250Y-80168750D01*
X194076250Y-80803750D01*
X194130296Y-81075455D01*
X194284204Y-81305796D01*
X194514545Y-81459704D01*
X194786250Y-81513750D01*
X197226762Y-81513750D01*
X198350854Y-82637844D01*
X198516899Y-82748791D01*
X198573085Y-82786333D01*
X198835223Y-82838476D01*
X199571690Y-82838476D01*
X199570807Y-83849738D01*
X198835223Y-83849738D01*
X198573085Y-83901881D01*
X198350854Y-84050370D01*
X197227476Y-85173750D01*
X194786250Y-85173750D01*
X194514545Y-85227796D01*
X194284204Y-85381704D01*
X194130296Y-85612045D01*
X194076250Y-85883750D01*
X194076250Y-86518750D01*
X194130296Y-86790455D01*
X194284204Y-87020796D01*
X194514545Y-87174704D01*
X194786250Y-87228750D01*
X197286266Y-87228750D01*
X198521250Y-88463734D01*
X198521250Y-91492373D01*
X198258111Y-91383108D01*
X198151812Y-91383015D01*
X198197686Y-91337221D01*
X198468941Y-90683968D01*
X198469558Y-89976636D01*
X198199444Y-89322910D01*
X197699721Y-88822314D01*
X197046468Y-88551059D01*
X196339136Y-88550442D01*
X195685410Y-88820556D01*
X195184814Y-89320279D01*
X194913559Y-89973532D01*
X194912942Y-90680864D01*
X195183056Y-91334590D01*
X195682779Y-91835186D01*
X195931250Y-91938360D01*
X195931250Y-95591290D01*
X193535302Y-97987238D01*
X193370555Y-98233800D01*
X193312703Y-98524639D01*
X193312703Y-100012927D01*
X193370555Y-100303766D01*
X193535302Y-100550328D01*
X194130617Y-101145643D01*
X194377179Y-101310390D01*
X194668018Y-101368242D01*
X199861168Y-101368242D01*
X199861168Y-101534066D01*
X199828976Y-101566202D01*
X199686330Y-101909730D01*
X199686006Y-102281696D01*
X199828051Y-102625472D01*
X199861168Y-102658647D01*
X199861168Y-104223750D01*
X194786250Y-104223750D01*
X194514545Y-104277796D01*
X194284204Y-104431704D01*
X194130296Y-104662045D01*
X194076250Y-104933750D01*
X194076250Y-105568750D01*
X194130296Y-105840455D01*
X194284204Y-106070796D01*
X194514545Y-106224704D01*
X194786250Y-106278750D01*
X198521250Y-106278750D01*
X198521250Y-110542373D01*
X198258111Y-110433108D01*
X198151812Y-110433015D01*
X198197686Y-110387221D01*
X198468941Y-109733968D01*
X198469558Y-109026636D01*
X198199444Y-108372910D01*
X197699721Y-107872314D01*
X197046468Y-107601059D01*
X196339136Y-107600442D01*
X195685410Y-107870556D01*
X195184814Y-108370279D01*
X194913559Y-109023532D01*
X194912942Y-109730864D01*
X195183056Y-110384590D01*
X195682779Y-110885186D01*
X196336032Y-111156441D01*
X196668758Y-111156731D01*
X196475608Y-111621889D01*
X196475092Y-112213017D01*
X196700830Y-112759345D01*
X197118456Y-113177701D01*
X197664389Y-113404392D01*
X198255517Y-113404908D01*
X198521250Y-113295109D01*
X198521250Y-116324640D01*
X197287140Y-117558750D01*
X194786250Y-117558750D01*
X194514545Y-117612796D01*
X194284204Y-117766704D01*
X194130296Y-117997045D01*
X194076250Y-118268750D01*
X194076250Y-118903750D01*
X194130296Y-119175455D01*
X194284204Y-119405796D01*
X194514545Y-119559704D01*
X194786250Y-119613750D01*
X197226600Y-119613750D01*
X198350853Y-120738005D01*
X198430225Y-120791039D01*
X198573084Y-120886494D01*
X198835222Y-120938637D01*
X199572554Y-120938637D01*
X199571672Y-121949899D01*
X198835222Y-121949899D01*
X198573084Y-122002042D01*
X198350853Y-122150531D01*
X197227636Y-123273750D01*
X194786250Y-123273750D01*
X194514545Y-123327796D01*
X194284204Y-123481704D01*
X194130296Y-123712045D01*
X194076250Y-123983750D01*
X194076250Y-124618750D01*
X194130296Y-124890455D01*
X194284204Y-125120796D01*
X194514545Y-125274704D01*
X194786250Y-125328750D01*
X197286104Y-125328750D01*
X198521250Y-126563896D01*
X198521250Y-129592373D01*
X198258111Y-129483108D01*
X198151812Y-129483015D01*
X198197686Y-129437221D01*
X198468941Y-128783968D01*
X198469558Y-128076636D01*
X198199444Y-127422910D01*
X197699721Y-126922314D01*
X197046468Y-126651059D01*
X196339136Y-126650442D01*
X195685410Y-126920556D01*
X195184814Y-127420279D01*
X194913559Y-128073532D01*
X194912942Y-128780864D01*
X195183056Y-129434590D01*
X195682779Y-129935186D01*
X196336032Y-130206441D01*
X196668758Y-130206731D01*
X196475608Y-130671889D01*
X196475092Y-131263017D01*
X196700830Y-131809345D01*
X197118456Y-132227701D01*
X197664389Y-132454392D01*
X198255517Y-132454908D01*
X198521250Y-132345109D01*
X198521250Y-135374722D01*
X197287222Y-136608750D01*
X194786250Y-136608750D01*
X194514545Y-136662796D01*
X194381455Y-136751724D01*
X191101250Y-133471519D01*
X191101250Y-132906715D01*
X191390154Y-133196123D01*
X192356035Y-133597192D01*
X193401876Y-133598105D01*
X194368457Y-133198722D01*
X195108623Y-132459846D01*
X195509692Y-131493965D01*
X195510605Y-130448124D01*
X195111222Y-129481543D01*
X194372346Y-128741377D01*
X193406465Y-128340308D01*
X192360624Y-128339395D01*
X191394043Y-128738778D01*
X191101250Y-129031061D01*
X191101250Y-127498523D01*
X191347090Y-127396944D01*
X191847686Y-126897221D01*
X192118941Y-126243968D01*
X192119448Y-125662955D01*
X192228844Y-125553559D01*
X192393591Y-125306998D01*
X192406729Y-125240949D01*
X192451443Y-125016158D01*
X192451443Y-121727937D01*
X194155377Y-121727937D01*
X194373382Y-122255550D01*
X194776702Y-122659574D01*
X195303934Y-122878500D01*
X195874812Y-122878998D01*
X196402425Y-122660993D01*
X196806449Y-122257673D01*
X197025375Y-121730441D01*
X197025873Y-121159563D01*
X196807868Y-120631950D01*
X196404548Y-120227926D01*
X195877316Y-120009000D01*
X195306438Y-120008502D01*
X194778825Y-120226507D01*
X194374801Y-120629827D01*
X194155875Y-121157059D01*
X194155377Y-121727937D01*
X192451443Y-121727937D01*
X192451443Y-116086433D01*
X192393591Y-115795594D01*
X192393591Y-115795593D01*
X192228844Y-115549032D01*
X191101250Y-114421438D01*
X191101250Y-113856715D01*
X191390154Y-114146123D01*
X192356035Y-114547192D01*
X193401876Y-114548105D01*
X194368457Y-114148722D01*
X195108623Y-113409846D01*
X195509692Y-112443965D01*
X195510605Y-111398124D01*
X195111222Y-110431543D01*
X194372346Y-109691377D01*
X193406465Y-109290308D01*
X192360624Y-109289395D01*
X191394043Y-109688778D01*
X191101250Y-109981061D01*
X191101250Y-108448523D01*
X191347090Y-108346944D01*
X191847686Y-107847221D01*
X192118941Y-107193968D01*
X192119448Y-106612874D01*
X192228844Y-106503478D01*
X192393591Y-106256916D01*
X192451443Y-105966077D01*
X192451443Y-102658992D01*
X192483635Y-102626856D01*
X192626281Y-102283328D01*
X192626605Y-101911362D01*
X192484560Y-101567586D01*
X192451443Y-101534411D01*
X192451443Y-96738694D01*
X192418685Y-96574008D01*
X192393591Y-96447854D01*
X192228844Y-96201293D01*
X191101250Y-95073699D01*
X191101250Y-94806715D01*
X191390154Y-95096123D01*
X192356035Y-95497192D01*
X193401876Y-95498105D01*
X194368457Y-95098722D01*
X195108623Y-94359846D01*
X195509692Y-93393965D01*
X195510605Y-92348124D01*
X195111222Y-91381543D01*
X194372346Y-90641377D01*
X193406465Y-90240308D01*
X192360624Y-90239395D01*
X191394043Y-90638778D01*
X191101250Y-90931061D01*
X191101250Y-89398523D01*
X191347090Y-89296944D01*
X191847686Y-88797221D01*
X192118941Y-88143968D01*
X192119448Y-87562793D01*
X192228844Y-87453397D01*
X192393591Y-87206835D01*
X192451443Y-86915996D01*
X192451443Y-83627937D01*
X194155377Y-83627937D01*
X194373382Y-84155550D01*
X194776702Y-84559574D01*
X195303934Y-84778500D01*
X195874812Y-84778998D01*
X196402425Y-84560993D01*
X196806449Y-84157673D01*
X197025375Y-83630441D01*
X197025873Y-83059563D01*
X196807868Y-82531950D01*
X196404548Y-82127926D01*
X195877316Y-81909000D01*
X195306438Y-81908502D01*
X194778825Y-82126507D01*
X194374801Y-82529827D01*
X194155875Y-83057059D01*
X194155377Y-83627937D01*
X192451443Y-83627937D01*
X192451443Y-78283928D01*
X192422565Y-78138750D01*
X192393591Y-77993088D01*
X192228844Y-77746527D01*
X191101250Y-76618933D01*
X191101250Y-75756715D01*
X191390154Y-76046123D01*
X192356035Y-76447192D01*
X193401876Y-76448105D01*
X194368457Y-76048722D01*
X195108623Y-75309846D01*
X195509692Y-74343965D01*
X195510605Y-73298124D01*
X195111222Y-72331543D01*
X194372346Y-71591377D01*
X193406465Y-71190308D01*
X192360624Y-71189395D01*
X191394043Y-71588778D01*
X191101250Y-71881061D01*
X191101250Y-70348523D01*
X191347090Y-70246944D01*
X191847686Y-69747221D01*
X192118941Y-69093968D01*
X192119558Y-68386636D01*
X191849444Y-67732910D01*
X191669551Y-67552702D01*
X191686250Y-67468750D01*
X191686250Y-66833750D01*
X191632204Y-66562045D01*
X191478296Y-66331704D01*
X191247955Y-66177796D01*
X190976250Y-66123750D01*
X185896250Y-66123750D01*
X185624545Y-66177796D01*
X185394204Y-66331704D01*
X185240296Y-66562045D01*
X185186250Y-66833750D01*
X185186250Y-80803750D01*
X185240296Y-81075455D01*
X185394204Y-81305796D01*
X185624545Y-81459704D01*
X185896250Y-81513750D01*
X190931443Y-81513750D01*
X190931443Y-85173750D01*
X185896250Y-85173750D01*
X185624545Y-85227796D01*
X185394204Y-85381704D01*
X185240296Y-85612045D01*
X185186250Y-85883750D01*
X185186250Y-99853750D01*
X185240296Y-100125455D01*
X185394204Y-100355796D01*
X185624545Y-100509704D01*
X185896250Y-100563750D01*
X190931443Y-100563750D01*
X190931443Y-101534066D01*
X190899251Y-101566202D01*
X190756605Y-101909730D01*
X190756281Y-102281696D01*
X190898326Y-102625472D01*
X190931443Y-102658647D01*
X190931443Y-104223750D01*
X185896250Y-104223750D01*
X185624545Y-104277796D01*
X185394204Y-104431704D01*
X185240296Y-104662045D01*
X185186250Y-104933750D01*
X185186250Y-118903750D01*
X185240296Y-119175455D01*
X185394204Y-119405796D01*
X185624545Y-119559704D01*
X185896250Y-119613750D01*
X190931443Y-119613750D01*
X190931443Y-123273750D01*
X185896250Y-123273750D01*
X185624545Y-123327796D01*
X185394204Y-123481704D01*
X185240296Y-123712045D01*
X185186250Y-123983750D01*
X185186250Y-137948404D01*
X181526250Y-137948404D01*
X181526250Y-132296931D01*
X181922113Y-132692793D01*
X181921784Y-133069893D01*
X182139789Y-133597506D01*
X182543109Y-134001530D01*
X183070341Y-134220456D01*
X183641219Y-134220954D01*
X184168832Y-134002949D01*
X184572856Y-133599629D01*
X184791782Y-133072397D01*
X184792280Y-132501519D01*
X184574275Y-131973906D01*
X184170955Y-131569882D01*
X183643723Y-131350956D01*
X183072845Y-131350458D01*
X182829804Y-131450880D01*
X182628745Y-131249822D01*
X182628745Y-126433146D01*
X184157032Y-126433146D01*
X184392349Y-126388868D01*
X184608473Y-126249796D01*
X184753463Y-126037596D01*
X184804472Y-125785706D01*
X184804472Y-124185706D01*
X184760194Y-123950389D01*
X184621122Y-123734265D01*
X184408922Y-123589275D01*
X184157032Y-123538266D01*
X182628745Y-123538266D01*
X182628745Y-120643750D01*
X186343185Y-120643750D01*
X186343185Y-122243750D01*
X186387463Y-122479067D01*
X186526535Y-122695191D01*
X186738735Y-122840181D01*
X186990625Y-122891190D01*
X188590625Y-122891190D01*
X188825942Y-122846912D01*
X189042066Y-122707840D01*
X189187056Y-122495640D01*
X189238065Y-122243750D01*
X189238065Y-120643750D01*
X189193787Y-120408433D01*
X189054715Y-120192309D01*
X188842515Y-120047319D01*
X188590625Y-119996310D01*
X186990625Y-119996310D01*
X186755308Y-120040588D01*
X186539184Y-120179660D01*
X186394194Y-120391860D01*
X186343185Y-120643750D01*
X182628745Y-120643750D01*
X182628745Y-120220786D01*
X182660937Y-120188650D01*
X182803583Y-119845122D01*
X182803907Y-119473156D01*
X182661862Y-119129380D01*
X182399072Y-118866131D01*
X182055544Y-118723485D01*
X181683578Y-118723161D01*
X181526250Y-118788167D01*
X181526250Y-114019812D01*
X181921784Y-114019812D01*
X182139789Y-114547425D01*
X182543109Y-114951449D01*
X183070341Y-115170375D01*
X183641219Y-115170873D01*
X184168832Y-114952868D01*
X184572856Y-114549548D01*
X184791782Y-114022316D01*
X184792280Y-113451438D01*
X184574275Y-112923825D01*
X184170955Y-112519801D01*
X183643723Y-112300875D01*
X183072845Y-112300377D01*
X182545232Y-112518382D01*
X182141208Y-112921702D01*
X181922282Y-113448934D01*
X181921784Y-114019812D01*
X181526250Y-114019812D01*
X181526250Y-105179645D01*
X181909592Y-105562987D01*
X181909592Y-106735625D01*
X181953870Y-106970942D01*
X182092942Y-107187066D01*
X182305142Y-107332056D01*
X182557032Y-107383065D01*
X184157032Y-107383065D01*
X184392349Y-107338787D01*
X184608473Y-107199715D01*
X184753463Y-106987515D01*
X184804472Y-106735625D01*
X184804472Y-105135625D01*
X184760194Y-104900308D01*
X184621122Y-104684184D01*
X184408922Y-104539194D01*
X184157032Y-104488185D01*
X182984394Y-104488185D01*
X182138940Y-103642731D01*
X181892378Y-103477984D01*
X181601539Y-103420132D01*
X175932739Y-103420132D01*
X175782622Y-103270015D01*
X175782622Y-100563750D01*
X180816250Y-100563750D01*
X181087955Y-100509704D01*
X181318296Y-100355796D01*
X181472204Y-100125455D01*
X181526250Y-99853750D01*
X181526250Y-96228621D01*
X181647813Y-96228621D01*
X181877410Y-96784288D01*
X182302175Y-97209795D01*
X182857440Y-97440361D01*
X183458672Y-97440886D01*
X184014339Y-97211289D01*
X184439846Y-96786524D01*
X184670412Y-96231259D01*
X184670937Y-95630027D01*
X184441340Y-95074360D01*
X184016575Y-94648853D01*
X183461310Y-94418287D01*
X182860078Y-94417762D01*
X182304411Y-94647359D01*
X181878904Y-95072124D01*
X181648338Y-95627389D01*
X181647813Y-96228621D01*
X181526250Y-96228621D01*
X181526250Y-89431795D01*
X181684240Y-89587777D01*
X181648338Y-89674239D01*
X181647813Y-90275471D01*
X181877410Y-90831138D01*
X182302175Y-91256645D01*
X182857440Y-91487211D01*
X183458672Y-91487736D01*
X184014339Y-91258139D01*
X184439846Y-90833374D01*
X184670412Y-90278109D01*
X184670937Y-89676877D01*
X184441340Y-89121210D01*
X184016575Y-88695703D01*
X183461310Y-88465137D01*
X182860078Y-88464612D01*
X182754350Y-88508298D01*
X182628745Y-88384288D01*
X182628745Y-82543750D01*
X186343185Y-82543750D01*
X186343185Y-84143750D01*
X186387463Y-84379067D01*
X186526535Y-84595191D01*
X186738735Y-84740181D01*
X186990625Y-84791190D01*
X188590625Y-84791190D01*
X188825942Y-84746912D01*
X189042066Y-84607840D01*
X189187056Y-84395640D01*
X189238065Y-84143750D01*
X189238065Y-82543750D01*
X189193787Y-82308433D01*
X189054715Y-82092309D01*
X188842515Y-81947319D01*
X188590625Y-81896310D01*
X186990625Y-81896310D01*
X186755308Y-81940588D01*
X186539184Y-82079660D01*
X186394194Y-82291860D01*
X186343185Y-82543750D01*
X182628745Y-82543750D01*
X182628745Y-81054051D01*
X183070341Y-81237418D01*
X183641219Y-81237916D01*
X184168832Y-81019911D01*
X184572856Y-80616591D01*
X184791782Y-80089359D01*
X184792280Y-79518481D01*
X184574275Y-78990868D01*
X184170955Y-78586844D01*
X183643723Y-78367918D01*
X183072845Y-78367420D01*
X182628745Y-78550918D01*
X182628745Y-73450108D01*
X184157032Y-73450108D01*
X184392349Y-73405830D01*
X184608473Y-73266758D01*
X184753463Y-73054558D01*
X184804472Y-72802668D01*
X184804472Y-71202668D01*
X184760194Y-70967351D01*
X184621122Y-70751227D01*
X184408922Y-70606237D01*
X184157032Y-70555228D01*
X182628745Y-70555228D01*
X182628745Y-66675284D01*
X182570893Y-66384445D01*
X182406146Y-66137883D01*
X181917602Y-65649339D01*
X200008709Y-65649339D01*
X200456484Y-66097114D01*
X200456484Y-66097114D01*
G37*
X200456484Y-66097114D02*
X200456484Y-66463687D01*
X200368296Y-66331704D01*
X200137955Y-66177796D01*
X199866250Y-66123750D01*
X194786250Y-66123750D01*
X194514545Y-66177796D01*
X194284204Y-66331704D01*
X194130296Y-66562045D01*
X194076250Y-66833750D01*
X194076250Y-67468750D01*
X194130296Y-67740455D01*
X194284204Y-67970796D01*
X194514545Y-68124704D01*
X194786250Y-68178750D01*
X198521250Y-68178750D01*
X198521250Y-72442373D01*
X198258111Y-72333108D01*
X198151812Y-72333015D01*
X198197686Y-72287221D01*
X198468941Y-71633968D01*
X198469558Y-70926636D01*
X198199444Y-70272910D01*
X197699721Y-69772314D01*
X197046468Y-69501059D01*
X196339136Y-69500442D01*
X195685410Y-69770556D01*
X195184814Y-70270279D01*
X194913559Y-70923532D01*
X194912942Y-71630864D01*
X195183056Y-72284590D01*
X195682779Y-72785186D01*
X196336032Y-73056441D01*
X196668758Y-73056731D01*
X196475608Y-73521889D01*
X196475092Y-74113017D01*
X196700830Y-74659345D01*
X197118456Y-75077701D01*
X197664389Y-75304392D01*
X198255517Y-75304908D01*
X198521250Y-75195109D01*
X198521250Y-76318435D01*
X197780804Y-76318435D01*
X197547415Y-76415108D01*
X197368787Y-76593737D01*
X197272114Y-76827126D01*
X197272114Y-77267685D01*
X197430864Y-77426435D01*
X199030114Y-77426435D01*
X199030114Y-77406435D01*
X199284114Y-77406435D01*
X199284114Y-77426435D01*
X200883364Y-77426435D01*
X201042114Y-77267685D01*
X201042114Y-76827126D01*
X200945441Y-76593737D01*
X200766813Y-76415108D01*
X200576250Y-76336174D01*
X200576250Y-72118962D01*
X200679083Y-72272863D01*
X201572055Y-73165836D01*
X201818616Y-73330583D01*
X202109456Y-73388435D01*
X203868096Y-73388435D01*
X203943024Y-73504876D01*
X204155224Y-73649866D01*
X204236250Y-73666274D01*
X204236250Y-74138824D01*
X204082200Y-74074857D01*
X203710234Y-74074533D01*
X203602281Y-74119138D01*
X203581945Y-74069920D01*
X203192678Y-73679974D01*
X202683816Y-73468676D01*
X202132829Y-73468195D01*
X201623599Y-73678604D01*
X201233653Y-74067871D01*
X201022355Y-74576733D01*
X201021874Y-75127720D01*
X201232283Y-75636950D01*
X201621550Y-76026896D01*
X202130412Y-76238194D01*
X202681399Y-76238675D01*
X203190629Y-76028266D01*
X203402030Y-75817233D01*
X203708602Y-75944533D01*
X203755478Y-75944574D01*
X203759674Y-75948770D01*
X203759674Y-77053435D01*
X203803952Y-77288752D01*
X203943024Y-77504876D01*
X204155224Y-77649866D01*
X204236250Y-77666274D01*
X204236250Y-78164973D01*
X203113376Y-79287847D01*
X202964887Y-79510077D01*
X202912744Y-79772215D01*
X202912744Y-80509191D01*
X201901483Y-80508308D01*
X201901483Y-79772215D01*
X201849340Y-79510077D01*
X201700851Y-79287847D01*
X200935789Y-78522785D01*
X200945441Y-78513133D01*
X201042114Y-78279744D01*
X201042114Y-77839185D01*
X200883364Y-77680435D01*
X200246668Y-77680435D01*
X200137955Y-77607796D01*
X199866250Y-77553750D01*
X199231250Y-77553750D01*
X198959545Y-77607796D01*
X198850832Y-77680435D01*
X197430864Y-77680435D01*
X197272114Y-77839185D01*
X197272114Y-78279744D01*
X197368787Y-78513133D01*
X197547415Y-78691762D01*
X197780804Y-78788435D01*
X197957295Y-78788435D01*
X197286980Y-79458750D01*
X194786250Y-79458750D01*
X194514545Y-79512796D01*
X194284204Y-79666704D01*
X194130296Y-79897045D01*
X194076250Y-80168750D01*
X194076250Y-80803750D01*
X194130296Y-81075455D01*
X194284204Y-81305796D01*
X194514545Y-81459704D01*
X194786250Y-81513750D01*
X197226762Y-81513750D01*
X198350854Y-82637844D01*
X198516899Y-82748791D01*
X198573085Y-82786333D01*
X198835223Y-82838476D01*
X199571690Y-82838476D01*
X199570807Y-83849738D01*
X198835223Y-83849738D01*
X198573085Y-83901881D01*
X198350854Y-84050370D01*
X197227476Y-85173750D01*
X194786250Y-85173750D01*
X194514545Y-85227796D01*
X194284204Y-85381704D01*
X194130296Y-85612045D01*
X194076250Y-85883750D01*
X194076250Y-86518750D01*
X194130296Y-86790455D01*
X194284204Y-87020796D01*
X194514545Y-87174704D01*
X194786250Y-87228750D01*
X197286266Y-87228750D01*
X198521250Y-88463734D01*
X198521250Y-91492373D01*
X198258111Y-91383108D01*
X198151812Y-91383015D01*
X198197686Y-91337221D01*
X198468941Y-90683968D01*
X198469558Y-89976636D01*
X198199444Y-89322910D01*
X197699721Y-88822314D01*
X197046468Y-88551059D01*
X196339136Y-88550442D01*
X195685410Y-88820556D01*
X195184814Y-89320279D01*
X194913559Y-89973532D01*
X194912942Y-90680864D01*
X195183056Y-91334590D01*
X195682779Y-91835186D01*
X195931250Y-91938360D01*
X195931250Y-95591290D01*
X193535302Y-97987238D01*
X193370555Y-98233800D01*
X193312703Y-98524639D01*
X193312703Y-100012927D01*
X193370555Y-100303766D01*
X193535302Y-100550328D01*
X194130617Y-101145643D01*
X194377179Y-101310390D01*
X194668018Y-101368242D01*
X199861168Y-101368242D01*
X199861168Y-101534066D01*
X199828976Y-101566202D01*
X199686330Y-101909730D01*
X199686006Y-102281696D01*
X199828051Y-102625472D01*
X199861168Y-102658647D01*
X199861168Y-104223750D01*
X194786250Y-104223750D01*
X194514545Y-104277796D01*
X194284204Y-104431704D01*
X194130296Y-104662045D01*
X194076250Y-104933750D01*
X194076250Y-105568750D01*
X194130296Y-105840455D01*
X194284204Y-106070796D01*
X194514545Y-106224704D01*
X194786250Y-106278750D01*
X198521250Y-106278750D01*
X198521250Y-110542373D01*
X198258111Y-110433108D01*
X198151812Y-110433015D01*
X198197686Y-110387221D01*
X198468941Y-109733968D01*
X198469558Y-109026636D01*
X198199444Y-108372910D01*
X197699721Y-107872314D01*
X197046468Y-107601059D01*
X196339136Y-107600442D01*
X195685410Y-107870556D01*
X195184814Y-108370279D01*
X194913559Y-109023532D01*
X194912942Y-109730864D01*
X195183056Y-110384590D01*
X195682779Y-110885186D01*
X196336032Y-111156441D01*
X196668758Y-111156731D01*
X196475608Y-111621889D01*
X196475092Y-112213017D01*
X196700830Y-112759345D01*
X197118456Y-113177701D01*
X197664389Y-113404392D01*
X198255517Y-113404908D01*
X198521250Y-113295109D01*
X198521250Y-116324640D01*
X197287140Y-117558750D01*
X194786250Y-117558750D01*
X194514545Y-117612796D01*
X194284204Y-117766704D01*
X194130296Y-117997045D01*
X194076250Y-118268750D01*
X194076250Y-118903750D01*
X194130296Y-119175455D01*
X194284204Y-119405796D01*
X194514545Y-119559704D01*
X194786250Y-119613750D01*
X197226600Y-119613750D01*
X198350853Y-120738005D01*
X198430225Y-120791039D01*
X198573084Y-120886494D01*
X198835222Y-120938637D01*
X199572554Y-120938637D01*
X199571672Y-121949899D01*
X198835222Y-121949899D01*
X198573084Y-122002042D01*
X198350853Y-122150531D01*
X197227636Y-123273750D01*
X194786250Y-123273750D01*
X194514545Y-123327796D01*
X194284204Y-123481704D01*
X194130296Y-123712045D01*
X194076250Y-123983750D01*
X194076250Y-124618750D01*
X194130296Y-124890455D01*
X194284204Y-125120796D01*
X194514545Y-125274704D01*
X194786250Y-125328750D01*
X197286104Y-125328750D01*
X198521250Y-126563896D01*
X198521250Y-129592373D01*
X198258111Y-129483108D01*
X198151812Y-129483015D01*
X198197686Y-129437221D01*
X198468941Y-128783968D01*
X198469558Y-128076636D01*
X198199444Y-127422910D01*
X197699721Y-126922314D01*
X197046468Y-126651059D01*
X196339136Y-126650442D01*
X195685410Y-126920556D01*
X195184814Y-127420279D01*
X194913559Y-128073532D01*
X194912942Y-128780864D01*
X195183056Y-129434590D01*
X195682779Y-129935186D01*
X196336032Y-130206441D01*
X196668758Y-130206731D01*
X196475608Y-130671889D01*
X196475092Y-131263017D01*
X196700830Y-131809345D01*
X197118456Y-132227701D01*
X197664389Y-132454392D01*
X198255517Y-132454908D01*
X198521250Y-132345109D01*
X198521250Y-135374722D01*
X197287222Y-136608750D01*
X194786250Y-136608750D01*
X194514545Y-136662796D01*
X194381455Y-136751724D01*
X191101250Y-133471519D01*
X191101250Y-132906715D01*
X191390154Y-133196123D01*
X192356035Y-133597192D01*
X193401876Y-133598105D01*
X194368457Y-133198722D01*
X195108623Y-132459846D01*
X195509692Y-131493965D01*
X195510605Y-130448124D01*
X195111222Y-129481543D01*
X194372346Y-128741377D01*
X193406465Y-128340308D01*
X192360624Y-128339395D01*
X191394043Y-128738778D01*
X191101250Y-129031061D01*
X191101250Y-127498523D01*
X191347090Y-127396944D01*
X191847686Y-126897221D01*
X192118941Y-126243968D01*
X192119448Y-125662955D01*
X192228844Y-125553559D01*
X192393591Y-125306998D01*
X192406729Y-125240949D01*
X192451443Y-125016158D01*
X192451443Y-121727937D01*
X194155377Y-121727937D01*
X194373382Y-122255550D01*
X194776702Y-122659574D01*
X195303934Y-122878500D01*
X195874812Y-122878998D01*
X196402425Y-122660993D01*
X196806449Y-122257673D01*
X197025375Y-121730441D01*
X197025873Y-121159563D01*
X196807868Y-120631950D01*
X196404548Y-120227926D01*
X195877316Y-120009000D01*
X195306438Y-120008502D01*
X194778825Y-120226507D01*
X194374801Y-120629827D01*
X194155875Y-121157059D01*
X194155377Y-121727937D01*
X192451443Y-121727937D01*
X192451443Y-116086433D01*
X192393591Y-115795594D01*
X192393591Y-115795593D01*
X192228844Y-115549032D01*
X191101250Y-114421438D01*
X191101250Y-113856715D01*
X191390154Y-114146123D01*
X192356035Y-114547192D01*
X193401876Y-114548105D01*
X194368457Y-114148722D01*
X195108623Y-113409846D01*
X195509692Y-112443965D01*
X195510605Y-111398124D01*
X195111222Y-110431543D01*
X194372346Y-109691377D01*
X193406465Y-109290308D01*
X192360624Y-109289395D01*
X191394043Y-109688778D01*
X191101250Y-109981061D01*
X191101250Y-108448523D01*
X191347090Y-108346944D01*
X191847686Y-107847221D01*
X192118941Y-107193968D01*
X192119448Y-106612874D01*
X192228844Y-106503478D01*
X192393591Y-106256916D01*
X192451443Y-105966077D01*
X192451443Y-102658992D01*
X192483635Y-102626856D01*
X192626281Y-102283328D01*
X192626605Y-101911362D01*
X192484560Y-101567586D01*
X192451443Y-101534411D01*
X192451443Y-96738694D01*
X192418685Y-96574008D01*
X192393591Y-96447854D01*
X192228844Y-96201293D01*
X191101250Y-95073699D01*
X191101250Y-94806715D01*
X191390154Y-95096123D01*
X192356035Y-95497192D01*
X193401876Y-95498105D01*
X194368457Y-95098722D01*
X195108623Y-94359846D01*
X195509692Y-93393965D01*
X195510605Y-92348124D01*
X195111222Y-91381543D01*
X194372346Y-90641377D01*
X193406465Y-90240308D01*
X192360624Y-90239395D01*
X191394043Y-90638778D01*
X191101250Y-90931061D01*
X191101250Y-89398523D01*
X191347090Y-89296944D01*
X191847686Y-88797221D01*
X192118941Y-88143968D01*
X192119448Y-87562793D01*
X192228844Y-87453397D01*
X192393591Y-87206835D01*
X192451443Y-86915996D01*
X192451443Y-83627937D01*
X194155377Y-83627937D01*
X194373382Y-84155550D01*
X194776702Y-84559574D01*
X195303934Y-84778500D01*
X195874812Y-84778998D01*
X196402425Y-84560993D01*
X196806449Y-84157673D01*
X197025375Y-83630441D01*
X197025873Y-83059563D01*
X196807868Y-82531950D01*
X196404548Y-82127926D01*
X195877316Y-81909000D01*
X195306438Y-81908502D01*
X194778825Y-82126507D01*
X194374801Y-82529827D01*
X194155875Y-83057059D01*
X194155377Y-83627937D01*
X192451443Y-83627937D01*
X192451443Y-78283928D01*
X192422565Y-78138750D01*
X192393591Y-77993088D01*
X192228844Y-77746527D01*
X191101250Y-76618933D01*
X191101250Y-75756715D01*
X191390154Y-76046123D01*
X192356035Y-76447192D01*
X193401876Y-76448105D01*
X194368457Y-76048722D01*
X195108623Y-75309846D01*
X195509692Y-74343965D01*
X195510605Y-73298124D01*
X195111222Y-72331543D01*
X194372346Y-71591377D01*
X193406465Y-71190308D01*
X192360624Y-71189395D01*
X191394043Y-71588778D01*
X191101250Y-71881061D01*
X191101250Y-70348523D01*
X191347090Y-70246944D01*
X191847686Y-69747221D01*
X192118941Y-69093968D01*
X192119558Y-68386636D01*
X191849444Y-67732910D01*
X191669551Y-67552702D01*
X191686250Y-67468750D01*
X191686250Y-66833750D01*
X191632204Y-66562045D01*
X191478296Y-66331704D01*
X191247955Y-66177796D01*
X190976250Y-66123750D01*
X185896250Y-66123750D01*
X185624545Y-66177796D01*
X185394204Y-66331704D01*
X185240296Y-66562045D01*
X185186250Y-66833750D01*
X185186250Y-80803750D01*
X185240296Y-81075455D01*
X185394204Y-81305796D01*
X185624545Y-81459704D01*
X185896250Y-81513750D01*
X190931443Y-81513750D01*
X190931443Y-85173750D01*
X185896250Y-85173750D01*
X185624545Y-85227796D01*
X185394204Y-85381704D01*
X185240296Y-85612045D01*
X185186250Y-85883750D01*
X185186250Y-99853750D01*
X185240296Y-100125455D01*
X185394204Y-100355796D01*
X185624545Y-100509704D01*
X185896250Y-100563750D01*
X190931443Y-100563750D01*
X190931443Y-101534066D01*
X190899251Y-101566202D01*
X190756605Y-101909730D01*
X190756281Y-102281696D01*
X190898326Y-102625472D01*
X190931443Y-102658647D01*
X190931443Y-104223750D01*
X185896250Y-104223750D01*
X185624545Y-104277796D01*
X185394204Y-104431704D01*
X185240296Y-104662045D01*
X185186250Y-104933750D01*
X185186250Y-118903750D01*
X185240296Y-119175455D01*
X185394204Y-119405796D01*
X185624545Y-119559704D01*
X185896250Y-119613750D01*
X190931443Y-119613750D01*
X190931443Y-123273750D01*
X185896250Y-123273750D01*
X185624545Y-123327796D01*
X185394204Y-123481704D01*
X185240296Y-123712045D01*
X185186250Y-123983750D01*
X185186250Y-137948404D01*
X181526250Y-137948404D01*
X181526250Y-132296931D01*
X181922113Y-132692793D01*
X181921784Y-133069893D01*
X182139789Y-133597506D01*
X182543109Y-134001530D01*
X183070341Y-134220456D01*
X183641219Y-134220954D01*
X184168832Y-134002949D01*
X184572856Y-133599629D01*
X184791782Y-133072397D01*
X184792280Y-132501519D01*
X184574275Y-131973906D01*
X184170955Y-131569882D01*
X183643723Y-131350956D01*
X183072845Y-131350458D01*
X182829804Y-131450880D01*
X182628745Y-131249822D01*
X182628745Y-126433146D01*
X184157032Y-126433146D01*
X184392349Y-126388868D01*
X184608473Y-126249796D01*
X184753463Y-126037596D01*
X184804472Y-125785706D01*
X184804472Y-124185706D01*
X184760194Y-123950389D01*
X184621122Y-123734265D01*
X184408922Y-123589275D01*
X184157032Y-123538266D01*
X182628745Y-123538266D01*
X182628745Y-120643750D01*
X186343185Y-120643750D01*
X186343185Y-122243750D01*
X186387463Y-122479067D01*
X186526535Y-122695191D01*
X186738735Y-122840181D01*
X186990625Y-122891190D01*
X188590625Y-122891190D01*
X188825942Y-122846912D01*
X189042066Y-122707840D01*
X189187056Y-122495640D01*
X189238065Y-122243750D01*
X189238065Y-120643750D01*
X189193787Y-120408433D01*
X189054715Y-120192309D01*
X188842515Y-120047319D01*
X188590625Y-119996310D01*
X186990625Y-119996310D01*
X186755308Y-120040588D01*
X186539184Y-120179660D01*
X186394194Y-120391860D01*
X186343185Y-120643750D01*
X182628745Y-120643750D01*
X182628745Y-120220786D01*
X182660937Y-120188650D01*
X182803583Y-119845122D01*
X182803907Y-119473156D01*
X182661862Y-119129380D01*
X182399072Y-118866131D01*
X182055544Y-118723485D01*
X181683578Y-118723161D01*
X181526250Y-118788167D01*
X181526250Y-114019812D01*
X181921784Y-114019812D01*
X182139789Y-114547425D01*
X182543109Y-114951449D01*
X183070341Y-115170375D01*
X183641219Y-115170873D01*
X184168832Y-114952868D01*
X184572856Y-114549548D01*
X184791782Y-114022316D01*
X184792280Y-113451438D01*
X184574275Y-112923825D01*
X184170955Y-112519801D01*
X183643723Y-112300875D01*
X183072845Y-112300377D01*
X182545232Y-112518382D01*
X182141208Y-112921702D01*
X181922282Y-113448934D01*
X181921784Y-114019812D01*
X181526250Y-114019812D01*
X181526250Y-105179645D01*
X181909592Y-105562987D01*
X181909592Y-106735625D01*
X181953870Y-106970942D01*
X182092942Y-107187066D01*
X182305142Y-107332056D01*
X182557032Y-107383065D01*
X184157032Y-107383065D01*
X184392349Y-107338787D01*
X184608473Y-107199715D01*
X184753463Y-106987515D01*
X184804472Y-106735625D01*
X184804472Y-105135625D01*
X184760194Y-104900308D01*
X184621122Y-104684184D01*
X184408922Y-104539194D01*
X184157032Y-104488185D01*
X182984394Y-104488185D01*
X182138940Y-103642731D01*
X181892378Y-103477984D01*
X181601539Y-103420132D01*
X175932739Y-103420132D01*
X175782622Y-103270015D01*
X175782622Y-100563750D01*
X180816250Y-100563750D01*
X181087955Y-100509704D01*
X181318296Y-100355796D01*
X181472204Y-100125455D01*
X181526250Y-99853750D01*
X181526250Y-96228621D01*
X181647813Y-96228621D01*
X181877410Y-96784288D01*
X182302175Y-97209795D01*
X182857440Y-97440361D01*
X183458672Y-97440886D01*
X184014339Y-97211289D01*
X184439846Y-96786524D01*
X184670412Y-96231259D01*
X184670937Y-95630027D01*
X184441340Y-95074360D01*
X184016575Y-94648853D01*
X183461310Y-94418287D01*
X182860078Y-94417762D01*
X182304411Y-94647359D01*
X181878904Y-95072124D01*
X181648338Y-95627389D01*
X181647813Y-96228621D01*
X181526250Y-96228621D01*
X181526250Y-89431795D01*
X181684240Y-89587777D01*
X181648338Y-89674239D01*
X181647813Y-90275471D01*
X181877410Y-90831138D01*
X182302175Y-91256645D01*
X182857440Y-91487211D01*
X183458672Y-91487736D01*
X184014339Y-91258139D01*
X184439846Y-90833374D01*
X184670412Y-90278109D01*
X184670937Y-89676877D01*
X184441340Y-89121210D01*
X184016575Y-88695703D01*
X183461310Y-88465137D01*
X182860078Y-88464612D01*
X182754350Y-88508298D01*
X182628745Y-88384288D01*
X182628745Y-82543750D01*
X186343185Y-82543750D01*
X186343185Y-84143750D01*
X186387463Y-84379067D01*
X186526535Y-84595191D01*
X186738735Y-84740181D01*
X186990625Y-84791190D01*
X188590625Y-84791190D01*
X188825942Y-84746912D01*
X189042066Y-84607840D01*
X189187056Y-84395640D01*
X189238065Y-84143750D01*
X189238065Y-82543750D01*
X189193787Y-82308433D01*
X189054715Y-82092309D01*
X188842515Y-81947319D01*
X188590625Y-81896310D01*
X186990625Y-81896310D01*
X186755308Y-81940588D01*
X186539184Y-82079660D01*
X186394194Y-82291860D01*
X186343185Y-82543750D01*
X182628745Y-82543750D01*
X182628745Y-81054051D01*
X183070341Y-81237418D01*
X183641219Y-81237916D01*
X184168832Y-81019911D01*
X184572856Y-80616591D01*
X184791782Y-80089359D01*
X184792280Y-79518481D01*
X184574275Y-78990868D01*
X184170955Y-78586844D01*
X183643723Y-78367918D01*
X183072845Y-78367420D01*
X182628745Y-78550918D01*
X182628745Y-73450108D01*
X184157032Y-73450108D01*
X184392349Y-73405830D01*
X184608473Y-73266758D01*
X184753463Y-73054558D01*
X184804472Y-72802668D01*
X184804472Y-71202668D01*
X184760194Y-70967351D01*
X184621122Y-70751227D01*
X184408922Y-70606237D01*
X184157032Y-70555228D01*
X182628745Y-70555228D01*
X182628745Y-66675284D01*
X182570893Y-66384445D01*
X182406146Y-66137883D01*
X181917602Y-65649339D01*
X200008709Y-65649339D01*
X200456484Y-66097114D01*
G36*
X125465562Y-65044673D02*
X125322916Y-65388201D01*
X125322592Y-65760167D01*
X125464637Y-66103943D01*
X125727427Y-66367192D01*
X125970748Y-66468228D01*
X125932503Y-66468195D01*
X125423273Y-66678604D01*
X125033327Y-67067871D01*
X124822029Y-67576733D01*
X124821548Y-68127720D01*
X125031957Y-68636950D01*
X125421224Y-69026896D01*
X125930086Y-69238194D01*
X126481073Y-69238675D01*
X126637419Y-69174074D01*
X126637419Y-72033120D01*
X126695271Y-72323959D01*
X126860018Y-72570521D01*
X127184760Y-72895263D01*
X126868476Y-73025948D01*
X126605227Y-73288738D01*
X126523595Y-73485329D01*
X126483490Y-73468676D01*
X125932503Y-73468195D01*
X125423273Y-73678604D01*
X125033327Y-74067871D01*
X124822029Y-74576733D01*
X124821548Y-75127720D01*
X125031957Y-75636950D01*
X125421224Y-76026896D01*
X125930086Y-76238194D01*
X126481073Y-76238675D01*
X126828437Y-76095147D01*
X126860018Y-76142411D01*
X127559348Y-76841742D01*
X127559348Y-77053435D01*
X127603626Y-77288752D01*
X127742698Y-77504876D01*
X127954898Y-77649866D01*
X128036250Y-77666340D01*
X128036250Y-78164648D01*
X126913051Y-79287847D01*
X126764562Y-79510077D01*
X126712419Y-79772215D01*
X126712419Y-80509190D01*
X125701158Y-80508308D01*
X125701158Y-79772215D01*
X125649015Y-79510077D01*
X125500526Y-79287847D01*
X124735464Y-78522785D01*
X124745115Y-78513133D01*
X124841788Y-78279744D01*
X124841788Y-77839185D01*
X124683038Y-77680435D01*
X124046668Y-77680435D01*
X123937955Y-77607796D01*
X123666250Y-77553750D01*
X123031250Y-77553750D01*
X122759545Y-77607796D01*
X122650832Y-77680435D01*
X121230538Y-77680435D01*
X121071788Y-77839185D01*
X121071788Y-78279744D01*
X121168461Y-78513133D01*
X121347089Y-78691762D01*
X121580478Y-78788435D01*
X121756970Y-78788435D01*
X121086655Y-79458750D01*
X118586250Y-79458750D01*
X118314545Y-79512796D01*
X118084204Y-79666704D01*
X117930296Y-79897045D01*
X117876250Y-80168750D01*
X117876250Y-80803750D01*
X117930296Y-81075455D01*
X118084204Y-81305796D01*
X118314545Y-81459704D01*
X118586250Y-81513750D01*
X121026437Y-81513750D01*
X122150529Y-82637844D01*
X122316574Y-82748791D01*
X122372760Y-82786333D01*
X122634898Y-82838476D01*
X123371690Y-82838476D01*
X123370807Y-83849738D01*
X122634898Y-83849738D01*
X122372760Y-83901881D01*
X122150529Y-84050370D01*
X121027151Y-85173750D01*
X118586250Y-85173750D01*
X118314545Y-85227796D01*
X118084204Y-85381704D01*
X117930296Y-85612045D01*
X117876250Y-85883750D01*
X117876250Y-86518750D01*
X117930296Y-86790455D01*
X118084204Y-87020796D01*
X118314545Y-87174704D01*
X118586250Y-87228750D01*
X121085941Y-87228750D01*
X122321250Y-88464059D01*
X122321250Y-91492373D01*
X122058111Y-91383108D01*
X121951812Y-91383015D01*
X121997686Y-91337221D01*
X122268941Y-90683968D01*
X122269558Y-89976636D01*
X121999444Y-89322910D01*
X121499721Y-88822314D01*
X120846468Y-88551059D01*
X120139136Y-88550442D01*
X119485410Y-88820556D01*
X118984814Y-89320279D01*
X118713559Y-89973532D01*
X118712942Y-90680864D01*
X118983056Y-91334590D01*
X119482779Y-91835186D01*
X119731250Y-91938360D01*
X119731250Y-95888622D01*
X116251118Y-99368754D01*
X116251118Y-98524640D01*
X116193266Y-98233801D01*
X116028519Y-97987239D01*
X114901250Y-96859970D01*
X114901250Y-94806715D01*
X115190154Y-95096123D01*
X116156035Y-95497192D01*
X117201876Y-95498105D01*
X118168457Y-95098722D01*
X118908623Y-94359846D01*
X119309692Y-93393965D01*
X119310605Y-92348124D01*
X118911222Y-91381543D01*
X118172346Y-90641377D01*
X117206465Y-90240308D01*
X116160624Y-90239395D01*
X115194043Y-90638778D01*
X114901250Y-90931061D01*
X114901250Y-89398523D01*
X115147090Y-89296944D01*
X115647686Y-88797221D01*
X115918941Y-88143968D01*
X115919448Y-87562468D01*
X116028519Y-87453397D01*
X116193266Y-87206835D01*
X116251118Y-86915996D01*
X116251118Y-83627937D01*
X117955377Y-83627937D01*
X118173382Y-84155550D01*
X118576702Y-84559574D01*
X119103934Y-84778500D01*
X119674812Y-84778998D01*
X120202425Y-84560993D01*
X120606449Y-84157673D01*
X120825375Y-83630441D01*
X120825873Y-83059563D01*
X120607868Y-82531950D01*
X120204548Y-82127926D01*
X119677316Y-81909000D01*
X119106438Y-81908502D01*
X118578825Y-82126507D01*
X118174801Y-82529827D01*
X117955875Y-83057059D01*
X117955377Y-83627937D01*
X116251118Y-83627937D01*
X116251118Y-77986270D01*
X116193266Y-77695431D01*
X116028519Y-77448869D01*
X114901250Y-76321600D01*
X114901250Y-75756715D01*
X115190154Y-76046123D01*
X116156035Y-76447192D01*
X117201876Y-76448105D01*
X118168457Y-76048722D01*
X118908623Y-75309846D01*
X119309692Y-74343965D01*
X119310605Y-73298124D01*
X118911222Y-72331543D01*
X118172346Y-71591377D01*
X117206465Y-71190308D01*
X116160624Y-71189395D01*
X115194043Y-71588778D01*
X114901250Y-71881061D01*
X114901250Y-70348523D01*
X115147090Y-70246944D01*
X115647686Y-69747221D01*
X115918941Y-69093968D01*
X115919558Y-68386636D01*
X115649444Y-67732910D01*
X115469551Y-67552702D01*
X115486250Y-67468750D01*
X115486250Y-67012972D01*
X115795209Y-66884996D01*
X115878709Y-66630970D01*
X114995313Y-65747574D01*
X114981171Y-65761717D01*
X114801566Y-65582112D01*
X114815708Y-65567969D01*
X114801566Y-65553827D01*
X114981171Y-65374222D01*
X114995313Y-65388364D01*
X115009456Y-65374222D01*
X115189061Y-65553827D01*
X115174918Y-65567969D01*
X116058314Y-66451365D01*
X116107004Y-66435360D01*
X116519363Y-66848440D01*
X117074628Y-67079006D01*
X117675860Y-67079531D01*
X117876250Y-66996732D01*
X117876250Y-67468750D01*
X117930296Y-67740455D01*
X118084204Y-67970796D01*
X118314545Y-68124704D01*
X118586250Y-68178750D01*
X122321250Y-68178750D01*
X122321250Y-72442373D01*
X122058111Y-72333108D01*
X121951812Y-72333015D01*
X121997686Y-72287221D01*
X122268941Y-71633968D01*
X122269558Y-70926636D01*
X121999444Y-70272910D01*
X121499721Y-69772314D01*
X120846468Y-69501059D01*
X120139136Y-69500442D01*
X119485410Y-69770556D01*
X118984814Y-70270279D01*
X118713559Y-70923532D01*
X118712942Y-71630864D01*
X118983056Y-72284590D01*
X119482779Y-72785186D01*
X120136032Y-73056441D01*
X120468758Y-73056731D01*
X120275608Y-73521889D01*
X120275092Y-74113017D01*
X120500830Y-74659345D01*
X120918456Y-75077701D01*
X121464389Y-75304392D01*
X122055517Y-75304908D01*
X122321250Y-75195109D01*
X122321250Y-76318435D01*
X121580478Y-76318435D01*
X121347089Y-76415108D01*
X121168461Y-76593737D01*
X121071788Y-76827126D01*
X121071788Y-77267685D01*
X121230538Y-77426435D01*
X122829788Y-77426435D01*
X122829788Y-77406435D01*
X123083788Y-77406435D01*
X123083788Y-77426435D01*
X124683038Y-77426435D01*
X124841788Y-77267685D01*
X124841788Y-76827126D01*
X124745115Y-76593737D01*
X124566487Y-76415108D01*
X124376250Y-76336309D01*
X124376250Y-66833750D01*
X124322204Y-66562045D01*
X124168296Y-66331704D01*
X123937955Y-66177796D01*
X123666250Y-66123750D01*
X118782194Y-66123750D01*
X118887600Y-65869904D01*
X118888125Y-65268672D01*
X118768332Y-64978750D01*
X125531600Y-64978750D01*
X125465562Y-65044673D01*
X125465562Y-65044673D01*
G37*
X125465562Y-65044673D02*
X125322916Y-65388201D01*
X125322592Y-65760167D01*
X125464637Y-66103943D01*
X125727427Y-66367192D01*
X125970748Y-66468228D01*
X125932503Y-66468195D01*
X125423273Y-66678604D01*
X125033327Y-67067871D01*
X124822029Y-67576733D01*
X124821548Y-68127720D01*
X125031957Y-68636950D01*
X125421224Y-69026896D01*
X125930086Y-69238194D01*
X126481073Y-69238675D01*
X126637419Y-69174074D01*
X126637419Y-72033120D01*
X126695271Y-72323959D01*
X126860018Y-72570521D01*
X127184760Y-72895263D01*
X126868476Y-73025948D01*
X126605227Y-73288738D01*
X126523595Y-73485329D01*
X126483490Y-73468676D01*
X125932503Y-73468195D01*
X125423273Y-73678604D01*
X125033327Y-74067871D01*
X124822029Y-74576733D01*
X124821548Y-75127720D01*
X125031957Y-75636950D01*
X125421224Y-76026896D01*
X125930086Y-76238194D01*
X126481073Y-76238675D01*
X126828437Y-76095147D01*
X126860018Y-76142411D01*
X127559348Y-76841742D01*
X127559348Y-77053435D01*
X127603626Y-77288752D01*
X127742698Y-77504876D01*
X127954898Y-77649866D01*
X128036250Y-77666340D01*
X128036250Y-78164648D01*
X126913051Y-79287847D01*
X126764562Y-79510077D01*
X126712419Y-79772215D01*
X126712419Y-80509190D01*
X125701158Y-80508308D01*
X125701158Y-79772215D01*
X125649015Y-79510077D01*
X125500526Y-79287847D01*
X124735464Y-78522785D01*
X124745115Y-78513133D01*
X124841788Y-78279744D01*
X124841788Y-77839185D01*
X124683038Y-77680435D01*
X124046668Y-77680435D01*
X123937955Y-77607796D01*
X123666250Y-77553750D01*
X123031250Y-77553750D01*
X122759545Y-77607796D01*
X122650832Y-77680435D01*
X121230538Y-77680435D01*
X121071788Y-77839185D01*
X121071788Y-78279744D01*
X121168461Y-78513133D01*
X121347089Y-78691762D01*
X121580478Y-78788435D01*
X121756970Y-78788435D01*
X121086655Y-79458750D01*
X118586250Y-79458750D01*
X118314545Y-79512796D01*
X118084204Y-79666704D01*
X117930296Y-79897045D01*
X117876250Y-80168750D01*
X117876250Y-80803750D01*
X117930296Y-81075455D01*
X118084204Y-81305796D01*
X118314545Y-81459704D01*
X118586250Y-81513750D01*
X121026437Y-81513750D01*
X122150529Y-82637844D01*
X122316574Y-82748791D01*
X122372760Y-82786333D01*
X122634898Y-82838476D01*
X123371690Y-82838476D01*
X123370807Y-83849738D01*
X122634898Y-83849738D01*
X122372760Y-83901881D01*
X122150529Y-84050370D01*
X121027151Y-85173750D01*
X118586250Y-85173750D01*
X118314545Y-85227796D01*
X118084204Y-85381704D01*
X117930296Y-85612045D01*
X117876250Y-85883750D01*
X117876250Y-86518750D01*
X117930296Y-86790455D01*
X118084204Y-87020796D01*
X118314545Y-87174704D01*
X118586250Y-87228750D01*
X121085941Y-87228750D01*
X122321250Y-88464059D01*
X122321250Y-91492373D01*
X122058111Y-91383108D01*
X121951812Y-91383015D01*
X121997686Y-91337221D01*
X122268941Y-90683968D01*
X122269558Y-89976636D01*
X121999444Y-89322910D01*
X121499721Y-88822314D01*
X120846468Y-88551059D01*
X120139136Y-88550442D01*
X119485410Y-88820556D01*
X118984814Y-89320279D01*
X118713559Y-89973532D01*
X118712942Y-90680864D01*
X118983056Y-91334590D01*
X119482779Y-91835186D01*
X119731250Y-91938360D01*
X119731250Y-95888622D01*
X116251118Y-99368754D01*
X116251118Y-98524640D01*
X116193266Y-98233801D01*
X116028519Y-97987239D01*
X114901250Y-96859970D01*
X114901250Y-94806715D01*
X115190154Y-95096123D01*
X116156035Y-95497192D01*
X117201876Y-95498105D01*
X118168457Y-95098722D01*
X118908623Y-94359846D01*
X119309692Y-93393965D01*
X119310605Y-92348124D01*
X118911222Y-91381543D01*
X118172346Y-90641377D01*
X117206465Y-90240308D01*
X116160624Y-90239395D01*
X115194043Y-90638778D01*
X114901250Y-90931061D01*
X114901250Y-89398523D01*
X115147090Y-89296944D01*
X115647686Y-88797221D01*
X115918941Y-88143968D01*
X115919448Y-87562468D01*
X116028519Y-87453397D01*
X116193266Y-87206835D01*
X116251118Y-86915996D01*
X116251118Y-83627937D01*
X117955377Y-83627937D01*
X118173382Y-84155550D01*
X118576702Y-84559574D01*
X119103934Y-84778500D01*
X119674812Y-84778998D01*
X120202425Y-84560993D01*
X120606449Y-84157673D01*
X120825375Y-83630441D01*
X120825873Y-83059563D01*
X120607868Y-82531950D01*
X120204548Y-82127926D01*
X119677316Y-81909000D01*
X119106438Y-81908502D01*
X118578825Y-82126507D01*
X118174801Y-82529827D01*
X117955875Y-83057059D01*
X117955377Y-83627937D01*
X116251118Y-83627937D01*
X116251118Y-77986270D01*
X116193266Y-77695431D01*
X116028519Y-77448869D01*
X114901250Y-76321600D01*
X114901250Y-75756715D01*
X115190154Y-76046123D01*
X116156035Y-76447192D01*
X117201876Y-76448105D01*
X118168457Y-76048722D01*
X118908623Y-75309846D01*
X119309692Y-74343965D01*
X119310605Y-73298124D01*
X118911222Y-72331543D01*
X118172346Y-71591377D01*
X117206465Y-71190308D01*
X116160624Y-71189395D01*
X115194043Y-71588778D01*
X114901250Y-71881061D01*
X114901250Y-70348523D01*
X115147090Y-70246944D01*
X115647686Y-69747221D01*
X115918941Y-69093968D01*
X115919558Y-68386636D01*
X115649444Y-67732910D01*
X115469551Y-67552702D01*
X115486250Y-67468750D01*
X115486250Y-67012972D01*
X115795209Y-66884996D01*
X115878709Y-66630970D01*
X114995313Y-65747574D01*
X114981171Y-65761717D01*
X114801566Y-65582112D01*
X114815708Y-65567969D01*
X114801566Y-65553827D01*
X114981171Y-65374222D01*
X114995313Y-65388364D01*
X115009456Y-65374222D01*
X115189061Y-65553827D01*
X115174918Y-65567969D01*
X116058314Y-66451365D01*
X116107004Y-66435360D01*
X116519363Y-66848440D01*
X117074628Y-67079006D01*
X117675860Y-67079531D01*
X117876250Y-66996732D01*
X117876250Y-67468750D01*
X117930296Y-67740455D01*
X118084204Y-67970796D01*
X118314545Y-68124704D01*
X118586250Y-68178750D01*
X122321250Y-68178750D01*
X122321250Y-72442373D01*
X122058111Y-72333108D01*
X121951812Y-72333015D01*
X121997686Y-72287221D01*
X122268941Y-71633968D01*
X122269558Y-70926636D01*
X121999444Y-70272910D01*
X121499721Y-69772314D01*
X120846468Y-69501059D01*
X120139136Y-69500442D01*
X119485410Y-69770556D01*
X118984814Y-70270279D01*
X118713559Y-70923532D01*
X118712942Y-71630864D01*
X118983056Y-72284590D01*
X119482779Y-72785186D01*
X120136032Y-73056441D01*
X120468758Y-73056731D01*
X120275608Y-73521889D01*
X120275092Y-74113017D01*
X120500830Y-74659345D01*
X120918456Y-75077701D01*
X121464389Y-75304392D01*
X122055517Y-75304908D01*
X122321250Y-75195109D01*
X122321250Y-76318435D01*
X121580478Y-76318435D01*
X121347089Y-76415108D01*
X121168461Y-76593737D01*
X121071788Y-76827126D01*
X121071788Y-77267685D01*
X121230538Y-77426435D01*
X122829788Y-77426435D01*
X122829788Y-77406435D01*
X123083788Y-77406435D01*
X123083788Y-77426435D01*
X124683038Y-77426435D01*
X124841788Y-77267685D01*
X124841788Y-76827126D01*
X124745115Y-76593737D01*
X124566487Y-76415108D01*
X124376250Y-76336309D01*
X124376250Y-66833750D01*
X124322204Y-66562045D01*
X124168296Y-66331704D01*
X123937955Y-66177796D01*
X123666250Y-66123750D01*
X118782194Y-66123750D01*
X118887600Y-65869904D01*
X118888125Y-65268672D01*
X118768332Y-64978750D01*
X125531600Y-64978750D01*
X125465562Y-65044673D01*
G36*
X147086250Y-72502741D02*
X146278514Y-73310477D01*
X146338357Y-73492532D01*
X146306946Y-73505511D01*
X146162251Y-73649954D01*
X146016281Y-73503984D01*
X146016321Y-73103725D01*
X146098909Y-73130872D01*
X146982305Y-72247476D01*
X146968163Y-72233334D01*
X147086250Y-72115246D01*
X147086250Y-72502741D01*
X147086250Y-72502741D01*
G37*
X147086250Y-72502741D02*
X146278514Y-73310477D01*
X146338357Y-73492532D01*
X146306946Y-73505511D01*
X146162251Y-73649954D01*
X146016281Y-73503984D01*
X146016321Y-73103725D01*
X146098909Y-73130872D01*
X146982305Y-72247476D01*
X146968163Y-72233334D01*
X147086250Y-72115246D01*
X147086250Y-72502741D01*
M02*
