G04 #@! TF.FileFunction,Soldermask,Top*
%FSLAX46Y46*%
G04 Gerber Fmt 4.6, Leading zero omitted, Abs format (unit mm)*
G04 Created by KiCad (PCBNEW 4.0.7-e2-6376~58~ubuntu16.04.1) date Sun Mar 18 12:17:23 2018*
%MOMM*%
%LPD*%
G01*
G04 APERTURE LIST*
%ADD10C,0.100000*%
%ADD11C,2.286000*%
%ADD12C,1.701800*%
%ADD13C,1.752600*%
%ADD14R,1.752600X1.752600*%
%ADD15C,4.400000*%
%ADD16R,1.600000X1.600000*%
%ADD17C,1.600000*%
%ADD18R,2.500000X1.200000*%
%ADD19C,1.500000*%
%ADD20O,1.600000X1.600000*%
%ADD21R,1.600200X1.600200*%
%ADD22C,1.600200*%
G04 APERTURE END LIST*
D10*
D11*
X114141748Y-144939390D03*
X120491748Y-147479390D03*
D12*
X121761748Y-150019390D03*
X111601748Y-150019390D03*
D11*
X190342073Y-144939390D03*
X196692073Y-147479390D03*
D12*
X197962073Y-150019390D03*
X187802073Y-150019390D03*
D13*
X183159375Y-95929324D03*
X183159375Y-89976174D03*
D14*
X147161910Y-69707476D03*
D13*
X147161910Y-72247476D03*
X147161910Y-74787476D03*
X147161910Y-77327476D03*
X147161910Y-79867476D03*
X147161910Y-82407476D03*
X147161910Y-84947476D03*
X147161910Y-87487476D03*
X147161910Y-90027476D03*
X147161910Y-92567476D03*
X147161910Y-95107476D03*
X147161910Y-97647476D03*
X162401910Y-97647476D03*
X162401910Y-95107476D03*
X162401910Y-92567476D03*
X162401910Y-90027476D03*
X162401910Y-87487476D03*
X162401910Y-84947476D03*
X162401910Y-82407476D03*
X162401910Y-79867476D03*
X162401910Y-77327476D03*
X162401910Y-74787476D03*
X162401910Y-72247476D03*
X162401910Y-69707476D03*
D15*
X126206250Y-83343750D03*
X126206788Y-140494349D03*
X202407114Y-140494349D03*
X202406250Y-83343750D03*
X126206788Y-121444268D03*
X202407114Y-121444267D03*
D16*
X111590625Y-121443750D03*
D17*
X119390625Y-121443750D03*
D16*
X111590625Y-83343750D03*
D17*
X119390625Y-83343750D03*
D16*
X133021875Y-83343750D03*
D17*
X140821875Y-83343750D03*
D16*
X169931250Y-83343750D03*
D17*
X177731250Y-83343750D03*
D16*
X183357032Y-72002668D03*
D17*
X183357032Y-79802668D03*
D16*
X187790625Y-83343750D03*
D17*
X195590625Y-83343750D03*
D16*
X209221875Y-83343750D03*
D17*
X217021875Y-83343750D03*
D16*
X111590625Y-102393750D03*
D17*
X119390625Y-102393750D03*
D16*
X126206788Y-91052749D03*
D17*
X126206788Y-98852749D03*
D16*
X164306951Y-105935625D03*
D17*
X164306951Y-113735625D03*
D16*
X183357032Y-105935625D03*
D17*
X183357032Y-113735625D03*
D16*
X202407114Y-91052749D03*
D17*
X202407114Y-98852749D03*
D16*
X209222784Y-102394187D03*
D17*
X217022784Y-102394187D03*
D16*
X126206788Y-105935625D03*
D17*
X126206788Y-113735625D03*
D16*
X145256870Y-105935625D03*
D17*
X145256870Y-113735625D03*
D16*
X150881250Y-121443750D03*
D17*
X158681250Y-121443750D03*
D16*
X169931250Y-121443750D03*
D17*
X177731250Y-121443750D03*
D16*
X187790625Y-121443750D03*
D17*
X195590625Y-121443750D03*
D16*
X202407114Y-105935625D03*
D17*
X202407114Y-113735625D03*
D16*
X133022459Y-121444268D03*
D17*
X140822459Y-121444268D03*
D16*
X145256870Y-124985706D03*
D17*
X145256870Y-132785706D03*
D16*
X164306951Y-124985706D03*
D17*
X164306951Y-132785706D03*
D16*
X183357032Y-124985706D03*
D17*
X183357032Y-132785706D03*
D16*
X209222784Y-121444268D03*
D17*
X217022784Y-121444268D03*
D16*
X110995803Y-140494349D03*
D17*
X118795803Y-140494349D03*
D16*
X150881910Y-140494349D03*
D17*
X158681910Y-140494349D03*
D16*
X169931992Y-140494349D03*
D17*
X177731992Y-140494349D03*
D16*
X187493785Y-140494349D03*
D17*
X195293785Y-140494349D03*
D16*
X209520442Y-140494349D03*
D17*
X217320442Y-140494349D03*
D16*
X133320117Y-140494349D03*
D17*
X141120117Y-140494349D03*
D18*
X199157114Y-77553435D03*
X205657114Y-76453435D03*
X205657114Y-72453435D03*
X205657114Y-69453435D03*
D19*
X202407114Y-67853435D03*
X202407114Y-74853435D03*
D17*
X145256870Y-144959212D03*
D20*
X145256870Y-155119212D03*
D17*
X183357032Y-144959212D03*
D20*
X183357032Y-155119212D03*
D21*
X213202154Y-155099390D03*
D22*
X210662154Y-155099390D03*
D21*
X203677114Y-155099390D03*
D22*
X201137114Y-155099390D03*
D21*
X194152073Y-155099390D03*
D22*
X191612073Y-155099390D03*
D21*
X175101992Y-155099390D03*
D22*
X172561992Y-155099390D03*
D21*
X117951748Y-155099390D03*
D22*
X115411748Y-155099390D03*
D21*
X127476788Y-155099390D03*
D22*
X124936788Y-155099390D03*
D21*
X137001829Y-155099390D03*
D22*
X134461829Y-155099390D03*
D21*
X156051910Y-155099390D03*
D22*
X153511910Y-155099390D03*
D18*
X122956788Y-77553435D03*
X129456788Y-76453435D03*
X129456788Y-72453435D03*
X129456788Y-69453435D03*
D19*
X126206788Y-67853435D03*
X126206788Y-74853435D03*
D11*
X209391250Y-87788750D03*
X215741250Y-90328750D03*
D12*
X217011250Y-92868750D03*
X206851250Y-92868750D03*
D11*
X152241250Y-125888750D03*
X158591250Y-128428750D03*
D12*
X159861250Y-130968750D03*
X149701250Y-130968750D03*
D11*
X209391250Y-125888750D03*
X215741250Y-128428750D03*
D12*
X217011250Y-130968750D03*
X206851250Y-130968750D03*
D11*
X157321250Y-78898750D03*
X150971250Y-76358750D03*
D12*
X149701250Y-73818750D03*
X159861250Y-73818750D03*
D11*
X171291250Y-68738750D03*
X177641250Y-71278750D03*
D12*
X178911250Y-73818750D03*
X168751250Y-73818750D03*
D11*
X114141250Y-87788750D03*
X120491250Y-90328750D03*
D12*
X121761250Y-92868750D03*
X111601250Y-92868750D03*
D11*
X133191250Y-87788750D03*
X139541250Y-90328750D03*
D12*
X140811250Y-92868750D03*
X130651250Y-92868750D03*
D11*
X152241250Y-87788750D03*
X158591250Y-90328750D03*
D12*
X159861250Y-92868750D03*
X149701250Y-92868750D03*
D11*
X190341250Y-87788750D03*
X196691250Y-90328750D03*
D12*
X197961250Y-92868750D03*
X187801250Y-92868750D03*
D11*
X114141250Y-106838750D03*
X120491250Y-109378750D03*
D12*
X121761250Y-111918750D03*
X111601250Y-111918750D03*
D11*
X133191250Y-106838750D03*
X139541250Y-109378750D03*
D12*
X140811250Y-111918750D03*
X130651250Y-111918750D03*
D11*
X152241250Y-106838750D03*
X158591250Y-109378750D03*
D12*
X159861250Y-111918750D03*
X149701250Y-111918750D03*
D11*
X190341250Y-106838750D03*
X196691250Y-109378750D03*
D12*
X197961250Y-111918750D03*
X187801250Y-111918750D03*
D11*
X209391250Y-106838750D03*
X215741250Y-109378750D03*
D12*
X217011250Y-111918750D03*
X206851250Y-111918750D03*
D11*
X190341250Y-125888750D03*
X196691250Y-128428750D03*
D12*
X197961250Y-130968750D03*
X187801250Y-130968750D03*
D11*
X133191250Y-125888750D03*
X139541250Y-128428750D03*
D12*
X140811250Y-130968750D03*
X130651250Y-130968750D03*
D11*
X114141250Y-125888750D03*
X120491250Y-128428750D03*
D12*
X121761250Y-130968750D03*
X111601250Y-130968750D03*
D11*
X171291250Y-87788750D03*
X177641250Y-90328750D03*
D12*
X178911250Y-92868750D03*
X168751250Y-92868750D03*
D11*
X171291250Y-106838750D03*
X177641250Y-109378750D03*
D12*
X178911250Y-111918750D03*
X168751250Y-111918750D03*
D11*
X171291250Y-125888750D03*
X177641250Y-128428750D03*
D12*
X178911250Y-130968750D03*
X168751250Y-130968750D03*
D11*
X152241910Y-144939390D03*
X158591910Y-147479390D03*
D12*
X159861910Y-150019390D03*
X149701910Y-150019390D03*
D11*
X171291992Y-144939390D03*
X177641992Y-147479390D03*
D12*
X178911992Y-150019390D03*
X168751992Y-150019390D03*
D11*
X190341250Y-68738750D03*
X196691250Y-71278750D03*
D12*
X197961250Y-73818750D03*
X187801250Y-73818750D03*
D11*
X114141250Y-68738750D03*
X120491250Y-71278750D03*
D12*
X121761250Y-73818750D03*
X111601250Y-73818750D03*
D11*
X133191250Y-68738750D03*
X139541250Y-71278750D03*
D12*
X140811250Y-73818750D03*
X130651250Y-73818750D03*
D11*
X209391250Y-68738750D03*
X215741250Y-71278750D03*
D12*
X217011250Y-73818750D03*
X206851250Y-73818750D03*
X206852114Y-150019390D03*
X217012114Y-150019390D03*
D11*
X215742114Y-147479390D03*
X209392114Y-144939390D03*
X199867114Y-144939390D03*
X206217114Y-147479390D03*
D12*
X207487114Y-150019390D03*
X197327114Y-150019390D03*
X130651788Y-150019390D03*
X140811788Y-150019390D03*
D11*
X139541788Y-147479390D03*
X133191788Y-144939390D03*
X123666788Y-144939390D03*
X130016788Y-147479390D03*
D12*
X131286788Y-150019390D03*
X121126788Y-150019390D03*
D14*
X117900000Y-65600000D03*
X115500000Y-65600000D03*
M02*
