G04 #@! TF.FileFunction,Profile,NP*
%FSLAX46Y46*%
G04 Gerber Fmt 4.6, Leading zero omitted, Abs format (unit mm)*
G04 Created by KiCad (PCBNEW 4.0.7-e2-6376~58~ubuntu16.04.1) date Sat Feb 17 22:51:26 2018*
%MOMM*%
%LPD*%
G01*
G04 APERTURE LIST*
%ADD10C,0.100000*%
%ADD11C,0.150000*%
G04 APERTURE END LIST*
D10*
X198835222Y-141684980D02*
X197346935Y-143173268D01*
X198835222Y-141684980D02*
X200025852Y-141684980D01*
X201216482Y-142875611D02*
X200025852Y-141684980D01*
X197346936Y-143173267D02*
X201216483Y-143173267D01*
X201216483Y-143173267D02*
X201216483Y-142875610D01*
X203597744Y-143173267D02*
X203597744Y-142875610D01*
X203597744Y-143173267D02*
X207467291Y-143173267D01*
X204788372Y-141684980D02*
X205979002Y-141684980D01*
X203597744Y-142875610D02*
X204788374Y-141684980D01*
X205979004Y-141684980D02*
X207467291Y-143173267D01*
X129778679Y-141684980D02*
X131266966Y-143173267D01*
X127397419Y-142875610D02*
X128588049Y-141684980D01*
X128588047Y-141684980D02*
X129778677Y-141684980D01*
X127397419Y-143173267D02*
X131266966Y-143173267D01*
X127397419Y-143173267D02*
X127397419Y-142875610D01*
X125016158Y-143173267D02*
X125016158Y-142875610D01*
X121146611Y-143173267D02*
X125016158Y-143173267D01*
X125016157Y-142875611D02*
X123825527Y-141684980D01*
X122634897Y-141684980D02*
X123825527Y-141684980D01*
X122634897Y-141684980D02*
X121146610Y-143173268D01*
X201216483Y-80962845D02*
X200025853Y-82153476D01*
X198835223Y-82153476D02*
X200025853Y-82153476D01*
X201216483Y-79772215D02*
X201216483Y-80962845D01*
X198835223Y-82153476D02*
X197346936Y-80665188D01*
X201216483Y-79772215D02*
X199728196Y-78283928D01*
X199728196Y-78283928D02*
X199430538Y-78283928D01*
X199430538Y-78283928D02*
X197346936Y-80367530D01*
X197346936Y-80367530D02*
X197346936Y-80665188D01*
X205383689Y-78283928D02*
X205086031Y-78283928D01*
X205086031Y-78283928D02*
X203597744Y-79772215D01*
X203597744Y-79772215D02*
X203597744Y-80962845D01*
X203597744Y-80962845D02*
X204788374Y-82153476D01*
X204788374Y-82153476D02*
X205979004Y-82153476D01*
X205979004Y-82153476D02*
X207467291Y-80665188D01*
X207467291Y-80665188D02*
X207467291Y-80367530D01*
X207467291Y-80367530D02*
X205383689Y-78283928D01*
X207467290Y-86320681D02*
X207467290Y-86023023D01*
X205383688Y-88404283D02*
X207467290Y-86320681D01*
X205086030Y-88404283D02*
X205383688Y-88404283D01*
X203597743Y-86915996D02*
X205086030Y-88404283D01*
X205979003Y-84534735D02*
X207467290Y-86023023D01*
X203597743Y-86915996D02*
X203597743Y-85725366D01*
X205979003Y-84534735D02*
X204788373Y-84534735D01*
X203597743Y-85725366D02*
X204788373Y-84534735D01*
X201216483Y-85725369D02*
X200025853Y-84534738D01*
X198835223Y-84534738D02*
X200025853Y-84534738D01*
X201216483Y-86915999D02*
X201216483Y-85725369D01*
X198835223Y-84534738D02*
X197346936Y-86023026D01*
X201216483Y-86915999D02*
X199728196Y-88404286D01*
X199728196Y-88404286D02*
X199430538Y-88404286D01*
X199430538Y-88404286D02*
X197346936Y-86320684D01*
X197346936Y-86320684D02*
X197346936Y-86023026D01*
X207467290Y-137517773D02*
X205383688Y-135434171D01*
X207467290Y-137815431D02*
X207467290Y-137517773D01*
X205979003Y-139303719D02*
X207467290Y-137815431D01*
X204788373Y-139303719D02*
X205979003Y-139303719D01*
X203597743Y-138113088D02*
X204788373Y-139303719D01*
X203597743Y-136922458D02*
X203597743Y-138113088D01*
X205086030Y-135434171D02*
X203597743Y-136922458D01*
X205383688Y-135434171D02*
X205086030Y-135434171D01*
X197346935Y-137517773D02*
X197346935Y-137815431D01*
X199430537Y-135434171D02*
X197346935Y-137517773D01*
X199728195Y-135434171D02*
X199430537Y-135434171D01*
X201216482Y-136922458D02*
X199728195Y-135434171D01*
X198835222Y-139303719D02*
X197346935Y-137815431D01*
X201216482Y-136922458D02*
X201216482Y-138113088D01*
X198835222Y-139303719D02*
X200025852Y-139303719D01*
X201216482Y-138113088D02*
X200025852Y-139303719D01*
X201216482Y-119063006D02*
X200025852Y-120253637D01*
X198835222Y-120253637D02*
X200025852Y-120253637D01*
X201216482Y-117872376D02*
X201216482Y-119063006D01*
X198835222Y-120253637D02*
X197346935Y-118765349D01*
X201216482Y-117872376D02*
X199728195Y-116384089D01*
X199728195Y-116384089D02*
X199430537Y-116384089D01*
X199430537Y-116384089D02*
X197346935Y-118467691D01*
X197346935Y-118467691D02*
X197346935Y-118765349D01*
X205383688Y-116384089D02*
X205086030Y-116384089D01*
X205086030Y-116384089D02*
X203597743Y-117872376D01*
X203597743Y-117872376D02*
X203597743Y-119063006D01*
X203597743Y-119063006D02*
X204788373Y-120253637D01*
X204788373Y-120253637D02*
X205979003Y-120253637D01*
X205979003Y-120253637D02*
X207467290Y-118765349D01*
X207467290Y-118765349D02*
X207467290Y-118467691D01*
X207467290Y-118467691D02*
X205383688Y-116384089D01*
X207467289Y-124420842D02*
X207467289Y-124123184D01*
X205383687Y-126504444D02*
X207467289Y-124420842D01*
X205086029Y-126504444D02*
X205383687Y-126504444D01*
X203597742Y-125016157D02*
X205086029Y-126504444D01*
X205979002Y-122634896D02*
X207467289Y-124123184D01*
X203597742Y-125016157D02*
X203597742Y-123825527D01*
X205979002Y-122634896D02*
X204788372Y-122634896D01*
X203597742Y-123825527D02*
X204788372Y-122634896D01*
X201216482Y-123825530D02*
X200025852Y-122634899D01*
X198835222Y-122634899D02*
X200025852Y-122634899D01*
X201216482Y-125016160D02*
X201216482Y-123825530D01*
X198835222Y-122634899D02*
X197346935Y-124123187D01*
X201216482Y-125016160D02*
X199728195Y-126504447D01*
X199728195Y-126504447D02*
X199430537Y-126504447D01*
X199430537Y-126504447D02*
X197346935Y-124420845D01*
X197346935Y-124420845D02*
X197346935Y-124123187D01*
X121146610Y-124420845D02*
X121146610Y-124123187D01*
X123230212Y-126504447D02*
X121146610Y-124420845D01*
X123527870Y-126504447D02*
X123230212Y-126504447D01*
X125016157Y-125016160D02*
X123527870Y-126504447D01*
X122634897Y-122634899D02*
X121146610Y-124123187D01*
X125016157Y-125016160D02*
X125016157Y-123825530D01*
X122634897Y-122634899D02*
X123825527Y-122634899D01*
X125016157Y-123825530D02*
X123825527Y-122634899D01*
X127397417Y-123825527D02*
X128588047Y-122634896D01*
X129778677Y-122634896D02*
X128588047Y-122634896D01*
X127397417Y-125016157D02*
X127397417Y-123825527D01*
X129778677Y-122634896D02*
X131266964Y-124123184D01*
X127397417Y-125016157D02*
X128885704Y-126504444D01*
X128885704Y-126504444D02*
X129183362Y-126504444D01*
X129183362Y-126504444D02*
X131266964Y-124420842D01*
X131266964Y-124420842D02*
X131266964Y-124123184D01*
X131266965Y-118467691D02*
X129183363Y-116384089D01*
X131266965Y-118765349D02*
X131266965Y-118467691D01*
X129778678Y-120253637D02*
X131266965Y-118765349D01*
X128588048Y-120253637D02*
X129778678Y-120253637D01*
X127397418Y-119063006D02*
X128588048Y-120253637D01*
X127397418Y-117872376D02*
X127397418Y-119063006D01*
X128885705Y-116384089D02*
X127397418Y-117872376D01*
X129183363Y-116384089D02*
X128885705Y-116384089D01*
X121146610Y-118467691D02*
X121146610Y-118765349D01*
X123230212Y-116384089D02*
X121146610Y-118467691D01*
X123527870Y-116384089D02*
X123230212Y-116384089D01*
X125016157Y-117872376D02*
X123527870Y-116384089D01*
X122634897Y-120253637D02*
X121146610Y-118765349D01*
X125016157Y-117872376D02*
X125016157Y-119063006D01*
X122634897Y-120253637D02*
X123825527Y-120253637D01*
X125016157Y-119063006D02*
X123825527Y-120253637D01*
X125016157Y-138113088D02*
X123825527Y-139303719D01*
X122634897Y-139303719D02*
X123825527Y-139303719D01*
X125016157Y-136922458D02*
X125016157Y-138113088D01*
X122634897Y-139303719D02*
X121146610Y-137815431D01*
X125016157Y-136922458D02*
X123527870Y-135434171D01*
X123527870Y-135434171D02*
X123230212Y-135434171D01*
X123230212Y-135434171D02*
X121146610Y-137517773D01*
X121146610Y-137517773D02*
X121146610Y-137815431D01*
X129183363Y-135434171D02*
X128885705Y-135434171D01*
X128885705Y-135434171D02*
X127397418Y-136922458D01*
X127397418Y-136922458D02*
X127397418Y-138113088D01*
X127397418Y-138113088D02*
X128588048Y-139303719D01*
X128588048Y-139303719D02*
X129778678Y-139303719D01*
X129778678Y-139303719D02*
X131266965Y-137815431D01*
X131266965Y-137815431D02*
X131266965Y-137517773D01*
X131266965Y-137517773D02*
X129183363Y-135434171D01*
X121146611Y-86320684D02*
X121146611Y-86023026D01*
X123230213Y-88404286D02*
X121146611Y-86320684D01*
X123527871Y-88404286D02*
X123230213Y-88404286D01*
X125016158Y-86915999D02*
X123527871Y-88404286D01*
X122634898Y-84534738D02*
X121146611Y-86023026D01*
X125016158Y-86915999D02*
X125016158Y-85725369D01*
X122634898Y-84534738D02*
X123825528Y-84534738D01*
X125016158Y-85725369D02*
X123825528Y-84534738D01*
X127397418Y-85725366D02*
X128588048Y-84534735D01*
X129778678Y-84534735D02*
X128588048Y-84534735D01*
X127397418Y-86915996D02*
X127397418Y-85725366D01*
X129778678Y-84534735D02*
X131266965Y-86023023D01*
X127397418Y-86915996D02*
X128885705Y-88404283D01*
X128885705Y-88404283D02*
X129183363Y-88404283D01*
X129183363Y-88404283D02*
X131266965Y-86320681D01*
X131266965Y-86320681D02*
X131266965Y-86023023D01*
X131266966Y-80367530D02*
X129183364Y-78283928D01*
X131266966Y-80665188D02*
X131266966Y-80367530D01*
X129778679Y-82153476D02*
X131266966Y-80665188D01*
X128588049Y-82153476D02*
X129778679Y-82153476D01*
X127397419Y-80962845D02*
X128588049Y-82153476D01*
X127397419Y-79772215D02*
X127397419Y-80962845D01*
X128885706Y-78283928D02*
X127397419Y-79772215D01*
X129183364Y-78283928D02*
X128885706Y-78283928D01*
X121146611Y-80367530D02*
X121146611Y-80665188D01*
X123230213Y-78283928D02*
X121146611Y-80367530D01*
X123527871Y-78283928D02*
X123230213Y-78283928D01*
X125016158Y-79772215D02*
X123527871Y-78283928D01*
X122634898Y-82153476D02*
X121146611Y-80665188D01*
X125016158Y-79772215D02*
X125016158Y-80962845D01*
X122634898Y-82153476D02*
X123825528Y-82153476D01*
X125016158Y-80962845D02*
X123825528Y-82153476D01*
X107156250Y-159543832D02*
X107156250Y-64293750D01*
X107156250Y-64293750D02*
X221456250Y-64293750D01*
X221456250Y-159543832D02*
X107156250Y-159543832D01*
X221456250Y-64293750D02*
X221456250Y-159543832D01*
D11*
X171926250Y-124618750D02*
X167481250Y-124618750D01*
X167481250Y-124618750D02*
X167481250Y-137318750D01*
X167481250Y-137318750D02*
X171926250Y-137318750D01*
X171926250Y-137953750D02*
X166846250Y-137953750D01*
X166846250Y-137953750D02*
X166846250Y-123983750D01*
X166846250Y-123983750D02*
X171926250Y-123983750D01*
X175736250Y-123983750D02*
X180816250Y-123983750D01*
X180816250Y-123983750D02*
X180816250Y-137953750D01*
X180816250Y-137953750D02*
X175736250Y-137953750D01*
X175736250Y-137318750D02*
X180181250Y-137318750D01*
X180181250Y-137318750D02*
X180181250Y-124618750D01*
X180181250Y-124618750D02*
X175736250Y-124618750D01*
X171926250Y-124618750D02*
X171926250Y-123983750D01*
X175736250Y-123983750D02*
X175736250Y-124618750D01*
X175736250Y-137318750D02*
X175736250Y-137953750D01*
X171926250Y-137953750D02*
X171926250Y-137318750D01*
X171926250Y-105568750D02*
X167481250Y-105568750D01*
X167481250Y-105568750D02*
X167481250Y-118268750D01*
X167481250Y-118268750D02*
X171926250Y-118268750D01*
X171926250Y-118903750D02*
X166846250Y-118903750D01*
X166846250Y-118903750D02*
X166846250Y-104933750D01*
X166846250Y-104933750D02*
X171926250Y-104933750D01*
X175736250Y-104933750D02*
X180816250Y-104933750D01*
X180816250Y-104933750D02*
X180816250Y-118903750D01*
X180816250Y-118903750D02*
X175736250Y-118903750D01*
X175736250Y-118268750D02*
X180181250Y-118268750D01*
X180181250Y-118268750D02*
X180181250Y-105568750D01*
X180181250Y-105568750D02*
X175736250Y-105568750D01*
X171926250Y-105568750D02*
X171926250Y-104933750D01*
X175736250Y-104933750D02*
X175736250Y-105568750D01*
X175736250Y-118268750D02*
X175736250Y-118903750D01*
X171926250Y-118903750D02*
X171926250Y-118268750D01*
X171926250Y-86518750D02*
X167481250Y-86518750D01*
X167481250Y-86518750D02*
X167481250Y-99218750D01*
X167481250Y-99218750D02*
X171926250Y-99218750D01*
X171926250Y-99853750D02*
X166846250Y-99853750D01*
X166846250Y-99853750D02*
X166846250Y-85883750D01*
X166846250Y-85883750D02*
X171926250Y-85883750D01*
X175736250Y-85883750D02*
X180816250Y-85883750D01*
X180816250Y-85883750D02*
X180816250Y-99853750D01*
X180816250Y-99853750D02*
X175736250Y-99853750D01*
X175736250Y-99218750D02*
X180181250Y-99218750D01*
X180181250Y-99218750D02*
X180181250Y-86518750D01*
X180181250Y-86518750D02*
X175736250Y-86518750D01*
X171926250Y-86518750D02*
X171926250Y-85883750D01*
X175736250Y-85883750D02*
X175736250Y-86518750D01*
X175736250Y-99218750D02*
X175736250Y-99853750D01*
X171926250Y-99853750D02*
X171926250Y-99218750D01*
X114776250Y-124618750D02*
X110331250Y-124618750D01*
X110331250Y-124618750D02*
X110331250Y-137318750D01*
X110331250Y-137318750D02*
X114776250Y-137318750D01*
X114776250Y-137953750D02*
X109696250Y-137953750D01*
X109696250Y-137953750D02*
X109696250Y-123983750D01*
X109696250Y-123983750D02*
X114776250Y-123983750D01*
X118586250Y-123983750D02*
X123666250Y-123983750D01*
X123666250Y-123983750D02*
X123666250Y-137953750D01*
X123666250Y-137953750D02*
X118586250Y-137953750D01*
X118586250Y-137318750D02*
X123031250Y-137318750D01*
X123031250Y-137318750D02*
X123031250Y-124618750D01*
X123031250Y-124618750D02*
X118586250Y-124618750D01*
X114776250Y-124618750D02*
X114776250Y-123983750D01*
X118586250Y-123983750D02*
X118586250Y-124618750D01*
X118586250Y-137318750D02*
X118586250Y-137953750D01*
X114776250Y-137953750D02*
X114776250Y-137318750D01*
X133826250Y-124618750D02*
X129381250Y-124618750D01*
X129381250Y-124618750D02*
X129381250Y-137318750D01*
X129381250Y-137318750D02*
X133826250Y-137318750D01*
X133826250Y-137953750D02*
X128746250Y-137953750D01*
X128746250Y-137953750D02*
X128746250Y-123983750D01*
X128746250Y-123983750D02*
X133826250Y-123983750D01*
X137636250Y-123983750D02*
X142716250Y-123983750D01*
X142716250Y-123983750D02*
X142716250Y-137953750D01*
X142716250Y-137953750D02*
X137636250Y-137953750D01*
X137636250Y-137318750D02*
X142081250Y-137318750D01*
X142081250Y-137318750D02*
X142081250Y-124618750D01*
X142081250Y-124618750D02*
X137636250Y-124618750D01*
X133826250Y-124618750D02*
X133826250Y-123983750D01*
X137636250Y-123983750D02*
X137636250Y-124618750D01*
X137636250Y-137318750D02*
X137636250Y-137953750D01*
X133826250Y-137953750D02*
X133826250Y-137318750D01*
X171926992Y-143669390D02*
X167481992Y-143669390D01*
X167481992Y-143669390D02*
X167481992Y-156369390D01*
X167481992Y-156369390D02*
X171926992Y-156369390D01*
X171926992Y-157004390D02*
X166846992Y-157004390D01*
X166846992Y-157004390D02*
X166846992Y-143034390D01*
X166846992Y-143034390D02*
X171926992Y-143034390D01*
X175736992Y-143034390D02*
X180816992Y-143034390D01*
X180816992Y-143034390D02*
X180816992Y-157004390D01*
X180816992Y-157004390D02*
X175736992Y-157004390D01*
X175736992Y-156369390D02*
X180181992Y-156369390D01*
X180181992Y-156369390D02*
X180181992Y-143669390D01*
X180181992Y-143669390D02*
X175736992Y-143669390D01*
X171926992Y-143669390D02*
X171926992Y-143034390D01*
X175736992Y-143034390D02*
X175736992Y-143669390D01*
X175736992Y-156369390D02*
X175736992Y-157004390D01*
X171926992Y-157004390D02*
X171926992Y-156369390D01*
X152876910Y-143669390D02*
X148431910Y-143669390D01*
X148431910Y-143669390D02*
X148431910Y-156369390D01*
X148431910Y-156369390D02*
X152876910Y-156369390D01*
X152876910Y-157004390D02*
X147796910Y-157004390D01*
X147796910Y-157004390D02*
X147796910Y-143034390D01*
X147796910Y-143034390D02*
X152876910Y-143034390D01*
X156686910Y-143034390D02*
X161766910Y-143034390D01*
X161766910Y-143034390D02*
X161766910Y-157004390D01*
X161766910Y-157004390D02*
X156686910Y-157004390D01*
X156686910Y-156369390D02*
X161131910Y-156369390D01*
X161131910Y-156369390D02*
X161131910Y-143669390D01*
X161131910Y-143669390D02*
X156686910Y-143669390D01*
X152876910Y-143669390D02*
X152876910Y-143034390D01*
X156686910Y-143034390D02*
X156686910Y-143669390D01*
X156686910Y-156369390D02*
X156686910Y-157004390D01*
X152876910Y-157004390D02*
X152876910Y-156369390D01*
X190976250Y-124618750D02*
X186531250Y-124618750D01*
X186531250Y-124618750D02*
X186531250Y-137318750D01*
X186531250Y-137318750D02*
X190976250Y-137318750D01*
X190976250Y-137953750D02*
X185896250Y-137953750D01*
X185896250Y-137953750D02*
X185896250Y-123983750D01*
X185896250Y-123983750D02*
X190976250Y-123983750D01*
X194786250Y-123983750D02*
X199866250Y-123983750D01*
X199866250Y-123983750D02*
X199866250Y-137953750D01*
X199866250Y-137953750D02*
X194786250Y-137953750D01*
X194786250Y-137318750D02*
X199231250Y-137318750D01*
X199231250Y-137318750D02*
X199231250Y-124618750D01*
X199231250Y-124618750D02*
X194786250Y-124618750D01*
X190976250Y-124618750D02*
X190976250Y-123983750D01*
X194786250Y-123983750D02*
X194786250Y-124618750D01*
X194786250Y-137318750D02*
X194786250Y-137953750D01*
X190976250Y-137953750D02*
X190976250Y-137318750D01*
X210026250Y-105568750D02*
X205581250Y-105568750D01*
X205581250Y-105568750D02*
X205581250Y-118268750D01*
X205581250Y-118268750D02*
X210026250Y-118268750D01*
X210026250Y-118903750D02*
X204946250Y-118903750D01*
X204946250Y-118903750D02*
X204946250Y-104933750D01*
X204946250Y-104933750D02*
X210026250Y-104933750D01*
X213836250Y-104933750D02*
X218916250Y-104933750D01*
X218916250Y-104933750D02*
X218916250Y-118903750D01*
X218916250Y-118903750D02*
X213836250Y-118903750D01*
X213836250Y-118268750D02*
X218281250Y-118268750D01*
X218281250Y-118268750D02*
X218281250Y-105568750D01*
X218281250Y-105568750D02*
X213836250Y-105568750D01*
X210026250Y-105568750D02*
X210026250Y-104933750D01*
X213836250Y-104933750D02*
X213836250Y-105568750D01*
X213836250Y-118268750D02*
X213836250Y-118903750D01*
X210026250Y-118903750D02*
X210026250Y-118268750D01*
X190976250Y-105568750D02*
X186531250Y-105568750D01*
X186531250Y-105568750D02*
X186531250Y-118268750D01*
X186531250Y-118268750D02*
X190976250Y-118268750D01*
X190976250Y-118903750D02*
X185896250Y-118903750D01*
X185896250Y-118903750D02*
X185896250Y-104933750D01*
X185896250Y-104933750D02*
X190976250Y-104933750D01*
X194786250Y-104933750D02*
X199866250Y-104933750D01*
X199866250Y-104933750D02*
X199866250Y-118903750D01*
X199866250Y-118903750D02*
X194786250Y-118903750D01*
X194786250Y-118268750D02*
X199231250Y-118268750D01*
X199231250Y-118268750D02*
X199231250Y-105568750D01*
X199231250Y-105568750D02*
X194786250Y-105568750D01*
X190976250Y-105568750D02*
X190976250Y-104933750D01*
X194786250Y-104933750D02*
X194786250Y-105568750D01*
X194786250Y-118268750D02*
X194786250Y-118903750D01*
X190976250Y-118903750D02*
X190976250Y-118268750D01*
X152876250Y-105568750D02*
X148431250Y-105568750D01*
X148431250Y-105568750D02*
X148431250Y-118268750D01*
X148431250Y-118268750D02*
X152876250Y-118268750D01*
X152876250Y-118903750D02*
X147796250Y-118903750D01*
X147796250Y-118903750D02*
X147796250Y-104933750D01*
X147796250Y-104933750D02*
X152876250Y-104933750D01*
X156686250Y-104933750D02*
X161766250Y-104933750D01*
X161766250Y-104933750D02*
X161766250Y-118903750D01*
X161766250Y-118903750D02*
X156686250Y-118903750D01*
X156686250Y-118268750D02*
X161131250Y-118268750D01*
X161131250Y-118268750D02*
X161131250Y-105568750D01*
X161131250Y-105568750D02*
X156686250Y-105568750D01*
X152876250Y-105568750D02*
X152876250Y-104933750D01*
X156686250Y-104933750D02*
X156686250Y-105568750D01*
X156686250Y-118268750D02*
X156686250Y-118903750D01*
X152876250Y-118903750D02*
X152876250Y-118268750D01*
X133826250Y-105568750D02*
X129381250Y-105568750D01*
X129381250Y-105568750D02*
X129381250Y-118268750D01*
X129381250Y-118268750D02*
X133826250Y-118268750D01*
X133826250Y-118903750D02*
X128746250Y-118903750D01*
X128746250Y-118903750D02*
X128746250Y-104933750D01*
X128746250Y-104933750D02*
X133826250Y-104933750D01*
X137636250Y-104933750D02*
X142716250Y-104933750D01*
X142716250Y-104933750D02*
X142716250Y-118903750D01*
X142716250Y-118903750D02*
X137636250Y-118903750D01*
X137636250Y-118268750D02*
X142081250Y-118268750D01*
X142081250Y-118268750D02*
X142081250Y-105568750D01*
X142081250Y-105568750D02*
X137636250Y-105568750D01*
X133826250Y-105568750D02*
X133826250Y-104933750D01*
X137636250Y-104933750D02*
X137636250Y-105568750D01*
X137636250Y-118268750D02*
X137636250Y-118903750D01*
X133826250Y-118903750D02*
X133826250Y-118268750D01*
X114776250Y-105568750D02*
X110331250Y-105568750D01*
X110331250Y-105568750D02*
X110331250Y-118268750D01*
X110331250Y-118268750D02*
X114776250Y-118268750D01*
X114776250Y-118903750D02*
X109696250Y-118903750D01*
X109696250Y-118903750D02*
X109696250Y-104933750D01*
X109696250Y-104933750D02*
X114776250Y-104933750D01*
X118586250Y-104933750D02*
X123666250Y-104933750D01*
X123666250Y-104933750D02*
X123666250Y-118903750D01*
X123666250Y-118903750D02*
X118586250Y-118903750D01*
X118586250Y-118268750D02*
X123031250Y-118268750D01*
X123031250Y-118268750D02*
X123031250Y-105568750D01*
X123031250Y-105568750D02*
X118586250Y-105568750D01*
X114776250Y-105568750D02*
X114776250Y-104933750D01*
X118586250Y-104933750D02*
X118586250Y-105568750D01*
X118586250Y-118268750D02*
X118586250Y-118903750D01*
X114776250Y-118903750D02*
X114776250Y-118268750D01*
X210026250Y-86518750D02*
X205581250Y-86518750D01*
X205581250Y-86518750D02*
X205581250Y-99218750D01*
X205581250Y-99218750D02*
X210026250Y-99218750D01*
X210026250Y-99853750D02*
X204946250Y-99853750D01*
X204946250Y-99853750D02*
X204946250Y-85883750D01*
X204946250Y-85883750D02*
X210026250Y-85883750D01*
X213836250Y-85883750D02*
X218916250Y-85883750D01*
X218916250Y-85883750D02*
X218916250Y-99853750D01*
X218916250Y-99853750D02*
X213836250Y-99853750D01*
X213836250Y-99218750D02*
X218281250Y-99218750D01*
X218281250Y-99218750D02*
X218281250Y-86518750D01*
X218281250Y-86518750D02*
X213836250Y-86518750D01*
X210026250Y-86518750D02*
X210026250Y-85883750D01*
X213836250Y-85883750D02*
X213836250Y-86518750D01*
X213836250Y-99218750D02*
X213836250Y-99853750D01*
X210026250Y-99853750D02*
X210026250Y-99218750D01*
X190976250Y-86518750D02*
X186531250Y-86518750D01*
X186531250Y-86518750D02*
X186531250Y-99218750D01*
X186531250Y-99218750D02*
X190976250Y-99218750D01*
X190976250Y-99853750D02*
X185896250Y-99853750D01*
X185896250Y-99853750D02*
X185896250Y-85883750D01*
X185896250Y-85883750D02*
X190976250Y-85883750D01*
X194786250Y-85883750D02*
X199866250Y-85883750D01*
X199866250Y-85883750D02*
X199866250Y-99853750D01*
X199866250Y-99853750D02*
X194786250Y-99853750D01*
X194786250Y-99218750D02*
X199231250Y-99218750D01*
X199231250Y-99218750D02*
X199231250Y-86518750D01*
X199231250Y-86518750D02*
X194786250Y-86518750D01*
X190976250Y-86518750D02*
X190976250Y-85883750D01*
X194786250Y-85883750D02*
X194786250Y-86518750D01*
X194786250Y-99218750D02*
X194786250Y-99853750D01*
X190976250Y-99853750D02*
X190976250Y-99218750D01*
X152876250Y-86518750D02*
X148431250Y-86518750D01*
X148431250Y-86518750D02*
X148431250Y-99218750D01*
X148431250Y-99218750D02*
X152876250Y-99218750D01*
X152876250Y-99853750D02*
X147796250Y-99853750D01*
X147796250Y-99853750D02*
X147796250Y-85883750D01*
X147796250Y-85883750D02*
X152876250Y-85883750D01*
X156686250Y-85883750D02*
X161766250Y-85883750D01*
X161766250Y-85883750D02*
X161766250Y-99853750D01*
X161766250Y-99853750D02*
X156686250Y-99853750D01*
X156686250Y-99218750D02*
X161131250Y-99218750D01*
X161131250Y-99218750D02*
X161131250Y-86518750D01*
X161131250Y-86518750D02*
X156686250Y-86518750D01*
X152876250Y-86518750D02*
X152876250Y-85883750D01*
X156686250Y-85883750D02*
X156686250Y-86518750D01*
X156686250Y-99218750D02*
X156686250Y-99853750D01*
X152876250Y-99853750D02*
X152876250Y-99218750D01*
X133826250Y-86518750D02*
X129381250Y-86518750D01*
X129381250Y-86518750D02*
X129381250Y-99218750D01*
X129381250Y-99218750D02*
X133826250Y-99218750D01*
X133826250Y-99853750D02*
X128746250Y-99853750D01*
X128746250Y-99853750D02*
X128746250Y-85883750D01*
X128746250Y-85883750D02*
X133826250Y-85883750D01*
X137636250Y-85883750D02*
X142716250Y-85883750D01*
X142716250Y-85883750D02*
X142716250Y-99853750D01*
X142716250Y-99853750D02*
X137636250Y-99853750D01*
X137636250Y-99218750D02*
X142081250Y-99218750D01*
X142081250Y-99218750D02*
X142081250Y-86518750D01*
X142081250Y-86518750D02*
X137636250Y-86518750D01*
X133826250Y-86518750D02*
X133826250Y-85883750D01*
X137636250Y-85883750D02*
X137636250Y-86518750D01*
X137636250Y-99218750D02*
X137636250Y-99853750D01*
X133826250Y-99853750D02*
X133826250Y-99218750D01*
X114776250Y-86518750D02*
X110331250Y-86518750D01*
X110331250Y-86518750D02*
X110331250Y-99218750D01*
X110331250Y-99218750D02*
X114776250Y-99218750D01*
X114776250Y-99853750D02*
X109696250Y-99853750D01*
X109696250Y-99853750D02*
X109696250Y-85883750D01*
X109696250Y-85883750D02*
X114776250Y-85883750D01*
X118586250Y-85883750D02*
X123666250Y-85883750D01*
X123666250Y-85883750D02*
X123666250Y-99853750D01*
X123666250Y-99853750D02*
X118586250Y-99853750D01*
X118586250Y-99218750D02*
X123031250Y-99218750D01*
X123031250Y-99218750D02*
X123031250Y-86518750D01*
X123031250Y-86518750D02*
X118586250Y-86518750D01*
X114776250Y-86518750D02*
X114776250Y-85883750D01*
X118586250Y-85883750D02*
X118586250Y-86518750D01*
X118586250Y-99218750D02*
X118586250Y-99853750D01*
X114776250Y-99853750D02*
X114776250Y-99218750D01*
X171926250Y-67468750D02*
X167481250Y-67468750D01*
X167481250Y-67468750D02*
X167481250Y-80168750D01*
X167481250Y-80168750D02*
X171926250Y-80168750D01*
X171926250Y-80803750D02*
X166846250Y-80803750D01*
X166846250Y-80803750D02*
X166846250Y-66833750D01*
X166846250Y-66833750D02*
X171926250Y-66833750D01*
X175736250Y-66833750D02*
X180816250Y-66833750D01*
X180816250Y-66833750D02*
X180816250Y-80803750D01*
X180816250Y-80803750D02*
X175736250Y-80803750D01*
X175736250Y-80168750D02*
X180181250Y-80168750D01*
X180181250Y-80168750D02*
X180181250Y-67468750D01*
X180181250Y-67468750D02*
X175736250Y-67468750D01*
X171926250Y-67468750D02*
X171926250Y-66833750D01*
X175736250Y-66833750D02*
X175736250Y-67468750D01*
X175736250Y-80168750D02*
X175736250Y-80803750D01*
X171926250Y-80803750D02*
X171926250Y-80168750D01*
X156686250Y-80168750D02*
X161131250Y-80168750D01*
X161131250Y-80168750D02*
X161131250Y-67468750D01*
X161131250Y-67468750D02*
X156686250Y-67468750D01*
X156686250Y-66833750D02*
X161766250Y-66833750D01*
X161766250Y-66833750D02*
X161766250Y-80803750D01*
X161766250Y-80803750D02*
X156686250Y-80803750D01*
X152876250Y-80803750D02*
X147796250Y-80803750D01*
X147796250Y-80803750D02*
X147796250Y-66833750D01*
X147796250Y-66833750D02*
X152876250Y-66833750D01*
X152876250Y-67468750D02*
X148431250Y-67468750D01*
X148431250Y-67468750D02*
X148431250Y-80168750D01*
X148431250Y-80168750D02*
X152876250Y-80168750D01*
X156686250Y-80168750D02*
X156686250Y-80803750D01*
X152876250Y-80803750D02*
X152876250Y-80168750D01*
X152876250Y-67468750D02*
X152876250Y-66833750D01*
X156686250Y-66833750D02*
X156686250Y-67468750D01*
X210026250Y-124618750D02*
X205581250Y-124618750D01*
X205581250Y-124618750D02*
X205581250Y-137318750D01*
X205581250Y-137318750D02*
X210026250Y-137318750D01*
X210026250Y-137953750D02*
X204946250Y-137953750D01*
X204946250Y-137953750D02*
X204946250Y-123983750D01*
X204946250Y-123983750D02*
X210026250Y-123983750D01*
X213836250Y-123983750D02*
X218916250Y-123983750D01*
X218916250Y-123983750D02*
X218916250Y-137953750D01*
X218916250Y-137953750D02*
X213836250Y-137953750D01*
X213836250Y-137318750D02*
X218281250Y-137318750D01*
X218281250Y-137318750D02*
X218281250Y-124618750D01*
X218281250Y-124618750D02*
X213836250Y-124618750D01*
X210026250Y-124618750D02*
X210026250Y-123983750D01*
X213836250Y-123983750D02*
X213836250Y-124618750D01*
X213836250Y-137318750D02*
X213836250Y-137953750D01*
X210026250Y-137953750D02*
X210026250Y-137318750D01*
X152876250Y-124618750D02*
X148431250Y-124618750D01*
X148431250Y-124618750D02*
X148431250Y-137318750D01*
X148431250Y-137318750D02*
X152876250Y-137318750D01*
X152876250Y-137953750D02*
X147796250Y-137953750D01*
X147796250Y-137953750D02*
X147796250Y-123983750D01*
X147796250Y-123983750D02*
X152876250Y-123983750D01*
X156686250Y-123983750D02*
X161766250Y-123983750D01*
X161766250Y-123983750D02*
X161766250Y-137953750D01*
X161766250Y-137953750D02*
X156686250Y-137953750D01*
X156686250Y-137318750D02*
X161131250Y-137318750D01*
X161131250Y-137318750D02*
X161131250Y-124618750D01*
X161131250Y-124618750D02*
X156686250Y-124618750D01*
X152876250Y-124618750D02*
X152876250Y-123983750D01*
X156686250Y-123983750D02*
X156686250Y-124618750D01*
X156686250Y-137318750D02*
X156686250Y-137953750D01*
X152876250Y-137953750D02*
X152876250Y-137318750D01*
X123666250Y-76358750D02*
X123666250Y-66833750D01*
X123031250Y-67468750D02*
X123031250Y-76358750D01*
X123666250Y-80803750D02*
X123666250Y-78263750D01*
X123031250Y-78263750D02*
X123031250Y-80168750D01*
X123031250Y-76358750D02*
X123666250Y-76358750D01*
X123031250Y-78263750D02*
X123666250Y-78263750D01*
X114776250Y-67468750D02*
X110331250Y-67468750D01*
X110331250Y-80168750D02*
X114776250Y-80168750D01*
X114776250Y-80803750D02*
X109696250Y-80803750D01*
X109696250Y-66833750D02*
X114776250Y-66833750D01*
X118586250Y-66833750D02*
X123666250Y-66833750D01*
X109696250Y-66833750D02*
X109696250Y-80803750D01*
X123666250Y-80803750D02*
X118586250Y-80803750D01*
X118586250Y-80168750D02*
X123031250Y-80168750D01*
X110331250Y-80168750D02*
X110331250Y-67468750D01*
X123031250Y-67468750D02*
X118586250Y-67468750D01*
X114776250Y-67468750D02*
X114776250Y-66833750D01*
X118586250Y-66833750D02*
X118586250Y-67468750D01*
X118586250Y-80168750D02*
X118586250Y-80803750D01*
X114776250Y-80803750D02*
X114776250Y-80168750D01*
X205581250Y-68738750D02*
X204946250Y-68738750D01*
X204946250Y-70643750D02*
X205581250Y-70643750D01*
X204946250Y-71278750D02*
X205581250Y-71278750D01*
X205581250Y-73183750D02*
X204946250Y-73183750D01*
X204946250Y-66833750D02*
X204946250Y-68738750D01*
X205581250Y-67468750D02*
X205581250Y-68738750D01*
X204946250Y-70643750D02*
X204946250Y-71278750D01*
X205581250Y-70643750D02*
X205581250Y-71278750D01*
X205581250Y-75723750D02*
X205581250Y-73183750D01*
X204946250Y-75723750D02*
X205581250Y-75723750D01*
X204946250Y-73183750D02*
X204946250Y-75723750D01*
X204946250Y-77628750D02*
X205581250Y-77628750D01*
X204946250Y-77628750D02*
X204946250Y-80803750D01*
X205581250Y-80168750D02*
X205581250Y-77628750D01*
X210026250Y-67468750D02*
X205581250Y-67468750D01*
X218281250Y-67468750D02*
X218281250Y-80168750D01*
X205581250Y-80168750D02*
X210026250Y-80168750D01*
X210026250Y-80803750D02*
X204946250Y-80803750D01*
X218916250Y-80803750D02*
X218916250Y-66833750D01*
X204946250Y-66833750D02*
X210026250Y-66833750D01*
X213836250Y-66833750D02*
X218916250Y-66833750D01*
X218916250Y-80803750D02*
X213836250Y-80803750D01*
X213836250Y-80168750D02*
X218281250Y-80168750D01*
X218281250Y-67468750D02*
X213836250Y-67468750D01*
X210026250Y-67468750D02*
X210026250Y-66833750D01*
X213836250Y-66833750D02*
X213836250Y-67468750D01*
X213836250Y-80168750D02*
X213836250Y-80803750D01*
X210026250Y-80803750D02*
X210026250Y-80168750D01*
X199866250Y-76358750D02*
X199866250Y-66833750D01*
X199231250Y-67468750D02*
X199231250Y-76358750D01*
X199866250Y-80803750D02*
X199866250Y-78263750D01*
X199231250Y-78263750D02*
X199231250Y-80168750D01*
X199231250Y-76358750D02*
X199866250Y-76358750D01*
X199231250Y-78263750D02*
X199866250Y-78263750D01*
X190976250Y-67468750D02*
X186531250Y-67468750D01*
X186531250Y-80168750D02*
X190976250Y-80168750D01*
X190976250Y-80803750D02*
X185896250Y-80803750D01*
X185896250Y-66833750D02*
X190976250Y-66833750D01*
X194786250Y-66833750D02*
X199866250Y-66833750D01*
X185896250Y-66833750D02*
X185896250Y-80803750D01*
X199866250Y-80803750D02*
X194786250Y-80803750D01*
X194786250Y-80168750D02*
X199231250Y-80168750D01*
X186531250Y-80168750D02*
X186531250Y-67468750D01*
X199231250Y-67468750D02*
X194786250Y-67468750D01*
X190976250Y-67468750D02*
X190976250Y-66833750D01*
X194786250Y-66833750D02*
X194786250Y-67468750D01*
X194786250Y-80168750D02*
X194786250Y-80803750D01*
X190976250Y-80803750D02*
X190976250Y-80168750D01*
X129381250Y-68738750D02*
X128746250Y-68738750D01*
X128746250Y-70643750D02*
X129381250Y-70643750D01*
X128746250Y-71278750D02*
X129381250Y-71278750D01*
X129381250Y-73183750D02*
X128746250Y-73183750D01*
X128746250Y-66833750D02*
X128746250Y-68738750D01*
X129381250Y-67468750D02*
X129381250Y-68738750D01*
X128746250Y-70643750D02*
X128746250Y-71278750D01*
X129381250Y-70643750D02*
X129381250Y-71278750D01*
X129381250Y-75723750D02*
X129381250Y-73183750D01*
X128746250Y-75723750D02*
X129381250Y-75723750D01*
X128746250Y-73183750D02*
X128746250Y-75723750D01*
X128746250Y-77628750D02*
X129381250Y-77628750D01*
X128746250Y-77628750D02*
X128746250Y-80803750D01*
X129381250Y-80168750D02*
X129381250Y-77628750D01*
X133826250Y-67468750D02*
X129381250Y-67468750D01*
X142081250Y-67468750D02*
X142081250Y-80168750D01*
X129381250Y-80168750D02*
X133826250Y-80168750D01*
X133826250Y-80803750D02*
X128746250Y-80803750D01*
X142716250Y-80803750D02*
X142716250Y-66833750D01*
X128746250Y-66833750D02*
X133826250Y-66833750D01*
X137636250Y-66833750D02*
X142716250Y-66833750D01*
X142716250Y-80803750D02*
X137636250Y-80803750D01*
X137636250Y-80168750D02*
X142081250Y-80168750D01*
X142081250Y-67468750D02*
X137636250Y-67468750D01*
X133826250Y-67468750D02*
X133826250Y-66833750D01*
X137636250Y-66833750D02*
X137636250Y-67468750D01*
X137636250Y-80168750D02*
X137636250Y-80803750D01*
X133826250Y-80803750D02*
X133826250Y-80168750D01*
X196057114Y-143669390D02*
X200502114Y-143669390D01*
X200502114Y-143669390D02*
X200502114Y-143034390D01*
X204312114Y-143034390D02*
X204312114Y-143669390D01*
X204947114Y-143669390D02*
X204312114Y-143669390D01*
X194787114Y-143034390D02*
X200502114Y-143034390D01*
X204312114Y-143034390D02*
X210027114Y-143034390D01*
X194787114Y-157004390D02*
X200502114Y-157004390D01*
X196057114Y-152559390D02*
X196057114Y-156369390D01*
X196057114Y-145574390D02*
X195422114Y-145574390D01*
X195422114Y-156369390D02*
X195422114Y-152559390D01*
X199232114Y-156369390D02*
X199232114Y-152559390D01*
X199867114Y-152559390D02*
X199867114Y-156369390D01*
X204947114Y-156369390D02*
X204947114Y-152559390D01*
X205582114Y-152559390D02*
X205582114Y-156369390D01*
X208757114Y-156369390D02*
X208757114Y-152559390D01*
X209392114Y-152559390D02*
X209392114Y-156369390D01*
X210027114Y-143669390D02*
X205582114Y-143669390D01*
X205582114Y-145574390D02*
X204947114Y-145574390D01*
X204947114Y-145574390D02*
X204947114Y-143669390D01*
X204312114Y-157004390D02*
X210027114Y-157004390D01*
X195422114Y-143669390D02*
X195422114Y-145574390D01*
X196057114Y-143669390D02*
X196057114Y-145574390D01*
X199232114Y-156369390D02*
X196057114Y-156369390D01*
X196057114Y-152559390D02*
X195422114Y-152559390D01*
X195422114Y-156369390D02*
X194787114Y-156369390D01*
X194787114Y-143669390D02*
X195422114Y-143669390D01*
X199232114Y-152559390D02*
X199867114Y-152559390D01*
X199867114Y-156369390D02*
X200502114Y-156369390D01*
X205582114Y-143669390D02*
X205582114Y-145574390D01*
X204947114Y-156369390D02*
X204312114Y-156369390D01*
X210027114Y-156369390D02*
X209392114Y-156369390D01*
X209392114Y-152559390D02*
X208757114Y-152559390D01*
X208757114Y-156369390D02*
X205582114Y-156369390D01*
X205582114Y-152559390D02*
X204947114Y-152559390D01*
X190977114Y-143669390D02*
X186532114Y-143669390D01*
X186532114Y-143669390D02*
X186532114Y-156369390D01*
X186532114Y-156369390D02*
X190977114Y-156369390D01*
X190977114Y-157004390D02*
X185897114Y-157004390D01*
X185897114Y-157004390D02*
X185897114Y-143034390D01*
X185897114Y-143034390D02*
X190977114Y-143034390D01*
X190977114Y-143669390D02*
X190977114Y-143034390D01*
X194787114Y-143034390D02*
X194787114Y-143669390D01*
X194787114Y-156369390D02*
X194787114Y-157004390D01*
X190977114Y-157004390D02*
X190977114Y-156369390D01*
X210027114Y-157004390D02*
X210027114Y-156369390D01*
X213837114Y-156369390D02*
X213837114Y-157004390D01*
X213837114Y-143034390D02*
X213837114Y-143669390D01*
X210027114Y-143669390D02*
X210027114Y-143034390D01*
X218282114Y-143669390D02*
X213837114Y-143669390D01*
X218282114Y-156369390D02*
X218282114Y-143669390D01*
X213837114Y-156369390D02*
X218282114Y-156369390D01*
X218917114Y-157004390D02*
X213837114Y-157004390D01*
X218917114Y-143034390D02*
X218917114Y-157004390D01*
X213837114Y-143034390D02*
X218917114Y-143034390D01*
X204312114Y-156369390D02*
X204312114Y-157004390D01*
X200502114Y-157004390D02*
X200502114Y-156369390D01*
X119856788Y-143669390D02*
X124301788Y-143669390D01*
X124301788Y-143669390D02*
X124301788Y-143034390D01*
X128111788Y-143034390D02*
X128111788Y-143669390D01*
X128746788Y-143669390D02*
X128111788Y-143669390D01*
X118586788Y-143034390D02*
X124301788Y-143034390D01*
X128111788Y-143034390D02*
X133826788Y-143034390D01*
X118586788Y-157004390D02*
X124301788Y-157004390D01*
X119856788Y-152559390D02*
X119856788Y-156369390D01*
X119856788Y-145574390D02*
X119221788Y-145574390D01*
X119221788Y-156369390D02*
X119221788Y-152559390D01*
X123031788Y-156369390D02*
X123031788Y-152559390D01*
X123666788Y-152559390D02*
X123666788Y-156369390D01*
X128746788Y-156369390D02*
X128746788Y-152559390D01*
X129381788Y-152559390D02*
X129381788Y-156369390D01*
X132556788Y-156369390D02*
X132556788Y-152559390D01*
X133191788Y-152559390D02*
X133191788Y-156369390D01*
X133826788Y-143669390D02*
X129381788Y-143669390D01*
X129381788Y-145574390D02*
X128746788Y-145574390D01*
X128746788Y-145574390D02*
X128746788Y-143669390D01*
X128111788Y-157004390D02*
X133826788Y-157004390D01*
X119221788Y-143669390D02*
X119221788Y-145574390D01*
X119856788Y-143669390D02*
X119856788Y-145574390D01*
X123031788Y-156369390D02*
X119856788Y-156369390D01*
X119856788Y-152559390D02*
X119221788Y-152559390D01*
X119221788Y-156369390D02*
X118586788Y-156369390D01*
X118586788Y-143669390D02*
X119221788Y-143669390D01*
X123031788Y-152559390D02*
X123666788Y-152559390D01*
X123666788Y-156369390D02*
X124301788Y-156369390D01*
X129381788Y-143669390D02*
X129381788Y-145574390D01*
X128746788Y-156369390D02*
X128111788Y-156369390D01*
X133826788Y-156369390D02*
X133191788Y-156369390D01*
X133191788Y-152559390D02*
X132556788Y-152559390D01*
X132556788Y-156369390D02*
X129381788Y-156369390D01*
X129381788Y-152559390D02*
X128746788Y-152559390D01*
X114776788Y-143669390D02*
X110331788Y-143669390D01*
X110331788Y-143669390D02*
X110331788Y-156369390D01*
X110331788Y-156369390D02*
X114776788Y-156369390D01*
X114776788Y-157004390D02*
X109696788Y-157004390D01*
X109696788Y-157004390D02*
X109696788Y-143034390D01*
X109696788Y-143034390D02*
X114776788Y-143034390D01*
X114776788Y-143669390D02*
X114776788Y-143034390D01*
X118586788Y-143034390D02*
X118586788Y-143669390D01*
X118586788Y-156369390D02*
X118586788Y-157004390D01*
X114776788Y-157004390D02*
X114776788Y-156369390D01*
X133826788Y-157004390D02*
X133826788Y-156369390D01*
X137636788Y-156369390D02*
X137636788Y-157004390D01*
X137636788Y-143034390D02*
X137636788Y-143669390D01*
X133826788Y-143669390D02*
X133826788Y-143034390D01*
X142081788Y-143669390D02*
X137636788Y-143669390D01*
X142081788Y-156369390D02*
X142081788Y-143669390D01*
X137636788Y-156369390D02*
X142081788Y-156369390D01*
X142716788Y-157004390D02*
X137636788Y-157004390D01*
X142716788Y-143034390D02*
X142716788Y-157004390D01*
X137636788Y-143034390D02*
X142716788Y-143034390D01*
X128111788Y-156369390D02*
X128111788Y-157004390D01*
X124301788Y-157004390D02*
X124301788Y-156369390D01*
M02*
