G04 #@! TF.FileFunction,Legend,Bot*
%FSLAX46Y46*%
G04 Gerber Fmt 4.6, Leading zero omitted, Abs format (unit mm)*
G04 Created by KiCad (PCBNEW 4.0.7-e2-6376~58~ubuntu16.04.1) date Sun Mar 18 12:17:23 2018*
%MOMM*%
%LPD*%
G01*
G04 APERTURE LIST*
%ADD10C,0.100000*%
%ADD11C,0.200000*%
%ADD12C,0.381000*%
%ADD13C,0.150000*%
%ADD14C,0.203200*%
G04 APERTURE END LIST*
D10*
D11*
X123676700Y-86171852D02*
X128736877Y-86171852D01*
X129034535Y-85874195D02*
X129034535Y-80814017D01*
X128736877Y-80516359D02*
X123676700Y-80516359D01*
X123379042Y-80814017D02*
X123379042Y-85874195D01*
X221457195Y-140494349D02*
X107156707Y-140494349D01*
D12*
X123031748Y-143669390D02*
X121253748Y-143669390D01*
X112109748Y-143669390D02*
X110331748Y-143669390D01*
X110331748Y-143669390D02*
X110331748Y-145447390D01*
X110331748Y-154591390D02*
X110331748Y-156369390D01*
X110331748Y-156369390D02*
X112109748Y-156369390D01*
X121253748Y-156369390D02*
X123031748Y-156369390D01*
X123031748Y-156369390D02*
X123031748Y-154591390D01*
X123031748Y-145447390D02*
X123031748Y-143669390D01*
X199232073Y-143669390D02*
X197454073Y-143669390D01*
X188310073Y-143669390D02*
X186532073Y-143669390D01*
X186532073Y-143669390D02*
X186532073Y-145447390D01*
X186532073Y-154591390D02*
X186532073Y-156369390D01*
X186532073Y-156369390D02*
X188310073Y-156369390D01*
X197454073Y-156369390D02*
X199232073Y-156369390D01*
X199232073Y-156369390D02*
X199232073Y-154591390D01*
X199232073Y-145447390D02*
X199232073Y-143669390D01*
X148431910Y-70977476D02*
X145891910Y-70977476D01*
X148431910Y-68437476D02*
X148431910Y-70977476D01*
X163671910Y-98917476D02*
X163671910Y-68437476D01*
X145891910Y-98917476D02*
X163671910Y-98917476D01*
X145891910Y-68437476D02*
X145891910Y-98917476D01*
X163671910Y-68437476D02*
X145891910Y-68437476D01*
D13*
X211614654Y-156178890D02*
X211233654Y-156178890D01*
X212122654Y-156178890D02*
X212503654Y-156178890D01*
X211716254Y-155670890D02*
X211919454Y-155366090D01*
X211919454Y-155366090D02*
X211919454Y-155467690D01*
X211919454Y-155366090D02*
X211817854Y-155416890D01*
X212173454Y-155518490D02*
X212071854Y-155569290D01*
X212173454Y-155518490D02*
X212173454Y-155620090D01*
X211970254Y-155823290D02*
X212173454Y-155518490D01*
X212122654Y-155924890D02*
X212122654Y-156432890D01*
X211614654Y-156432890D02*
X212122654Y-156178890D01*
X212122654Y-156178890D02*
X211614654Y-155924890D01*
X211614654Y-155924890D02*
X211614654Y-156432890D01*
X202089614Y-156178890D02*
X201708614Y-156178890D01*
X202597614Y-156178890D02*
X202978614Y-156178890D01*
X202191214Y-155670890D02*
X202394414Y-155366090D01*
X202394414Y-155366090D02*
X202394414Y-155467690D01*
X202394414Y-155366090D02*
X202292814Y-155416890D01*
X202648414Y-155518490D02*
X202546814Y-155569290D01*
X202648414Y-155518490D02*
X202648414Y-155620090D01*
X202445214Y-155823290D02*
X202648414Y-155518490D01*
X202597614Y-155924890D02*
X202597614Y-156432890D01*
X202089614Y-156432890D02*
X202597614Y-156178890D01*
X202597614Y-156178890D02*
X202089614Y-155924890D01*
X202089614Y-155924890D02*
X202089614Y-156432890D01*
X192564573Y-156178890D02*
X192183573Y-156178890D01*
X193072573Y-156178890D02*
X193453573Y-156178890D01*
X192666173Y-155670890D02*
X192869373Y-155366090D01*
X192869373Y-155366090D02*
X192869373Y-155467690D01*
X192869373Y-155366090D02*
X192767773Y-155416890D01*
X193123373Y-155518490D02*
X193021773Y-155569290D01*
X193123373Y-155518490D02*
X193123373Y-155620090D01*
X192920173Y-155823290D02*
X193123373Y-155518490D01*
X193072573Y-155924890D02*
X193072573Y-156432890D01*
X192564573Y-156432890D02*
X193072573Y-156178890D01*
X193072573Y-156178890D02*
X192564573Y-155924890D01*
X192564573Y-155924890D02*
X192564573Y-156432890D01*
X173514492Y-156178890D02*
X173133492Y-156178890D01*
X174022492Y-156178890D02*
X174403492Y-156178890D01*
X173616092Y-155670890D02*
X173819292Y-155366090D01*
X173819292Y-155366090D02*
X173819292Y-155467690D01*
X173819292Y-155366090D02*
X173717692Y-155416890D01*
X174073292Y-155518490D02*
X173971692Y-155569290D01*
X174073292Y-155518490D02*
X174073292Y-155620090D01*
X173870092Y-155823290D02*
X174073292Y-155518490D01*
X174022492Y-155924890D02*
X174022492Y-156432890D01*
X173514492Y-156432890D02*
X174022492Y-156178890D01*
X174022492Y-156178890D02*
X173514492Y-155924890D01*
X173514492Y-155924890D02*
X173514492Y-156432890D01*
X116364248Y-156178890D02*
X115983248Y-156178890D01*
X116872248Y-156178890D02*
X117253248Y-156178890D01*
X116465848Y-155670890D02*
X116669048Y-155366090D01*
X116669048Y-155366090D02*
X116669048Y-155467690D01*
X116669048Y-155366090D02*
X116567448Y-155416890D01*
X116923048Y-155518490D02*
X116821448Y-155569290D01*
X116923048Y-155518490D02*
X116923048Y-155620090D01*
X116719848Y-155823290D02*
X116923048Y-155518490D01*
X116872248Y-155924890D02*
X116872248Y-156432890D01*
X116364248Y-156432890D02*
X116872248Y-156178890D01*
X116872248Y-156178890D02*
X116364248Y-155924890D01*
X116364248Y-155924890D02*
X116364248Y-156432890D01*
X125889288Y-156178890D02*
X125508288Y-156178890D01*
X126397288Y-156178890D02*
X126778288Y-156178890D01*
X125990888Y-155670890D02*
X126194088Y-155366090D01*
X126194088Y-155366090D02*
X126194088Y-155467690D01*
X126194088Y-155366090D02*
X126092488Y-155416890D01*
X126448088Y-155518490D02*
X126346488Y-155569290D01*
X126448088Y-155518490D02*
X126448088Y-155620090D01*
X126244888Y-155823290D02*
X126448088Y-155518490D01*
X126397288Y-155924890D02*
X126397288Y-156432890D01*
X125889288Y-156432890D02*
X126397288Y-156178890D01*
X126397288Y-156178890D02*
X125889288Y-155924890D01*
X125889288Y-155924890D02*
X125889288Y-156432890D01*
X135414329Y-156178890D02*
X135033329Y-156178890D01*
X135922329Y-156178890D02*
X136303329Y-156178890D01*
X135515929Y-155670890D02*
X135719129Y-155366090D01*
X135719129Y-155366090D02*
X135719129Y-155467690D01*
X135719129Y-155366090D02*
X135617529Y-155416890D01*
X135973129Y-155518490D02*
X135871529Y-155569290D01*
X135973129Y-155518490D02*
X135973129Y-155620090D01*
X135769929Y-155823290D02*
X135973129Y-155518490D01*
X135922329Y-155924890D02*
X135922329Y-156432890D01*
X135414329Y-156432890D02*
X135922329Y-156178890D01*
X135922329Y-156178890D02*
X135414329Y-155924890D01*
X135414329Y-155924890D02*
X135414329Y-156432890D01*
X154464410Y-156178890D02*
X154083410Y-156178890D01*
X154972410Y-156178890D02*
X155353410Y-156178890D01*
X154566010Y-155670890D02*
X154769210Y-155366090D01*
X154769210Y-155366090D02*
X154769210Y-155467690D01*
X154769210Y-155366090D02*
X154667610Y-155416890D01*
X155023210Y-155518490D02*
X154921610Y-155569290D01*
X155023210Y-155518490D02*
X155023210Y-155620090D01*
X154820010Y-155823290D02*
X155023210Y-155518490D01*
X154972410Y-155924890D02*
X154972410Y-156432890D01*
X154464410Y-156432890D02*
X154972410Y-156178890D01*
X154972410Y-156178890D02*
X154464410Y-155924890D01*
X154464410Y-155924890D02*
X154464410Y-156432890D01*
D14*
X119729748Y-154593914D02*
X119729748Y-153323914D01*
X119221748Y-154231057D01*
X118713748Y-153323914D01*
X118713748Y-154593914D01*
X118133177Y-153323914D02*
X117117177Y-154593914D01*
X117117177Y-153323914D02*
X118133177Y-154593914D01*
X115883462Y-153747247D02*
X115883462Y-154593914D01*
X116246319Y-153263438D02*
X116609176Y-154170580D01*
X115665748Y-154170580D01*
X115085176Y-154472961D02*
X115012604Y-154533438D01*
X115085176Y-154593914D01*
X115157747Y-154533438D01*
X115085176Y-154472961D01*
X115085176Y-154593914D01*
X115085176Y-153807723D02*
X115012604Y-153868200D01*
X115085176Y-153928676D01*
X115157747Y-153868200D01*
X115085176Y-153807723D01*
X115085176Y-153928676D01*
X114069176Y-153323914D02*
X113924033Y-153323914D01*
X113778890Y-153384390D01*
X113706319Y-153444866D01*
X113633748Y-153565819D01*
X113561176Y-153807723D01*
X113561176Y-154110104D01*
X113633748Y-154352009D01*
X113706319Y-154472961D01*
X113778890Y-154533438D01*
X113924033Y-154593914D01*
X114069176Y-154593914D01*
X114214319Y-154533438D01*
X114286890Y-154472961D01*
X114359462Y-154352009D01*
X114432033Y-154110104D01*
X114432033Y-153807723D01*
X114359462Y-153565819D01*
X114286890Y-153444866D01*
X114214319Y-153384390D01*
X114069176Y-153323914D01*
X195930073Y-154593914D02*
X195930073Y-153323914D01*
X195422073Y-154231057D01*
X194914073Y-153323914D01*
X194914073Y-154593914D01*
X194333502Y-153323914D02*
X193317502Y-154593914D01*
X193317502Y-153323914D02*
X194333502Y-154593914D01*
X192083787Y-153747247D02*
X192083787Y-154593914D01*
X192446644Y-153263438D02*
X192809501Y-154170580D01*
X191866073Y-154170580D01*
X191285501Y-154472961D02*
X191212929Y-154533438D01*
X191285501Y-154593914D01*
X191358072Y-154533438D01*
X191285501Y-154472961D01*
X191285501Y-154593914D01*
X191285501Y-153807723D02*
X191212929Y-153868200D01*
X191285501Y-153928676D01*
X191358072Y-153868200D01*
X191285501Y-153807723D01*
X191285501Y-153928676D01*
X189906644Y-153747247D02*
X189906644Y-154593914D01*
X190269501Y-153263438D02*
X190632358Y-154170580D01*
X189688930Y-154170580D01*
D10*
X145105243Y-70278143D02*
X145338577Y-69944809D01*
X145505243Y-70278143D02*
X145505243Y-69578143D01*
X145238577Y-69578143D01*
X145171910Y-69611476D01*
X145138577Y-69644809D01*
X145105243Y-69711476D01*
X145105243Y-69811476D01*
X145138577Y-69878143D01*
X145171910Y-69911476D01*
X145238577Y-69944809D01*
X145505243Y-69944809D01*
X144838577Y-70078143D02*
X144505243Y-70078143D01*
X144905243Y-70278143D02*
X144671910Y-69578143D01*
X144438577Y-70278143D01*
X144271910Y-69578143D02*
X144105243Y-70278143D01*
X143971910Y-69778143D01*
X143838577Y-70278143D01*
X143671910Y-69578143D01*
X145155243Y-71897476D02*
X145221909Y-71864143D01*
X145321909Y-71864143D01*
X145421909Y-71897476D01*
X145488576Y-71964143D01*
X145521909Y-72030809D01*
X145555243Y-72164143D01*
X145555243Y-72264143D01*
X145521909Y-72397476D01*
X145488576Y-72464143D01*
X145421909Y-72530809D01*
X145321909Y-72564143D01*
X145255243Y-72564143D01*
X145155243Y-72530809D01*
X145121909Y-72497476D01*
X145121909Y-72264143D01*
X145255243Y-72264143D01*
X144821909Y-72564143D02*
X144821909Y-71864143D01*
X144421909Y-72564143D01*
X144421909Y-71864143D01*
X144088576Y-72564143D02*
X144088576Y-71864143D01*
X143921910Y-71864143D01*
X143821910Y-71897476D01*
X143755243Y-71964143D01*
X143721910Y-72030809D01*
X143688576Y-72164143D01*
X143688576Y-72264143D01*
X143721910Y-72397476D01*
X143755243Y-72464143D01*
X143821910Y-72530809D01*
X143921910Y-72564143D01*
X144088576Y-72564143D01*
X145005243Y-75104143D02*
X145238577Y-74770809D01*
X145405243Y-75104143D02*
X145405243Y-74404143D01*
X145138577Y-74404143D01*
X145071910Y-74437476D01*
X145038577Y-74470809D01*
X145005243Y-74537476D01*
X145005243Y-74637476D01*
X145038577Y-74704143D01*
X145071910Y-74737476D01*
X145138577Y-74770809D01*
X145405243Y-74770809D01*
X144738577Y-75070809D02*
X144638577Y-75104143D01*
X144471910Y-75104143D01*
X144405243Y-75070809D01*
X144371910Y-75037476D01*
X144338577Y-74970809D01*
X144338577Y-74904143D01*
X144371910Y-74837476D01*
X144405243Y-74804143D01*
X144471910Y-74770809D01*
X144605243Y-74737476D01*
X144671910Y-74704143D01*
X144705243Y-74670809D01*
X144738577Y-74604143D01*
X144738577Y-74537476D01*
X144705243Y-74470809D01*
X144671910Y-74437476D01*
X144605243Y-74404143D01*
X144438577Y-74404143D01*
X144338577Y-74437476D01*
X144138576Y-74404143D02*
X143738576Y-74404143D01*
X143938576Y-75104143D02*
X143938576Y-74404143D01*
X145555243Y-76944143D02*
X145321910Y-77644143D01*
X145088577Y-76944143D01*
X144455243Y-77577476D02*
X144488577Y-77610809D01*
X144588577Y-77644143D01*
X144655243Y-77644143D01*
X144755243Y-77610809D01*
X144821910Y-77544143D01*
X144855243Y-77477476D01*
X144888577Y-77344143D01*
X144888577Y-77244143D01*
X144855243Y-77110809D01*
X144821910Y-77044143D01*
X144755243Y-76977476D01*
X144655243Y-76944143D01*
X144588577Y-76944143D01*
X144488577Y-76977476D01*
X144455243Y-77010809D01*
X143755243Y-77577476D02*
X143788577Y-77610809D01*
X143888577Y-77644143D01*
X143955243Y-77644143D01*
X144055243Y-77610809D01*
X144121910Y-77544143D01*
X144155243Y-77477476D01*
X144188577Y-77344143D01*
X144188577Y-77244143D01*
X144155243Y-77110809D01*
X144121910Y-77044143D01*
X144055243Y-76977476D01*
X143955243Y-76944143D01*
X143888577Y-76944143D01*
X143788577Y-76977476D01*
X143755243Y-77010809D01*
X145109243Y-79817476D02*
X145342576Y-79817476D01*
X145342576Y-80184143D02*
X145342576Y-79484143D01*
X145009243Y-79484143D01*
X144442576Y-79717476D02*
X144442576Y-80184143D01*
X144609243Y-79450809D02*
X144775910Y-79950809D01*
X144342576Y-79950809D01*
X145109243Y-82357476D02*
X145342576Y-82357476D01*
X145342576Y-82724143D02*
X145342576Y-82024143D01*
X145009243Y-82024143D01*
X144409243Y-82024143D02*
X144742576Y-82024143D01*
X144775910Y-82357476D01*
X144742576Y-82324143D01*
X144675910Y-82290809D01*
X144509243Y-82290809D01*
X144442576Y-82324143D01*
X144409243Y-82357476D01*
X144375910Y-82424143D01*
X144375910Y-82590809D01*
X144409243Y-82657476D01*
X144442576Y-82690809D01*
X144509243Y-82724143D01*
X144675910Y-82724143D01*
X144742576Y-82690809D01*
X144775910Y-82657476D01*
X145109243Y-87437476D02*
X145342576Y-87437476D01*
X145342576Y-87804143D02*
X145342576Y-87104143D01*
X145009243Y-87104143D01*
X144809243Y-87104143D02*
X144342576Y-87104143D01*
X144642576Y-87804143D01*
X145109243Y-84897476D02*
X145342576Y-84897476D01*
X145342576Y-85264143D02*
X145342576Y-84564143D01*
X145009243Y-84564143D01*
X144442576Y-84564143D02*
X144575910Y-84564143D01*
X144642576Y-84597476D01*
X144675910Y-84630809D01*
X144742576Y-84730809D01*
X144775910Y-84864143D01*
X144775910Y-85130809D01*
X144742576Y-85197476D01*
X144709243Y-85230809D01*
X144642576Y-85264143D01*
X144509243Y-85264143D01*
X144442576Y-85230809D01*
X144409243Y-85197476D01*
X144375910Y-85130809D01*
X144375910Y-84964143D01*
X144409243Y-84897476D01*
X144442576Y-84864143D01*
X144509243Y-84830809D01*
X144642576Y-84830809D01*
X144709243Y-84864143D01*
X144742576Y-84897476D01*
X144775910Y-84964143D01*
X145159243Y-89977476D02*
X145059243Y-90010809D01*
X145025910Y-90044143D01*
X144992576Y-90110809D01*
X144992576Y-90210809D01*
X145025910Y-90277476D01*
X145059243Y-90310809D01*
X145125910Y-90344143D01*
X145392576Y-90344143D01*
X145392576Y-89644143D01*
X145159243Y-89644143D01*
X145092576Y-89677476D01*
X145059243Y-89710809D01*
X145025910Y-89777476D01*
X145025910Y-89844143D01*
X145059243Y-89910809D01*
X145092576Y-89944143D01*
X145159243Y-89977476D01*
X145392576Y-89977476D01*
X144325910Y-90344143D02*
X144725910Y-90344143D01*
X144525910Y-90344143D02*
X144525910Y-89644143D01*
X144592576Y-89744143D01*
X144659243Y-89810809D01*
X144725910Y-89844143D01*
X145159243Y-92517476D02*
X145059243Y-92550809D01*
X145025910Y-92584143D01*
X144992576Y-92650809D01*
X144992576Y-92750809D01*
X145025910Y-92817476D01*
X145059243Y-92850809D01*
X145125910Y-92884143D01*
X145392576Y-92884143D01*
X145392576Y-92184143D01*
X145159243Y-92184143D01*
X145092576Y-92217476D01*
X145059243Y-92250809D01*
X145025910Y-92317476D01*
X145025910Y-92384143D01*
X145059243Y-92450809D01*
X145092576Y-92484143D01*
X145159243Y-92517476D01*
X145392576Y-92517476D01*
X144759243Y-92184143D02*
X144325910Y-92184143D01*
X144559243Y-92450809D01*
X144459243Y-92450809D01*
X144392576Y-92484143D01*
X144359243Y-92517476D01*
X144325910Y-92584143D01*
X144325910Y-92750809D01*
X144359243Y-92817476D01*
X144392576Y-92850809D01*
X144459243Y-92884143D01*
X144659243Y-92884143D01*
X144725910Y-92850809D01*
X144759243Y-92817476D01*
X145159243Y-95057476D02*
X145059243Y-95090809D01*
X145025910Y-95124143D01*
X144992576Y-95190809D01*
X144992576Y-95290809D01*
X145025910Y-95357476D01*
X145059243Y-95390809D01*
X145125910Y-95424143D01*
X145392576Y-95424143D01*
X145392576Y-94724143D01*
X145159243Y-94724143D01*
X145092576Y-94757476D01*
X145059243Y-94790809D01*
X145025910Y-94857476D01*
X145025910Y-94924143D01*
X145059243Y-94990809D01*
X145092576Y-95024143D01*
X145159243Y-95057476D01*
X145392576Y-95057476D01*
X144725910Y-94790809D02*
X144692576Y-94757476D01*
X144625910Y-94724143D01*
X144459243Y-94724143D01*
X144392576Y-94757476D01*
X144359243Y-94790809D01*
X144325910Y-94857476D01*
X144325910Y-94924143D01*
X144359243Y-95024143D01*
X144759243Y-95424143D01*
X144325910Y-95424143D01*
X145159243Y-97597476D02*
X145059243Y-97630809D01*
X145025910Y-97664143D01*
X144992576Y-97730809D01*
X144992576Y-97830809D01*
X145025910Y-97897476D01*
X145059243Y-97930809D01*
X145125910Y-97964143D01*
X145392576Y-97964143D01*
X145392576Y-97264143D01*
X145159243Y-97264143D01*
X145092576Y-97297476D01*
X145059243Y-97330809D01*
X145025910Y-97397476D01*
X145025910Y-97464143D01*
X145059243Y-97530809D01*
X145092576Y-97564143D01*
X145159243Y-97597476D01*
X145392576Y-97597476D01*
X144392576Y-97264143D02*
X144525910Y-97264143D01*
X144592576Y-97297476D01*
X144625910Y-97330809D01*
X144692576Y-97430809D01*
X144725910Y-97564143D01*
X144725910Y-97830809D01*
X144692576Y-97897476D01*
X144659243Y-97930809D01*
X144592576Y-97964143D01*
X144459243Y-97964143D01*
X144392576Y-97930809D01*
X144359243Y-97897476D01*
X144325910Y-97830809D01*
X144325910Y-97664143D01*
X144359243Y-97597476D01*
X144392576Y-97564143D01*
X144459243Y-97530809D01*
X144592576Y-97530809D01*
X144659243Y-97564143D01*
X144692576Y-97597476D01*
X144725910Y-97664143D01*
X165204576Y-70024143D02*
X165204576Y-69324143D01*
X165037910Y-69324143D01*
X164937910Y-69357476D01*
X164871243Y-69424143D01*
X164837910Y-69490809D01*
X164804576Y-69624143D01*
X164804576Y-69724143D01*
X164837910Y-69857476D01*
X164871243Y-69924143D01*
X164937910Y-69990809D01*
X165037910Y-70024143D01*
X165204576Y-70024143D01*
X164571243Y-69324143D02*
X164137910Y-69324143D01*
X164371243Y-69590809D01*
X164271243Y-69590809D01*
X164204576Y-69624143D01*
X164171243Y-69657476D01*
X164137910Y-69724143D01*
X164137910Y-69890809D01*
X164171243Y-69957476D01*
X164204576Y-69990809D01*
X164271243Y-70024143D01*
X164471243Y-70024143D01*
X164537910Y-69990809D01*
X164571243Y-69957476D01*
X165204576Y-72564143D02*
X165204576Y-71864143D01*
X165037910Y-71864143D01*
X164937910Y-71897476D01*
X164871243Y-71964143D01*
X164837910Y-72030809D01*
X164804576Y-72164143D01*
X164804576Y-72264143D01*
X164837910Y-72397476D01*
X164871243Y-72464143D01*
X164937910Y-72530809D01*
X165037910Y-72564143D01*
X165204576Y-72564143D01*
X164537910Y-71930809D02*
X164504576Y-71897476D01*
X164437910Y-71864143D01*
X164271243Y-71864143D01*
X164204576Y-71897476D01*
X164171243Y-71930809D01*
X164137910Y-71997476D01*
X164137910Y-72064143D01*
X164171243Y-72164143D01*
X164571243Y-72564143D01*
X164137910Y-72564143D01*
X165475243Y-74437476D02*
X165541909Y-74404143D01*
X165641909Y-74404143D01*
X165741909Y-74437476D01*
X165808576Y-74504143D01*
X165841909Y-74570809D01*
X165875243Y-74704143D01*
X165875243Y-74804143D01*
X165841909Y-74937476D01*
X165808576Y-75004143D01*
X165741909Y-75070809D01*
X165641909Y-75104143D01*
X165575243Y-75104143D01*
X165475243Y-75070809D01*
X165441909Y-75037476D01*
X165441909Y-74804143D01*
X165575243Y-74804143D01*
X165141909Y-75104143D02*
X165141909Y-74404143D01*
X164741909Y-75104143D01*
X164741909Y-74404143D01*
X164408576Y-75104143D02*
X164408576Y-74404143D01*
X164241910Y-74404143D01*
X164141910Y-74437476D01*
X164075243Y-74504143D01*
X164041910Y-74570809D01*
X164008576Y-74704143D01*
X164008576Y-74804143D01*
X164041910Y-74937476D01*
X164075243Y-75004143D01*
X164141910Y-75070809D01*
X164241910Y-75104143D01*
X164408576Y-75104143D01*
X165475243Y-76977476D02*
X165541909Y-76944143D01*
X165641909Y-76944143D01*
X165741909Y-76977476D01*
X165808576Y-77044143D01*
X165841909Y-77110809D01*
X165875243Y-77244143D01*
X165875243Y-77344143D01*
X165841909Y-77477476D01*
X165808576Y-77544143D01*
X165741909Y-77610809D01*
X165641909Y-77644143D01*
X165575243Y-77644143D01*
X165475243Y-77610809D01*
X165441909Y-77577476D01*
X165441909Y-77344143D01*
X165575243Y-77344143D01*
X165141909Y-77644143D02*
X165141909Y-76944143D01*
X164741909Y-77644143D01*
X164741909Y-76944143D01*
X164408576Y-77644143D02*
X164408576Y-76944143D01*
X164241910Y-76944143D01*
X164141910Y-76977476D01*
X164075243Y-77044143D01*
X164041910Y-77110809D01*
X164008576Y-77244143D01*
X164008576Y-77344143D01*
X164041910Y-77477476D01*
X164075243Y-77544143D01*
X164141910Y-77610809D01*
X164241910Y-77644143D01*
X164408576Y-77644143D01*
X165204576Y-80184143D02*
X165204576Y-79484143D01*
X165037910Y-79484143D01*
X164937910Y-79517476D01*
X164871243Y-79584143D01*
X164837910Y-79650809D01*
X164804576Y-79784143D01*
X164804576Y-79884143D01*
X164837910Y-80017476D01*
X164871243Y-80084143D01*
X164937910Y-80150809D01*
X165037910Y-80184143D01*
X165204576Y-80184143D01*
X164137910Y-80184143D02*
X164537910Y-80184143D01*
X164337910Y-80184143D02*
X164337910Y-79484143D01*
X164404576Y-79584143D01*
X164471243Y-79650809D01*
X164537910Y-79684143D01*
X165204576Y-82724143D02*
X165204576Y-82024143D01*
X165037910Y-82024143D01*
X164937910Y-82057476D01*
X164871243Y-82124143D01*
X164837910Y-82190809D01*
X164804576Y-82324143D01*
X164804576Y-82424143D01*
X164837910Y-82557476D01*
X164871243Y-82624143D01*
X164937910Y-82690809D01*
X165037910Y-82724143D01*
X165204576Y-82724143D01*
X164371243Y-82024143D02*
X164304576Y-82024143D01*
X164237910Y-82057476D01*
X164204576Y-82090809D01*
X164171243Y-82157476D01*
X164137910Y-82290809D01*
X164137910Y-82457476D01*
X164171243Y-82590809D01*
X164204576Y-82657476D01*
X164237910Y-82690809D01*
X164304576Y-82724143D01*
X164371243Y-82724143D01*
X164437910Y-82690809D01*
X164471243Y-82657476D01*
X164504576Y-82590809D01*
X164537910Y-82457476D01*
X164537910Y-82290809D01*
X164504576Y-82157476D01*
X164471243Y-82090809D01*
X164437910Y-82057476D01*
X164371243Y-82024143D01*
X165204576Y-85264143D02*
X165204576Y-84564143D01*
X165037910Y-84564143D01*
X164937910Y-84597476D01*
X164871243Y-84664143D01*
X164837910Y-84730809D01*
X164804576Y-84864143D01*
X164804576Y-84964143D01*
X164837910Y-85097476D01*
X164871243Y-85164143D01*
X164937910Y-85230809D01*
X165037910Y-85264143D01*
X165204576Y-85264143D01*
X164204576Y-84797476D02*
X164204576Y-85264143D01*
X164371243Y-84530809D02*
X164537910Y-85030809D01*
X164104576Y-85030809D01*
X164804576Y-87737476D02*
X164837910Y-87770809D01*
X164937910Y-87804143D01*
X165004576Y-87804143D01*
X165104576Y-87770809D01*
X165171243Y-87704143D01*
X165204576Y-87637476D01*
X165237910Y-87504143D01*
X165237910Y-87404143D01*
X165204576Y-87270809D01*
X165171243Y-87204143D01*
X165104576Y-87137476D01*
X165004576Y-87104143D01*
X164937910Y-87104143D01*
X164837910Y-87137476D01*
X164804576Y-87170809D01*
X164204576Y-87104143D02*
X164337910Y-87104143D01*
X164404576Y-87137476D01*
X164437910Y-87170809D01*
X164504576Y-87270809D01*
X164537910Y-87404143D01*
X164537910Y-87670809D01*
X164504576Y-87737476D01*
X164471243Y-87770809D01*
X164404576Y-87804143D01*
X164271243Y-87804143D01*
X164204576Y-87770809D01*
X164171243Y-87737476D01*
X164137910Y-87670809D01*
X164137910Y-87504143D01*
X164171243Y-87437476D01*
X164204576Y-87404143D01*
X164271243Y-87370809D01*
X164404576Y-87370809D01*
X164471243Y-87404143D01*
X164504576Y-87437476D01*
X164537910Y-87504143D01*
X165204576Y-90344143D02*
X165204576Y-89644143D01*
X165037910Y-89644143D01*
X164937910Y-89677476D01*
X164871243Y-89744143D01*
X164837910Y-89810809D01*
X164804576Y-89944143D01*
X164804576Y-90044143D01*
X164837910Y-90177476D01*
X164871243Y-90244143D01*
X164937910Y-90310809D01*
X165037910Y-90344143D01*
X165204576Y-90344143D01*
X164571243Y-89644143D02*
X164104576Y-89644143D01*
X164404576Y-90344143D01*
X165171243Y-92517476D02*
X164937910Y-92517476D01*
X164837910Y-92884143D02*
X165171243Y-92884143D01*
X165171243Y-92184143D01*
X164837910Y-92184143D01*
X164237910Y-92184143D02*
X164371244Y-92184143D01*
X164437910Y-92217476D01*
X164471244Y-92250809D01*
X164537910Y-92350809D01*
X164571244Y-92484143D01*
X164571244Y-92750809D01*
X164537910Y-92817476D01*
X164504577Y-92850809D01*
X164437910Y-92884143D01*
X164304577Y-92884143D01*
X164237910Y-92850809D01*
X164204577Y-92817476D01*
X164171244Y-92750809D01*
X164171244Y-92584143D01*
X164204577Y-92517476D01*
X164237910Y-92484143D01*
X164304577Y-92450809D01*
X164437910Y-92450809D01*
X164504577Y-92484143D01*
X164537910Y-92517476D01*
X164571244Y-92584143D01*
X164971243Y-95057476D02*
X164871243Y-95090809D01*
X164837910Y-95124143D01*
X164804576Y-95190809D01*
X164804576Y-95290809D01*
X164837910Y-95357476D01*
X164871243Y-95390809D01*
X164937910Y-95424143D01*
X165204576Y-95424143D01*
X165204576Y-94724143D01*
X164971243Y-94724143D01*
X164904576Y-94757476D01*
X164871243Y-94790809D01*
X164837910Y-94857476D01*
X164837910Y-94924143D01*
X164871243Y-94990809D01*
X164904576Y-95024143D01*
X164971243Y-95057476D01*
X165204576Y-95057476D01*
X164204576Y-94957476D02*
X164204576Y-95424143D01*
X164371243Y-94690809D02*
X164537910Y-95190809D01*
X164104576Y-95190809D01*
X164971243Y-97597476D02*
X164871243Y-97630809D01*
X164837910Y-97664143D01*
X164804576Y-97730809D01*
X164804576Y-97830809D01*
X164837910Y-97897476D01*
X164871243Y-97930809D01*
X164937910Y-97964143D01*
X165204576Y-97964143D01*
X165204576Y-97264143D01*
X164971243Y-97264143D01*
X164904576Y-97297476D01*
X164871243Y-97330809D01*
X164837910Y-97397476D01*
X164837910Y-97464143D01*
X164871243Y-97530809D01*
X164904576Y-97564143D01*
X164971243Y-97597476D01*
X165204576Y-97597476D01*
X164171243Y-97264143D02*
X164504576Y-97264143D01*
X164537910Y-97597476D01*
X164504576Y-97564143D01*
X164437910Y-97530809D01*
X164271243Y-97530809D01*
X164204576Y-97564143D01*
X164171243Y-97597476D01*
X164137910Y-97664143D01*
X164137910Y-97830809D01*
X164171243Y-97897476D01*
X164204576Y-97930809D01*
X164271243Y-97964143D01*
X164437910Y-97964143D01*
X164504576Y-97930809D01*
X164537910Y-97897476D01*
D11*
X216496106Y-155805771D02*
X216972297Y-155805771D01*
X216972297Y-154805771D01*
X215638963Y-155805771D02*
X216210392Y-155805771D01*
X215924678Y-155805771D02*
X215924678Y-154805771D01*
X216019916Y-154948628D01*
X216115154Y-155043866D01*
X216210392Y-155091485D01*
X215210392Y-155710533D02*
X215162773Y-155758152D01*
X215210392Y-155805771D01*
X215258011Y-155758152D01*
X215210392Y-155710533D01*
X215210392Y-155805771D01*
X215210392Y-155186723D02*
X215162773Y-155234342D01*
X215210392Y-155281961D01*
X215258011Y-155234342D01*
X215210392Y-155186723D01*
X215210392Y-155281961D01*
X214543726Y-154805771D02*
X214448487Y-154805771D01*
X214353249Y-154853390D01*
X214305630Y-154901009D01*
X214258011Y-154996247D01*
X214210392Y-155186723D01*
X214210392Y-155424819D01*
X214258011Y-155615295D01*
X214305630Y-155710533D01*
X214353249Y-155758152D01*
X214448487Y-155805771D01*
X214543726Y-155805771D01*
X214638964Y-155758152D01*
X214686583Y-155710533D01*
X214734202Y-155615295D01*
X214781821Y-155424819D01*
X214781821Y-155186723D01*
X214734202Y-154996247D01*
X214686583Y-154901009D01*
X214638964Y-154853390D01*
X214543726Y-154805771D01*
X206971066Y-155805771D02*
X207447257Y-155805771D01*
X207447257Y-154805771D01*
X206113923Y-155805771D02*
X206685352Y-155805771D01*
X206399638Y-155805771D02*
X206399638Y-154805771D01*
X206494876Y-154948628D01*
X206590114Y-155043866D01*
X206685352Y-155091485D01*
X205685352Y-155710533D02*
X205637733Y-155758152D01*
X205685352Y-155805771D01*
X205732971Y-155758152D01*
X205685352Y-155710533D01*
X205685352Y-155805771D01*
X205685352Y-155186723D02*
X205637733Y-155234342D01*
X205685352Y-155281961D01*
X205732971Y-155234342D01*
X205685352Y-155186723D01*
X205685352Y-155281961D01*
X204685352Y-155805771D02*
X205256781Y-155805771D01*
X204971067Y-155805771D02*
X204971067Y-154805771D01*
X205066305Y-154948628D01*
X205161543Y-155043866D01*
X205256781Y-155091485D01*
X197446025Y-155805771D02*
X197922216Y-155805771D01*
X197922216Y-154805771D01*
X197160311Y-154901009D02*
X197112692Y-154853390D01*
X197017454Y-154805771D01*
X196779358Y-154805771D01*
X196684120Y-154853390D01*
X196636501Y-154901009D01*
X196588882Y-154996247D01*
X196588882Y-155091485D01*
X196636501Y-155234342D01*
X197207930Y-155805771D01*
X196588882Y-155805771D01*
X196160311Y-155710533D02*
X196112692Y-155758152D01*
X196160311Y-155805771D01*
X196207930Y-155758152D01*
X196160311Y-155710533D01*
X196160311Y-155805771D01*
X196160311Y-155186723D02*
X196112692Y-155234342D01*
X196160311Y-155281961D01*
X196207930Y-155234342D01*
X196160311Y-155186723D01*
X196160311Y-155281961D01*
X195493645Y-154805771D02*
X195398406Y-154805771D01*
X195303168Y-154853390D01*
X195255549Y-154901009D01*
X195207930Y-154996247D01*
X195160311Y-155186723D01*
X195160311Y-155424819D01*
X195207930Y-155615295D01*
X195255549Y-155710533D01*
X195303168Y-155758152D01*
X195398406Y-155805771D01*
X195493645Y-155805771D01*
X195588883Y-155758152D01*
X195636502Y-155710533D01*
X195684121Y-155615295D01*
X195731740Y-155424819D01*
X195731740Y-155186723D01*
X195684121Y-154996247D01*
X195636502Y-154901009D01*
X195588883Y-154853390D01*
X195493645Y-154805771D01*
X178395944Y-155805771D02*
X178872135Y-155805771D01*
X178872135Y-154805771D01*
X178110230Y-154901009D02*
X178062611Y-154853390D01*
X177967373Y-154805771D01*
X177729277Y-154805771D01*
X177634039Y-154853390D01*
X177586420Y-154901009D01*
X177538801Y-154996247D01*
X177538801Y-155091485D01*
X177586420Y-155234342D01*
X178157849Y-155805771D01*
X177538801Y-155805771D01*
X177110230Y-155710533D02*
X177062611Y-155758152D01*
X177110230Y-155805771D01*
X177157849Y-155758152D01*
X177110230Y-155710533D01*
X177110230Y-155805771D01*
X177110230Y-155186723D02*
X177062611Y-155234342D01*
X177110230Y-155281961D01*
X177157849Y-155234342D01*
X177110230Y-155186723D01*
X177110230Y-155281961D01*
X176110230Y-155805771D02*
X176681659Y-155805771D01*
X176395945Y-155805771D02*
X176395945Y-154805771D01*
X176491183Y-154948628D01*
X176586421Y-155043866D01*
X176681659Y-155091485D01*
X121245700Y-155805771D02*
X121721891Y-155805771D01*
X121721891Y-154805771D01*
X120388557Y-155805771D02*
X120959986Y-155805771D01*
X120674272Y-155805771D02*
X120674272Y-154805771D01*
X120769510Y-154948628D01*
X120864748Y-155043866D01*
X120959986Y-155091485D01*
X119959986Y-155710533D02*
X119912367Y-155758152D01*
X119959986Y-155805771D01*
X120007605Y-155758152D01*
X119959986Y-155710533D01*
X119959986Y-155805771D01*
X119959986Y-155186723D02*
X119912367Y-155234342D01*
X119959986Y-155281961D01*
X120007605Y-155234342D01*
X119959986Y-155186723D01*
X119959986Y-155281961D01*
X119531415Y-154901009D02*
X119483796Y-154853390D01*
X119388558Y-154805771D01*
X119150462Y-154805771D01*
X119055224Y-154853390D01*
X119007605Y-154901009D01*
X118959986Y-154996247D01*
X118959986Y-155091485D01*
X119007605Y-155234342D01*
X119579034Y-155805771D01*
X118959986Y-155805771D01*
X130770740Y-155805771D02*
X131246931Y-155805771D01*
X131246931Y-154805771D01*
X129913597Y-155805771D02*
X130485026Y-155805771D01*
X130199312Y-155805771D02*
X130199312Y-154805771D01*
X130294550Y-154948628D01*
X130389788Y-155043866D01*
X130485026Y-155091485D01*
X129485026Y-155710533D02*
X129437407Y-155758152D01*
X129485026Y-155805771D01*
X129532645Y-155758152D01*
X129485026Y-155710533D01*
X129485026Y-155805771D01*
X129485026Y-155186723D02*
X129437407Y-155234342D01*
X129485026Y-155281961D01*
X129532645Y-155234342D01*
X129485026Y-155186723D01*
X129485026Y-155281961D01*
X129104074Y-154805771D02*
X128485026Y-154805771D01*
X128818360Y-155186723D01*
X128675502Y-155186723D01*
X128580264Y-155234342D01*
X128532645Y-155281961D01*
X128485026Y-155377200D01*
X128485026Y-155615295D01*
X128532645Y-155710533D01*
X128580264Y-155758152D01*
X128675502Y-155805771D01*
X128961217Y-155805771D01*
X129056455Y-155758152D01*
X129104074Y-155710533D01*
X140295781Y-155805771D02*
X140771972Y-155805771D01*
X140771972Y-154805771D01*
X140010067Y-154901009D02*
X139962448Y-154853390D01*
X139867210Y-154805771D01*
X139629114Y-154805771D01*
X139533876Y-154853390D01*
X139486257Y-154901009D01*
X139438638Y-154996247D01*
X139438638Y-155091485D01*
X139486257Y-155234342D01*
X140057686Y-155805771D01*
X139438638Y-155805771D01*
X139010067Y-155710533D02*
X138962448Y-155758152D01*
X139010067Y-155805771D01*
X139057686Y-155758152D01*
X139010067Y-155710533D01*
X139010067Y-155805771D01*
X139010067Y-155186723D02*
X138962448Y-155234342D01*
X139010067Y-155281961D01*
X139057686Y-155234342D01*
X139010067Y-155186723D01*
X139010067Y-155281961D01*
X138581496Y-154901009D02*
X138533877Y-154853390D01*
X138438639Y-154805771D01*
X138200543Y-154805771D01*
X138105305Y-154853390D01*
X138057686Y-154901009D01*
X138010067Y-154996247D01*
X138010067Y-155091485D01*
X138057686Y-155234342D01*
X138629115Y-155805771D01*
X138010067Y-155805771D01*
X159345862Y-155805771D02*
X159822053Y-155805771D01*
X159822053Y-154805771D01*
X159060148Y-154901009D02*
X159012529Y-154853390D01*
X158917291Y-154805771D01*
X158679195Y-154805771D01*
X158583957Y-154853390D01*
X158536338Y-154901009D01*
X158488719Y-154996247D01*
X158488719Y-155091485D01*
X158536338Y-155234342D01*
X159107767Y-155805771D01*
X158488719Y-155805771D01*
X158060148Y-155710533D02*
X158012529Y-155758152D01*
X158060148Y-155805771D01*
X158107767Y-155758152D01*
X158060148Y-155710533D01*
X158060148Y-155805771D01*
X158060148Y-155186723D02*
X158012529Y-155234342D01*
X158060148Y-155281961D01*
X158107767Y-155234342D01*
X158060148Y-155186723D01*
X158060148Y-155281961D01*
X157679196Y-154805771D02*
X157060148Y-154805771D01*
X157393482Y-155186723D01*
X157250624Y-155186723D01*
X157155386Y-155234342D01*
X157107767Y-155281961D01*
X157060148Y-155377200D01*
X157060148Y-155615295D01*
X157107767Y-155710533D01*
X157155386Y-155758152D01*
X157250624Y-155805771D01*
X157536339Y-155805771D01*
X157631577Y-155758152D01*
X157679196Y-155710533D01*
D14*
X214979250Y-97443274D02*
X214979250Y-96173274D01*
X214471250Y-97080417D01*
X213963250Y-96173274D01*
X213963250Y-97443274D01*
X213382679Y-96173274D02*
X212366679Y-97443274D01*
X212366679Y-96173274D02*
X213382679Y-97443274D01*
X210987821Y-97443274D02*
X211858678Y-97443274D01*
X211423250Y-97443274D02*
X211423250Y-96173274D01*
X211568393Y-96354702D01*
X211713535Y-96475655D01*
X211858678Y-96536131D01*
X210334678Y-97322321D02*
X210262106Y-97382798D01*
X210334678Y-97443274D01*
X210407249Y-97382798D01*
X210334678Y-97322321D01*
X210334678Y-97443274D01*
X210334678Y-96657083D02*
X210262106Y-96717560D01*
X210334678Y-96778036D01*
X210407249Y-96717560D01*
X210334678Y-96657083D01*
X210334678Y-96778036D01*
X208883250Y-96173274D02*
X209608964Y-96173274D01*
X209681535Y-96778036D01*
X209608964Y-96717560D01*
X209463821Y-96657083D01*
X209100964Y-96657083D01*
X208955821Y-96717560D01*
X208883250Y-96778036D01*
X208810678Y-96898988D01*
X208810678Y-97201369D01*
X208883250Y-97322321D01*
X208955821Y-97382798D01*
X209100964Y-97443274D01*
X209463821Y-97443274D01*
X209608964Y-97382798D01*
X209681535Y-97322321D01*
X157829250Y-135543274D02*
X157829250Y-134273274D01*
X157321250Y-135180417D01*
X156813250Y-134273274D01*
X156813250Y-135543274D01*
X156232679Y-134273274D02*
X155216679Y-135543274D01*
X155216679Y-134273274D02*
X156232679Y-135543274D01*
X154781250Y-134273274D02*
X153837821Y-134273274D01*
X154345821Y-134757083D01*
X154128107Y-134757083D01*
X153982964Y-134817560D01*
X153910393Y-134878036D01*
X153837821Y-134998988D01*
X153837821Y-135301369D01*
X153910393Y-135422321D01*
X153982964Y-135482798D01*
X154128107Y-135543274D01*
X154563535Y-135543274D01*
X154708678Y-135482798D01*
X154781250Y-135422321D01*
X153184678Y-135422321D02*
X153112106Y-135482798D01*
X153184678Y-135543274D01*
X153257249Y-135482798D01*
X153184678Y-135422321D01*
X153184678Y-135543274D01*
X153184678Y-134757083D02*
X153112106Y-134817560D01*
X153184678Y-134878036D01*
X153257249Y-134817560D01*
X153184678Y-134757083D01*
X153184678Y-134878036D01*
X152531535Y-134394226D02*
X152458964Y-134333750D01*
X152313821Y-134273274D01*
X151950964Y-134273274D01*
X151805821Y-134333750D01*
X151733250Y-134394226D01*
X151660678Y-134515179D01*
X151660678Y-134636131D01*
X151733250Y-134817560D01*
X152604107Y-135543274D01*
X151660678Y-135543274D01*
X214979250Y-135543274D02*
X214979250Y-134273274D01*
X214471250Y-135180417D01*
X213963250Y-134273274D01*
X213963250Y-135543274D01*
X213382679Y-134273274D02*
X212366679Y-135543274D01*
X212366679Y-134273274D02*
X213382679Y-135543274D01*
X211931250Y-134273274D02*
X210987821Y-134273274D01*
X211495821Y-134757083D01*
X211278107Y-134757083D01*
X211132964Y-134817560D01*
X211060393Y-134878036D01*
X210987821Y-134998988D01*
X210987821Y-135301369D01*
X211060393Y-135422321D01*
X211132964Y-135482798D01*
X211278107Y-135543274D01*
X211713535Y-135543274D01*
X211858678Y-135482798D01*
X211931250Y-135422321D01*
X210334678Y-135422321D02*
X210262106Y-135482798D01*
X210334678Y-135543274D01*
X210407249Y-135482798D01*
X210334678Y-135422321D01*
X210334678Y-135543274D01*
X210334678Y-134757083D02*
X210262106Y-134817560D01*
X210334678Y-134878036D01*
X210407249Y-134817560D01*
X210334678Y-134757083D01*
X210334678Y-134878036D01*
X208883250Y-134273274D02*
X209608964Y-134273274D01*
X209681535Y-134878036D01*
X209608964Y-134817560D01*
X209463821Y-134757083D01*
X209100964Y-134757083D01*
X208955821Y-134817560D01*
X208883250Y-134878036D01*
X208810678Y-134998988D01*
X208810678Y-135301369D01*
X208883250Y-135422321D01*
X208955821Y-135482798D01*
X209100964Y-135543274D01*
X209463821Y-135543274D01*
X209608964Y-135482798D01*
X209681535Y-135422321D01*
X157829250Y-70393274D02*
X157829250Y-69123274D01*
X157321250Y-70030417D01*
X156813250Y-69123274D01*
X156813250Y-70393274D01*
X156232679Y-69123274D02*
X155216679Y-70393274D01*
X155216679Y-69123274D02*
X156232679Y-70393274D01*
X154345821Y-69123274D02*
X154200678Y-69123274D01*
X154055535Y-69183750D01*
X153982964Y-69244226D01*
X153910393Y-69365179D01*
X153837821Y-69607083D01*
X153837821Y-69909464D01*
X153910393Y-70151369D01*
X153982964Y-70272321D01*
X154055535Y-70332798D01*
X154200678Y-70393274D01*
X154345821Y-70393274D01*
X154490964Y-70332798D01*
X154563535Y-70272321D01*
X154636107Y-70151369D01*
X154708678Y-69909464D01*
X154708678Y-69607083D01*
X154636107Y-69365179D01*
X154563535Y-69244226D01*
X154490964Y-69183750D01*
X154345821Y-69123274D01*
X153184678Y-70272321D02*
X153112106Y-70332798D01*
X153184678Y-70393274D01*
X153257249Y-70332798D01*
X153184678Y-70272321D01*
X153184678Y-70393274D01*
X153184678Y-69607083D02*
X153112106Y-69667560D01*
X153184678Y-69728036D01*
X153257249Y-69667560D01*
X153184678Y-69607083D01*
X153184678Y-69728036D01*
X152531535Y-69244226D02*
X152458964Y-69183750D01*
X152313821Y-69123274D01*
X151950964Y-69123274D01*
X151805821Y-69183750D01*
X151733250Y-69244226D01*
X151660678Y-69365179D01*
X151660678Y-69486131D01*
X151733250Y-69667560D01*
X152604107Y-70393274D01*
X151660678Y-70393274D01*
X176879250Y-78393274D02*
X176879250Y-77123274D01*
X176371250Y-78030417D01*
X175863250Y-77123274D01*
X175863250Y-78393274D01*
X175282679Y-77123274D02*
X174266679Y-78393274D01*
X174266679Y-77123274D02*
X175282679Y-78393274D01*
X173395821Y-77123274D02*
X173250678Y-77123274D01*
X173105535Y-77183750D01*
X173032964Y-77244226D01*
X172960393Y-77365179D01*
X172887821Y-77607083D01*
X172887821Y-77909464D01*
X172960393Y-78151369D01*
X173032964Y-78272321D01*
X173105535Y-78332798D01*
X173250678Y-78393274D01*
X173395821Y-78393274D01*
X173540964Y-78332798D01*
X173613535Y-78272321D01*
X173686107Y-78151369D01*
X173758678Y-77909464D01*
X173758678Y-77607083D01*
X173686107Y-77365179D01*
X173613535Y-77244226D01*
X173540964Y-77183750D01*
X173395821Y-77123274D01*
X172234678Y-78272321D02*
X172162106Y-78332798D01*
X172234678Y-78393274D01*
X172307249Y-78332798D01*
X172234678Y-78272321D01*
X172234678Y-78393274D01*
X172234678Y-77607083D02*
X172162106Y-77667560D01*
X172234678Y-77728036D01*
X172307249Y-77667560D01*
X172234678Y-77607083D01*
X172234678Y-77728036D01*
X171654107Y-77123274D02*
X170710678Y-77123274D01*
X171218678Y-77607083D01*
X171000964Y-77607083D01*
X170855821Y-77667560D01*
X170783250Y-77728036D01*
X170710678Y-77848988D01*
X170710678Y-78151369D01*
X170783250Y-78272321D01*
X170855821Y-78332798D01*
X171000964Y-78393274D01*
X171436392Y-78393274D01*
X171581535Y-78332798D01*
X171654107Y-78272321D01*
X119729250Y-97443274D02*
X119729250Y-96173274D01*
X119221250Y-97080417D01*
X118713250Y-96173274D01*
X118713250Y-97443274D01*
X118132679Y-96173274D02*
X117116679Y-97443274D01*
X117116679Y-96173274D02*
X118132679Y-97443274D01*
X115737821Y-97443274D02*
X116608678Y-97443274D01*
X116173250Y-97443274D02*
X116173250Y-96173274D01*
X116318393Y-96354702D01*
X116463535Y-96475655D01*
X116608678Y-96536131D01*
X115084678Y-97322321D02*
X115012106Y-97382798D01*
X115084678Y-97443274D01*
X115157249Y-97382798D01*
X115084678Y-97322321D01*
X115084678Y-97443274D01*
X115084678Y-96657083D02*
X115012106Y-96717560D01*
X115084678Y-96778036D01*
X115157249Y-96717560D01*
X115084678Y-96657083D01*
X115084678Y-96778036D01*
X114068678Y-96173274D02*
X113923535Y-96173274D01*
X113778392Y-96233750D01*
X113705821Y-96294226D01*
X113633250Y-96415179D01*
X113560678Y-96657083D01*
X113560678Y-96959464D01*
X113633250Y-97201369D01*
X113705821Y-97322321D01*
X113778392Y-97382798D01*
X113923535Y-97443274D01*
X114068678Y-97443274D01*
X114213821Y-97382798D01*
X114286392Y-97322321D01*
X114358964Y-97201369D01*
X114431535Y-96959464D01*
X114431535Y-96657083D01*
X114358964Y-96415179D01*
X114286392Y-96294226D01*
X114213821Y-96233750D01*
X114068678Y-96173274D01*
X138779250Y-97443274D02*
X138779250Y-96173274D01*
X138271250Y-97080417D01*
X137763250Y-96173274D01*
X137763250Y-97443274D01*
X137182679Y-96173274D02*
X136166679Y-97443274D01*
X136166679Y-96173274D02*
X137182679Y-97443274D01*
X134787821Y-97443274D02*
X135658678Y-97443274D01*
X135223250Y-97443274D02*
X135223250Y-96173274D01*
X135368393Y-96354702D01*
X135513535Y-96475655D01*
X135658678Y-96536131D01*
X134134678Y-97322321D02*
X134062106Y-97382798D01*
X134134678Y-97443274D01*
X134207249Y-97382798D01*
X134134678Y-97322321D01*
X134134678Y-97443274D01*
X134134678Y-96657083D02*
X134062106Y-96717560D01*
X134134678Y-96778036D01*
X134207249Y-96717560D01*
X134134678Y-96657083D01*
X134134678Y-96778036D01*
X132610678Y-97443274D02*
X133481535Y-97443274D01*
X133046107Y-97443274D02*
X133046107Y-96173274D01*
X133191250Y-96354702D01*
X133336392Y-96475655D01*
X133481535Y-96536131D01*
X157829250Y-97443274D02*
X157829250Y-96173274D01*
X157321250Y-97080417D01*
X156813250Y-96173274D01*
X156813250Y-97443274D01*
X156232679Y-96173274D02*
X155216679Y-97443274D01*
X155216679Y-96173274D02*
X156232679Y-97443274D01*
X153837821Y-97443274D02*
X154708678Y-97443274D01*
X154273250Y-97443274D02*
X154273250Y-96173274D01*
X154418393Y-96354702D01*
X154563535Y-96475655D01*
X154708678Y-96536131D01*
X153184678Y-97322321D02*
X153112106Y-97382798D01*
X153184678Y-97443274D01*
X153257249Y-97382798D01*
X153184678Y-97322321D01*
X153184678Y-97443274D01*
X153184678Y-96657083D02*
X153112106Y-96717560D01*
X153184678Y-96778036D01*
X153257249Y-96717560D01*
X153184678Y-96657083D01*
X153184678Y-96778036D01*
X152531535Y-96294226D02*
X152458964Y-96233750D01*
X152313821Y-96173274D01*
X151950964Y-96173274D01*
X151805821Y-96233750D01*
X151733250Y-96294226D01*
X151660678Y-96415179D01*
X151660678Y-96536131D01*
X151733250Y-96717560D01*
X152604107Y-97443274D01*
X151660678Y-97443274D01*
X195929250Y-97443274D02*
X195929250Y-96173274D01*
X195421250Y-97080417D01*
X194913250Y-96173274D01*
X194913250Y-97443274D01*
X194332679Y-96173274D02*
X193316679Y-97443274D01*
X193316679Y-96173274D02*
X194332679Y-97443274D01*
X191937821Y-97443274D02*
X192808678Y-97443274D01*
X192373250Y-97443274D02*
X192373250Y-96173274D01*
X192518393Y-96354702D01*
X192663535Y-96475655D01*
X192808678Y-96536131D01*
X191284678Y-97322321D02*
X191212106Y-97382798D01*
X191284678Y-97443274D01*
X191357249Y-97382798D01*
X191284678Y-97322321D01*
X191284678Y-97443274D01*
X191284678Y-96657083D02*
X191212106Y-96717560D01*
X191284678Y-96778036D01*
X191357249Y-96717560D01*
X191284678Y-96657083D01*
X191284678Y-96778036D01*
X189905821Y-96596607D02*
X189905821Y-97443274D01*
X190268678Y-96112798D02*
X190631535Y-97019940D01*
X189688107Y-97019940D01*
X119729250Y-116493274D02*
X119729250Y-115223274D01*
X119221250Y-116130417D01*
X118713250Y-115223274D01*
X118713250Y-116493274D01*
X118132679Y-115223274D02*
X117116679Y-116493274D01*
X117116679Y-115223274D02*
X118132679Y-116493274D01*
X116608678Y-115344226D02*
X116536107Y-115283750D01*
X116390964Y-115223274D01*
X116028107Y-115223274D01*
X115882964Y-115283750D01*
X115810393Y-115344226D01*
X115737821Y-115465179D01*
X115737821Y-115586131D01*
X115810393Y-115767560D01*
X116681250Y-116493274D01*
X115737821Y-116493274D01*
X115084678Y-116372321D02*
X115012106Y-116432798D01*
X115084678Y-116493274D01*
X115157249Y-116432798D01*
X115084678Y-116372321D01*
X115084678Y-116493274D01*
X115084678Y-115707083D02*
X115012106Y-115767560D01*
X115084678Y-115828036D01*
X115157249Y-115767560D01*
X115084678Y-115707083D01*
X115084678Y-115828036D01*
X114068678Y-115223274D02*
X113923535Y-115223274D01*
X113778392Y-115283750D01*
X113705821Y-115344226D01*
X113633250Y-115465179D01*
X113560678Y-115707083D01*
X113560678Y-116009464D01*
X113633250Y-116251369D01*
X113705821Y-116372321D01*
X113778392Y-116432798D01*
X113923535Y-116493274D01*
X114068678Y-116493274D01*
X114213821Y-116432798D01*
X114286392Y-116372321D01*
X114358964Y-116251369D01*
X114431535Y-116009464D01*
X114431535Y-115707083D01*
X114358964Y-115465179D01*
X114286392Y-115344226D01*
X114213821Y-115283750D01*
X114068678Y-115223274D01*
X138779250Y-116493274D02*
X138779250Y-115223274D01*
X138271250Y-116130417D01*
X137763250Y-115223274D01*
X137763250Y-116493274D01*
X137182679Y-115223274D02*
X136166679Y-116493274D01*
X136166679Y-115223274D02*
X137182679Y-116493274D01*
X135658678Y-115344226D02*
X135586107Y-115283750D01*
X135440964Y-115223274D01*
X135078107Y-115223274D01*
X134932964Y-115283750D01*
X134860393Y-115344226D01*
X134787821Y-115465179D01*
X134787821Y-115586131D01*
X134860393Y-115767560D01*
X135731250Y-116493274D01*
X134787821Y-116493274D01*
X134134678Y-116372321D02*
X134062106Y-116432798D01*
X134134678Y-116493274D01*
X134207249Y-116432798D01*
X134134678Y-116372321D01*
X134134678Y-116493274D01*
X134134678Y-115707083D02*
X134062106Y-115767560D01*
X134134678Y-115828036D01*
X134207249Y-115767560D01*
X134134678Y-115707083D01*
X134134678Y-115828036D01*
X132610678Y-116493274D02*
X133481535Y-116493274D01*
X133046107Y-116493274D02*
X133046107Y-115223274D01*
X133191250Y-115404702D01*
X133336392Y-115525655D01*
X133481535Y-115586131D01*
X157829250Y-116493274D02*
X157829250Y-115223274D01*
X157321250Y-116130417D01*
X156813250Y-115223274D01*
X156813250Y-116493274D01*
X156232679Y-115223274D02*
X155216679Y-116493274D01*
X155216679Y-115223274D02*
X156232679Y-116493274D01*
X154708678Y-115344226D02*
X154636107Y-115283750D01*
X154490964Y-115223274D01*
X154128107Y-115223274D01*
X153982964Y-115283750D01*
X153910393Y-115344226D01*
X153837821Y-115465179D01*
X153837821Y-115586131D01*
X153910393Y-115767560D01*
X154781250Y-116493274D01*
X153837821Y-116493274D01*
X153184678Y-116372321D02*
X153112106Y-116432798D01*
X153184678Y-116493274D01*
X153257249Y-116432798D01*
X153184678Y-116372321D01*
X153184678Y-116493274D01*
X153184678Y-115707083D02*
X153112106Y-115767560D01*
X153184678Y-115828036D01*
X153257249Y-115767560D01*
X153184678Y-115707083D01*
X153184678Y-115828036D01*
X152531535Y-115344226D02*
X152458964Y-115283750D01*
X152313821Y-115223274D01*
X151950964Y-115223274D01*
X151805821Y-115283750D01*
X151733250Y-115344226D01*
X151660678Y-115465179D01*
X151660678Y-115586131D01*
X151733250Y-115767560D01*
X152604107Y-116493274D01*
X151660678Y-116493274D01*
X195929250Y-116493274D02*
X195929250Y-115223274D01*
X195421250Y-116130417D01*
X194913250Y-115223274D01*
X194913250Y-116493274D01*
X194332679Y-115223274D02*
X193316679Y-116493274D01*
X193316679Y-115223274D02*
X194332679Y-116493274D01*
X192808678Y-115344226D02*
X192736107Y-115283750D01*
X192590964Y-115223274D01*
X192228107Y-115223274D01*
X192082964Y-115283750D01*
X192010393Y-115344226D01*
X191937821Y-115465179D01*
X191937821Y-115586131D01*
X192010393Y-115767560D01*
X192881250Y-116493274D01*
X191937821Y-116493274D01*
X191284678Y-116372321D02*
X191212106Y-116432798D01*
X191284678Y-116493274D01*
X191357249Y-116432798D01*
X191284678Y-116372321D01*
X191284678Y-116493274D01*
X191284678Y-115707083D02*
X191212106Y-115767560D01*
X191284678Y-115828036D01*
X191357249Y-115767560D01*
X191284678Y-115707083D01*
X191284678Y-115828036D01*
X189905821Y-115646607D02*
X189905821Y-116493274D01*
X190268678Y-115162798D02*
X190631535Y-116069940D01*
X189688107Y-116069940D01*
X214979250Y-116493274D02*
X214979250Y-115223274D01*
X214471250Y-116130417D01*
X213963250Y-115223274D01*
X213963250Y-116493274D01*
X213382679Y-115223274D02*
X212366679Y-116493274D01*
X212366679Y-115223274D02*
X213382679Y-116493274D01*
X211858678Y-115344226D02*
X211786107Y-115283750D01*
X211640964Y-115223274D01*
X211278107Y-115223274D01*
X211132964Y-115283750D01*
X211060393Y-115344226D01*
X210987821Y-115465179D01*
X210987821Y-115586131D01*
X211060393Y-115767560D01*
X211931250Y-116493274D01*
X210987821Y-116493274D01*
X210334678Y-116372321D02*
X210262106Y-116432798D01*
X210334678Y-116493274D01*
X210407249Y-116432798D01*
X210334678Y-116372321D01*
X210334678Y-116493274D01*
X210334678Y-115707083D02*
X210262106Y-115767560D01*
X210334678Y-115828036D01*
X210407249Y-115767560D01*
X210334678Y-115707083D01*
X210334678Y-115828036D01*
X208883250Y-115223274D02*
X209608964Y-115223274D01*
X209681535Y-115828036D01*
X209608964Y-115767560D01*
X209463821Y-115707083D01*
X209100964Y-115707083D01*
X208955821Y-115767560D01*
X208883250Y-115828036D01*
X208810678Y-115948988D01*
X208810678Y-116251369D01*
X208883250Y-116372321D01*
X208955821Y-116432798D01*
X209100964Y-116493274D01*
X209463821Y-116493274D01*
X209608964Y-116432798D01*
X209681535Y-116372321D01*
X195929250Y-135543274D02*
X195929250Y-134273274D01*
X195421250Y-135180417D01*
X194913250Y-134273274D01*
X194913250Y-135543274D01*
X194332679Y-134273274D02*
X193316679Y-135543274D01*
X193316679Y-134273274D02*
X194332679Y-135543274D01*
X192881250Y-134273274D02*
X191937821Y-134273274D01*
X192445821Y-134757083D01*
X192228107Y-134757083D01*
X192082964Y-134817560D01*
X192010393Y-134878036D01*
X191937821Y-134998988D01*
X191937821Y-135301369D01*
X192010393Y-135422321D01*
X192082964Y-135482798D01*
X192228107Y-135543274D01*
X192663535Y-135543274D01*
X192808678Y-135482798D01*
X192881250Y-135422321D01*
X191284678Y-135422321D02*
X191212106Y-135482798D01*
X191284678Y-135543274D01*
X191357249Y-135482798D01*
X191284678Y-135422321D01*
X191284678Y-135543274D01*
X191284678Y-134757083D02*
X191212106Y-134817560D01*
X191284678Y-134878036D01*
X191357249Y-134817560D01*
X191284678Y-134757083D01*
X191284678Y-134878036D01*
X189905821Y-134696607D02*
X189905821Y-135543274D01*
X190268678Y-134212798D02*
X190631535Y-135119940D01*
X189688107Y-135119940D01*
X138779250Y-135543274D02*
X138779250Y-134273274D01*
X138271250Y-135180417D01*
X137763250Y-134273274D01*
X137763250Y-135543274D01*
X137182679Y-134273274D02*
X136166679Y-135543274D01*
X136166679Y-134273274D02*
X137182679Y-135543274D01*
X135731250Y-134273274D02*
X134787821Y-134273274D01*
X135295821Y-134757083D01*
X135078107Y-134757083D01*
X134932964Y-134817560D01*
X134860393Y-134878036D01*
X134787821Y-134998988D01*
X134787821Y-135301369D01*
X134860393Y-135422321D01*
X134932964Y-135482798D01*
X135078107Y-135543274D01*
X135513535Y-135543274D01*
X135658678Y-135482798D01*
X135731250Y-135422321D01*
X134134678Y-135422321D02*
X134062106Y-135482798D01*
X134134678Y-135543274D01*
X134207249Y-135482798D01*
X134134678Y-135422321D01*
X134134678Y-135543274D01*
X134134678Y-134757083D02*
X134062106Y-134817560D01*
X134134678Y-134878036D01*
X134207249Y-134817560D01*
X134134678Y-134757083D01*
X134134678Y-134878036D01*
X132610678Y-135543274D02*
X133481535Y-135543274D01*
X133046107Y-135543274D02*
X133046107Y-134273274D01*
X133191250Y-134454702D01*
X133336392Y-134575655D01*
X133481535Y-134636131D01*
X119729250Y-135543274D02*
X119729250Y-134273274D01*
X119221250Y-135180417D01*
X118713250Y-134273274D01*
X118713250Y-135543274D01*
X118132679Y-134273274D02*
X117116679Y-135543274D01*
X117116679Y-134273274D02*
X118132679Y-135543274D01*
X116681250Y-134273274D02*
X115737821Y-134273274D01*
X116245821Y-134757083D01*
X116028107Y-134757083D01*
X115882964Y-134817560D01*
X115810393Y-134878036D01*
X115737821Y-134998988D01*
X115737821Y-135301369D01*
X115810393Y-135422321D01*
X115882964Y-135482798D01*
X116028107Y-135543274D01*
X116463535Y-135543274D01*
X116608678Y-135482798D01*
X116681250Y-135422321D01*
X115084678Y-135422321D02*
X115012106Y-135482798D01*
X115084678Y-135543274D01*
X115157249Y-135482798D01*
X115084678Y-135422321D01*
X115084678Y-135543274D01*
X115084678Y-134757083D02*
X115012106Y-134817560D01*
X115084678Y-134878036D01*
X115157249Y-134817560D01*
X115084678Y-134757083D01*
X115084678Y-134878036D01*
X114068678Y-134273274D02*
X113923535Y-134273274D01*
X113778392Y-134333750D01*
X113705821Y-134394226D01*
X113633250Y-134515179D01*
X113560678Y-134757083D01*
X113560678Y-135059464D01*
X113633250Y-135301369D01*
X113705821Y-135422321D01*
X113778392Y-135482798D01*
X113923535Y-135543274D01*
X114068678Y-135543274D01*
X114213821Y-135482798D01*
X114286392Y-135422321D01*
X114358964Y-135301369D01*
X114431535Y-135059464D01*
X114431535Y-134757083D01*
X114358964Y-134515179D01*
X114286392Y-134394226D01*
X114213821Y-134333750D01*
X114068678Y-134273274D01*
X176879250Y-97443274D02*
X176879250Y-96173274D01*
X176371250Y-97080417D01*
X175863250Y-96173274D01*
X175863250Y-97443274D01*
X175282679Y-96173274D02*
X174266679Y-97443274D01*
X174266679Y-96173274D02*
X175282679Y-97443274D01*
X172887821Y-97443274D02*
X173758678Y-97443274D01*
X173323250Y-97443274D02*
X173323250Y-96173274D01*
X173468393Y-96354702D01*
X173613535Y-96475655D01*
X173758678Y-96536131D01*
X172234678Y-97322321D02*
X172162106Y-97382798D01*
X172234678Y-97443274D01*
X172307249Y-97382798D01*
X172234678Y-97322321D01*
X172234678Y-97443274D01*
X172234678Y-96657083D02*
X172162106Y-96717560D01*
X172234678Y-96778036D01*
X172307249Y-96717560D01*
X172234678Y-96657083D01*
X172234678Y-96778036D01*
X171654107Y-96173274D02*
X170710678Y-96173274D01*
X171218678Y-96657083D01*
X171000964Y-96657083D01*
X170855821Y-96717560D01*
X170783250Y-96778036D01*
X170710678Y-96898988D01*
X170710678Y-97201369D01*
X170783250Y-97322321D01*
X170855821Y-97382798D01*
X171000964Y-97443274D01*
X171436392Y-97443274D01*
X171581535Y-97382798D01*
X171654107Y-97322321D01*
X176879250Y-116493274D02*
X176879250Y-115223274D01*
X176371250Y-116130417D01*
X175863250Y-115223274D01*
X175863250Y-116493274D01*
X175282679Y-115223274D02*
X174266679Y-116493274D01*
X174266679Y-115223274D02*
X175282679Y-116493274D01*
X173758678Y-115344226D02*
X173686107Y-115283750D01*
X173540964Y-115223274D01*
X173178107Y-115223274D01*
X173032964Y-115283750D01*
X172960393Y-115344226D01*
X172887821Y-115465179D01*
X172887821Y-115586131D01*
X172960393Y-115767560D01*
X173831250Y-116493274D01*
X172887821Y-116493274D01*
X172234678Y-116372321D02*
X172162106Y-116432798D01*
X172234678Y-116493274D01*
X172307249Y-116432798D01*
X172234678Y-116372321D01*
X172234678Y-116493274D01*
X172234678Y-115707083D02*
X172162106Y-115767560D01*
X172234678Y-115828036D01*
X172307249Y-115767560D01*
X172234678Y-115707083D01*
X172234678Y-115828036D01*
X171654107Y-115223274D02*
X170710678Y-115223274D01*
X171218678Y-115707083D01*
X171000964Y-115707083D01*
X170855821Y-115767560D01*
X170783250Y-115828036D01*
X170710678Y-115948988D01*
X170710678Y-116251369D01*
X170783250Y-116372321D01*
X170855821Y-116432798D01*
X171000964Y-116493274D01*
X171436392Y-116493274D01*
X171581535Y-116432798D01*
X171654107Y-116372321D01*
X176879250Y-135543274D02*
X176879250Y-134273274D01*
X176371250Y-135180417D01*
X175863250Y-134273274D01*
X175863250Y-135543274D01*
X175282679Y-134273274D02*
X174266679Y-135543274D01*
X174266679Y-134273274D02*
X175282679Y-135543274D01*
X173831250Y-134273274D02*
X172887821Y-134273274D01*
X173395821Y-134757083D01*
X173178107Y-134757083D01*
X173032964Y-134817560D01*
X172960393Y-134878036D01*
X172887821Y-134998988D01*
X172887821Y-135301369D01*
X172960393Y-135422321D01*
X173032964Y-135482798D01*
X173178107Y-135543274D01*
X173613535Y-135543274D01*
X173758678Y-135482798D01*
X173831250Y-135422321D01*
X172234678Y-135422321D02*
X172162106Y-135482798D01*
X172234678Y-135543274D01*
X172307249Y-135482798D01*
X172234678Y-135422321D01*
X172234678Y-135543274D01*
X172234678Y-134757083D02*
X172162106Y-134817560D01*
X172234678Y-134878036D01*
X172307249Y-134817560D01*
X172234678Y-134757083D01*
X172234678Y-134878036D01*
X171654107Y-134273274D02*
X170710678Y-134273274D01*
X171218678Y-134757083D01*
X171000964Y-134757083D01*
X170855821Y-134817560D01*
X170783250Y-134878036D01*
X170710678Y-134998988D01*
X170710678Y-135301369D01*
X170783250Y-135422321D01*
X170855821Y-135482798D01*
X171000964Y-135543274D01*
X171436392Y-135543274D01*
X171581535Y-135482798D01*
X171654107Y-135422321D01*
X157829910Y-154593914D02*
X157829910Y-153323914D01*
X157321910Y-154231057D01*
X156813910Y-153323914D01*
X156813910Y-154593914D01*
X156233339Y-153323914D02*
X155217339Y-154593914D01*
X155217339Y-153323914D02*
X156233339Y-154593914D01*
X153983624Y-153747247D02*
X153983624Y-154593914D01*
X154346481Y-153263438D02*
X154709338Y-154170580D01*
X153765910Y-154170580D01*
X153185338Y-154472961D02*
X153112766Y-154533438D01*
X153185338Y-154593914D01*
X153257909Y-154533438D01*
X153185338Y-154472961D01*
X153185338Y-154593914D01*
X153185338Y-153807723D02*
X153112766Y-153868200D01*
X153185338Y-153928676D01*
X153257909Y-153868200D01*
X153185338Y-153807723D01*
X153185338Y-153928676D01*
X152532195Y-153444866D02*
X152459624Y-153384390D01*
X152314481Y-153323914D01*
X151951624Y-153323914D01*
X151806481Y-153384390D01*
X151733910Y-153444866D01*
X151661338Y-153565819D01*
X151661338Y-153686771D01*
X151733910Y-153868200D01*
X152604767Y-154593914D01*
X151661338Y-154593914D01*
X176879992Y-154593914D02*
X176879992Y-153323914D01*
X176371992Y-154231057D01*
X175863992Y-153323914D01*
X175863992Y-154593914D01*
X175283421Y-153323914D02*
X174267421Y-154593914D01*
X174267421Y-153323914D02*
X175283421Y-154593914D01*
X173033706Y-153747247D02*
X173033706Y-154593914D01*
X173396563Y-153263438D02*
X173759420Y-154170580D01*
X172815992Y-154170580D01*
X172235420Y-154472961D02*
X172162848Y-154533438D01*
X172235420Y-154593914D01*
X172307991Y-154533438D01*
X172235420Y-154472961D01*
X172235420Y-154593914D01*
X172235420Y-153807723D02*
X172162848Y-153868200D01*
X172235420Y-153928676D01*
X172307991Y-153868200D01*
X172235420Y-153807723D01*
X172235420Y-153928676D01*
X171654849Y-153323914D02*
X170711420Y-153323914D01*
X171219420Y-153807723D01*
X171001706Y-153807723D01*
X170856563Y-153868200D01*
X170783992Y-153928676D01*
X170711420Y-154049628D01*
X170711420Y-154352009D01*
X170783992Y-154472961D01*
X170856563Y-154533438D01*
X171001706Y-154593914D01*
X171437134Y-154593914D01*
X171582277Y-154533438D01*
X171654849Y-154472961D01*
X195929250Y-78393274D02*
X195929250Y-77123274D01*
X195421250Y-78030417D01*
X194913250Y-77123274D01*
X194913250Y-78393274D01*
X194332679Y-77123274D02*
X193316679Y-78393274D01*
X193316679Y-77123274D02*
X194332679Y-78393274D01*
X192445821Y-77123274D02*
X192300678Y-77123274D01*
X192155535Y-77183750D01*
X192082964Y-77244226D01*
X192010393Y-77365179D01*
X191937821Y-77607083D01*
X191937821Y-77909464D01*
X192010393Y-78151369D01*
X192082964Y-78272321D01*
X192155535Y-78332798D01*
X192300678Y-78393274D01*
X192445821Y-78393274D01*
X192590964Y-78332798D01*
X192663535Y-78272321D01*
X192736107Y-78151369D01*
X192808678Y-77909464D01*
X192808678Y-77607083D01*
X192736107Y-77365179D01*
X192663535Y-77244226D01*
X192590964Y-77183750D01*
X192445821Y-77123274D01*
X191284678Y-78272321D02*
X191212106Y-78332798D01*
X191284678Y-78393274D01*
X191357249Y-78332798D01*
X191284678Y-78272321D01*
X191284678Y-78393274D01*
X191284678Y-77607083D02*
X191212106Y-77667560D01*
X191284678Y-77728036D01*
X191357249Y-77667560D01*
X191284678Y-77607083D01*
X191284678Y-77728036D01*
X189905821Y-77546607D02*
X189905821Y-78393274D01*
X190268678Y-77062798D02*
X190631535Y-77969940D01*
X189688107Y-77969940D01*
X119729250Y-78393274D02*
X119729250Y-77123274D01*
X119221250Y-78030417D01*
X118713250Y-77123274D01*
X118713250Y-78393274D01*
X118132679Y-77123274D02*
X117116679Y-78393274D01*
X117116679Y-77123274D02*
X118132679Y-78393274D01*
X116245821Y-77123274D02*
X116100678Y-77123274D01*
X115955535Y-77183750D01*
X115882964Y-77244226D01*
X115810393Y-77365179D01*
X115737821Y-77607083D01*
X115737821Y-77909464D01*
X115810393Y-78151369D01*
X115882964Y-78272321D01*
X115955535Y-78332798D01*
X116100678Y-78393274D01*
X116245821Y-78393274D01*
X116390964Y-78332798D01*
X116463535Y-78272321D01*
X116536107Y-78151369D01*
X116608678Y-77909464D01*
X116608678Y-77607083D01*
X116536107Y-77365179D01*
X116463535Y-77244226D01*
X116390964Y-77183750D01*
X116245821Y-77123274D01*
X115084678Y-78272321D02*
X115012106Y-78332798D01*
X115084678Y-78393274D01*
X115157249Y-78332798D01*
X115084678Y-78272321D01*
X115084678Y-78393274D01*
X115084678Y-77607083D02*
X115012106Y-77667560D01*
X115084678Y-77728036D01*
X115157249Y-77667560D01*
X115084678Y-77607083D01*
X115084678Y-77728036D01*
X114068678Y-77123274D02*
X113923535Y-77123274D01*
X113778392Y-77183750D01*
X113705821Y-77244226D01*
X113633250Y-77365179D01*
X113560678Y-77607083D01*
X113560678Y-77909464D01*
X113633250Y-78151369D01*
X113705821Y-78272321D01*
X113778392Y-78332798D01*
X113923535Y-78393274D01*
X114068678Y-78393274D01*
X114213821Y-78332798D01*
X114286392Y-78272321D01*
X114358964Y-78151369D01*
X114431535Y-77909464D01*
X114431535Y-77607083D01*
X114358964Y-77365179D01*
X114286392Y-77244226D01*
X114213821Y-77183750D01*
X114068678Y-77123274D01*
X138779250Y-78393274D02*
X138779250Y-77123274D01*
X138271250Y-78030417D01*
X137763250Y-77123274D01*
X137763250Y-78393274D01*
X137182679Y-77123274D02*
X136166679Y-78393274D01*
X136166679Y-77123274D02*
X137182679Y-78393274D01*
X135295821Y-77123274D02*
X135150678Y-77123274D01*
X135005535Y-77183750D01*
X134932964Y-77244226D01*
X134860393Y-77365179D01*
X134787821Y-77607083D01*
X134787821Y-77909464D01*
X134860393Y-78151369D01*
X134932964Y-78272321D01*
X135005535Y-78332798D01*
X135150678Y-78393274D01*
X135295821Y-78393274D01*
X135440964Y-78332798D01*
X135513535Y-78272321D01*
X135586107Y-78151369D01*
X135658678Y-77909464D01*
X135658678Y-77607083D01*
X135586107Y-77365179D01*
X135513535Y-77244226D01*
X135440964Y-77183750D01*
X135295821Y-77123274D01*
X134134678Y-78272321D02*
X134062106Y-78332798D01*
X134134678Y-78393274D01*
X134207249Y-78332798D01*
X134134678Y-78272321D01*
X134134678Y-78393274D01*
X134134678Y-77607083D02*
X134062106Y-77667560D01*
X134134678Y-77728036D01*
X134207249Y-77667560D01*
X134134678Y-77607083D01*
X134134678Y-77728036D01*
X132610678Y-78393274D02*
X133481535Y-78393274D01*
X133046107Y-78393274D02*
X133046107Y-77123274D01*
X133191250Y-77304702D01*
X133336392Y-77425655D01*
X133481535Y-77486131D01*
X214979250Y-78393274D02*
X214979250Y-77123274D01*
X214471250Y-78030417D01*
X213963250Y-77123274D01*
X213963250Y-78393274D01*
X213382679Y-77123274D02*
X212366679Y-78393274D01*
X212366679Y-77123274D02*
X213382679Y-78393274D01*
X211495821Y-77123274D02*
X211350678Y-77123274D01*
X211205535Y-77183750D01*
X211132964Y-77244226D01*
X211060393Y-77365179D01*
X210987821Y-77607083D01*
X210987821Y-77909464D01*
X211060393Y-78151369D01*
X211132964Y-78272321D01*
X211205535Y-78332798D01*
X211350678Y-78393274D01*
X211495821Y-78393274D01*
X211640964Y-78332798D01*
X211713535Y-78272321D01*
X211786107Y-78151369D01*
X211858678Y-77909464D01*
X211858678Y-77607083D01*
X211786107Y-77365179D01*
X211713535Y-77244226D01*
X211640964Y-77183750D01*
X211495821Y-77123274D01*
X210334678Y-78272321D02*
X210262106Y-78332798D01*
X210334678Y-78393274D01*
X210407249Y-78332798D01*
X210334678Y-78272321D01*
X210334678Y-78393274D01*
X210334678Y-77607083D02*
X210262106Y-77667560D01*
X210334678Y-77728036D01*
X210407249Y-77667560D01*
X210334678Y-77607083D01*
X210334678Y-77728036D01*
X208883250Y-77123274D02*
X209608964Y-77123274D01*
X209681535Y-77728036D01*
X209608964Y-77667560D01*
X209463821Y-77607083D01*
X209100964Y-77607083D01*
X208955821Y-77667560D01*
X208883250Y-77728036D01*
X208810678Y-77848988D01*
X208810678Y-78151369D01*
X208883250Y-78272321D01*
X208955821Y-78332798D01*
X209100964Y-78393274D01*
X209463821Y-78393274D01*
X209608964Y-78332798D01*
X209681535Y-78272321D01*
X216885114Y-154403914D02*
X216885114Y-153133914D01*
X216377114Y-154041057D01*
X215869114Y-153133914D01*
X215869114Y-154403914D01*
X215288543Y-153133914D02*
X214272543Y-154403914D01*
X214272543Y-153133914D02*
X215288543Y-154403914D01*
X213038828Y-153557247D02*
X213038828Y-154403914D01*
X213401685Y-153073438D02*
X213764542Y-153980580D01*
X212821114Y-153980580D01*
X212240542Y-154282961D02*
X212167970Y-154343438D01*
X212240542Y-154403914D01*
X212313113Y-154343438D01*
X212240542Y-154282961D01*
X212240542Y-154403914D01*
X212240542Y-153617723D02*
X212167970Y-153678200D01*
X212240542Y-153738676D01*
X212313113Y-153678200D01*
X212240542Y-153617723D01*
X212240542Y-153738676D01*
X210789114Y-153133914D02*
X211514828Y-153133914D01*
X211587399Y-153738676D01*
X211514828Y-153678200D01*
X211369685Y-153617723D01*
X211006828Y-153617723D01*
X210861685Y-153678200D01*
X210789114Y-153738676D01*
X210716542Y-153859628D01*
X210716542Y-154162009D01*
X210789114Y-154282961D01*
X210861685Y-154343438D01*
X211006828Y-154403914D01*
X211369685Y-154403914D01*
X211514828Y-154343438D01*
X211587399Y-154282961D01*
X140684788Y-154403914D02*
X140684788Y-153133914D01*
X140176788Y-154041057D01*
X139668788Y-153133914D01*
X139668788Y-154403914D01*
X139088217Y-153133914D02*
X138072217Y-154403914D01*
X138072217Y-153133914D02*
X139088217Y-154403914D01*
X136838502Y-153557247D02*
X136838502Y-154403914D01*
X137201359Y-153073438D02*
X137564216Y-153980580D01*
X136620788Y-153980580D01*
X136040216Y-154282961D02*
X135967644Y-154343438D01*
X136040216Y-154403914D01*
X136112787Y-154343438D01*
X136040216Y-154282961D01*
X136040216Y-154403914D01*
X136040216Y-153617723D02*
X135967644Y-153678200D01*
X136040216Y-153738676D01*
X136112787Y-153678200D01*
X136040216Y-153617723D01*
X136040216Y-153738676D01*
X134516216Y-154403914D02*
X135387073Y-154403914D01*
X134951645Y-154403914D02*
X134951645Y-153133914D01*
X135096788Y-153315342D01*
X135241930Y-153436295D01*
X135387073Y-153496771D01*
M02*
