M48
INCH,TZ
T1C0.059
T2C0.067
T3C0.120
T4C0.157
%
G90
G05
T1
X4.9688Y-2.6714
X4.9688Y-2.947
X7.9688Y-2.6714
X7.9688Y-2.947
T2
X4.3937Y-2.9062
X4.3937Y-3.6562
X4.3937Y-4.4062
X4.3937Y-5.1562
X4.3938Y-5.9063
X4.7688Y-5.9063
X4.7688Y-5.9063
X4.7938Y-2.9062
X4.7938Y-3.6562
X4.7938Y-4.4062
X4.7938Y-5.1562
X4.7938Y-5.9063
X5.1437Y-2.9062
X5.1437Y-3.6562
X5.1437Y-4.4062
X5.1437Y-5.1562
X5.1438Y-5.9063
X5.1688Y-5.9063
X5.1688Y-5.9063
X5.5438Y-2.9062
X5.5438Y-3.6562
X5.5438Y-4.4062
X5.5438Y-5.1562
X5.5438Y-5.9063
X5.8937Y-2.9062
X5.8937Y-3.6562
X5.8937Y-4.4062
X5.8937Y-5.1562
X5.8938Y-5.9063
X6.2938Y-2.9062
X6.2938Y-3.6562
X6.2938Y-4.4062
X6.2938Y-5.1562
X6.2938Y-5.9063
X6.6437Y-2.9062
X6.6437Y-3.6562
X6.6437Y-4.4062
X6.6437Y-5.1562
X6.6438Y-5.9063
X7.0438Y-2.9062
X7.0438Y-3.6562
X7.0438Y-4.4062
X7.0438Y-5.1562
X7.0438Y-5.9063
X7.3937Y-2.9062
X7.3937Y-3.6562
X7.3937Y-4.4062
X7.3937Y-5.1562
X7.3938Y-5.9063
X7.7688Y-5.9063
X7.7688Y-5.9063
X7.7938Y-2.9062
X7.7938Y-3.6562
X7.7938Y-4.4062
X7.7938Y-5.1562
X7.7938Y-5.9063
X8.1437Y-2.9062
X8.1437Y-3.6562
X8.1437Y-4.4062
X8.1437Y-5.1562
X8.1438Y-5.9063
X8.1688Y-5.9063
X8.1688Y-5.9063
X8.5437Y-2.9062
X8.5437Y-3.6562
X8.5437Y-4.4062
X8.5437Y-5.1562
X8.5438Y-5.9063
T3
X4.4988Y-6.1813
X5.4388Y-6.1813
X7.4988Y-6.1813
X8.4388Y-6.1813
T4
X4.4988Y-5.5813
X4.5938Y-2.9062
X4.5938Y-3.6562
X4.5938Y-4.4062
X4.5938Y-5.1562
X4.5938Y-5.9063
X4.9688Y-5.9063
X4.9688Y-5.9063
X5.3438Y-2.9062
X5.3438Y-3.6562
X5.3438Y-4.4062
X5.3438Y-5.1562
X5.3438Y-5.9063
X5.4388Y-5.5813
X6.0938Y-2.9062
X6.0938Y-3.6562
X6.0938Y-4.4062
X6.0938Y-5.1562
X6.0938Y-5.9063
X6.8438Y-2.9062
X6.8438Y-3.6562
X6.8438Y-4.4062
X6.8438Y-5.1562
X6.8438Y-5.9063
X7.4988Y-5.5813
X7.5938Y-2.9062
X7.5938Y-3.6562
X7.5938Y-4.4062
X7.5938Y-5.1562
X7.5938Y-5.9063
X7.9688Y-5.9063
X7.9688Y-5.9063
X8.3438Y-2.9062
X8.3438Y-3.6562
X8.3438Y-4.4062
X8.3438Y-5.1562
X8.3438Y-5.9063
X8.4388Y-5.5813
T0
M30
