G04 #@! TF.FileFunction,Copper,L1,Top,Signal*
%FSLAX46Y46*%
G04 Gerber Fmt 4.6, Leading zero omitted, Abs format (unit mm)*
G04 Created by KiCad (PCBNEW 4.0.7-e2-6376~58~ubuntu16.04.1) date Fri Jun 15 22:48:21 2018*
%MOMM*%
%LPD*%
G01*
G04 APERTURE LIST*
%ADD10C,0.100000*%
%ADD11C,2.286000*%
%ADD12R,1.600000X1.600000*%
%ADD13C,1.600000*%
%ADD14C,4.400000*%
%ADD15O,1.600000X2.000000*%
%ADD16R,1.752600X1.752600*%
%ADD17C,1.752600*%
%ADD18R,2.500000X2.500000*%
%ADD19C,0.600000*%
%ADD20C,0.250000*%
%ADD21C,0.254000*%
G04 APERTURE END LIST*
D10*
D11*
X190341250Y-125888750D03*
X196691250Y-128428750D03*
X209391250Y-125888750D03*
X215741250Y-128428750D03*
D12*
X110995803Y-140494349D03*
D13*
X118795803Y-140494349D03*
D14*
X126206250Y-83343750D03*
X126206788Y-140494349D03*
X202407114Y-140494349D03*
X202406250Y-83343750D03*
D12*
X111590625Y-121443750D03*
D13*
X119390625Y-121443750D03*
D12*
X111590625Y-83343750D03*
D13*
X119390625Y-83343750D03*
D12*
X133021875Y-83343750D03*
D13*
X140821875Y-83343750D03*
D12*
X169931250Y-83343750D03*
D13*
X177731250Y-83343750D03*
D12*
X183357032Y-72002668D03*
D13*
X183357032Y-79802668D03*
D12*
X187790625Y-83343750D03*
D13*
X195590625Y-83343750D03*
D12*
X209221875Y-83343750D03*
D13*
X217021875Y-83343750D03*
D12*
X111590625Y-102393750D03*
D13*
X119390625Y-102393750D03*
D12*
X126206788Y-91052749D03*
D13*
X126206788Y-98852749D03*
D12*
X164306951Y-105935625D03*
D13*
X164306951Y-113735625D03*
D12*
X183357032Y-105935625D03*
D13*
X183357032Y-113735625D03*
D12*
X202407114Y-91052749D03*
D13*
X202407114Y-98852749D03*
D12*
X209222784Y-102394187D03*
D13*
X217022784Y-102394187D03*
D12*
X126206788Y-105935625D03*
D13*
X126206788Y-113735625D03*
D12*
X145256870Y-105935625D03*
D13*
X145256870Y-113735625D03*
D12*
X150881250Y-121443750D03*
D13*
X158681250Y-121443750D03*
D12*
X169931250Y-121443750D03*
D13*
X177731250Y-121443750D03*
D12*
X187790625Y-121443750D03*
D13*
X195590625Y-121443750D03*
D12*
X202407114Y-105935625D03*
D13*
X202407114Y-113735625D03*
D12*
X133022459Y-121444268D03*
D13*
X140822459Y-121444268D03*
D12*
X145256870Y-124985706D03*
D13*
X145256870Y-132785706D03*
D12*
X164306951Y-124985706D03*
D13*
X164306951Y-132785706D03*
D12*
X183357032Y-124985706D03*
D13*
X183357032Y-132785706D03*
D12*
X209222784Y-121444268D03*
D13*
X217022784Y-121444268D03*
D12*
X150881910Y-140494349D03*
D13*
X158681910Y-140494349D03*
D12*
X169931992Y-140494349D03*
D13*
X177731992Y-140494349D03*
D12*
X187493785Y-140494349D03*
D13*
X195293785Y-140494349D03*
D12*
X209520442Y-140494349D03*
D13*
X217320442Y-140494349D03*
D12*
X133320117Y-140494349D03*
D13*
X141120117Y-140494349D03*
D11*
X209391250Y-87788750D03*
X215741250Y-90328750D03*
X152241250Y-125888750D03*
X158591250Y-128428750D03*
X171291250Y-68738750D03*
X177641250Y-71278750D03*
X114141250Y-87788750D03*
X120491250Y-90328750D03*
X133191250Y-87788750D03*
X139541250Y-90328750D03*
X152241250Y-87788750D03*
X158591250Y-90328750D03*
X190341250Y-87788750D03*
X196691250Y-90328750D03*
X114141250Y-106838750D03*
X120491250Y-109378750D03*
X133191250Y-106838750D03*
X139541250Y-109378750D03*
X152241250Y-106838750D03*
X158591250Y-109378750D03*
X190341250Y-106838750D03*
X196691250Y-109378750D03*
X209391250Y-106838750D03*
X215741250Y-109378750D03*
X133191250Y-125888750D03*
X139541250Y-128428750D03*
X114141250Y-125888750D03*
X120491250Y-128428750D03*
X171291250Y-87788750D03*
X177641250Y-90328750D03*
X171291250Y-106838750D03*
X177641250Y-109378750D03*
X171291250Y-125888750D03*
X177641250Y-128428750D03*
X152241910Y-144939390D03*
X158591910Y-147479390D03*
X171291992Y-144939390D03*
X177641992Y-147479390D03*
X158591250Y-71278750D03*
X152241250Y-68738750D03*
X157321250Y-78898750D03*
X150971250Y-76358750D03*
X114141250Y-68738750D03*
X120491250Y-71278750D03*
X190341250Y-68738750D03*
X196691250Y-71278750D03*
X133191250Y-68738750D03*
X139541250Y-71278750D03*
X209391250Y-68738750D03*
X215741250Y-71278750D03*
D15*
X123906788Y-77677627D03*
X128506788Y-76577627D03*
X128506788Y-69577627D03*
X128506788Y-72577627D03*
D16*
X147161910Y-69707476D03*
D17*
X147161910Y-72247476D03*
X147161910Y-74787476D03*
X147161910Y-77327476D03*
X147161910Y-79867476D03*
X147161910Y-82407476D03*
X147161910Y-84947476D03*
X147161910Y-87487476D03*
X147161910Y-90027476D03*
X147161910Y-92567476D03*
X147161910Y-95107476D03*
X147161910Y-97647476D03*
X162401910Y-97647476D03*
X162401910Y-95107476D03*
X162401910Y-92567476D03*
X162401910Y-90027476D03*
X162401910Y-87487476D03*
X162401910Y-84947476D03*
X162401910Y-82407476D03*
X162401910Y-79867476D03*
X162401910Y-77327476D03*
X162401910Y-74787476D03*
X162401910Y-72247476D03*
X162401910Y-69707476D03*
D15*
X200107114Y-77677627D03*
X204707114Y-76577627D03*
X204707114Y-69577627D03*
X204707114Y-72577627D03*
D12*
X114895803Y-65186997D03*
X118467693Y-65186997D03*
D18*
X108347337Y-123969309D03*
X108347337Y-129569309D03*
X108347337Y-126769309D03*
X108347337Y-135169309D03*
X108347337Y-132369309D03*
X108347337Y-137969309D03*
X220266565Y-123969309D03*
X220266565Y-129569309D03*
X220266565Y-126769309D03*
X220266565Y-135169309D03*
X220266565Y-132369309D03*
X220266565Y-137969309D03*
X108347337Y-95619146D03*
X108347337Y-98419146D03*
X108347337Y-90019146D03*
X108347337Y-92819146D03*
X108347337Y-87219146D03*
X220266565Y-95619146D03*
X220266565Y-98419146D03*
X220266565Y-90019146D03*
X220266565Y-92819146D03*
X220266565Y-87219146D03*
D13*
X183357032Y-92869146D03*
D11*
X114141748Y-144939390D03*
X120491748Y-147479390D03*
X139541788Y-147479390D03*
X133191788Y-144939390D03*
X123666788Y-144939390D03*
X130016788Y-147479390D03*
X190342073Y-144939390D03*
X196692073Y-147479390D03*
X215742114Y-147479390D03*
X209392114Y-144939390D03*
X199867114Y-144939390D03*
X206217114Y-147479390D03*
D19*
X108347337Y-83344106D03*
X183357032Y-66377627D03*
X164306951Y-108049680D03*
X108347337Y-90019146D03*
X220564222Y-90019146D03*
X155079568Y-102096529D03*
X155079568Y-104477790D03*
X108347337Y-92819146D03*
X114895803Y-102989502D03*
X220564222Y-92819146D03*
X193477388Y-122634898D03*
X193477388Y-139303719D03*
X145256870Y-121741926D03*
X108347337Y-95619146D03*
X220266565Y-105668420D03*
X220564222Y-95619146D03*
X117574720Y-122039583D03*
X201514141Y-69651860D03*
X135136514Y-102691844D03*
X108942652Y-135136514D03*
X108347337Y-132369309D03*
X173236677Y-85130051D03*
X108347337Y-129569309D03*
X166092896Y-124123186D03*
X108347337Y-126769309D03*
X167878841Y-122634898D03*
X116681748Y-66079969D03*
X144066240Y-66675284D03*
X212229812Y-102989502D03*
X211039182Y-125016158D03*
X109240310Y-119063008D03*
X200918826Y-101203557D03*
X220266565Y-135169309D03*
X144959212Y-158056143D03*
X220266565Y-132369309D03*
X146447500Y-158056143D03*
X220266565Y-129569309D03*
X166092896Y-122932556D03*
X220564222Y-126769309D03*
X166390554Y-119955981D03*
X220564222Y-121146611D03*
X167878841Y-104180132D03*
X146447500Y-66675284D03*
D20*
X140821875Y-83343750D02*
X143685636Y-83343750D01*
X143685636Y-83343750D02*
X147161910Y-79867476D01*
X183357032Y-79802668D02*
X183357032Y-82451134D01*
X182464416Y-83343750D02*
X177731250Y-83343750D01*
X183357032Y-82451134D02*
X182464416Y-83343750D01*
X108347337Y-87219146D02*
X108347337Y-83344106D01*
X183357032Y-74712038D02*
X183357032Y-79802668D01*
X184845320Y-67865915D02*
X184845320Y-73223750D01*
X184845320Y-73223750D02*
X183357032Y-74712038D01*
X183357032Y-66377627D02*
X184845320Y-67865915D01*
X119390625Y-83343750D02*
X119390625Y-83909461D01*
X220564222Y-87219146D02*
X220564222Y-86886097D01*
X220564222Y-86886097D02*
X217021875Y-83343750D01*
X177641250Y-71278750D02*
X176947169Y-71278750D01*
X176947169Y-71278750D02*
X174129649Y-68461230D01*
X174129649Y-68461230D02*
X174129649Y-66972942D01*
X174129649Y-66972942D02*
X174724964Y-66377627D01*
X174724964Y-66377627D02*
X180975772Y-66377627D01*
X180975772Y-66377627D02*
X183357032Y-68758887D01*
X183357032Y-68758887D02*
X183357032Y-72002668D01*
X164306951Y-108049680D02*
X164306951Y-113735625D01*
X111590625Y-102393750D02*
X114003268Y-102393750D01*
X120491250Y-95905768D02*
X120491250Y-90328750D01*
X114003268Y-102393750D02*
X120491250Y-95905768D01*
X183357032Y-105935625D02*
X183326581Y-105935625D01*
X183326581Y-105935625D02*
X177999198Y-100608242D01*
X177999198Y-100608242D02*
X175022622Y-100608242D01*
X175022622Y-100608242D02*
X174427307Y-100012927D01*
X174427307Y-100012927D02*
X174427307Y-96738694D01*
X174427307Y-96738694D02*
X177641250Y-93524751D01*
X177641250Y-93524751D02*
X177641250Y-90328750D01*
X202407114Y-91052749D02*
X202407114Y-95845721D01*
X196691250Y-92929517D02*
X196691250Y-90328750D01*
X193477388Y-96143379D02*
X196691250Y-92929517D01*
X193477388Y-100012927D02*
X193477388Y-96143379D01*
X193775045Y-100310584D02*
X193477388Y-100012927D01*
X200025853Y-100310584D02*
X193775045Y-100310584D01*
X200621168Y-99715269D02*
X200025853Y-100310584D01*
X200621168Y-97631667D02*
X200621168Y-99715269D01*
X202407114Y-95845721D02*
X200621168Y-97631667D01*
X161628033Y-102096529D02*
X155079568Y-102096529D01*
X155079568Y-102096529D02*
X155079568Y-104477790D01*
X126206788Y-113735625D02*
X125016158Y-112544995D01*
X125016158Y-104775447D02*
X125016158Y-112544995D01*
X123825528Y-103584818D02*
X125016158Y-104775447D01*
X114895803Y-102989502D02*
X115491118Y-103584817D01*
X115491118Y-103584817D02*
X123825528Y-103584818D01*
X195590625Y-121443750D02*
X198240427Y-121443750D01*
X202407114Y-117277063D02*
X202407114Y-113735625D01*
X198240427Y-121443750D02*
X202407114Y-117277063D01*
X162223348Y-101501214D02*
X161628033Y-102096529D01*
X162401910Y-97647476D02*
X162401910Y-98048420D01*
X162401910Y-98048420D02*
X162223348Y-98226982D01*
X162223348Y-98226982D02*
X162223348Y-100012927D01*
X162223348Y-100012927D02*
X162223348Y-101501214D01*
X150881250Y-121443750D02*
X153591798Y-121443750D01*
X158591250Y-112872408D02*
X158591250Y-109378750D01*
X155377225Y-116086433D02*
X158591250Y-112872408D01*
X155377225Y-119658323D02*
X155377225Y-116086433D01*
X153591798Y-121443750D02*
X155377225Y-119658323D01*
X169931250Y-121443750D02*
X172939537Y-121443750D01*
X177641250Y-112277174D02*
X177641250Y-109378750D01*
X174427307Y-115491117D02*
X177641250Y-112277174D01*
X174427307Y-119955980D02*
X174427307Y-115491117D01*
X172939537Y-121443750D02*
X174427307Y-119955980D01*
X187790625Y-121443750D02*
X191989619Y-121443750D01*
X196691250Y-112277256D02*
X196691250Y-109378750D01*
X193477388Y-115491118D02*
X196691250Y-112277256D01*
X193477388Y-119955981D02*
X193477388Y-115491118D01*
X191989619Y-121443750D02*
X193477388Y-119955981D01*
X162401910Y-95107476D02*
X162401910Y-95131310D01*
X162401910Y-95131310D02*
X163711636Y-96441036D01*
X163711636Y-96441036D02*
X163711636Y-100905899D01*
X163711636Y-100905899D02*
X162223348Y-102394187D01*
X162223348Y-102394187D02*
X162223348Y-131266966D01*
X162223348Y-131266966D02*
X163742088Y-132785706D01*
X163742088Y-132785706D02*
X164306951Y-132785706D01*
X192882073Y-123230213D02*
X192882073Y-127099761D01*
X193477388Y-122634898D02*
X192882073Y-123230213D01*
X193477388Y-136327144D02*
X193477388Y-139303719D01*
X195560991Y-134243541D02*
X193477388Y-136327144D01*
X195560991Y-129778679D02*
X195560991Y-134243541D01*
X192882073Y-127099761D02*
X195560991Y-129778679D01*
X146745157Y-131297419D02*
X145256870Y-132785706D01*
X146745157Y-123230213D02*
X146745157Y-131297419D01*
X145256870Y-121741926D02*
X146745157Y-123230213D01*
X217022784Y-121444268D02*
X218778278Y-121444268D01*
X220266565Y-119955981D02*
X218778278Y-121444268D01*
X220266565Y-119955981D02*
X220266565Y-105668420D01*
X117574720Y-122039583D02*
X117277063Y-122337240D01*
X117277063Y-122337240D02*
X117277063Y-125214563D01*
X117277063Y-125214563D02*
X120491250Y-128428750D01*
X133022459Y-121444268D02*
X134243541Y-121444268D01*
X137656133Y-128428750D02*
X139541250Y-128428750D01*
X136029487Y-126802104D02*
X137656133Y-128428750D01*
X136029487Y-123230214D02*
X136029487Y-126802104D01*
X134243541Y-121444268D02*
X136029487Y-123230214D01*
X201514141Y-68758887D02*
X201514141Y-69651860D01*
X118467693Y-65186997D02*
X124123186Y-65186997D01*
X147340472Y-65186997D02*
X147333442Y-65186997D01*
X200025853Y-65186997D02*
X201514141Y-66675285D01*
X147340472Y-65186997D02*
X200025853Y-65186997D01*
X201514141Y-68758887D02*
X201514141Y-66675285D01*
X147333442Y-65186997D02*
X147340472Y-66972942D01*
X147340472Y-66972942D02*
X147340472Y-66972941D01*
X200323511Y-77461230D02*
X200107114Y-77677627D01*
X147161910Y-72247476D02*
X146364199Y-72247476D01*
X124123186Y-66675284D02*
X124123186Y-77461229D01*
X147340472Y-65186997D02*
X124123186Y-65186997D01*
X124123186Y-65186997D02*
X124123186Y-66675284D01*
X147343987Y-66976457D02*
X147340472Y-66972942D01*
X146364199Y-72247476D02*
X145554527Y-71437805D01*
X145554527Y-71437805D02*
X145554527Y-68758887D01*
X145554527Y-68758887D02*
X145554527Y-68758887D01*
X145554527Y-68758887D02*
X147343987Y-66976457D01*
X124123186Y-77461229D02*
X123906788Y-77677627D01*
X143173267Y-68163572D02*
X143173267Y-67568257D01*
X147161910Y-77327476D02*
X144002761Y-77327476D01*
X144002761Y-77327476D02*
X143173267Y-76497982D01*
X143173267Y-76497982D02*
X143173267Y-68163572D01*
X128290391Y-66675284D02*
X128290391Y-69361230D01*
X128588049Y-66377627D02*
X128290391Y-66675284D01*
X142875610Y-66377627D02*
X128588049Y-66377627D01*
X143173267Y-66675284D02*
X142875610Y-66377627D01*
X143173267Y-68163572D02*
X143173267Y-66675284D01*
X128290391Y-69361230D02*
X128506788Y-69577627D01*
X114141250Y-68738750D02*
X114141250Y-77827033D01*
X116086433Y-86915996D02*
X115213679Y-87788750D01*
X116086433Y-79772216D02*
X116086433Y-86915996D01*
X114141250Y-77827033D02*
X116086433Y-79772216D01*
X115213679Y-87788750D02*
X114141250Y-87788750D01*
X114141250Y-125888750D02*
X115213841Y-125888750D01*
X115213841Y-125888750D02*
X116086433Y-125016158D01*
X113407515Y-114598145D02*
X113407515Y-107572485D01*
X116086433Y-117277063D02*
X113407515Y-114598145D01*
X116086433Y-125016158D02*
X116086433Y-117277063D01*
X113407515Y-107572485D02*
X114141250Y-106838750D01*
X108347337Y-137969309D02*
X109394187Y-137969309D01*
X109394187Y-137969309D02*
X109835625Y-138410747D01*
X109835625Y-138410747D02*
X116086433Y-138410747D01*
X114141748Y-144939390D02*
X115213282Y-144939390D01*
X115213282Y-144939390D02*
X116086433Y-144066239D01*
X116086433Y-144066239D02*
X116086433Y-138410747D01*
X116086433Y-138410747D02*
X116086433Y-135731829D01*
X116086433Y-135731829D02*
X113705173Y-133350569D01*
X113705173Y-133350569D02*
X113705173Y-126324827D01*
X113705173Y-126324827D02*
X114141250Y-125888750D01*
X133191250Y-106838750D02*
X133966184Y-106838750D01*
X133966184Y-106838750D02*
X135136514Y-105668420D01*
X133191250Y-95388745D02*
X133191250Y-87788750D01*
X135136514Y-97334009D02*
X133191250Y-95388745D01*
X135136514Y-105668420D02*
X135136514Y-102691844D01*
X135136514Y-102691844D02*
X135136514Y-97334009D01*
X133191250Y-87788750D02*
X134263760Y-87788750D01*
X134263760Y-87788750D02*
X135136514Y-86915996D01*
X135136514Y-86915996D02*
X135136514Y-77390956D01*
X135136514Y-77390956D02*
X133191250Y-75445692D01*
X133191250Y-75445692D02*
X133191250Y-68738750D01*
X133191829Y-144939390D02*
X134263364Y-144939390D01*
X134263364Y-144939390D02*
X135136514Y-144066240D01*
X133191250Y-132298277D02*
X133191250Y-125888750D01*
X135136514Y-134243541D02*
X133191250Y-132298277D01*
X135136514Y-144066240D02*
X135136514Y-142875610D01*
X135136514Y-142875610D02*
X134541199Y-142280295D01*
X134541199Y-142280295D02*
X132457596Y-142280295D01*
X132457596Y-142280295D02*
X131862281Y-141684980D01*
X131862281Y-141684980D02*
X131862281Y-139303719D01*
X131862281Y-139303719D02*
X132457596Y-138708404D01*
X132457596Y-138708404D02*
X134541199Y-138708404D01*
X134541199Y-138708404D02*
X135136514Y-138113089D01*
X135136514Y-138113089D02*
X135136514Y-134243541D01*
X133191250Y-106838750D02*
X133191250Y-115629456D01*
X135136514Y-125016158D02*
X134263922Y-125888750D01*
X135136514Y-123527871D02*
X135136514Y-125016158D01*
X134541199Y-122932556D02*
X135136514Y-123527871D01*
X131862281Y-122932556D02*
X134541199Y-122932556D01*
X131564624Y-122634899D02*
X131862281Y-122932556D01*
X131564624Y-120253638D02*
X131564624Y-122634899D01*
X131862281Y-119955981D02*
X131564624Y-120253638D01*
X134541199Y-119955981D02*
X131862281Y-119955981D01*
X135136514Y-119360666D02*
X134541199Y-119955981D01*
X135136514Y-117574720D02*
X135136514Y-119360666D01*
X133191250Y-115629456D02*
X135136514Y-117574720D01*
X134263922Y-125888750D02*
X133191250Y-125888750D01*
X152241250Y-125888750D02*
X153314003Y-125888750D01*
X153314003Y-125888750D02*
X154186595Y-125016158D01*
X152241250Y-113843430D02*
X152241250Y-106838750D01*
X154484253Y-116086433D02*
X152241250Y-113843430D01*
X154484253Y-119063008D02*
X154484253Y-116086433D01*
X153888938Y-119658323D02*
X154484253Y-119063008D01*
X150019390Y-119658323D02*
X153888938Y-119658323D01*
X149424075Y-120253638D02*
X150019390Y-119658323D01*
X149424075Y-122337241D02*
X149424075Y-120253638D01*
X150019390Y-122932556D02*
X149424075Y-122337241D01*
X153591280Y-122932556D02*
X150019390Y-122932556D01*
X154186595Y-123527871D02*
X153591280Y-122932556D01*
X154186595Y-125016158D02*
X154186595Y-123527871D01*
X157321250Y-78898750D02*
X154186595Y-78898750D01*
X154186595Y-78898750D02*
X154186595Y-79176900D01*
X152241250Y-87788750D02*
X153016183Y-87788750D01*
X153016183Y-87788750D02*
X154186595Y-86618338D01*
X152241250Y-74850295D02*
X152241250Y-68738750D01*
X154186595Y-76795640D02*
X152241250Y-74850295D01*
X154186595Y-86618338D02*
X154186595Y-79176900D01*
X154186595Y-79176900D02*
X154186595Y-76795640D01*
X152241250Y-106838750D02*
X153313922Y-106838750D01*
X153313922Y-106838750D02*
X154186595Y-105966077D01*
X152241250Y-94495691D02*
X152241250Y-87788750D01*
X152241910Y-144939390D02*
X153313445Y-144939390D01*
X153313445Y-144939390D02*
X154186595Y-144066240D01*
X152241250Y-132595853D02*
X152241250Y-125888750D01*
X154186595Y-134541198D02*
X152241250Y-132595853D01*
X154186595Y-138113089D02*
X154186595Y-134541198D01*
X153293622Y-139006062D02*
X154186595Y-138113089D01*
X149721733Y-139006062D02*
X153293622Y-139006062D01*
X149424075Y-139303720D02*
X149721733Y-139006062D01*
X149424075Y-141387322D02*
X149424075Y-139303720D01*
X149721733Y-141684980D02*
X149424075Y-141387322D01*
X153293623Y-141684980D02*
X149721733Y-141684980D01*
X154186595Y-142577952D02*
X153293623Y-141684980D01*
X154186595Y-144066240D02*
X154186595Y-142577952D01*
X154186595Y-105966077D02*
X154186595Y-100608242D01*
X154186595Y-96441036D02*
X152241250Y-94495691D01*
X147161910Y-97647476D02*
X147161910Y-99834365D01*
X147935787Y-100608242D02*
X154186595Y-100608242D01*
X147161910Y-99834365D02*
X147935787Y-100608242D01*
X154186595Y-100608242D02*
X154186595Y-96441036D01*
X171291250Y-87788750D02*
X172066265Y-87788750D01*
X172066265Y-87788750D02*
X173236677Y-86618338D01*
X171291250Y-75743186D02*
X171291250Y-68738750D01*
X173236677Y-77688613D02*
X171291250Y-75743186D01*
X173236677Y-86618338D02*
X173236677Y-85130051D01*
X173236677Y-85130051D02*
X173236677Y-77688613D01*
X171291250Y-106838750D02*
X172066347Y-106838750D01*
X172066347Y-106838750D02*
X173236677Y-105668420D01*
X173236677Y-105668420D02*
X173236677Y-100608242D01*
X171291250Y-94793267D02*
X171291250Y-87788750D01*
X173236677Y-100608242D02*
X173236677Y-96738694D01*
X173236677Y-96738694D02*
X171291250Y-94793267D01*
X171291992Y-144939390D02*
X172363527Y-144939390D01*
X172363527Y-144939390D02*
X173236677Y-144066240D01*
X171291250Y-132298115D02*
X171291250Y-125888750D01*
X173236677Y-134243542D02*
X171291250Y-132298115D01*
X173236677Y-138410747D02*
X173236677Y-134243542D01*
X172641362Y-139006062D02*
X173236677Y-138410747D01*
X169069471Y-139006062D02*
X172641362Y-139006062D01*
X168474156Y-139601377D02*
X169069471Y-139006062D01*
X168474156Y-141387322D02*
X168474156Y-139601377D01*
X168771814Y-141684980D02*
X168474156Y-141387322D01*
X172343705Y-141684980D02*
X168771814Y-141684980D01*
X173236677Y-142577952D02*
X172343705Y-141684980D01*
X173236677Y-144066240D02*
X173236677Y-142577952D01*
X166688211Y-123527871D02*
X166985869Y-123527871D01*
X166092896Y-124123186D02*
X166688211Y-123527871D01*
X172065869Y-144939390D02*
X171291992Y-144939390D01*
X173236677Y-115491118D02*
X173236677Y-119360666D01*
X171291250Y-106838750D02*
X171291250Y-113545691D01*
X173236677Y-115491118D02*
X171291250Y-113545691D01*
X173236677Y-124718500D02*
X172066427Y-125888750D01*
X173236677Y-123825528D02*
X173236677Y-124718500D01*
X172939020Y-123527871D02*
X173236677Y-123825528D01*
X166985869Y-123527871D02*
X172939020Y-123527871D01*
X166985869Y-120551295D02*
X166985869Y-123527871D01*
X167581184Y-119955981D02*
X166985869Y-120551295D01*
X172641362Y-119955981D02*
X167581184Y-119955981D01*
X173236677Y-119360666D02*
X172641362Y-119955981D01*
X171291250Y-125888750D02*
X172066427Y-125888750D01*
X186928923Y-122932556D02*
X168176499Y-122932556D01*
X167878842Y-122634898D02*
X167878841Y-122634898D01*
X168176499Y-122932556D02*
X167878842Y-122634898D01*
X190341250Y-106838750D02*
X190341250Y-113247953D01*
X192286758Y-124718501D02*
X191116509Y-125888750D01*
X192286758Y-123825528D02*
X192286758Y-124718501D01*
X191393786Y-122932556D02*
X192286758Y-123825528D01*
X186928923Y-122932556D02*
X191393786Y-122932556D01*
X186333608Y-122337241D02*
X186928923Y-122932556D01*
X186333608Y-120551296D02*
X186333608Y-122337241D01*
X186928923Y-119955981D02*
X186333608Y-120551296D01*
X191691443Y-119955981D02*
X186928923Y-119955981D01*
X192286758Y-119360666D02*
X191691443Y-119955981D01*
X192286758Y-115193461D02*
X192286758Y-119360666D01*
X190341250Y-113247953D02*
X192286758Y-115193461D01*
X191116509Y-125888750D02*
X190341250Y-125888750D01*
X190341250Y-125888750D02*
X190341250Y-132298034D01*
X191711265Y-144939390D02*
X190342073Y-144939390D01*
X192286758Y-144363897D02*
X191711265Y-144939390D01*
X192286758Y-134243542D02*
X192286758Y-144363897D01*
X190341250Y-132298034D02*
X192286758Y-134243542D01*
X190341250Y-87788750D02*
X190341250Y-94197871D01*
X191711743Y-106838750D02*
X190341250Y-106838750D01*
X192286758Y-106263735D02*
X191711743Y-106838750D01*
X192286758Y-96143379D02*
X192286758Y-106263735D01*
X190341250Y-94197871D02*
X192286758Y-96143379D01*
X190341250Y-68738750D02*
X190341250Y-75147790D01*
X191711661Y-87788750D02*
X190341250Y-87788750D01*
X192286758Y-87213653D02*
X191711661Y-87788750D01*
X192286758Y-77093298D02*
X192286758Y-87213653D01*
X190341250Y-75147790D02*
X192286758Y-77093298D01*
X147161910Y-74787476D02*
X144439336Y-74787476D01*
X116681748Y-66079969D02*
X115788775Y-66079969D01*
X144066240Y-74414380D02*
X144066240Y-66675284D01*
X144439336Y-74787476D02*
X144066240Y-74414380D01*
X115788775Y-66079969D02*
X114895803Y-65186997D01*
X215741250Y-109378750D02*
X215642485Y-109378750D01*
X215642485Y-109378750D02*
X212229812Y-105966077D01*
X212229812Y-105966077D02*
X212229812Y-102989502D01*
X209222784Y-121444268D02*
X210741524Y-121444268D01*
X211336840Y-122039584D02*
X211336839Y-124718501D01*
X211336839Y-124718501D02*
X211039182Y-125016158D01*
X210741524Y-121444268D02*
X211336840Y-122039584D01*
X209392114Y-144939390D02*
X206594141Y-144939390D01*
X200779909Y-145852185D02*
X199867114Y-144939390D01*
X205681346Y-145852185D02*
X200779909Y-145852185D01*
X206594141Y-144939390D02*
X205681346Y-145852185D01*
X108347337Y-123969309D02*
X108347337Y-119955981D01*
X108347337Y-119955981D02*
X109240310Y-119063008D01*
X200918826Y-101203557D02*
X201811799Y-101203557D01*
X201811799Y-101203557D02*
X211336839Y-101203557D01*
X209391250Y-106838750D02*
X209391250Y-113247871D01*
X209391250Y-113247871D02*
X211932154Y-115788776D01*
X211932154Y-115788776D02*
X211932154Y-125313816D01*
X211932154Y-125313816D02*
X211336839Y-125909131D01*
X211336839Y-125909131D02*
X209391250Y-125888750D01*
X209391250Y-125888750D02*
X208062606Y-127099762D01*
X208062606Y-127099762D02*
X208062606Y-133648226D01*
X210761346Y-144939390D02*
X209392154Y-144939390D01*
X211336839Y-144363897D02*
X210761346Y-144939390D01*
X211336839Y-136922459D02*
X211336839Y-144363897D01*
X208062606Y-133648226D02*
X211336839Y-136922459D01*
X209391250Y-87788750D02*
X209391250Y-94197790D01*
X209391250Y-94197790D02*
X211336839Y-96143379D01*
X211336839Y-96143379D02*
X211336839Y-101203557D01*
X211336839Y-101203557D02*
X211336839Y-105966077D01*
X211336839Y-105966077D02*
X210464166Y-106838750D01*
X210464166Y-106838750D02*
X209391250Y-106838750D01*
X209391250Y-68738750D02*
X209391250Y-75147709D01*
X210761742Y-87788750D02*
X209391250Y-87788750D01*
X211336839Y-87213653D02*
X210761742Y-87788750D01*
X211336839Y-77093298D02*
X211336839Y-87213653D01*
X209391250Y-75147709D02*
X211336839Y-77093298D01*
X114300488Y-154484253D02*
X114300488Y-147935787D01*
X117277063Y-157460828D02*
X114300488Y-154484253D01*
X134838857Y-157460828D02*
X117277063Y-157460828D01*
X135136514Y-157163171D02*
X134838857Y-157460828D01*
X138113089Y-154186595D02*
X135136514Y-157163171D01*
X138113089Y-151507677D02*
X138113089Y-154186595D01*
X138113089Y-148828760D02*
X138113089Y-151507677D01*
X136327144Y-147042815D02*
X138113089Y-148828760D01*
X136327144Y-142577952D02*
X136327144Y-147042815D01*
X114300488Y-147935787D02*
X117277063Y-144959212D01*
X136327144Y-142577952D02*
X136327144Y-142577952D01*
X137815432Y-140494349D02*
X136327144Y-142577952D01*
X141120117Y-140494349D02*
X137815432Y-140494349D01*
X117277063Y-142013089D02*
X118795803Y-140494349D01*
X117277063Y-144959212D02*
X117277063Y-142013089D01*
X162401910Y-92567476D02*
X162516993Y-92567476D01*
X162516993Y-92567476D02*
X164306951Y-94357434D01*
X164306951Y-94357434D02*
X164306951Y-101203556D01*
X164306951Y-101203556D02*
X162818663Y-102691844D01*
X162818663Y-102691844D02*
X162818663Y-128290390D01*
X162818663Y-128290390D02*
X165795239Y-131266966D01*
X165795239Y-131266966D02*
X165795239Y-139601376D01*
X165795239Y-139601376D02*
X164902266Y-140494349D01*
X164902266Y-140494349D02*
X158681910Y-140494349D01*
X212527469Y-140494349D02*
X212527469Y-147042815D01*
X193477388Y-142310746D02*
X195293785Y-140494349D01*
X193477388Y-144959212D02*
X193477388Y-142310746D01*
X190500813Y-147935787D02*
X193477388Y-144959212D01*
X190500813Y-151507678D02*
X190500813Y-147935787D01*
X193477388Y-154484253D02*
X190500813Y-151507678D01*
X193477388Y-157163171D02*
X193477388Y-154484253D01*
X193775045Y-157460828D02*
X193477388Y-157163171D01*
X211336839Y-157460828D02*
X193775045Y-157460828D01*
X211634497Y-157163170D02*
X211336839Y-157460828D01*
X214611072Y-154186595D02*
X211634497Y-157163170D01*
X214611072Y-153888938D02*
X214611072Y-154186595D01*
X214611072Y-149126418D02*
X214611072Y-153888938D01*
X212527469Y-147042815D02*
X214611072Y-149126418D01*
X108347337Y-98419146D02*
X108347337Y-103287159D01*
X116384090Y-108049680D02*
X114002830Y-110430940D01*
X116384090Y-104775447D02*
X116384090Y-108049680D01*
X115788775Y-104180132D02*
X116384090Y-104775447D01*
X114002830Y-110430940D02*
X114002830Y-114300488D01*
X114002830Y-114300488D02*
X116681748Y-116979405D01*
X116681748Y-116979405D02*
X116681748Y-127397419D01*
X116681748Y-127397419D02*
X114300488Y-129778679D01*
X114300488Y-129778679D02*
X114300488Y-133052912D01*
X114300488Y-133052912D02*
X116681748Y-135434172D01*
X116681748Y-135434172D02*
X116681748Y-138380294D01*
X116681748Y-138380294D02*
X118795803Y-140494349D01*
X109240310Y-104180132D02*
X115788775Y-104180132D01*
X108347337Y-103287159D02*
X109240310Y-104180132D01*
X220564222Y-98419146D02*
X220564222Y-103882474D01*
X220564222Y-103882474D02*
X219373592Y-105370762D01*
X219373592Y-105370762D02*
X219373592Y-119063008D01*
X209550894Y-129778679D02*
X209550894Y-132457596D01*
X212527469Y-126802104D02*
X209550894Y-129778679D01*
X212527469Y-119955981D02*
X212527469Y-126802104D01*
X213122784Y-119360666D02*
X212527469Y-119955981D01*
X219075935Y-119360666D02*
X213122784Y-119360666D01*
X219373592Y-119063008D02*
X219075935Y-119360666D01*
X209550894Y-132457596D02*
X212527469Y-135434172D01*
X212527469Y-135434172D02*
X212527469Y-140494349D01*
X212527469Y-140494349D02*
X217320442Y-140494349D01*
X133320117Y-140494349D02*
X133648226Y-140494349D01*
X133648226Y-140494349D02*
X135731829Y-142577952D01*
X131048678Y-146447500D02*
X130016788Y-147479390D01*
X134838857Y-146447500D02*
X131048678Y-146447500D01*
X135731829Y-145554528D02*
X134838857Y-146447500D01*
X135731829Y-142577952D02*
X135731829Y-145554528D01*
X150881910Y-140494349D02*
X153591280Y-140494349D01*
X155377225Y-144264705D02*
X158591910Y-147479390D01*
X155377225Y-142280294D02*
X155377225Y-144264705D01*
X153591280Y-140494349D02*
X155377225Y-142280294D01*
X169931992Y-140494349D02*
X172641361Y-140494349D01*
X174129649Y-143967047D02*
X177641992Y-147479390D01*
X174129649Y-141982637D02*
X174129649Y-143967047D01*
X172641361Y-140494349D02*
X174129649Y-141982637D01*
X204707114Y-72577627D02*
X202058648Y-72577627D01*
X202058648Y-72577627D02*
X200621168Y-71140147D01*
X200621168Y-71140147D02*
X200621168Y-66675284D01*
X200621168Y-66675284D02*
X199728196Y-65782312D01*
X199728196Y-65782312D02*
X186035950Y-65782312D01*
X186035950Y-65782312D02*
X185440635Y-66377627D01*
X185440635Y-66377627D02*
X185440635Y-90785543D01*
X185440635Y-90785543D02*
X183357032Y-92869146D01*
X220266565Y-137969309D02*
X220266565Y-139006062D01*
X220266565Y-139006062D02*
X220861880Y-139601377D01*
X220861880Y-139601377D02*
X220861880Y-158353801D01*
X220861880Y-158353801D02*
X220266565Y-158949116D01*
X220266565Y-158949116D02*
X144661555Y-158949116D01*
X144661555Y-158949116D02*
X143470925Y-157758486D01*
X143470925Y-157758486D02*
X143470925Y-85725365D01*
X143470925Y-85725365D02*
X144248814Y-84947476D01*
X144248814Y-84947476D02*
X147161910Y-84947476D01*
X147161910Y-87487476D02*
X144983047Y-87487476D01*
X144066240Y-88404283D02*
X144983047Y-87487476D01*
X144066240Y-157163171D02*
X144066240Y-88404283D01*
X144959212Y-158056143D02*
X144066240Y-157163171D01*
X147161910Y-90027476D02*
X145419622Y-90027476D01*
X144661555Y-90785543D02*
X145419622Y-90027476D01*
X144661555Y-99715269D02*
X144661555Y-90785543D01*
X147340472Y-102394186D02*
X144661555Y-99715269D01*
X146447500Y-157758485D02*
X147340472Y-156865513D01*
X147340472Y-156865513D02*
X147340472Y-102394186D01*
X146447500Y-158056143D02*
X146447500Y-157758485D01*
X162401910Y-82407476D02*
X164560952Y-82407476D01*
X165199924Y-83046448D02*
X164560952Y-82407476D01*
X165795239Y-103882474D02*
X165199924Y-103287159D01*
X165199924Y-103287159D02*
X165199924Y-83046448D01*
X166092896Y-122932556D02*
X165497581Y-122337241D01*
X165497581Y-122337241D02*
X165497581Y-119360666D01*
X165497581Y-119360666D02*
X165795239Y-119063008D01*
X165795239Y-119063008D02*
X165795239Y-103882474D01*
X162497171Y-79772215D02*
X165199924Y-79772215D01*
X166390554Y-118765350D02*
X166390554Y-119955981D01*
X166390554Y-118765350D02*
X166390554Y-118765350D01*
X165795239Y-80367530D02*
X165795239Y-102989501D01*
X165795239Y-102989501D02*
X166390554Y-103584816D01*
X166390554Y-103584816D02*
X166390554Y-118765350D01*
X165199924Y-79772215D02*
X165795239Y-80367530D01*
X162497171Y-79772215D02*
X162401910Y-79867476D01*
X220564222Y-123969309D02*
X220564222Y-121146611D01*
X165116623Y-72247476D02*
X162401910Y-72247476D01*
X166390554Y-73521407D02*
X165116623Y-72247476D01*
X167878841Y-104180132D02*
X166390554Y-102691844D01*
X166390554Y-102691844D02*
X166390554Y-73521407D01*
X127099761Y-75170600D02*
X128506788Y-76577627D01*
X127099761Y-66972942D02*
X127099761Y-75170600D01*
X128290391Y-65782312D02*
X127099761Y-66972942D01*
X145554527Y-65782312D02*
X128290391Y-65782312D01*
X146447500Y-66675284D02*
X145554527Y-65782312D01*
D21*
G36*
X117191443Y-65059997D02*
X118340693Y-65059997D01*
X118340693Y-65039997D01*
X118594693Y-65039997D01*
X118594693Y-65059997D01*
X119743943Y-65059997D01*
X119825190Y-64978750D01*
X220771250Y-64978750D01*
X220771250Y-85321706D01*
X220074633Y-85321706D01*
X218435131Y-83682204D01*
X218456625Y-83630441D01*
X218457123Y-83059563D01*
X218239118Y-82531950D01*
X217835798Y-82127926D01*
X217308566Y-81909000D01*
X216737688Y-81908502D01*
X216210075Y-82126507D01*
X215806051Y-82529827D01*
X215587125Y-83057059D01*
X215586627Y-83627937D01*
X215804632Y-84155550D01*
X216207952Y-84559574D01*
X216735184Y-84778500D01*
X217306062Y-84778998D01*
X217360024Y-84756701D01*
X217762073Y-85158750D01*
X212931250Y-85158750D01*
X212659545Y-85212796D01*
X212429204Y-85366704D01*
X212275296Y-85597045D01*
X212221250Y-85868750D01*
X212221250Y-86368750D01*
X212275296Y-86640455D01*
X212429204Y-86870796D01*
X212929204Y-87370796D01*
X213159545Y-87524704D01*
X213431250Y-87578750D01*
X217221250Y-87578750D01*
X217221250Y-89294667D01*
X216749721Y-88822314D01*
X216096468Y-88551059D01*
X215389136Y-88550442D01*
X214735410Y-88820556D01*
X214234814Y-89320279D01*
X213963559Y-89973532D01*
X213962942Y-90680864D01*
X214233056Y-91334590D01*
X214732779Y-91835186D01*
X215386032Y-92106441D01*
X215718758Y-92106731D01*
X215525608Y-92571889D01*
X215525092Y-93163017D01*
X215750830Y-93709345D01*
X216168456Y-94127701D01*
X216714389Y-94354392D01*
X217221250Y-94354834D01*
X217221250Y-98158750D01*
X213431250Y-98158750D01*
X213159545Y-98212796D01*
X212929204Y-98366704D01*
X212429204Y-98866704D01*
X212275296Y-99097045D01*
X212221250Y-99368750D01*
X212221250Y-99868750D01*
X212275296Y-100140455D01*
X212429204Y-100370796D01*
X212659545Y-100524704D01*
X212931250Y-100578750D01*
X218931250Y-100578750D01*
X219202955Y-100524704D01*
X219433296Y-100370796D01*
X219469518Y-100316586D01*
X219804222Y-100316586D01*
X219804222Y-103615880D01*
X219257522Y-104299256D01*
X219202955Y-104262796D01*
X218931250Y-104208750D01*
X212989812Y-104208750D01*
X212989812Y-103551965D01*
X213022004Y-103519829D01*
X213164650Y-103176301D01*
X213164974Y-102804335D01*
X213112929Y-102678374D01*
X215587536Y-102678374D01*
X215805541Y-103205987D01*
X216208861Y-103610011D01*
X216736093Y-103828937D01*
X217306971Y-103829435D01*
X217834584Y-103611430D01*
X218238608Y-103208110D01*
X218457534Y-102680878D01*
X218458032Y-102110000D01*
X218240027Y-101582387D01*
X217836707Y-101178363D01*
X217309475Y-100959437D01*
X216738597Y-100958939D01*
X216210984Y-101176944D01*
X215806960Y-101580264D01*
X215588034Y-102107496D01*
X215587536Y-102678374D01*
X213112929Y-102678374D01*
X213022929Y-102460559D01*
X212760139Y-102197310D01*
X212416611Y-102054664D01*
X212096839Y-102054385D01*
X212096839Y-96143379D01*
X212064081Y-95978694D01*
X212038987Y-95852539D01*
X211874240Y-95605978D01*
X211765768Y-95497506D01*
X212451876Y-95498105D01*
X213418457Y-95098722D01*
X214158623Y-94359846D01*
X214559692Y-93393965D01*
X214560605Y-92348124D01*
X214161222Y-91381543D01*
X213422346Y-90641377D01*
X212456465Y-90240308D01*
X211410624Y-90239395D01*
X210444043Y-90638778D01*
X210151250Y-90931061D01*
X210151250Y-89398523D01*
X210397090Y-89296944D01*
X210897686Y-88797221D01*
X211022389Y-88496904D01*
X211052581Y-88490898D01*
X211299143Y-88326151D01*
X211874240Y-87751054D01*
X212038987Y-87504492D01*
X212096839Y-87213653D01*
X212096839Y-77093298D01*
X212038987Y-76802459D01*
X212038987Y-76802458D01*
X211874240Y-76555897D01*
X211765849Y-76447506D01*
X212451876Y-76448105D01*
X213418457Y-76048722D01*
X214158623Y-75309846D01*
X214559692Y-74343965D01*
X214560605Y-73298124D01*
X214161222Y-72331543D01*
X213422346Y-71591377D01*
X212456465Y-71190308D01*
X211410624Y-71189395D01*
X210444043Y-71588778D01*
X210151250Y-71881061D01*
X210151250Y-70348523D01*
X210397090Y-70246944D01*
X210897686Y-69747221D01*
X211168941Y-69093968D01*
X211169558Y-68386636D01*
X211081229Y-68172863D01*
X211433296Y-67820796D01*
X211587204Y-67590455D01*
X211641250Y-67318750D01*
X211641250Y-66818750D01*
X212221250Y-66818750D01*
X212221250Y-67318750D01*
X212275296Y-67590455D01*
X212429204Y-67820796D01*
X212929204Y-68320796D01*
X213159545Y-68474704D01*
X213431250Y-68528750D01*
X217221250Y-68528750D01*
X217221250Y-70244667D01*
X216749721Y-69772314D01*
X216096468Y-69501059D01*
X215389136Y-69500442D01*
X214735410Y-69770556D01*
X214234814Y-70270279D01*
X213963559Y-70923532D01*
X213962942Y-71630864D01*
X214233056Y-72284590D01*
X214732779Y-72785186D01*
X215386032Y-73056441D01*
X215718758Y-73056731D01*
X215525608Y-73521889D01*
X215525092Y-74113017D01*
X215750830Y-74659345D01*
X216168456Y-75077701D01*
X216714389Y-75304392D01*
X217221250Y-75304834D01*
X217221250Y-79108750D01*
X213431250Y-79108750D01*
X213159545Y-79162796D01*
X212929204Y-79316704D01*
X212429204Y-79816704D01*
X212275296Y-80047045D01*
X212221250Y-80318750D01*
X212221250Y-80818750D01*
X212275296Y-81090455D01*
X212429204Y-81320796D01*
X212659545Y-81474704D01*
X212931250Y-81528750D01*
X218931250Y-81528750D01*
X219202955Y-81474704D01*
X219433296Y-81320796D01*
X219587204Y-81090455D01*
X219641250Y-80818750D01*
X219641250Y-74068750D01*
X219591521Y-73818750D01*
X219641250Y-73568750D01*
X219641250Y-66818750D01*
X219587204Y-66547045D01*
X219433296Y-66316704D01*
X219202955Y-66162796D01*
X218931250Y-66108750D01*
X212931250Y-66108750D01*
X212659545Y-66162796D01*
X212429204Y-66316704D01*
X212275296Y-66547045D01*
X212221250Y-66818750D01*
X211641250Y-66818750D01*
X211587204Y-66547045D01*
X211433296Y-66316704D01*
X211202955Y-66162796D01*
X210931250Y-66108750D01*
X204931250Y-66108750D01*
X204659545Y-66162796D01*
X204429204Y-66316704D01*
X204275296Y-66547045D01*
X204221250Y-66818750D01*
X204221250Y-68007239D01*
X204157963Y-68019828D01*
X203692416Y-68330897D01*
X203381347Y-68796444D01*
X203272114Y-69345595D01*
X203272114Y-69809659D01*
X203381347Y-70358810D01*
X203692416Y-70824357D01*
X204071461Y-71077627D01*
X203692416Y-71330897D01*
X203381347Y-71796444D01*
X203377133Y-71817627D01*
X202373450Y-71817627D01*
X201381168Y-70825345D01*
X201381168Y-68204944D01*
X201529172Y-68563142D01*
X201820068Y-68854546D01*
X202200337Y-69012447D01*
X202612085Y-69012806D01*
X202992629Y-68855569D01*
X203284033Y-68564673D01*
X203441934Y-68184404D01*
X203442293Y-67772656D01*
X203285056Y-67392112D01*
X202994160Y-67100708D01*
X202613891Y-66942807D01*
X202202143Y-66942448D01*
X201821599Y-67099685D01*
X201530195Y-67390581D01*
X201381168Y-67749479D01*
X201381168Y-66675284D01*
X201323316Y-66384445D01*
X201158569Y-66137883D01*
X200265597Y-65244911D01*
X200019035Y-65080164D01*
X199728196Y-65022312D01*
X186035950Y-65022312D01*
X185745111Y-65080164D01*
X185498549Y-65244911D01*
X184903234Y-65840226D01*
X184738487Y-66086788D01*
X184680635Y-66377627D01*
X184680635Y-66626428D01*
X184292154Y-66237947D01*
X184292194Y-66192460D01*
X184150149Y-65848684D01*
X183887359Y-65585435D01*
X183543831Y-65442789D01*
X183171865Y-65442465D01*
X182828089Y-65584510D01*
X182564840Y-65847300D01*
X182422194Y-66190828D01*
X182421870Y-66562794D01*
X182552929Y-66879982D01*
X181513173Y-65840226D01*
X181266611Y-65675479D01*
X180975772Y-65617627D01*
X174724964Y-65617627D01*
X174434125Y-65675479D01*
X174187563Y-65840226D01*
X173592248Y-66435541D01*
X173494210Y-66582266D01*
X173487204Y-66547045D01*
X173333296Y-66316704D01*
X173102955Y-66162796D01*
X172831250Y-66108750D01*
X166831250Y-66108750D01*
X166559545Y-66162796D01*
X166329204Y-66316704D01*
X166175296Y-66547045D01*
X166121250Y-66818750D01*
X166121250Y-72177301D01*
X165654024Y-71710075D01*
X165407462Y-71545328D01*
X165116623Y-71487476D01*
X163723113Y-71487476D01*
X163683875Y-71392512D01*
X163269212Y-70977125D01*
X163682381Y-70564676D01*
X163912947Y-70009411D01*
X163913472Y-69408179D01*
X163683875Y-68852512D01*
X163259110Y-68427005D01*
X162703845Y-68196439D01*
X162491250Y-68196253D01*
X162491250Y-66818750D01*
X162437204Y-66547045D01*
X162283296Y-66316704D01*
X162052955Y-66162796D01*
X161781250Y-66108750D01*
X155781250Y-66108750D01*
X155509545Y-66162796D01*
X155279204Y-66316704D01*
X155125296Y-66547045D01*
X155071250Y-66818750D01*
X155071250Y-67318750D01*
X155125296Y-67590455D01*
X155279204Y-67820796D01*
X155779204Y-68320796D01*
X156009545Y-68474704D01*
X156281250Y-68528750D01*
X160071250Y-68528750D01*
X160071250Y-70244667D01*
X159599721Y-69772314D01*
X158946468Y-69501059D01*
X158239136Y-69500442D01*
X157585410Y-69770556D01*
X157084814Y-70270279D01*
X156813559Y-70923532D01*
X156812942Y-71630864D01*
X157083056Y-72284590D01*
X157582779Y-72785186D01*
X158236032Y-73056441D01*
X158568758Y-73056731D01*
X158375608Y-73521889D01*
X158375092Y-74113017D01*
X158600830Y-74659345D01*
X159018456Y-75077701D01*
X159564389Y-75304392D01*
X160071250Y-75304834D01*
X160071250Y-79108750D01*
X159099068Y-79108750D01*
X159099558Y-78546636D01*
X158829444Y-77892910D01*
X158329721Y-77392314D01*
X157676468Y-77121059D01*
X156969136Y-77120442D01*
X156315410Y-77390556D01*
X155814814Y-77890279D01*
X155711640Y-78138750D01*
X154946595Y-78138750D01*
X154946595Y-76795640D01*
X154888743Y-76504801D01*
X154888743Y-76504800D01*
X154850597Y-76447711D01*
X155301876Y-76448105D01*
X156268457Y-76048722D01*
X157008623Y-75309846D01*
X157409692Y-74343965D01*
X157410605Y-73298124D01*
X157011222Y-72331543D01*
X156272346Y-71591377D01*
X155306465Y-71190308D01*
X154260624Y-71189395D01*
X153294043Y-71588778D01*
X153001250Y-71881061D01*
X153001250Y-70348523D01*
X153247090Y-70246944D01*
X153747686Y-69747221D01*
X154018941Y-69093968D01*
X154019558Y-68386636D01*
X153931229Y-68172863D01*
X154283296Y-67820796D01*
X154437204Y-67590455D01*
X154491250Y-67318750D01*
X154491250Y-66818750D01*
X154437204Y-66547045D01*
X154283296Y-66316704D01*
X154052955Y-66162796D01*
X153781250Y-66108750D01*
X147781250Y-66108750D01*
X147509545Y-66162796D01*
X147304128Y-66300050D01*
X147240617Y-66146341D01*
X146977827Y-65883092D01*
X146634299Y-65740446D01*
X146587423Y-65740405D01*
X146091928Y-65244911D01*
X145845366Y-65080164D01*
X145554527Y-65022312D01*
X128290391Y-65022312D01*
X127999552Y-65080164D01*
X127752990Y-65244911D01*
X126562360Y-66435541D01*
X126397613Y-66682103D01*
X126345767Y-66942748D01*
X126001817Y-66942448D01*
X125621273Y-67099685D01*
X125329869Y-67390581D01*
X125171968Y-67770850D01*
X125171609Y-68182598D01*
X125328846Y-68563142D01*
X125619742Y-68854546D01*
X126000011Y-69012447D01*
X126339761Y-69012743D01*
X126339761Y-73942743D01*
X126001817Y-73942448D01*
X125621273Y-74099685D01*
X125329869Y-74390581D01*
X125171968Y-74770850D01*
X125171609Y-75182598D01*
X125328846Y-75563142D01*
X125619742Y-75854546D01*
X126000011Y-76012447D01*
X126411759Y-76012806D01*
X126734013Y-75879654D01*
X127093052Y-76238693D01*
X127071788Y-76345595D01*
X127071788Y-76809659D01*
X127181021Y-77358810D01*
X127492090Y-77824357D01*
X127957637Y-78135426D01*
X128021250Y-78148079D01*
X128021250Y-78305757D01*
X125252760Y-78305757D01*
X125338722Y-78030513D01*
X125186259Y-77804627D01*
X124391250Y-77804627D01*
X124391250Y-77550627D01*
X125186259Y-77550627D01*
X125338722Y-77324741D01*
X125171216Y-76788401D01*
X124811212Y-76356990D01*
X124391250Y-76136919D01*
X124391250Y-74068750D01*
X124341521Y-73818750D01*
X124391250Y-73568750D01*
X124391250Y-66818750D01*
X124337204Y-66547045D01*
X124183296Y-66316704D01*
X123952955Y-66162796D01*
X123681250Y-66108750D01*
X119902693Y-66108750D01*
X119902693Y-65472747D01*
X119743943Y-65313997D01*
X118594693Y-65313997D01*
X118594693Y-65333997D01*
X118340693Y-65333997D01*
X118340693Y-65313997D01*
X117238249Y-65313997D01*
X117212075Y-65287777D01*
X116868547Y-65145131D01*
X116496581Y-65144807D01*
X116343243Y-65208165D01*
X116343243Y-64978750D01*
X117110196Y-64978750D01*
X117191443Y-65059997D01*
X117191443Y-65059997D01*
G37*
X117191443Y-65059997D02*
X118340693Y-65059997D01*
X118340693Y-65039997D01*
X118594693Y-65039997D01*
X118594693Y-65059997D01*
X119743943Y-65059997D01*
X119825190Y-64978750D01*
X220771250Y-64978750D01*
X220771250Y-85321706D01*
X220074633Y-85321706D01*
X218435131Y-83682204D01*
X218456625Y-83630441D01*
X218457123Y-83059563D01*
X218239118Y-82531950D01*
X217835798Y-82127926D01*
X217308566Y-81909000D01*
X216737688Y-81908502D01*
X216210075Y-82126507D01*
X215806051Y-82529827D01*
X215587125Y-83057059D01*
X215586627Y-83627937D01*
X215804632Y-84155550D01*
X216207952Y-84559574D01*
X216735184Y-84778500D01*
X217306062Y-84778998D01*
X217360024Y-84756701D01*
X217762073Y-85158750D01*
X212931250Y-85158750D01*
X212659545Y-85212796D01*
X212429204Y-85366704D01*
X212275296Y-85597045D01*
X212221250Y-85868750D01*
X212221250Y-86368750D01*
X212275296Y-86640455D01*
X212429204Y-86870796D01*
X212929204Y-87370796D01*
X213159545Y-87524704D01*
X213431250Y-87578750D01*
X217221250Y-87578750D01*
X217221250Y-89294667D01*
X216749721Y-88822314D01*
X216096468Y-88551059D01*
X215389136Y-88550442D01*
X214735410Y-88820556D01*
X214234814Y-89320279D01*
X213963559Y-89973532D01*
X213962942Y-90680864D01*
X214233056Y-91334590D01*
X214732779Y-91835186D01*
X215386032Y-92106441D01*
X215718758Y-92106731D01*
X215525608Y-92571889D01*
X215525092Y-93163017D01*
X215750830Y-93709345D01*
X216168456Y-94127701D01*
X216714389Y-94354392D01*
X217221250Y-94354834D01*
X217221250Y-98158750D01*
X213431250Y-98158750D01*
X213159545Y-98212796D01*
X212929204Y-98366704D01*
X212429204Y-98866704D01*
X212275296Y-99097045D01*
X212221250Y-99368750D01*
X212221250Y-99868750D01*
X212275296Y-100140455D01*
X212429204Y-100370796D01*
X212659545Y-100524704D01*
X212931250Y-100578750D01*
X218931250Y-100578750D01*
X219202955Y-100524704D01*
X219433296Y-100370796D01*
X219469518Y-100316586D01*
X219804222Y-100316586D01*
X219804222Y-103615880D01*
X219257522Y-104299256D01*
X219202955Y-104262796D01*
X218931250Y-104208750D01*
X212989812Y-104208750D01*
X212989812Y-103551965D01*
X213022004Y-103519829D01*
X213164650Y-103176301D01*
X213164974Y-102804335D01*
X213112929Y-102678374D01*
X215587536Y-102678374D01*
X215805541Y-103205987D01*
X216208861Y-103610011D01*
X216736093Y-103828937D01*
X217306971Y-103829435D01*
X217834584Y-103611430D01*
X218238608Y-103208110D01*
X218457534Y-102680878D01*
X218458032Y-102110000D01*
X218240027Y-101582387D01*
X217836707Y-101178363D01*
X217309475Y-100959437D01*
X216738597Y-100958939D01*
X216210984Y-101176944D01*
X215806960Y-101580264D01*
X215588034Y-102107496D01*
X215587536Y-102678374D01*
X213112929Y-102678374D01*
X213022929Y-102460559D01*
X212760139Y-102197310D01*
X212416611Y-102054664D01*
X212096839Y-102054385D01*
X212096839Y-96143379D01*
X212064081Y-95978694D01*
X212038987Y-95852539D01*
X211874240Y-95605978D01*
X211765768Y-95497506D01*
X212451876Y-95498105D01*
X213418457Y-95098722D01*
X214158623Y-94359846D01*
X214559692Y-93393965D01*
X214560605Y-92348124D01*
X214161222Y-91381543D01*
X213422346Y-90641377D01*
X212456465Y-90240308D01*
X211410624Y-90239395D01*
X210444043Y-90638778D01*
X210151250Y-90931061D01*
X210151250Y-89398523D01*
X210397090Y-89296944D01*
X210897686Y-88797221D01*
X211022389Y-88496904D01*
X211052581Y-88490898D01*
X211299143Y-88326151D01*
X211874240Y-87751054D01*
X212038987Y-87504492D01*
X212096839Y-87213653D01*
X212096839Y-77093298D01*
X212038987Y-76802459D01*
X212038987Y-76802458D01*
X211874240Y-76555897D01*
X211765849Y-76447506D01*
X212451876Y-76448105D01*
X213418457Y-76048722D01*
X214158623Y-75309846D01*
X214559692Y-74343965D01*
X214560605Y-73298124D01*
X214161222Y-72331543D01*
X213422346Y-71591377D01*
X212456465Y-71190308D01*
X211410624Y-71189395D01*
X210444043Y-71588778D01*
X210151250Y-71881061D01*
X210151250Y-70348523D01*
X210397090Y-70246944D01*
X210897686Y-69747221D01*
X211168941Y-69093968D01*
X211169558Y-68386636D01*
X211081229Y-68172863D01*
X211433296Y-67820796D01*
X211587204Y-67590455D01*
X211641250Y-67318750D01*
X211641250Y-66818750D01*
X212221250Y-66818750D01*
X212221250Y-67318750D01*
X212275296Y-67590455D01*
X212429204Y-67820796D01*
X212929204Y-68320796D01*
X213159545Y-68474704D01*
X213431250Y-68528750D01*
X217221250Y-68528750D01*
X217221250Y-70244667D01*
X216749721Y-69772314D01*
X216096468Y-69501059D01*
X215389136Y-69500442D01*
X214735410Y-69770556D01*
X214234814Y-70270279D01*
X213963559Y-70923532D01*
X213962942Y-71630864D01*
X214233056Y-72284590D01*
X214732779Y-72785186D01*
X215386032Y-73056441D01*
X215718758Y-73056731D01*
X215525608Y-73521889D01*
X215525092Y-74113017D01*
X215750830Y-74659345D01*
X216168456Y-75077701D01*
X216714389Y-75304392D01*
X217221250Y-75304834D01*
X217221250Y-79108750D01*
X213431250Y-79108750D01*
X213159545Y-79162796D01*
X212929204Y-79316704D01*
X212429204Y-79816704D01*
X212275296Y-80047045D01*
X212221250Y-80318750D01*
X212221250Y-80818750D01*
X212275296Y-81090455D01*
X212429204Y-81320796D01*
X212659545Y-81474704D01*
X212931250Y-81528750D01*
X218931250Y-81528750D01*
X219202955Y-81474704D01*
X219433296Y-81320796D01*
X219587204Y-81090455D01*
X219641250Y-80818750D01*
X219641250Y-74068750D01*
X219591521Y-73818750D01*
X219641250Y-73568750D01*
X219641250Y-66818750D01*
X219587204Y-66547045D01*
X219433296Y-66316704D01*
X219202955Y-66162796D01*
X218931250Y-66108750D01*
X212931250Y-66108750D01*
X212659545Y-66162796D01*
X212429204Y-66316704D01*
X212275296Y-66547045D01*
X212221250Y-66818750D01*
X211641250Y-66818750D01*
X211587204Y-66547045D01*
X211433296Y-66316704D01*
X211202955Y-66162796D01*
X210931250Y-66108750D01*
X204931250Y-66108750D01*
X204659545Y-66162796D01*
X204429204Y-66316704D01*
X204275296Y-66547045D01*
X204221250Y-66818750D01*
X204221250Y-68007239D01*
X204157963Y-68019828D01*
X203692416Y-68330897D01*
X203381347Y-68796444D01*
X203272114Y-69345595D01*
X203272114Y-69809659D01*
X203381347Y-70358810D01*
X203692416Y-70824357D01*
X204071461Y-71077627D01*
X203692416Y-71330897D01*
X203381347Y-71796444D01*
X203377133Y-71817627D01*
X202373450Y-71817627D01*
X201381168Y-70825345D01*
X201381168Y-68204944D01*
X201529172Y-68563142D01*
X201820068Y-68854546D01*
X202200337Y-69012447D01*
X202612085Y-69012806D01*
X202992629Y-68855569D01*
X203284033Y-68564673D01*
X203441934Y-68184404D01*
X203442293Y-67772656D01*
X203285056Y-67392112D01*
X202994160Y-67100708D01*
X202613891Y-66942807D01*
X202202143Y-66942448D01*
X201821599Y-67099685D01*
X201530195Y-67390581D01*
X201381168Y-67749479D01*
X201381168Y-66675284D01*
X201323316Y-66384445D01*
X201158569Y-66137883D01*
X200265597Y-65244911D01*
X200019035Y-65080164D01*
X199728196Y-65022312D01*
X186035950Y-65022312D01*
X185745111Y-65080164D01*
X185498549Y-65244911D01*
X184903234Y-65840226D01*
X184738487Y-66086788D01*
X184680635Y-66377627D01*
X184680635Y-66626428D01*
X184292154Y-66237947D01*
X184292194Y-66192460D01*
X184150149Y-65848684D01*
X183887359Y-65585435D01*
X183543831Y-65442789D01*
X183171865Y-65442465D01*
X182828089Y-65584510D01*
X182564840Y-65847300D01*
X182422194Y-66190828D01*
X182421870Y-66562794D01*
X182552929Y-66879982D01*
X181513173Y-65840226D01*
X181266611Y-65675479D01*
X180975772Y-65617627D01*
X174724964Y-65617627D01*
X174434125Y-65675479D01*
X174187563Y-65840226D01*
X173592248Y-66435541D01*
X173494210Y-66582266D01*
X173487204Y-66547045D01*
X173333296Y-66316704D01*
X173102955Y-66162796D01*
X172831250Y-66108750D01*
X166831250Y-66108750D01*
X166559545Y-66162796D01*
X166329204Y-66316704D01*
X166175296Y-66547045D01*
X166121250Y-66818750D01*
X166121250Y-72177301D01*
X165654024Y-71710075D01*
X165407462Y-71545328D01*
X165116623Y-71487476D01*
X163723113Y-71487476D01*
X163683875Y-71392512D01*
X163269212Y-70977125D01*
X163682381Y-70564676D01*
X163912947Y-70009411D01*
X163913472Y-69408179D01*
X163683875Y-68852512D01*
X163259110Y-68427005D01*
X162703845Y-68196439D01*
X162491250Y-68196253D01*
X162491250Y-66818750D01*
X162437204Y-66547045D01*
X162283296Y-66316704D01*
X162052955Y-66162796D01*
X161781250Y-66108750D01*
X155781250Y-66108750D01*
X155509545Y-66162796D01*
X155279204Y-66316704D01*
X155125296Y-66547045D01*
X155071250Y-66818750D01*
X155071250Y-67318750D01*
X155125296Y-67590455D01*
X155279204Y-67820796D01*
X155779204Y-68320796D01*
X156009545Y-68474704D01*
X156281250Y-68528750D01*
X160071250Y-68528750D01*
X160071250Y-70244667D01*
X159599721Y-69772314D01*
X158946468Y-69501059D01*
X158239136Y-69500442D01*
X157585410Y-69770556D01*
X157084814Y-70270279D01*
X156813559Y-70923532D01*
X156812942Y-71630864D01*
X157083056Y-72284590D01*
X157582779Y-72785186D01*
X158236032Y-73056441D01*
X158568758Y-73056731D01*
X158375608Y-73521889D01*
X158375092Y-74113017D01*
X158600830Y-74659345D01*
X159018456Y-75077701D01*
X159564389Y-75304392D01*
X160071250Y-75304834D01*
X160071250Y-79108750D01*
X159099068Y-79108750D01*
X159099558Y-78546636D01*
X158829444Y-77892910D01*
X158329721Y-77392314D01*
X157676468Y-77121059D01*
X156969136Y-77120442D01*
X156315410Y-77390556D01*
X155814814Y-77890279D01*
X155711640Y-78138750D01*
X154946595Y-78138750D01*
X154946595Y-76795640D01*
X154888743Y-76504801D01*
X154888743Y-76504800D01*
X154850597Y-76447711D01*
X155301876Y-76448105D01*
X156268457Y-76048722D01*
X157008623Y-75309846D01*
X157409692Y-74343965D01*
X157410605Y-73298124D01*
X157011222Y-72331543D01*
X156272346Y-71591377D01*
X155306465Y-71190308D01*
X154260624Y-71189395D01*
X153294043Y-71588778D01*
X153001250Y-71881061D01*
X153001250Y-70348523D01*
X153247090Y-70246944D01*
X153747686Y-69747221D01*
X154018941Y-69093968D01*
X154019558Y-68386636D01*
X153931229Y-68172863D01*
X154283296Y-67820796D01*
X154437204Y-67590455D01*
X154491250Y-67318750D01*
X154491250Y-66818750D01*
X154437204Y-66547045D01*
X154283296Y-66316704D01*
X154052955Y-66162796D01*
X153781250Y-66108750D01*
X147781250Y-66108750D01*
X147509545Y-66162796D01*
X147304128Y-66300050D01*
X147240617Y-66146341D01*
X146977827Y-65883092D01*
X146634299Y-65740446D01*
X146587423Y-65740405D01*
X146091928Y-65244911D01*
X145845366Y-65080164D01*
X145554527Y-65022312D01*
X128290391Y-65022312D01*
X127999552Y-65080164D01*
X127752990Y-65244911D01*
X126562360Y-66435541D01*
X126397613Y-66682103D01*
X126345767Y-66942748D01*
X126001817Y-66942448D01*
X125621273Y-67099685D01*
X125329869Y-67390581D01*
X125171968Y-67770850D01*
X125171609Y-68182598D01*
X125328846Y-68563142D01*
X125619742Y-68854546D01*
X126000011Y-69012447D01*
X126339761Y-69012743D01*
X126339761Y-73942743D01*
X126001817Y-73942448D01*
X125621273Y-74099685D01*
X125329869Y-74390581D01*
X125171968Y-74770850D01*
X125171609Y-75182598D01*
X125328846Y-75563142D01*
X125619742Y-75854546D01*
X126000011Y-76012447D01*
X126411759Y-76012806D01*
X126734013Y-75879654D01*
X127093052Y-76238693D01*
X127071788Y-76345595D01*
X127071788Y-76809659D01*
X127181021Y-77358810D01*
X127492090Y-77824357D01*
X127957637Y-78135426D01*
X128021250Y-78148079D01*
X128021250Y-78305757D01*
X125252760Y-78305757D01*
X125338722Y-78030513D01*
X125186259Y-77804627D01*
X124391250Y-77804627D01*
X124391250Y-77550627D01*
X125186259Y-77550627D01*
X125338722Y-77324741D01*
X125171216Y-76788401D01*
X124811212Y-76356990D01*
X124391250Y-76136919D01*
X124391250Y-74068750D01*
X124341521Y-73818750D01*
X124391250Y-73568750D01*
X124391250Y-66818750D01*
X124337204Y-66547045D01*
X124183296Y-66316704D01*
X123952955Y-66162796D01*
X123681250Y-66108750D01*
X119902693Y-66108750D01*
X119902693Y-65472747D01*
X119743943Y-65313997D01*
X118594693Y-65313997D01*
X118594693Y-65333997D01*
X118340693Y-65333997D01*
X118340693Y-65313997D01*
X117238249Y-65313997D01*
X117212075Y-65287777D01*
X116868547Y-65145131D01*
X116496581Y-65144807D01*
X116343243Y-65208165D01*
X116343243Y-64978750D01*
X117110196Y-64978750D01*
X117191443Y-65059997D01*
G36*
X145512378Y-66814965D02*
X145512338Y-66860451D01*
X145654383Y-67204227D01*
X145917173Y-67467476D01*
X146260701Y-67610122D01*
X146632667Y-67610446D01*
X146976443Y-67468401D01*
X147071250Y-67373759D01*
X147071250Y-68183736D01*
X146285610Y-68183736D01*
X146050293Y-68228014D01*
X145834169Y-68367086D01*
X145689179Y-68579286D01*
X145638170Y-68831176D01*
X145638170Y-70583776D01*
X145682448Y-70819093D01*
X145821520Y-71035217D01*
X146033720Y-71180207D01*
X146050190Y-71183542D01*
X145984279Y-71249453D01*
X146098907Y-71364081D01*
X145844883Y-71447580D01*
X145639028Y-72012473D01*
X145665019Y-72613144D01*
X145844883Y-73047372D01*
X146098909Y-73130872D01*
X146982305Y-72247476D01*
X146968163Y-72233334D01*
X147071250Y-72130246D01*
X147071250Y-72517741D01*
X146278514Y-73310477D01*
X146338357Y-73492532D01*
X146306946Y-73505511D01*
X145881439Y-73930276D01*
X145841078Y-74027476D01*
X144826240Y-74027476D01*
X144826240Y-67237747D01*
X144858432Y-67205611D01*
X145001078Y-66862083D01*
X145001357Y-66542312D01*
X145239725Y-66542312D01*
X145512378Y-66814965D01*
X145512378Y-66814965D01*
G37*
X145512378Y-66814965D02*
X145512338Y-66860451D01*
X145654383Y-67204227D01*
X145917173Y-67467476D01*
X146260701Y-67610122D01*
X146632667Y-67610446D01*
X146976443Y-67468401D01*
X147071250Y-67373759D01*
X147071250Y-68183736D01*
X146285610Y-68183736D01*
X146050293Y-68228014D01*
X145834169Y-68367086D01*
X145689179Y-68579286D01*
X145638170Y-68831176D01*
X145638170Y-70583776D01*
X145682448Y-70819093D01*
X145821520Y-71035217D01*
X146033720Y-71180207D01*
X146050190Y-71183542D01*
X145984279Y-71249453D01*
X146098907Y-71364081D01*
X145844883Y-71447580D01*
X145639028Y-72012473D01*
X145665019Y-72613144D01*
X145844883Y-73047372D01*
X146098909Y-73130872D01*
X146982305Y-72247476D01*
X146968163Y-72233334D01*
X147071250Y-72130246D01*
X147071250Y-72517741D01*
X146278514Y-73310477D01*
X146338357Y-73492532D01*
X146306946Y-73505511D01*
X145881439Y-73930276D01*
X145841078Y-74027476D01*
X144826240Y-74027476D01*
X144826240Y-67237747D01*
X144858432Y-67205611D01*
X145001078Y-66862083D01*
X145001357Y-66542312D01*
X145239725Y-66542312D01*
X145512378Y-66814965D01*
M02*
