G04 #@! TF.FileFunction,Copper,L2,Bot,Signal*
%FSLAX46Y46*%
G04 Gerber Fmt 4.6, Leading zero omitted, Abs format (unit mm)*
G04 Created by KiCad (PCBNEW 4.0.7-e2-6376~58~ubuntu16.04.1) date Sun Mar 18 12:17:23 2018*
%MOMM*%
%LPD*%
G01*
G04 APERTURE LIST*
%ADD10C,0.100000*%
%ADD11C,2.286000*%
%ADD12C,1.752600*%
%ADD13R,1.752600X1.752600*%
%ADD14C,4.400000*%
%ADD15R,1.600000X1.600000*%
%ADD16C,1.600000*%
%ADD17O,1.600000X1.600000*%
%ADD18R,1.600200X1.600200*%
%ADD19C,1.600200*%
%ADD20C,0.600000*%
%ADD21C,0.250000*%
G04 APERTURE END LIST*
D10*
D11*
X114141748Y-144939390D03*
X120491748Y-147479390D03*
X190342073Y-144939390D03*
X196692073Y-147479390D03*
D12*
X183159375Y-95929324D03*
X183159375Y-89976174D03*
D13*
X147161910Y-69707476D03*
D12*
X147161910Y-72247476D03*
X147161910Y-74787476D03*
X147161910Y-77327476D03*
X147161910Y-79867476D03*
X147161910Y-82407476D03*
X147161910Y-84947476D03*
X147161910Y-87487476D03*
X147161910Y-90027476D03*
X147161910Y-92567476D03*
X147161910Y-95107476D03*
X147161910Y-97647476D03*
X162401910Y-97647476D03*
X162401910Y-95107476D03*
X162401910Y-92567476D03*
X162401910Y-90027476D03*
X162401910Y-87487476D03*
X162401910Y-84947476D03*
X162401910Y-82407476D03*
X162401910Y-79867476D03*
X162401910Y-77327476D03*
X162401910Y-74787476D03*
X162401910Y-72247476D03*
X162401910Y-69707476D03*
D14*
X126206250Y-83343750D03*
X126206788Y-140494349D03*
X202407114Y-140494349D03*
X202406250Y-83343750D03*
X126206788Y-121444268D03*
X202407114Y-121444267D03*
D15*
X111590625Y-121443750D03*
D16*
X119390625Y-121443750D03*
D15*
X111590625Y-83343750D03*
D16*
X119390625Y-83343750D03*
D15*
X133021875Y-83343750D03*
D16*
X140821875Y-83343750D03*
D15*
X169931250Y-83343750D03*
D16*
X177731250Y-83343750D03*
D15*
X183357032Y-72002668D03*
D16*
X183357032Y-79802668D03*
D15*
X187790625Y-83343750D03*
D16*
X195590625Y-83343750D03*
D15*
X209221875Y-83343750D03*
D16*
X217021875Y-83343750D03*
D15*
X111590625Y-102393750D03*
D16*
X119390625Y-102393750D03*
D15*
X126206788Y-91052749D03*
D16*
X126206788Y-98852749D03*
D15*
X164306951Y-105935625D03*
D16*
X164306951Y-113735625D03*
D15*
X183357032Y-105935625D03*
D16*
X183357032Y-113735625D03*
D15*
X202407114Y-91052749D03*
D16*
X202407114Y-98852749D03*
D15*
X209222784Y-102394187D03*
D16*
X217022784Y-102394187D03*
D15*
X126206788Y-105935625D03*
D16*
X126206788Y-113735625D03*
D15*
X145256870Y-105935625D03*
D16*
X145256870Y-113735625D03*
D15*
X150881250Y-121443750D03*
D16*
X158681250Y-121443750D03*
D15*
X169931250Y-121443750D03*
D16*
X177731250Y-121443750D03*
D15*
X187790625Y-121443750D03*
D16*
X195590625Y-121443750D03*
D15*
X202407114Y-105935625D03*
D16*
X202407114Y-113735625D03*
D15*
X133022459Y-121444268D03*
D16*
X140822459Y-121444268D03*
D15*
X145256870Y-124985706D03*
D16*
X145256870Y-132785706D03*
D15*
X164306951Y-124985706D03*
D16*
X164306951Y-132785706D03*
D15*
X183357032Y-124985706D03*
D16*
X183357032Y-132785706D03*
D15*
X209222784Y-121444268D03*
D16*
X217022784Y-121444268D03*
D15*
X110995803Y-140494349D03*
D16*
X118795803Y-140494349D03*
D15*
X150881910Y-140494349D03*
D16*
X158681910Y-140494349D03*
D15*
X169931992Y-140494349D03*
D16*
X177731992Y-140494349D03*
D15*
X187493785Y-140494349D03*
D16*
X195293785Y-140494349D03*
D15*
X209520442Y-140494349D03*
D16*
X217320442Y-140494349D03*
D15*
X133320117Y-140494349D03*
D16*
X141120117Y-140494349D03*
X145256870Y-144959212D03*
D17*
X145256870Y-155119212D03*
D16*
X183357032Y-144959212D03*
D17*
X183357032Y-155119212D03*
D18*
X213202154Y-155099390D03*
D19*
X210662154Y-155099390D03*
D18*
X203677114Y-155099390D03*
D19*
X201137114Y-155099390D03*
D18*
X194152073Y-155099390D03*
D19*
X191612073Y-155099390D03*
D18*
X175101992Y-155099390D03*
D19*
X172561992Y-155099390D03*
D18*
X117951748Y-155099390D03*
D19*
X115411748Y-155099390D03*
D18*
X127476788Y-155099390D03*
D19*
X124936788Y-155099390D03*
D18*
X137001829Y-155099390D03*
D19*
X134461829Y-155099390D03*
D18*
X156051910Y-155099390D03*
D19*
X153511910Y-155099390D03*
D11*
X209391250Y-87788750D03*
X215741250Y-90328750D03*
X152241250Y-125888750D03*
X158591250Y-128428750D03*
X209391250Y-125888750D03*
X215741250Y-128428750D03*
X157321250Y-78898750D03*
X150971250Y-76358750D03*
X171291250Y-68738750D03*
X177641250Y-71278750D03*
X114141250Y-87788750D03*
X120491250Y-90328750D03*
X133191250Y-87788750D03*
X139541250Y-90328750D03*
X152241250Y-87788750D03*
X158591250Y-90328750D03*
X190341250Y-87788750D03*
X196691250Y-90328750D03*
X114141250Y-106838750D03*
X120491250Y-109378750D03*
X133191250Y-106838750D03*
X139541250Y-109378750D03*
X152241250Y-106838750D03*
X158591250Y-109378750D03*
X190341250Y-106838750D03*
X196691250Y-109378750D03*
X209391250Y-106838750D03*
X215741250Y-109378750D03*
X190341250Y-125888750D03*
X196691250Y-128428750D03*
X133191250Y-125888750D03*
X139541250Y-128428750D03*
X114141250Y-125888750D03*
X120491250Y-128428750D03*
X171291250Y-87788750D03*
X177641250Y-90328750D03*
X171291250Y-106838750D03*
X177641250Y-109378750D03*
X171291250Y-125888750D03*
X177641250Y-128428750D03*
X152241910Y-144939390D03*
X158591910Y-147479390D03*
X171291992Y-144939390D03*
X177641992Y-147479390D03*
X190341250Y-68738750D03*
X196691250Y-71278750D03*
X114141250Y-68738750D03*
X120491250Y-71278750D03*
X133191250Y-68738750D03*
X139541250Y-71278750D03*
X209391250Y-68738750D03*
X215741250Y-71278750D03*
X215742114Y-147479390D03*
X209392114Y-144939390D03*
X199867114Y-144939390D03*
X206217114Y-147479390D03*
X139541788Y-147479390D03*
X133191788Y-144939390D03*
X123666788Y-144939390D03*
X130016788Y-147479390D03*
D20*
X126206788Y-103287159D03*
X164009294Y-104180132D03*
X164009294Y-100310584D03*
X155079568Y-100310584D03*
X155079568Y-104477790D03*
X163711636Y-123527871D03*
X181868745Y-119658323D03*
X163711636Y-119658323D03*
X144066240Y-82748791D03*
X145852185Y-66377627D03*
X127397419Y-73819065D03*
X203895401Y-75009695D03*
X173400000Y-141400000D03*
X173641362Y-102691844D03*
X192600000Y-102200000D03*
X113600000Y-65600000D03*
X126257754Y-65575000D03*
X200621168Y-102096529D03*
X162521006Y-139303719D03*
X193800000Y-146200000D03*
X202704771Y-65782312D03*
X165795239Y-68461230D03*
X128290391Y-67270600D03*
X172939019Y-84832393D03*
X163413978Y-67270600D03*
X219671250Y-103584817D03*
X116679405Y-157758486D03*
X108942652Y-103584817D03*
X165199924Y-87511311D03*
X165795239Y-103287159D03*
D21*
X193000000Y-84800000D02*
X193000000Y-89200000D01*
X193000000Y-89200000D02*
X195263333Y-91380859D01*
X195263333Y-91380859D02*
X195263333Y-94655091D01*
X193200000Y-100000000D02*
X193868018Y-100608242D01*
X195263333Y-94655091D02*
X193200000Y-96800000D01*
X193200000Y-96800000D02*
X193200000Y-100000000D01*
X195590625Y-83343750D02*
X194400000Y-83400000D01*
X194400000Y-83400000D02*
X193029641Y-84799638D01*
X218777921Y-83343750D02*
X217021875Y-83343750D01*
X193868018Y-100608242D02*
X200323511Y-100608242D01*
X200323511Y-100608242D02*
X200918826Y-100012927D01*
X200918826Y-100012927D02*
X200918826Y-97631667D01*
X200918826Y-97631667D02*
X201514141Y-97036352D01*
X201514141Y-97036352D02*
X203300086Y-97036352D01*
X203300086Y-97036352D02*
X203895401Y-97631667D01*
X203895401Y-97631667D02*
X203895401Y-100012927D01*
X203895401Y-100012927D02*
X204490716Y-100608242D01*
X204490716Y-100608242D02*
X219075935Y-100608242D01*
X219075935Y-100608242D02*
X219671250Y-100012927D01*
X219671250Y-100012927D02*
X219671250Y-84237079D01*
X219671250Y-84237079D02*
X218777921Y-83343750D01*
X140821875Y-83343750D02*
X141089664Y-83641763D01*
X141089664Y-83641763D02*
X144066240Y-83641763D01*
X117250000Y-85500000D02*
X119390625Y-83343750D01*
X117250000Y-89500000D02*
X117250000Y-85500000D01*
X119360666Y-91630860D02*
X117250000Y-89500000D01*
X119360666Y-95452749D02*
X119360666Y-91630860D01*
X117000000Y-97750000D02*
X119360666Y-95452749D01*
X117000000Y-100000000D02*
X117000000Y-97750000D01*
X117600000Y-100600000D02*
X117000000Y-100000000D01*
X127397418Y-100608242D02*
X117600000Y-100600000D01*
X127992734Y-101203557D02*
X127397418Y-100608242D01*
X143470925Y-101203557D02*
X127992734Y-101203557D01*
X144066240Y-100608242D02*
X143470925Y-101203557D01*
X144066240Y-83641763D02*
X144066240Y-100608242D01*
X140821875Y-83343750D02*
X140791651Y-83343750D01*
X149241501Y-84947476D02*
X162401910Y-84947476D01*
X147935788Y-83641763D02*
X149241501Y-84947476D01*
X141089664Y-83641763D02*
X147935788Y-83641763D01*
X140791651Y-83343750D02*
X141089664Y-83641763D01*
X177731250Y-83343750D02*
X177731250Y-83343744D01*
X177731250Y-83343744D02*
X177700781Y-83343744D01*
X119390625Y-83015626D02*
X119390625Y-83343750D01*
X183356251Y-83343744D02*
X184800000Y-84800000D01*
X184800000Y-84800000D02*
X193000000Y-84800000D01*
X193000000Y-84800000D02*
X193029641Y-84799638D01*
X183356250Y-81855469D02*
X183357032Y-79802668D01*
X183356251Y-83343744D02*
X183356250Y-81855469D01*
X164603906Y-84832031D02*
X171153074Y-84832031D01*
X171153074Y-84832031D02*
X172641362Y-83344106D01*
X172641362Y-83344106D02*
X177700781Y-83343744D01*
X177700781Y-83343744D02*
X183356251Y-83343744D01*
X162521006Y-84832393D02*
X164603906Y-84832031D01*
X120491250Y-71278750D02*
X120551296Y-76795640D01*
X114002830Y-83344106D02*
X111590625Y-83343750D01*
X120551296Y-76795640D02*
X114002830Y-83344106D01*
X139541250Y-71278750D02*
X139541250Y-76824375D01*
X139541250Y-76824375D02*
X133021875Y-83343750D01*
X169633237Y-83641763D02*
X156054263Y-83641763D01*
X156054263Y-83641763D02*
X154800000Y-82464660D01*
X154800000Y-82464660D02*
X154800000Y-80200000D01*
X154800000Y-80200000D02*
X150971250Y-76358750D01*
X169633237Y-83641763D02*
X169931250Y-83343750D01*
X183357032Y-72002668D02*
X183357032Y-68461229D01*
X174000000Y-69600000D02*
X175600000Y-71200000D01*
X175600000Y-71200000D02*
X177641250Y-71278750D01*
X174000000Y-66800000D02*
X174000000Y-69600000D01*
X174817937Y-66079969D02*
X174000000Y-66800000D01*
X180975772Y-66079969D02*
X174817937Y-66079969D01*
X183357032Y-68461229D02*
X180975772Y-66079969D01*
X196691250Y-71278750D02*
X196691250Y-76558354D01*
X189905854Y-83343750D02*
X187790625Y-83343750D01*
X196691250Y-76558354D02*
X189905854Y-83343750D01*
X163413977Y-103584817D02*
X144066239Y-103584817D01*
X144066239Y-103584817D02*
X143470924Y-102989502D01*
X143470924Y-102989502D02*
X126504446Y-102989502D01*
X126504446Y-102989502D02*
X126206788Y-103287159D01*
X163413977Y-103584817D02*
X164009294Y-104180132D01*
X183357032Y-113735625D02*
X183357032Y-113705172D01*
X180975772Y-104180132D02*
X165795239Y-104180132D01*
X181868745Y-105073105D02*
X180975772Y-104180132D01*
X181868745Y-112216885D02*
X181868745Y-105073105D01*
X183357032Y-113705172D02*
X181868745Y-112216885D01*
X164009294Y-104180132D02*
X164009294Y-104180133D01*
X164009294Y-104180133D02*
X164604609Y-104180132D01*
X164604609Y-104180132D02*
X165795239Y-104180132D01*
X165795239Y-112216885D02*
X164306951Y-113735625D01*
X165795239Y-104180132D02*
X165795239Y-112216885D01*
X202406250Y-101203125D02*
X193570361Y-101203557D01*
X164306951Y-100608242D02*
X164009294Y-100310584D01*
X166688212Y-100608241D02*
X164306951Y-100608242D01*
X192975046Y-100608091D02*
X166688212Y-100608242D01*
X193570360Y-101203557D02*
X192975046Y-100608091D01*
X193570361Y-101203557D02*
X193570360Y-101203557D01*
X166688212Y-100608242D02*
X166688212Y-100608241D01*
X202407114Y-98852749D02*
X202406250Y-101203125D01*
X217022784Y-102394187D02*
X217022784Y-102661375D01*
X217022784Y-102661375D02*
X215504044Y-101203557D01*
X215504044Y-101203557D02*
X203597744Y-101203164D01*
X203597744Y-101203164D02*
X202406250Y-101203125D01*
X139541250Y-90328750D02*
X139600000Y-94200000D01*
X127695076Y-92571489D02*
X126206788Y-91052749D01*
X127695076Y-100012927D02*
X127695076Y-92571489D01*
X128290391Y-100608242D02*
X127695076Y-100012927D01*
X135000000Y-100600000D02*
X128290391Y-100608242D01*
X139600000Y-94200000D02*
X136000000Y-97800000D01*
X136000000Y-97800000D02*
X136000000Y-99600000D01*
X136000000Y-99600000D02*
X135000000Y-100600000D01*
X162401910Y-92567476D02*
X162814651Y-92567476D01*
X162814651Y-92567476D02*
X163711636Y-93464461D01*
X163711636Y-93464461D02*
X163711636Y-99119954D01*
X163711636Y-99119954D02*
X162223348Y-100608242D01*
X162223348Y-100608242D02*
X155377225Y-100608242D01*
X155377225Y-100608242D02*
X155079568Y-100310584D01*
X155079568Y-104477790D02*
X154781910Y-104180132D01*
X154781910Y-104180132D02*
X147042815Y-104180132D01*
X158651458Y-122634898D02*
X153591280Y-122634898D01*
X153591280Y-122634898D02*
X147637605Y-122634373D01*
X147042815Y-122039583D02*
X147042815Y-113705173D01*
X147637605Y-122634373D02*
X147042815Y-122039583D01*
X126206788Y-113735625D02*
X127396873Y-112811721D01*
X127396873Y-112811721D02*
X127397419Y-104477790D01*
X147042815Y-104180132D02*
X147042815Y-113705173D01*
X128290391Y-103584817D02*
X143173268Y-103584817D01*
X143173268Y-103584817D02*
X143768583Y-104180132D01*
X143768583Y-104180132D02*
X147042815Y-104180132D01*
X127397419Y-104477790D02*
X128290391Y-103584817D01*
X145256870Y-113735625D02*
X147042815Y-113735625D01*
X147042815Y-113735625D02*
X147043428Y-113735012D01*
X147043428Y-113735012D02*
X147043428Y-113705173D01*
X147043428Y-113705173D02*
X147042815Y-113705173D01*
X202407114Y-113735625D02*
X202406250Y-111918750D01*
X185142188Y-104775000D02*
X185142188Y-122634373D01*
X185737500Y-104179688D02*
X185142188Y-104775000D01*
X200025000Y-104179688D02*
X185737500Y-104179688D01*
X200620313Y-104775000D02*
X200025000Y-104179688D01*
X200620313Y-110132813D02*
X200620313Y-104775000D01*
X202406250Y-111918750D02*
X200620313Y-110132813D01*
X177731250Y-121443750D02*
X177700781Y-121443750D01*
X177700781Y-121443750D02*
X177700781Y-122634373D01*
X194965676Y-122634898D02*
X195560991Y-122039583D01*
X195560991Y-122039583D02*
X195590625Y-121443750D01*
X177700781Y-122634373D02*
X185142188Y-122634373D01*
X185142188Y-122634373D02*
X194965676Y-122634898D01*
X158681250Y-121443750D02*
X158650781Y-121443750D01*
X158650781Y-121443750D02*
X158651458Y-122634898D01*
X177700781Y-122634373D02*
X177731250Y-121443750D01*
X158651458Y-122634898D02*
X158681250Y-121443750D01*
X158651458Y-122634898D02*
X167283526Y-122634898D01*
X167283526Y-122634898D02*
X167283526Y-122634872D01*
X167283526Y-122634872D02*
X167283527Y-122634898D01*
X167283527Y-122634898D02*
X177700781Y-122634373D01*
X158591250Y-109378750D02*
X158591250Y-114658353D01*
X151805853Y-121443750D02*
X150881250Y-121443750D01*
X158591250Y-114658353D02*
X151805853Y-121443750D01*
X196691250Y-109378750D02*
X196691250Y-114658516D01*
X189906016Y-121443750D02*
X187790625Y-121443750D01*
X196691250Y-114658516D02*
X189906016Y-121443750D01*
X163413978Y-123230213D02*
X143470925Y-123230213D01*
X163711636Y-123527871D02*
X163413978Y-123230213D01*
X218778278Y-121444268D02*
X219671250Y-120551296D01*
X218778278Y-121444268D02*
X217022784Y-121444268D01*
X181868745Y-119658323D02*
X163711636Y-119658323D01*
X183952347Y-119658323D02*
X181868745Y-119658323D01*
X184547662Y-119063008D02*
X183952347Y-119658323D01*
X184547662Y-104477790D02*
X184547662Y-119063008D01*
X185440635Y-103584817D02*
X184547662Y-104477790D01*
X200323511Y-103584817D02*
X185440635Y-103584817D01*
X200918826Y-104180132D02*
X200323511Y-103584817D01*
X219075935Y-104180132D02*
X200918826Y-104180132D01*
X219671250Y-104775447D02*
X219075935Y-104180132D01*
X219671250Y-120551296D02*
X219671250Y-104775447D01*
X119390625Y-121443750D02*
X119360147Y-121443750D01*
X119360147Y-121443750D02*
X117574720Y-119658323D01*
X117574720Y-119658323D02*
X109537967Y-119658323D01*
X109537967Y-119658323D02*
X108942652Y-119063008D01*
X108942652Y-119063008D02*
X108942652Y-104775447D01*
X108942652Y-104775447D02*
X109537967Y-104180132D01*
X109537967Y-104180132D02*
X123825528Y-104180132D01*
X123825528Y-104180132D02*
X124420843Y-104775447D01*
X124420843Y-104775447D02*
X124420843Y-114895803D01*
X124420843Y-114895803D02*
X125016158Y-115491118D01*
X125016158Y-115491118D02*
X127397419Y-115491118D01*
X127397419Y-115491118D02*
X127992734Y-114895803D01*
X127992734Y-114895803D02*
X127992734Y-104775447D01*
X127992734Y-104775447D02*
X128588049Y-104180132D01*
X128588049Y-104180132D02*
X142875610Y-104180132D01*
X142875610Y-104180132D02*
X143470925Y-104775447D01*
X143470925Y-104775447D02*
X143470925Y-121444268D01*
X143470925Y-121444268D02*
X142577952Y-121444268D01*
X140822459Y-121444268D02*
X142577952Y-121444268D01*
X143470925Y-130969309D02*
X145256870Y-132785706D01*
X143470925Y-123230213D02*
X143470925Y-130969309D01*
X143470925Y-121444268D02*
X143470925Y-123230213D01*
X142577952Y-121444268D02*
X143470925Y-121444268D01*
X120491250Y-128428750D02*
X120391997Y-128428750D01*
X120391997Y-128428750D02*
X116900000Y-124936753D01*
X116900000Y-124936753D02*
X116900000Y-123336753D01*
X116900000Y-123336753D02*
X115006997Y-121443750D01*
X115006997Y-121443750D02*
X111590625Y-121443750D01*
X137000000Y-128200000D02*
X135800000Y-127000000D01*
X135800000Y-127000000D02*
X135800000Y-124200000D01*
X135800000Y-124200000D02*
X133022459Y-121444268D01*
X139400000Y-128200000D02*
X137000000Y-128200000D01*
X139400000Y-128200000D02*
X139479370Y-128279370D01*
X145256870Y-124985706D02*
X145256870Y-125016159D01*
X145256870Y-125016159D02*
X147042815Y-126802104D01*
X158591250Y-133708434D02*
X158591250Y-128428750D01*
X153591280Y-138708404D02*
X158591250Y-133708434D01*
X147638130Y-138708404D02*
X153591280Y-138708404D01*
X147042815Y-138113089D02*
X147638130Y-138708404D01*
X147042815Y-126802104D02*
X147042815Y-138113089D01*
X177641250Y-128428750D02*
X177641250Y-128230101D01*
X177641250Y-128230101D02*
X172641362Y-123230213D01*
X172641362Y-123230213D02*
X166360102Y-123230213D01*
X166360102Y-123230213D02*
X164306951Y-124985706D01*
X196691250Y-128428750D02*
X196691250Y-128230020D01*
X196691250Y-128230020D02*
X191691443Y-123230213D01*
X191691443Y-123230213D02*
X185410183Y-123230213D01*
X185410183Y-123230213D02*
X183357032Y-124985706D01*
X184547662Y-146149842D02*
X183357032Y-144959212D01*
X184547662Y-158056143D02*
X184547662Y-146149842D01*
X183654689Y-158949116D02*
X184547662Y-158056143D01*
X144959212Y-158949116D02*
X183654689Y-158949116D01*
X144066240Y-158056143D02*
X144959212Y-158949116D01*
X144066240Y-146149842D02*
X144066240Y-158056143D01*
X145256870Y-144959212D02*
X144066240Y-146149842D01*
X144066240Y-79049941D02*
X145788705Y-77327476D01*
X144066240Y-82748791D02*
X144066240Y-79049941D01*
X145788705Y-77327476D02*
X147161910Y-77327476D01*
X145256870Y-76795641D02*
X145788705Y-77327476D01*
X145256870Y-66972942D02*
X145256870Y-76795641D01*
X145852185Y-66377627D02*
X145256870Y-66972942D01*
X146384035Y-77327476D02*
X147161910Y-77327476D01*
X164306253Y-65483956D02*
X163711636Y-64889339D01*
X163711636Y-64889339D02*
X127992734Y-64889339D01*
X164306253Y-65484654D02*
X164306253Y-65483956D01*
X127397419Y-65484654D02*
X127397419Y-73819065D01*
X127992734Y-64889339D02*
X127397419Y-65484654D01*
X164306951Y-80962845D02*
X163116321Y-82153476D01*
X164306253Y-65484375D02*
X164306253Y-65484654D01*
X164306253Y-65484654D02*
X164306951Y-80962845D01*
X163116321Y-82153476D02*
X162401910Y-82407476D01*
X164901565Y-64889063D02*
X164306253Y-65484375D01*
X203300086Y-64889339D02*
X164901565Y-64889063D01*
X203894530Y-65484375D02*
X203300086Y-64889339D01*
X203895401Y-75009695D02*
X203894530Y-65484375D01*
X117400000Y-101200000D02*
X116400000Y-100200000D01*
X116400000Y-100200000D02*
X116400000Y-97700000D01*
X116400000Y-97700000D02*
X114002830Y-95286352D01*
X114002830Y-95286352D02*
X114002830Y-87927170D01*
X114002830Y-87927170D02*
X114141250Y-87788750D01*
X147161910Y-84947476D02*
X145141787Y-84947476D01*
X143768582Y-101798872D02*
X127695077Y-101798872D01*
X127695077Y-101798872D02*
X127099762Y-101203557D01*
X127099762Y-101203557D02*
X117400000Y-101200000D01*
X144661555Y-100905899D02*
X143768582Y-101798872D01*
X144661555Y-85427708D02*
X144661555Y-100905899D01*
X145141787Y-84947476D02*
X144661555Y-85427708D01*
X133191788Y-144939390D02*
X134660610Y-144939390D01*
X133191250Y-132791250D02*
X133191250Y-125888750D01*
X135600000Y-135200000D02*
X133191250Y-132791250D01*
X135600000Y-138400000D02*
X135600000Y-135200000D01*
X135000000Y-139000000D02*
X135600000Y-138400000D01*
X132200000Y-139000000D02*
X135000000Y-139000000D01*
X131600000Y-139600000D02*
X132200000Y-139000000D01*
X131600000Y-141400000D02*
X131600000Y-139600000D01*
X132200000Y-142000000D02*
X131600000Y-141400000D01*
X134600000Y-142000000D02*
X132200000Y-142000000D01*
X135200000Y-142600000D02*
X134600000Y-142000000D01*
X135200000Y-144400000D02*
X135200000Y-142600000D01*
X134660610Y-144939390D02*
X135200000Y-144400000D01*
X173400000Y-144200000D02*
X172800000Y-144800000D01*
X173400000Y-141400000D02*
X173400000Y-144200000D01*
X172800000Y-144800000D02*
X171291992Y-144939390D01*
X169069471Y-102394187D02*
X173200000Y-102400000D01*
X173641361Y-102691844D02*
X173641362Y-102691844D01*
X173200000Y-102400000D02*
X173641361Y-102691844D01*
X146149219Y-102393748D02*
X169069471Y-102394187D01*
X145256250Y-101500779D02*
X146149219Y-102393748D01*
X145256250Y-93464068D02*
X145256250Y-101500779D01*
X146153188Y-92567130D02*
X145256250Y-93464068D01*
X147161910Y-92567476D02*
X146153188Y-92567130D01*
X147161910Y-95107476D02*
X147092524Y-95107476D01*
X147092524Y-95107476D02*
X145800000Y-96400000D01*
X192200000Y-101800000D02*
X192600000Y-102200000D01*
X146800000Y-101800000D02*
X192200000Y-101800000D01*
X145800000Y-100800000D02*
X146800000Y-101800000D01*
X145800000Y-96400000D02*
X145800000Y-100800000D01*
X190342073Y-144939390D02*
X190342073Y-144942073D01*
X190342073Y-144942073D02*
X192400000Y-147000000D01*
X192400000Y-147000000D02*
X194200000Y-147000000D01*
X194200000Y-147000000D02*
X194800000Y-146400000D01*
X194800000Y-146400000D02*
X194800000Y-145600000D01*
X194800000Y-145600000D02*
X193400000Y-144200000D01*
X193400000Y-144200000D02*
X193400000Y-142600000D01*
X193400000Y-142600000D02*
X194000000Y-142000000D01*
X194000000Y-142000000D02*
X196400000Y-142000000D01*
X196400000Y-142000000D02*
X197000000Y-141400000D01*
X197000000Y-141400000D02*
X197000000Y-139600000D01*
X197000000Y-139600000D02*
X196400000Y-139000000D01*
X196400000Y-139000000D02*
X193400000Y-139000000D01*
X193400000Y-139000000D02*
X192800000Y-138400000D01*
X192800000Y-138400000D02*
X192800000Y-135800000D01*
X192800000Y-135800000D02*
X190341250Y-133341250D01*
X190341250Y-133341250D02*
X190341250Y-125888750D01*
X147161910Y-95107476D02*
X147161910Y-95131311D01*
X147161910Y-95107476D02*
X147161910Y-95131289D01*
X126250723Y-65567969D02*
X126257754Y-65575000D01*
X113600000Y-65600000D02*
X126250723Y-65567969D01*
X215741250Y-71278750D02*
X215741250Y-76824375D01*
X215741250Y-76824375D02*
X209221875Y-83343750D01*
X209222784Y-121444268D02*
X209222784Y-121612627D01*
X209222784Y-121612627D02*
X215741250Y-128428750D01*
X209848551Y-121444268D02*
X209222784Y-121444268D01*
X147161910Y-97647476D02*
X147161910Y-100429680D01*
X192700000Y-101200000D02*
X193600000Y-102100000D01*
X193600000Y-102100000D02*
X200621168Y-102096529D01*
X147935787Y-101203557D02*
X192677388Y-101203557D01*
X192677388Y-101203557D02*
X192700000Y-101200000D01*
X147161910Y-100429680D02*
X147935787Y-101203557D01*
X110995803Y-140494349D02*
X110995803Y-140375973D01*
X110995803Y-140375973D02*
X112216885Y-139303719D01*
X116979405Y-143967047D02*
X120491748Y-147479390D01*
X116979405Y-140792007D02*
X116979405Y-143967047D01*
X115491117Y-139303719D02*
X116979405Y-140792007D01*
X112216885Y-139303719D02*
X115491117Y-139303719D01*
X194000000Y-140600000D02*
X195188134Y-140600000D01*
X195188134Y-140600000D02*
X195293785Y-140494349D01*
X185142977Y-139303719D02*
X185142977Y-158056143D01*
X185142977Y-158056143D02*
X186035950Y-158949116D01*
X218778277Y-140494349D02*
X217320442Y-140494349D01*
X219075935Y-158949116D02*
X186035950Y-158949116D01*
X219671250Y-158353801D02*
X219075935Y-158949116D01*
X219671250Y-141387322D02*
X219671250Y-158353801D01*
X218778277Y-140494349D02*
X219671250Y-141387322D01*
X143470925Y-140494349D02*
X143470925Y-158056143D01*
X143470925Y-158056143D02*
X142577952Y-158949116D01*
X109835625Y-158949116D02*
X108942652Y-158056143D01*
X108942652Y-158056143D02*
X108942652Y-139303720D01*
X108942652Y-139303720D02*
X109537967Y-138708405D01*
X109537967Y-138708405D02*
X116979405Y-138708404D01*
X116979405Y-138708404D02*
X118795803Y-140494349D01*
X142577952Y-158949116D02*
X109835625Y-158949116D01*
X177731992Y-140494349D02*
X177731992Y-139303719D01*
X177731992Y-139303719D02*
X177701539Y-139303719D01*
X158681910Y-140494349D02*
X158681910Y-139303719D01*
X158681910Y-139303719D02*
X158651458Y-139303719D01*
X194000000Y-140600000D02*
X192077388Y-138708404D01*
X192077388Y-138708404D02*
X185738292Y-138708404D01*
X185738292Y-138708404D02*
X185142977Y-139303719D01*
X185142977Y-139303719D02*
X177701539Y-139303719D01*
X143470925Y-140494349D02*
X141120117Y-140494349D01*
X177701539Y-139303719D02*
X162521006Y-139303719D01*
X162521006Y-139303719D02*
X158651458Y-139303719D01*
X158651458Y-139303719D02*
X144661555Y-139303719D01*
X144661555Y-139303719D02*
X143470925Y-140494349D01*
X139541788Y-147479390D02*
X139479390Y-147479390D01*
X139479390Y-147479390D02*
X135800000Y-143800000D01*
X135800000Y-143800000D02*
X135800000Y-141400000D01*
X135800000Y-141400000D02*
X134894349Y-140494349D01*
X134894349Y-140494349D02*
X133320117Y-140494349D01*
X133320117Y-140494349D02*
X133320117Y-140960020D01*
X139541829Y-147479390D02*
X139442637Y-147479390D01*
X139541829Y-147479390D02*
X138600000Y-146600000D01*
X138600000Y-146600000D02*
X131000000Y-146600000D01*
X131000000Y-146600000D02*
X130016829Y-147479390D01*
X150881910Y-140494349D02*
X151606869Y-140494349D01*
X151606869Y-140494349D02*
X152800000Y-140487480D01*
X152800000Y-140487480D02*
X154800000Y-142487480D01*
X154800000Y-142487480D02*
X154800000Y-143687480D01*
X154800000Y-143687480D02*
X158591910Y-147479390D01*
X158591910Y-147479390D02*
X158492718Y-147479390D01*
X169931992Y-140494349D02*
X173529649Y-140494349D01*
X174200000Y-144000000D02*
X177641992Y-147479390D01*
X174222622Y-141187322D02*
X174200000Y-144000000D01*
X173529649Y-140494349D02*
X174222622Y-141187322D01*
X169931992Y-140494349D02*
X170656951Y-140494349D01*
X192800000Y-140400000D02*
X192800000Y-145200000D01*
X188800000Y-139200000D02*
X191600000Y-139200000D01*
X191600000Y-139200000D02*
X192800000Y-140400000D01*
X187505651Y-140494349D02*
X188800000Y-139200000D01*
X192800000Y-145200000D02*
X193800000Y-146200000D01*
X187493785Y-140494349D02*
X187505651Y-140494349D01*
X187493785Y-140494349D02*
X187493785Y-140375973D01*
X209520442Y-140494349D02*
X210000000Y-140600000D01*
X210000000Y-140600000D02*
X212000000Y-142600000D01*
X212000000Y-142600000D02*
X212000000Y-143800000D01*
X212000000Y-143800000D02*
X215742114Y-147479390D01*
X215742114Y-147479390D02*
X214800000Y-146600000D01*
X214800000Y-146600000D02*
X207200000Y-146600000D01*
X207200000Y-146600000D02*
X206217114Y-147479390D01*
X202704771Y-65782312D02*
X202407113Y-65484654D01*
X202407113Y-65484654D02*
X166390554Y-65484654D01*
X166390554Y-65484654D02*
X165795239Y-66079969D01*
X165795239Y-66079969D02*
X165795239Y-68461230D01*
X161628033Y-65484654D02*
X161628033Y-65484655D01*
X128290391Y-67270600D02*
X128290391Y-66079969D01*
X128290391Y-66079969D02*
X128885706Y-65484654D01*
X128885706Y-65484654D02*
X161628033Y-65484654D01*
X181571087Y-94341036D02*
X183159375Y-95929324D01*
X181571087Y-85725366D02*
X181571087Y-94341036D01*
X180678115Y-84832393D02*
X181571087Y-85725366D01*
X172939019Y-84832393D02*
X180678115Y-84832393D01*
X161628033Y-65484655D02*
X163413978Y-67270600D01*
X153511910Y-155099390D02*
X154711910Y-156400000D01*
X154711910Y-156400000D02*
X154711910Y-157758486D01*
X154711910Y-157758486D02*
X154791280Y-157758486D01*
X145256870Y-155119212D02*
X145256870Y-156865514D01*
X173800000Y-157200000D02*
X173800000Y-156400000D01*
X173800000Y-156400000D02*
X172561992Y-155099390D01*
X173246047Y-157758486D02*
X173800000Y-157200000D01*
X146149842Y-157758486D02*
X154791280Y-157758486D01*
X154791280Y-157758486D02*
X173246047Y-157758486D01*
X145256870Y-156865514D02*
X146149842Y-157758486D01*
X185142977Y-102989502D02*
X200621168Y-102989502D01*
X200621168Y-102989502D02*
X201216483Y-103584817D01*
X201216483Y-103584817D02*
X219671250Y-103584817D01*
X166092897Y-103584817D02*
X184547662Y-103584817D01*
X165795239Y-103287159D02*
X166092897Y-103584817D01*
X184547662Y-103584817D02*
X185142977Y-102989502D01*
X116679405Y-157758486D02*
X116700000Y-156400000D01*
X116700000Y-156400000D02*
X117951748Y-155099390D01*
X143768582Y-102394187D02*
X122039583Y-102394187D01*
X165795238Y-103287159D02*
X165497581Y-102989502D01*
X165497581Y-102989502D02*
X144363897Y-102989502D01*
X144363897Y-102989502D02*
X143768582Y-102394187D01*
X165795239Y-103287159D02*
X165795238Y-103287159D01*
X120848953Y-103584817D02*
X108942652Y-103584817D01*
X122039583Y-102394187D02*
X120848953Y-103584817D01*
X165176089Y-87487476D02*
X165199924Y-87511311D01*
X162401910Y-87487476D02*
X165176089Y-87487476D01*
X203677114Y-155099390D02*
X202600000Y-156200000D01*
X202600000Y-156200000D02*
X202600000Y-157200000D01*
X202600000Y-157200000D02*
X203193059Y-157758486D01*
X203193059Y-157758486D02*
X210943058Y-157758486D01*
X210943058Y-157758486D02*
X212000000Y-156701544D01*
X212000000Y-156701544D02*
X212000000Y-156200000D01*
X212000000Y-156200000D02*
X213202154Y-155099390D01*
X126400000Y-156100000D02*
X127476788Y-155099390D01*
X116679405Y-157758486D02*
X125502104Y-157758486D01*
X125502104Y-157758486D02*
X126400000Y-156815174D01*
X126400000Y-156815174D02*
X126400000Y-156100000D01*
M02*
